<?xml version="1.0" encoding="UTF-8"?>
<svg id="Layer_2" xmlns="http://www.w3.org/2000/svg" viewBox="0 0 131.26 60.61">
  <defs>
    <style>
      .cls-1 {
        letter-spacing: -.05em;
      }

      .cls-2 {
        fill: #231f20;
      }

      .cls-3, .cls-4, .cls-5 {
        fill: #fff;
      }

      .cls-6 {
        letter-spacing: -.08em;
      }

      .cls-7 {
        letter-spacing: -.06em;
      }

      .cls-8 {
        letter-spacing: -.05em;
      }

      .cls-4 {
        font-family: MyriadConceptRoman-LightSemiExt, 'Myriad Variable Concept';
        font-size: 12.37px;
        font-variation-settings: 'wght' 300, 'wdth' 110;
        font-weight: 300;
      }

      .cls-9 {
        letter-spacing: -.12em;
      }

      .cls-5 {
        font-family: NordheadTypefaceRegular, 'Nordhead Typeface';
        font-size: 45.23px;
      }
    </style>
  </defs>
  <g id="Layer_1-2" data-name="Layer_1">
    <g>
      <rect class="cls-2" width="131.26" height="60.61" rx="15" ry="15"/>
      <text class="cls-4" transform="translate(34.62 52.64)"><tspan class="cls-6" x="0" y="0">abogop</tspan><tspan class="cls-9" x="37.36" y="0">r</tspan><tspan class="cls-6" x="39.82" y="0">.com</tspan></text>
      <path class="cls-3" d="M127.54,25.36c0,8.91-7.22,16.13-16.13,16.13s-16.13-7.22-16.13-16.13,7.22-16.13,16.13-16.13,16.13,7.22,16.13,16.13ZM111.42,14.42c-6.04,0-10.94,4.9-10.94,10.94,0,3.58,1.72,6.76,4.38,8.75-.48,1.09-1.23,2.16-2.39,3.1,0,0,3.04.36,6.47-1.2.8.18,1.63.29,2.48.29,6.04,0,10.93-4.9,10.93-10.94s-4.9-10.94-10.93-10.94Z"/>
      <path class="cls-3" d="M105.09,22.2c.06-.17.24-.25.4-.2l.07.02c.49.17,1.32.46,2.74-.56.63-.45,1.64-.99,2.9-1.06l.08-.92c0-.1.09-.19.17-.19s.16.09.17.19l.08.92c1.26.07,2.27.6,2.9,1.06,1.42,1.02,2.25.73,2.74.56l.07-.02c.17-.06.35.03.4.2.06.17-.03.35-.2.4l-.06.02c-.25.09-.62.22-1.13.2l1.27,2.15c.05.08.02.18-.06.23-.08.05-.18.02-.23-.06l-1.34-2.26-1.34,2.26c-.03.05-.09.08-.14.08-.03,0-.06,0-.08-.02-.08-.05-.1-.15-.06-.23l1.32-2.24c-.44-.11-.96-.34-1.54-.76-.55-.39-1.4-.85-2.47-.93l.65,9.48h-2.27l.99-9.48c-1.07.08-1.92.54-2.47.93-.58.42-1.1.64-1.54.76l1.32,2.24c.05.08.02.18-.06.23-.08.05-.18.02-.23-.06l-1.34-2.26-1.34,2.26c-.03.05-.09.08-.14.08-.03,0-.06,0-.08-.02-.08-.05-.1-.15-.06-.23l1.27-2.15s-.04,0-.07,0c-.47,0-.82-.12-1.06-.21l-.06-.02c-.17-.06-.25-.24-.2-.4ZM114.01,30.85h-5.11c-.35,0-.63.28-.63.63v.56h6.38v-.56c0-.35-.28-.63-.63-.63ZM109.35,25.23h-5.05c.48.91,1.43,1.52,2.52,1.52s2.05-.62,2.52-1.52ZM113.56,25.23c.48.91,1.43,1.52,2.52,1.52s2.05-.62,2.52-1.52h-5.05Z"/>
      <text class="cls-5" transform="translate(6.93 41.09)"><tspan class="cls-1" x="0" y="0">A</tspan><tspan class="cls-7" x="21.17" y="0">b</tspan><tspan class="cls-8" x="43.91" y="0">oG</tspan></text>
    </g>
  </g>
</svg>