<?xml version="1.0" encoding="UTF-8"?>
<svg id="Layer_2" data-name="Layer 2" xmlns="http://www.w3.org/2000/svg" viewBox="0 0 95.59 44.76">
  <defs>
    <style>
      .cls-1 {
        fill: #231f20;
      }
    </style>
  </defs>
  <g id="Layer_1-2" data-name="Layer 1">
    <g>
      <path class="cls-1" d="M55.73,10.64c.81-.12,1.6.25,2.04.94,1.54,2.38,2.3,5.14,3.29,7.77.72,1.67,1.27,3.41,2.02,5.07.33.76.71,1.5.98,2.29.4,1.14.93,2.24,1.13,3.44.16.8-.26,1.75-1.08,2-.62.1-1.24.36-1.87.21-.4-.09-.85-.18-1.2.1-.34.26-.75.31-1.15.19-.35-.53-.92-.95-1.03-1.61-.16-.92-.35-1.85-.74-2.7-.11-.29-.41-.54-.73-.52-.91-.05-1.72.41-2.57.65-.33.12-.8.19-.89.6-.46,1.44-.65,3.06-1.72,4.21-.43.48-1.17.37-1.67.08-.38-.2-.77-.57-1.23-.41-.52.2-1.08.5-1.64.26-.66-.13-.84-.88-1-1.43-.2-2,.53-3.91,1-5.82.74-3.16,2.04-6.15,3.28-9.14.82-1.83,1.62-3.77,3.12-5.16.46-.44,1.04-.72,1.67-.83,0-.05,0-.15,0-.19ZM55.32,20.56c-.33,1.28-.79,2.57-.67,3.91.76-.03,1.5-.25,2.12-.68-.36-1.13-.77-2.25-1.46-3.23Z"/>
      <path class="cls-1" d="M76.82,10.37c.31-.55.67-1.23,1.36-1.34.61-.1,1.17.37,1.36.93.36,1.02.45,2.1.65,3.16.14.89.33,1.77.39,2.67.05,1.21.35,2.4.38,3.61,0,.7.16,1.39.15,2.1-.02.91.24,1.8.32,2.7.21,1.36.21,2.75.47,4.1.19,1.27.43,2.69-.28,3.86-.22.3-.55.71-.97.55-1.01-.53-2.11-.93-3-1.65-.55-.65-.68-1.54-.8-2.36-.31-1.51-.21-3.07-.39-4.6-.04-.24-.14-.47-.22-.69-.68.44-.59,1.36-.45,2.05.18.5-.11,1-.31,1.45-.13.31-.48.56-.82.47-.84-.22-1.46-.87-2.09-1.43-.78-.68-1.49-1.43-2.07-2.28-.59-.81-1.1-1.72-1.96-2.28-.06,1.09.05,2.19-.12,3.28-.27,2.18-.24,4.43-.93,6.54-.19.7-1,.8-1.6.9-.4.12-.68-.25-.88-.53-.44-.68-.78-1.41-.98-2.19-.32-1.21-.61-2.42-.72-3.67-.06-2.19.02-4.4.56-6.53.4-1.92,1.1-3.77,1.33-5.73.13-.97.11-1.98.54-2.88.19-.46.57-.8.94-1.12.86-.02,1.73.39,2.24,1.09.65.7,1.01,1.61,1.44,2.45.44.93,1.08,1.74,1.62,2.6.69,1.08,1.24,2.23,1.94,3.3,1.26-2.74,1.59-5.81,2.93-8.52Z"/>
      <path class="cls-1" d="M93.07,9.11c.68-.11,1.55-.32,2.03.35.11.8-.03,1.62.09,2.42.05.49.24.94.36,1.41.18.56-.26,1.1-.68,1.42-1.76,1.03-3.9,1.32-5.9,1.05-.77-.09-1.48-.41-2.24-.54.1.63.34,1.26.3,1.91-.06.37-.27.7-.4,1.05,1.27-.34,2.59-.35,3.87-.67.83-.07,1.71.32,2.21.99.46.71.07,1.6.38,2.35.15.47.42,1.04.06,1.49-.7.82-1.77,1.18-2.8,1.37-.89.26-1.81.38-2.73.43-.18,1.05.26,2.07.38,3.11.15,1.16.22,2.5-.54,3.48-.55.83-1.54,1.17-2.43,1.5-.45.16-1.04.26-1.38-.15-.39-.55-.26-1.27-.26-1.9.09-1.1.11-2.21,0-3.31-.06-2,.07-4-.09-5.99-.06-2.16-.5-4.29-.52-6.46.02-1.07-.19-2.25.5-3.17.29-.48.9-.46,1.39-.48.38-.01.63-.31.92-.52.4-.33.94-.38,1.42-.5,2-.4,4.03-.64,6.07-.61Z"/>
      <g>
        <path class="cls-1" d="M24.2,0h.02c.1.03.2.08.3.08.31.01.55.23.83.33.18.05.32.19.5.25.15.14.34.23.5.36.2.13.36.31.55.45,0,.02.02.05.03.07.06.05.12.1.19.15,0,.03.01.08.02.1.18.2.26.46.42.66.16.18.15.43.22.65.14-.16.25-.35.45-.44.23-.11.46-.25.71-.31.32-.09.62-.22.95-.27.16-.02.33,0,.49-.02.34-.06.69-.08,1.04-.07.33.05.66.05.98.07.33.05.65.14.97.21.48.14.93.37,1.36.63.23.09.41.25.61.37.46.29.78.74,1.19,1.07.18.14.3.34.46.5.11.11.19.26.28.39.23.3.36.67.58.98.21.4.39.82.64,1.2.2.37.43.72.59,1.11.07.17.2.3.31.44.47.67.9,1.37,1.41,2.02.29.34.62.64.95.94.1.15.25.25.38.36.17.21.4.34.58.53.19.21.42.38.6.6.39.42.75.87,1.09,1.34.1.16.27.26.36.43.13.24.27.48.37.74.1.28.28.53.31.83.06.61.06,1.22.11,1.83v.45c-.08.32-.19.63-.32.93-.09.29-.22.55-.38.81-.09.21-.28.37-.39.57-.15.27-.38.49-.58.73-.35.4-.76.74-1.18,1.05-.24.13-.42.33-.66.45-.36.17-.66.44-1.03.58-.27.1-.49.29-.76.39-.2.08-.37.21-.58.29-.45.2-.92.38-1.39.52.27.2.53.41.77.66.28.29.58.55.84.85.08.09.21.14.25.26.33.26.53.64.85.91.19.17.32.4.49.58.1.1.18.22.24.34.11.22.27.42.38.64.09.15.21.29.24.47.17.4.32.82.44,1.24.17.44.17.92.19,1.39-.02.49-.05.99-.09,1.48-.01.48-.16.93-.25,1.39-.1.47-.31.91-.49,1.36-.13.38-.34.73-.53,1.08-.16.31-.42.57-.64.84-.37.43-.78.82-1.19,1.21-.47.39-.95.77-1.45,1.11-.32.23-.64.48-.92.76-.29.25-.56.51-.83.77-.26.19-.54.37-.79.57-.2.17-.43.29-.64.43-.25.17-.54.26-.82.38-.42.2-.87.32-1.32.44-.18.04-.36.05-.55.08-.47.09-.95.12-1.43.16h-.36c-.29-.04-.58-.01-.87-.08-.2-.05-.41-.04-.61-.12-.41-.13-.84-.21-1.23-.37-.21-.08-.44-.09-.63-.19-.45-.24-.94-.4-1.38-.67-.25-.16-.52-.31-.79-.45-.44-.25-.86-.55-1.22-.92-.16-.18-.35-.31-.5-.48-.19-.17-.32-.38-.47-.58-.08-.23-.24-.41-.34-.63-.12-.25-.31-.46-.43-.71-.05-.12-.1-.24-.14-.36-.08-.21-.1-.43-.21-.63-.12.66-.37,1.29-.67,1.89-.17.27-.34.55-.49.83-.1.19-.27.32-.41.48-.18.2-.32.43-.52.59-.33.26-.63.58-1.02.75-.24.11-.42.31-.65.42-.4.2-.81.4-1.26.48-.55.14-1.13.11-1.69.1-.69-.06-1.39-.11-2.07-.27-.41-.08-.78-.26-1.17-.4-.43-.19-.86-.36-1.26-.6-.33-.21-.7-.31-1.03-.52-.53-.25-1-.59-1.47-.93-.33-.29-.64-.59-.96-.89l-.02.07s-.07-.06-.1-.1c.02,0,.06,0,.09,0-.15-.17-.3-.34-.47-.49-.29-.29-.56-.6-.82-.92-.24-.32-.52-.62-.7-.99-.06-.11-.12-.21-.18-.32-.37-.85-.73-1.71-.94-2.61-.1-.56-.13-1.12-.12-1.69.04-.28.1-.56.15-.84.14-.39.22-.8.4-1.18,0-.02,0-.07-.01-.1.05-.07.1-.15.11-.24.05-.22.17-.42.3-.61-.39.12-.79.24-1.2.26-.14,0-.27.07-.41.08-.19-.02-.37-.08-.55-.11-.22-.03-.4-.16-.6-.22-.46-.14-.9-.37-1.24-.71-.22-.22-.35-.51-.47-.79-.2-.46-.17-.97-.2-1.45-.03-.31-.07-.62-.05-.93.04-.23.08-.46.12-.69.03-.19.13-.35.17-.54.05-.22.14-.44.28-.62.2-.26.32-.57.56-.8.13-.15.23-.32.37-.45.12-.11.19-.3.37-.34.37-.31.77-.61,1.22-.79-.33-.01-.67,0-.97-.14-.02.01-.05.03-.06.05-.07-.05-.13-.11-.2-.14-.48-.15-.92-.44-1.24-.83-.16-.14-.24-.32-.31-.51-.14-.24-.21-.51-.28-.77-.09-.41-.15-.84-.06-1.26.02-.28.17-.52.3-.75.11-.17.23-.34.38-.48.37-.28.76-.53,1.19-.71.15-.07.32-.05.48-.11.34-.12.7-.19,1.06-.21-.02-.1-.04-.2-.08-.3-.24-.45-.39-.94-.47-1.44,0-.2-.08-.38-.05-.58.02-.26-.01-.52,0-.78.03-.26,0-.52.02-.78.04-.25.14-.49.25-.71.08-.38.2-.76.38-1.1.16-.36.31-.73.57-1.04.29-.32.48-.72.82-1,.36-.31.77-.57,1.2-.79.4-.15.8-.26,1.22-.33.19-.02.36-.11.56-.13.29-.05.56.08.84.12.16.02.31.09.46.12.26.06.48.21.73.29-.21-.38-.37-.78-.46-1.2-.1-.4-.1-.82.05-1.21.09-.22.09-.46.19-.67.06-.14.1-.3.2-.43.19-.23.4-.46.59-.69.3-.27.68-.41,1.04-.56.14-.07.31,0,.46-.08.26-.12.53-.2.81-.25.43-.13.88-.16,1.33-.23.26.06.53.05.79.04.17-.01.32.06.48.08.17.02.34.02.51.07.11.03.21.09.32.05.03.03.04.08.09.09.21.07.42.14.63.2.31.09.59.23.9.32.53.15,1.05.38,1.49.71.12-.55.3-1.08.55-1.59.12-.2.24-.39.38-.57.29-.33.63-.6.93-.92.55-.48,1.19-.85,1.87-1.1.39-.06.78-.07,1.17-.1,0,0,0-.01,0-.02ZM21.3,6.01c-.11.11-.11.28-.17.42-.1.17-.32.17-.5.17-.36-.03-.69.31-.7.66.06.22.19.42.26.64,0,.11-.04.21-.11.29-.13-.03-.26-.1-.4-.06-.21.06-.42.2-.65.13-.2-.04-.28-.26-.46-.33-.1-.03-.11.09-.09.15.11.22.21.43.29.66.09.48-.13.96-.05,1.45.01.23.22.38.4.48.28.15.63,0,.91.15.27.15.55.38.59.71.08.39.06.8-.09,1.17-.08.26-.23.53-.18.81.08.29.34.5.43.79.01.2-.09.4-.27.5-.14-.04-.24-.15-.31-.27-.16-.24-.19-.55-.41-.75-.14-.14-.4-.22-.54-.05-.1.1-.13.31-.3.32-.36-.07-.68-.38-.74-.74-.12-.56-.05-1.17-.31-1.71-.1-.22-.35-.34-.59-.34-.24.02-.44.18-.66.28-.17.08-.39.05-.49-.11-.19-.21-.11-.51-.11-.76.03-.36-.03-.75-.29-1.02-.13-.16-.35-.22-.53-.3-.15-.07-.31-.11-.46-.2-.18-.13-.3-.36-.24-.58.06-.28.05-.58-.12-.83-.09-.16-.29-.21-.46-.19-.22.01-.4-.15-.51-.32-.11-.18-.09-.4-.09-.6-.23.15-.34.42-.4.67-.08.42.12.86.43,1.14.16.18.41.38.34.66-.03.28-.2.59-.04.86.12.23.45.24.56.48.05.09.04.19.04.29-.16.07-.34.11-.51.04-.21-.08-.36-.25-.51-.4-.07.27,0,.6.21.8.2.2.53.14.73.35.07.35-.03.75.16,1.08.18.22.51.27.78.19.44-.13.89-.34,1.36-.27.27.04.44.3.52.55.09.32.13.66.19.98.05.25.25.45.48.54.18.08.41.13.52.31.05.1.06.25-.02.34-.16.05-.35.04-.51-.03-.31-.13-.66-.17-.99-.09-.22.08-.38.33-.32.57.04.19.11.41-.02.57-.16.19-.44.12-.66.15-.19.02-.36-.08-.48-.2-.25-.24-.52-.45-.82-.63-.35-.23-.36-.71-.62-1.02-.11-.17-.31-.21-.47-.32.1-.33.06-.78-.27-.96-.21-.16-.53-.11-.69-.34-.14-.16-.11-.39-.1-.6.03-.29-.01-.61-.18-.86-.14-.14-.35-.2-.54-.25-.24-.08-.38-.31-.46-.54-.07-.18-.05-.37-.11-.55-.41.23-.63.7-.6,1.16.01.25.17.48.39.6.18.1.42.13.52.34.1.26.04.56-.03.82-.05.02-.07-.05-.1-.07-.14-.2-.39-.25-.58-.37-.35-.19-.78-.15-1.14,0-.21.08-.45.2-.67.1-.36-.14-.39-.63-.75-.78-.33-.17-.71-.05-1.04.06-.1,0-.15.17-.02.18.25.02.46.21.58.43.24.39.2.89.44,1.28.2.28.51.49.85.54.48.07.99,0,1.45.18.39.17.67.51.93.84.17.21.27.46.45.66.22.27.51.5.86.57.26.03.53.02.78.09.24.06.44.2.63.36.18.18.37.38.42.65-.09.08-.23.14-.33.05-.22-.18-.5-.26-.77-.29-.28,0-.49.2-.72.34-.22.13-.44.37-.72.27-.27-.11-.46-.36-.7-.53-.24-.2-.54-.39-.87-.33-.36.05-.6.36-.91.53-.21.12-.48.07-.66-.08-.28-.25-.47-.58-.66-.9-.13-.23-.3-.44-.51-.6-.09-.06-.2-.12-.32-.11-.22.05-.41.18-.61.26-.21.04-.44.02-.65-.06-.23-.08-.42-.25-.63-.38.08.15.12.32.24.44.16.17.31.35.52.46.29.16.6.29.83.53.38.41.4,1.03.82,1.41.51.44,1.23.55,1.87.4.44.02.9.17,1.22.47.21.24.44.5.77.57.32.09.64-.07.94-.16.19-.06.38-.19.59-.12.16.05.25.23.19.39-.16.52-.66.97-1.23.91-.36-.01-.67-.27-1.04-.25-.31.04-.62.2-.8.46-.1.11-.17.27-.32.32-.31-.03-.61-.23-.93-.15-.2.06-.39.13-.56.25-.22.15-.35.4-.58.54-.14.09-.35.17-.35.37.16,0,.32-.07.46-.13.4-.17.85-.32,1.28-.21.31.08.5.38.79.49.16.06.34.03.51.02-.12.49-.53.83-.7,1.29-.07.16-.06.35.01.51.15.28.52.4.61.72.06.23-.09.42-.18.62-.18.42-.26.92-.07,1.35.14.28.38.47.61.66.09.08.21.1.32.07-.1-.18-.23-.36-.26-.56-.02-.32.25-.54.42-.78.3-.36.47-.86.32-1.32-.11-.31-.23-.62-.21-.95.02-.27.22-.48.37-.69.16-.23.38-.44.43-.74.07-.32,0-.64-.07-.94.41.04.65.42.99.61.19.08.42.09.61.01.3-.11.43-.45.71-.61.08-.04.16-.03.25-.04-.03.38-.29.7-.55.97-.29.33-.6.68-.73,1.11-.07.25-.04.54.12.76.13.16.23.35.28.56.03.13,0,.27-.1.36-.24.23-.54.4-.82.58-.32.29-.6.64-.78,1.04-.19.48-.27,1.01-.18,1.52.05.28.09.58.28.8.17.17.37.29.59.39.15.06.25.21.27.37.05.31-.04.64.07.94.06.15.2.24.35.3-.01-.21-.11-.44,0-.64.24-.45.67-.79.77-1.3.1-.35-.02-.71-.19-1.01-.2-.35-.31-.79-.15-1.17.09-.27.3-.48.55-.6.35-.15.68-.33,1.01-.52.28-.17.4-.5.45-.81.06-.38-.1-.74-.09-1.12,0-.24-.03-.5.08-.72.09-.22.31-.33.5-.43.14-.06.27-.16.42-.16.18.03.21.25.26.39.14.49-.04,1-.27,1.44-.19.45-.5.87-.55,1.37-.05.32.03.64.19.92.16.23.31.5.27.79-.03.22-.09.45-.2.65-.08.15-.19.27-.27.42-.17.27-.26.59-.26.9,0,.4.31.75.68.87.21.07.46.06.62.24.12.14.3.29.24.5-.13.41-.36.83-.29,1.27.04.32.33.52.59.65.06.04.13.02.2.02-.05-.15-.13-.29-.15-.45-.04-.25.04-.51.2-.71h.05c.08.18.14.38.31.49.13.09.3.09.45.13.16.07.23.25.26.41.05.26-.05.54.08.78.11.2.35.28.56.32.14.02.29.09.42.02-.19-.22-.44-.42-.53-.71-.1-.34.11-.66.17-.98.06-.28.12-.6-.06-.85-.17-.23-.41-.39-.61-.59-.08-.09-.07-.23,0-.32.14-.2.38-.3.49-.51.11-.19.09-.43.02-.64-.05-.16-.18-.3-.34-.34-.25-.07-.5-.04-.75-.07-.2-.03-.42-.19-.39-.41.02-.24.12-.49.32-.63.26-.16.56-.29.8-.48.17-.23.22-.55.13-.83-.09-.29-.17-.58-.32-.85-.15-.26-.1-.57-.05-.85.04-.24.23-.41.41-.54.14-.08.33-.18.49-.07.38.25.58.71.58,1.16,0,.17-.07.33-.11.49-.09.47-.05,1,.22,1.41.15.2.35.36.48.58.16.23.24.51.25.78,0,.28-.11.56-.29.78-.28.37-.59.74-.7,1.2-.09.34-.08.73.11,1.04.24.28.61.43.97.45.15.01.31-.02.44.08.28.19.3.58.58.77.22.19.56.26.83.13-.15-.15-.23-.39-.15-.6.12-.3.25-.61.38-.91.07-.16.12-.33.07-.5-.09-.33-.19-.65-.31-.97-.09-.23-.05-.51.11-.71.19-.23.38-.52.34-.83-.07-.27-.18-.53-.35-.75-.15-.2-.21-.43-.29-.66-.05-.1,0-.22.02-.32.1-.28.37-.46.65-.53.34-.05.73.04.95.31.12.14.08.34.14.51.07.16.11.34.26.44.23.16.53.24.8.15.25-.1.5-.19.77-.21.32-.01.63.13.87.35.34.34.46.86.36,1.32-.03.18-.15.34-.32.41-.2.1-.42.03-.63.03-.28-.01-.56-.11-.83-.03-.42.11-.69.5-.84.88-.14.3-.07.67-.29.94-.16.24-.47.3-.67.49-.22.19-.3.53-.19.8.05.12.1.26.22.34.02-.16.04-.33.16-.46.1-.11.18-.28.35-.28.37-.03.7.17,1.06.16-.08.21-.16.45-.06.67.1.3.46.4.57.7.04.1.01.21-.04.3-.12.23-.24.47-.27.73-.02.27.05.56.25.76.09.1.22.2.36.15-.07-.09-.21-.12-.21-.25,0-.23.09-.46.23-.65.13-.19.38-.26.49-.47.13-.23.27-.5.19-.78-.06-.25-.25-.43-.4-.63-.07-.18-.04-.39.09-.53.18-.22.47-.29.69-.46.2-.19.21-.48.2-.74.13.06.25.15.38.2.22.09.47.09.7.03.35-.13.71-.34.86-.7.13-.31.06-.66.1-.98.09-.31.35-.55.36-.88.04-.42-.24-.77-.51-1.05-.29-.29-.53-.68-.46-1.11.03-.35.41-.62.74-.49.14.1.27.22.4.34.22.2.35.47.56.68.2.21.44.43.75.42.29-.03.58-.08.88-.09.23-.02.42.16.55.33.13.2.22.44.15.68-.08.31-.36.49-.59.68-.29.23-.48.59-.49.97-.02.32.12.62.29.88.14.27.22.6.09.88-.19.43-.63.75-1.11.74-.6.01-1.2,0-1.79.1-.23.04-.47.15-.6.36-.15.25-.24.54-.25.83-.02.27.11.52.19.78.01.06.06.09.11.12.13-.05.1-.22.16-.33.07-.28.36-.42.62-.47.62-.11,1.16.41,1.78.26.4-.1.73-.41.91-.78.09-.18.13-.4.3-.52.17-.15.41-.14.62-.11.25.05.5.05.75,0,.39-.1.68-.46.72-.86.04-.22-.09-.43-.07-.65.02-.25.06-.53.27-.69.11-.11.28-.12.43-.15.36-.06.66-.32.8-.65.14-.36.11-.75.05-1.12-.16-.24-.38-.43-.63-.56-.13-.08-.28-.15-.35-.3-.03-.11-.03-.23-.01-.34.03-.21.21-.37.22-.59.05-.45-.2-.9-.58-1.14-.37-.23-.77-.39-1.17-.56-.32-.17-.66-.47-.62-.86,0-.25.08-.51-.04-.74-.15-.21-.37-.35-.58-.49-.09-.06-.19-.12-.23-.22-.05-.1.02-.21.07-.3.14-.17.35-.27.57-.28.23,0,.44.11.66.15.31.08.62.1.94.08-.02.25-.07.51.03.74.07.19.21.39.43.43.12.02.22-.07.33-.08.1,0,.14.11.16.19.04.21-.07.42-.02.64.07.38.56.61.89.42-.17-.16-.37-.37-.31-.64.03-.29.33-.46.36-.75.03-.19-.03-.38-.15-.52-.13-.19-.37-.26-.55-.39-.01-.22.1-.43.25-.58.13-.13.25-.29.26-.48.02-.27-.16-.49-.3-.7.16-.13.38-.22.59-.18.29.07.49.32.74.47.34.18.81.05,1-.29.18-.33.23-.74.52-1,.18-.19.43-.27.66-.38-.35-.31-.97-.2-1.21.2-.15.25-.52.37-.78.21-.2-.16-.35-.38-.46-.61-.1-.22-.25-.44-.49-.51-.34-.13-.72,0-1,.2-.24.2-.25.55-.46.78-.19.2-.45.37-.74.35-.19-.03-.37-.15-.46-.32-.05-.14-.05-.32.04-.44.18-.24.41-.45.59-.69.16-.21.25-.48.2-.74-.05-.32-.04-.7.21-.94.17-.2.45-.23.69-.25.39-.04.76.15,1.14.13.18,0,.3-.17.36-.33.1-.28.22-.58.49-.74.23-.15.52-.1.78-.06-.09-.43-.36-.84-.76-1.04-.25-.15-.57-.2-.83-.06-.22.15-.38.37-.58.54-.15.12-.37.16-.53.05-.32-.21-.51-.61-.9-.71-.26-.04-.57.04-.71.28-.12.17-.09.4-.16.59-.15.41-.67.64-1.07.47-.26-.11-.36-.43-.31-.69.07-.28.15-.58.37-.79.19-.2.48-.28.66-.49.11-.12.24-.28.19-.46-.07-.2-.32-.29-.35-.51,0-.22.13-.44.32-.56.22-.11.46-.19.69-.3.44-.24.59-.85.39-1.29-.15-.22-.46-.13-.69-.21-.12-.42.38-.69.3-1.1-.03-.18-.16-.32-.29-.45-.16-.16-.39-.23-.6-.31-.08-.03-.17-.06-.25-.07.06.17.21.3.23.49.04.22-.1.43-.28.55-.22.17-.54.16-.74.38-.24.22-.33.6-.18.9.1.21.27.38.37.59.12.26-.06.53-.26.68-.23.18-.53.12-.8.13-.27,0-.54.09-.76.25-.28.27-.14.72-.37,1.02-.09.12-.26.09-.38.03-.16-.13-.15-.35-.11-.53.06-.18.25-.27.42-.3.22-.04.42-.23.44-.46.04-.29-.2-.53-.14-.82.04-.18.22-.26.28-.42.05-.11.1-.23.05-.34-.2.08-.42.14-.62.23-.22.13-.21.43-.27.65-.01.09-.09.13-.15.17-.21-.06-.42-.26-.65-.16-.17.05-.24.23-.36.35-.14.06-.29-.02-.38-.12-.16-.17-.16-.43-.12-.64.06-.25.26-.41.44-.58.14-.11.29-.24.33-.42.05-.24-.03-.53-.23-.68-.16-.13-.32-.29-.35-.5-.05-.23.06-.45.2-.63-.15-.03-.3-.08-.45-.04-.22.03-.43.18-.53.38-.11.26-.04.55.03.81.04.13,0,.3-.12.36-.19.07-.39.03-.58,0-.21,0-.44.03-.6.18-.14.12-.21.32-.15.5.04.15.12.3.07.46-.08.08-.21.1-.31.12-.29-.02-.5-.29-.56-.56-.04-.32.09-.63.1-.95,0-.24.06-.48,0-.72-.06-.2-.3-.19-.47-.24-.25-.1-.33-.38-.42-.6-.05-.2-.16-.38-.3-.53-.14-.14-.34-.18-.53-.19-.19,0-.36-.11-.47-.26-.2-.26-.14-.6-.23-.9-.12.32-.23.63-.33.96-.09.31-.03.68.18.93.21.29.59.48.68.85.09.36-.15.68-.17,1.02.02.32.17.63.41.84.15.13.37.23.42.44.05.19.1.42-.02.58-.13.12-.33.06-.48.04-.19-.03-.42-.16-.6,0-.17.17-.27.39-.32.62-.04.19-.15.35-.24.51-.06.13-.31.1-.29-.06,0-.29.04-.58.07-.86.01-.2-.05-.45-.26-.53-.15-.07-.31.05-.47,0-.17-.08-.23-.29-.26-.46,0-.43.18-.85.13-1.28-.02-.25-.1-.5-.28-.68-.11-.12-.27-.19-.41-.27,0-.15.13-.29.08-.45-.03-.26-.27-.39-.4-.6-.11-.42,0-.9.32-1.2.15-.11.37-.22.36-.44.02-.31-.31-.49-.33-.79,0-.22.1-.42.17-.63-.15-.03-.29.07-.39.17Z"/>
        <path class="cls-1" d="M20.56,7.83c0-.26.06-.54.24-.73.11.31.1.68-.09.96-.09-.04-.17-.13-.15-.23Z"/>
        <path class="cls-1" d="M13.45,7.72c.16-.03.34.06.43.19.15.17.11.43.04.63-.31-.15-.45-.49-.46-.82Z"/>
        <path class="cls-1" d="M19.54,9.32c.14-.05.24.1.33.19.11.12.29.24.26.42,0,.08-.12.12-.18.08-.19-.11-.38-.26-.49-.46-.05-.08-.01-.2.08-.23Z"/>
        <path class="cls-1" d="M24.5,9.32c.41.1.78.51.73.95-.15-.09-.24-.24-.36-.36-.15-.17-.36-.34-.36-.59Z"/>
        <path class="cls-1" d="M20.77,9.53c.09-.05.16.03.21.1.27.42.47.95.29,1.45-.06-.05-.13-.1-.17-.17-.19-.29-.4-.59-.45-.94-.03-.15-.04-.35.11-.43Z"/>
        <path class="cls-1" d="M14.85,9.92c.4.14.75.56.66,1-.41-.13-.68-.58-.66-1Z"/>
        <path class="cls-1" d="M24.94,10.72c.23.05.29.29.38.47.17.41.2.88.04,1.3-.21-.15-.29-.41-.38-.64-.1-.36-.2-.77-.04-1.13Z"/>
        <path class="cls-1" d="M14.64,11.46c.31-.09.64.07.85.29.1.11.2.23.21.38-.11,0-.24.01-.34-.05-.2-.11-.4-.23-.58-.38-.08-.06-.11-.16-.15-.24Z"/>
        <path class="cls-1" d="M33.56,11.42s.04.04.05.05c.03.35.03.72-.16,1.03-.13-.1-.15-.27-.15-.42,0-.24.08-.49.26-.66Z"/>
        <path class="cls-1" d="M28.4,11.75c.05-.05.11.02.1.07.03.32-.13.64-.34.88-.04.05-.14.13-.16.03-.06-.37.12-.75.41-.98Z"/>
        <path class="cls-1" d="M11.83,12.58c-.29-.11-.43-.47-.34-.75.2.19.38.46.34.75Z"/>
        <path class="cls-1" d="M21.4,11.85c.24.13.33.43.37.69,0,.24.07.49-.03.71-.04,0-.11-.02-.15-.02-.08-.06-.17-.14-.19-.24-.13-.36-.17-.79,0-1.14Z"/>
        <path class="cls-1" d="M34.18,12.85c-.06-.31,0-.67.22-.9.03.01.08.03.1.05.15.34.05.77-.23,1.01-.03-.05-.06-.1-.09-.15Z"/>
        <path class="cls-1" d="M17.29,12.29c.37.04.62.42.6.77-.26.08-.46-.14-.59-.33-.07-.14-.05-.3,0-.45Z"/>
        <path class="cls-1" d="M27.21,12.49c.1,0,.15.12.2.19.06.26,0,.53-.05.79-.03.22-.19.39-.38.49-.11.05-.23-.04-.25-.15-.08-.45.07-.92.38-1.25.03-.03.07-.05.11-.07Z"/>
        <path class="cls-1" d="M33.23,13.39c-.02-.33.16-.63.39-.85.18.14.07.37.02.54-.07.2-.17.41-.35.53-.06-.05-.05-.14-.07-.22Z"/>
        <path class="cls-1" d="M9.63,13.06c.09-.02.19-.03.28.02.22.1.44.22.66.34.23.12.37.39.35.65-.37.04-.71-.16-.98-.39-.15-.14-.26-.31-.36-.48.02-.04.04-.08.06-.13Z"/>
        <path class="cls-1" d="M25.54,14.05c.1-.29.2-.59.43-.8.02.02.06.05.08.07.1.49-.04,1-.23,1.46-.06.15-.15.28-.27.38-.19-.34-.1-.75,0-1.1Z"/>
        <path class="cls-1" d="M8.49,13.32c.11-.03.22,0,.32.03.24.1.48.28.53.55-.29.05-.61-.04-.8-.27-.06-.08-.12-.21-.05-.31Z"/>
        <path class="cls-1" d="M11.99,13.73c-.07-.14-.1-.38.09-.43.44.18.77.7.6,1.17-.13-.04-.26-.08-.35-.18-.16-.16-.24-.37-.34-.56Z"/>
        <path class="cls-1" d="M21.14,13.3c.35.26.41.77.34,1.17-.33-.27-.51-.76-.34-1.17Z"/>
        <path class="cls-1" d="M22.27,13.67c.06.07.11.15.16.23.08.34.04.7,0,1.04-.02.13-.17.1-.22,0-.17-.4-.21-.9.05-1.27Z"/>
        <path class="cls-1" d="M24.56,13.81c.06-.06.12-.14.21-.14.13.2.15.45.1.67-.06.27-.18.55-.4.74-.09,0-.17-.05-.2-.14-.1-.4.05-.83.3-1.14Z"/>
        <path class="cls-1" d="M28.01,14.01c.04-.14.13-.29.28-.34.25.33.15.77.07,1.14-.03.18-.13.34-.27.46-.11-.08-.19-.21-.2-.36-.03-.31.03-.62.12-.91Z"/>
        <path class="cls-1" d="M32.43,14.46c.04-.17.13-.32.25-.44.02.02.06.05.09.07.03.22-.04.43-.07.65-.06.24-.08.5-.25.69-.14-.31-.1-.66-.01-.97Z"/>
        <path class="cls-1" d="M29.23,14.15c.13-.06.27.04.31.16.06.39.08.84-.18,1.17-.04.06-.1.12-.18.12-.12-.02-.19-.14-.21-.25-.08-.29-.03-.59.06-.86.04-.12.08-.26.2-.33Z"/>
        <path class="cls-1" d="M11.56,14.48c.08,0,.17,0,.24.05.25.11.47.27.68.43.13.11.21.27.3.41.02.12.06.34-.13.34-.24-.03-.48-.14-.69-.27-.28-.22-.56-.59-.4-.96Z"/>
        <path class="cls-1" d="M23.63,14.52c.1-.02.19.08.24.15.06.32.16.66.07.98-.06.21-.14.43-.3.59-.17-.05-.22-.23-.26-.38-.1-.46,0-.95.25-1.34Z"/>
        <path class="cls-1" d="M31.02,15.42c.13-.28.27-.6.56-.75.15.23.08.53.01.78-.07.23-.15.45-.25.66-.06.12-.24.1-.31,0-.19-.19-.11-.47-.01-.68Z"/>
        <path class="cls-1" d="M26.79,15.17c.06-.12.12-.25.24-.33.26.34.25.81.1,1.19-.07.14-.15.29-.3.35-.21-.37-.2-.83-.04-1.21Z"/>
        <path class="cls-1" d="M21.54,15.66c.11-.13.23-.25.38-.32.18.09.22.31.2.49-.04.32-.24.58-.38.86-.11.23-.3.42-.52.55-.13-.06-.19-.21-.17-.35.02-.45.2-.89.5-1.22Z"/>
        <path class="cls-1" d="M19.86,15.45c.13-.08.34,0,.34.17-.03.32-.05.65-.13.96-.24.64-.58,1.28-1.15,1.7-.12.07-.3.1-.4-.03-.03-.37-.01-.74.11-1.09.21-.47.47-.94.81-1.33.12-.14.25-.28.42-.37Z"/>
        <path class="cls-1" d="M24.94,15.51c.19-.1.43-.12.63-.04.13.1.17.29.13.44-.07.17-.18.31-.29.46-.1.15-.11.33-.12.5-.02.27-.21.49-.44.63-.14.09-.32.14-.44.27-.09.12-.14.27-.11.42.17-.14.34-.32.57-.31.21-.02.4.14.61.11.16-.08.2-.28.35-.37.06-.04.14-.02.2-.02-.1.23-.28.42-.28.68-.02.24.12.5.34.61.14.07.29.1.45.12-.02-.16-.15-.26-.2-.41-.1-.27.03-.59.26-.73.16-.09.34-.12.5-.21.15-.07.33-.13.42-.28.13-.23.03-.52.15-.76.18-.36.59-.57.99-.56.19,0,.4.04.55.17.15.14.13.41-.04.52-.13.09-.31.09-.44.19-.12.08-.24.21-.22.37,0,.29.28.49.27.79,0,.16-.1.31-.24.38-.21.14-.46.3-.52.57-.03.12.06.23.16.27.09-.1.15-.23.28-.29.18-.08.37.01.55-.01.2-.02.4-.17.4-.38,0-.2.06-.41.23-.53.11-.08.22-.18.37-.18.19,0,.37.08.49.22.05.27-.13.6.08.82.19.13.44.08.64,0,.19-.05.28-.26.47-.31.4-.12.9.19.9.63.03.28-.16.51-.27.75-.12.27-.19.57-.19.87,0,.11-.13.17-.22.16-.15-.04-.26-.16-.34-.29-.09-.17-.02-.37-.07-.54-.05-.25-.36-.41-.58-.28-.22.13-.37.35-.56.51-.07.06-.18.07-.24,0-.12-.1-.05-.28-.13-.41-.06-.18-.29-.22-.45-.16-.26.1-.46.3-.7.44-.28.14-.6-.17-.86.02.11.05.22.1.29.21.11.17.18.36.32.51.4.24.87-.08,1.3.06.16.07.27.24.24.42-.01.25-.13.5-.04.74.08.19.24.34.41.45.19.12.45.08.63.24.14.11.17.31.12.48-.07.22-.23.39-.4.54-.13.12-.36.12-.48,0-.13-.13-.2-.31-.27-.48-.06-.15-.22-.26-.39-.25-.24.02-.41.22-.63.29-.15.02-.32,0-.41-.15-.1-.12-.07-.28-.03-.41.07-.25.02-.51-.04-.75-.03-.17-.2-.28-.37-.26-.18.02-.4.09-.56-.04-.12-.14-.07-.34-.18-.49-.11-.16-.19-.36-.37-.44.03.15.13.29.12.45,0,.22-.16.41-.13.63.03.32.4.48.41.82.07.45-.33.79-.31,1.24,0,.24.16.45.16.7,0,.17.05.36-.05.51-.04.08-.11.13-.18.19-.08,0-.16-.04-.23-.09-.1-.27-.1-.57-.24-.83-.16-.22-.45-.29-.61-.51-.14-.18-.15-.42-.06-.62.1-.22.1-.47.11-.7,0-.13-.05-.25-.1-.36-.05-.13-.17-.21-.21-.35-.08-.26,0-.55-.09-.81-.12.19-.02.43-.12.63-.07.24-.27.41-.36.64-.21.46.03,1-.23,1.45-.15.28-.51.33-.68.6-.12.17-.1.39-.21.57-.05.1-.13.18-.22.24-.14-.11-.19-.31-.15-.48.05-.2.21-.36.26-.56.04-.13.06-.28.01-.41-.03-.1-.09-.21-.05-.32.12-.34.47-.52.64-.82.08-.12.09-.28.07-.42-.06-.25-.31-.39-.4-.62-.09-.16-.02-.36.07-.5.08-.12.23-.17.3-.31-.14-.06-.3-.02-.4.08-.15.15-.26.33-.34.53-.04.1-.09.22-.21.24-.12,0-.2-.1-.29-.17-.16-.15-.43-.15-.6-.02-.2.15-.34.35-.54.5-.14.11-.3.29-.5.21-.18-.09-.2-.34-.18-.52.11-.39.46-.68.52-1.09.04-.22.03-.45.06-.68.02-.15.13-.27.28-.29.14-.02.27.05.37.14.15.13.19.34.36.46.16.13.42.19.59.06.21-.24.35-.57.65-.7.15-.07.35.03.47-.1-.1-.09-.21-.16-.32-.24-.14-.14-.13-.35-.23-.52-.06-.09-.18-.11-.28-.07-.29.09-.53.29-.8.43-.13.04-.36.09-.42-.08-.07-.13-.12-.29-.06-.44.11-.33.23-.67.47-.94.3-.33.76-.4,1.09-.68.16-.13.34-.3.33-.52,0-.22-.2-.39-.17-.61.04-.21.23-.32.41-.41Z"/>
        <path class="cls-1" d="M13.53,15.59c.05-.05.13-.02.19-.03.27.16.52.39.65.68.04.14.1.29.05.43-.38-.1-.68-.4-.85-.75-.04-.11-.06-.22-.05-.33Z"/>
        <path class="cls-1" d="M30.05,16.01c.11-.1.2.05.23.15.06.29-.03.58-.14.84-.1.19-.2.38-.37.51-.2-.05-.19-.32-.17-.49.07-.36.18-.75.45-1.01Z"/>
        <path class="cls-1" d="M34.62,16.53c.15-.16.39-.16.59-.11-.06.29-.34.5-.64.48-.11-.11-.07-.29.05-.37Z"/>
        <path class="cls-1" d="M17.4,16.79c.05-.15.18-.26.31-.34.06,0,.11,0,.17,0,.09.31.02.63-.06.93-.07.26-.21.49-.39.68-.03.07-.1.02-.12-.03-.09-.15-.13-.33-.1-.51.05-.25.1-.5.19-.74Z"/>
        <path class="cls-1" d="M22.59,16.79c.08-.04.17-.02.26-.02.23.69-.19,1.45-.8,1.78-.11-.16-.1-.36-.04-.54.09-.28.15-.59.32-.83.09-.13.17-.27.27-.39Z"/>
        <path class="cls-1" d="M31.3,17.22c.04-.17.15-.32.29-.43.11.07.18.18.17.31,0,.32-.03.65-.15.95-.03.06-.09.1-.15.13-.22-.26-.24-.64-.16-.96Z"/>
        <path class="cls-1" d="M36.09,16.9c.31-.07.66-.11.95.04-.14.16-.37.19-.58.21-.18,0-.37,0-.52-.11-.03-.09.08-.13.15-.14Z"/>
        <path class="cls-1" d="M32.16,18.04c-.06-.25-.01-.52.14-.73.03.04.07.07.11.11.05.23-.04.5-.24.62Z"/>
        <path class="cls-1" d="M33.6,17.66c.2-.17.45-.29.72-.29.06.02.11.06.16.09.03.1.04.21-.05.29-.19.23-.5.38-.81.35-.06,0-.1-.06-.15-.09.01-.12.03-.26.13-.35Z"/>
        <path class="cls-1" d="M20.35,17.89c.1-.12.21-.25.37-.29.11-.03.19.04.28.09.16.32.12.69,0,1.02-.05.2-.14.39-.19.58-.15.37-.41.68-.67.98-.08.08-.17.17-.29.18-.1,0-.15-.09-.2-.16-.12-.41-.05-.85.07-1.26.13-.42.36-.8.63-1.16Z"/>
        <path class="cls-1" d="M15.7,17.72c.08-.05.17,0,.22.07.16.24.21.55.13.83-.06.2-.05.45-.23.58-.11.07-.25-.03-.28-.14-.18-.3-.08-.65-.05-.97,0-.15.08-.29.21-.37Z"/>
        <path class="cls-1" d="M8.07,18.11c.05-.08.16-.1.24-.06.23.07.43.23.57.42.11.12.09.29.1.44-.31.04-.59-.17-.76-.41-.08-.12-.2-.24-.15-.4Z"/>
        <path class="cls-1" d="M10.35,18.35c.15-.11.36-.09.5.02.2.15.42.29.57.49.09.13.12.29.16.44-.12.03-.24.05-.36,0-.32-.11-.63-.29-.84-.56-.08-.11-.16-.29-.04-.4Z"/>
        <path class="cls-1" d="M12.57,18.43c.06-.03.14-.02.19.03.17.15.3.33.45.5.09.11.1.27.09.4-.02.08-.08.16-.17.14-.18-.03-.31-.16-.43-.28-.17-.17-.28-.4-.3-.64-.02-.09.1-.12.16-.15Z"/>
        <path class="cls-1" d="M16.82,18.92c.04-.2.17-.37.35-.47.17.28.29.6.28.93.05.37.04.74.02,1.11-.03.23-.13.44-.26.62-.18.01-.25-.19-.32-.33-.19-.6-.18-1.24-.07-1.86Z"/>
        <path class="cls-1" d="M14.26,18.68c.09-.05.2-.02.26.05.26.36.32.82.36,1.25.05.42.1.9-.2,1.24-.26-.16-.4-.44-.48-.72-.18-.45-.23-.94-.2-1.42.04-.16.12-.31.27-.4Z"/>
        <path class="cls-1" d="M34.06,18.78c.12-.1.29-.15.43-.08,0,.08,0,.16,0,.24-.21.34-.52.6-.87.78-.02-.06-.06-.13-.03-.2.08-.29.25-.55.48-.75Z"/>
        <path class="cls-1" d="M18.22,19.26c.02-.12.12-.18.23-.19.18.08.29.25.39.41.11.15.14.34.18.52.06.3.03.63-.17.87-.07.09-.2.08-.28.02-.13-.09-.26-.2-.3-.36-.14-.41-.15-.86-.05-1.28Z"/>
        <path class="cls-1" d="M21.34,20c.07-.27.17-.56.38-.75.09.14.11.3.1.46-.02.39-.07.81-.34,1.12-.08-.02-.14-.08-.19-.15-.02-.23-.02-.46.04-.68Z"/>
        <path class="cls-1" d="M15.8,20.09c.07-.06.17-.04.24,0,.17.14.28.35.31.56.06.38.22.75.14,1.14-.04.21-.07.44-.22.61-.27-.05-.47-.28-.56-.53-.16-.42-.15-.88-.1-1.32.02-.17.05-.36.18-.48Z"/>
        <path class="cls-1" d="M33.06,20.38c.07-.06.2-.16.27-.06.19.22.1.54.06.8-.12.42-.32.82-.63,1.13-.21-.34-.16-.78-.06-1.16.11-.25.18-.52.36-.72Z"/>
        <path class="cls-1" d="M36.09,20.89c.05-.12.19-.11.29-.11.31.02.63-.02.93.07-.02.1-.09.2-.2.22-.33.08-.69.15-1.01.02-.09-.03-.04-.14-.01-.2Z"/>
        <path class="cls-1" d="M30.8,21.05c.31.23.59.59.57.99-.02.06,0,.19-.09.17-.22-.12-.39-.34-.43-.6-.03-.19-.08-.38-.05-.57Z"/>
        <path class="cls-1" d="M17.9,21.36c.05-.08.15-.08.23-.09.43.31.81.7,1.05,1.18.12.27.23.55.23.84,0,.1-.07.17-.13.24-.13-.05-.27-.1-.36-.22-.3-.38-.59-.76-.86-1.15-.09-.13-.21-.27-.21-.44,0-.12.02-.25.05-.36Z"/>
        <path class="cls-1" d="M13.08,21.4c.21-.07.44-.17.66-.07.14.06.27.13.38.24.06.08,0,.16-.03.24-.06.1-.16.19-.28.2-.23.02-.46.03-.7,0-.03-.03-.07-.05-.1-.07-.03-.03-.05-.06-.08-.09-.02-.16,0-.35.15-.44Z"/>
        <path class="cls-1" d="M20.07,21.3c.28.15.48.41.66.66.18.28.33.56.44.87.04.19.07.45-.12.58-.07-.04-.15-.06-.2-.13-.19-.21-.38-.42-.53-.66-.22-.4-.42-.87-.25-1.33Z"/>
        <path class="cls-1" d="M11.05,21.41c.16-.07.32.05.44.15.08.05.11.17.02.23-.17.1-.41.11-.59,0-.15-.12-.04-.35.12-.38Z"/>
        <path class="cls-1" d="M16.89,22.13c0-.1.1-.15.17-.2.14.09.25.24.27.41.05.25.05.52-.04.76-.16-.06-.29-.19-.33-.35-.05-.2-.07-.41-.07-.61Z"/>
        <path class="cls-1" d="M32.1,22.05c.05.03.1.06.15.09.08.53.14,1.09-.02,1.62-.02.07-.05.13-.09.19-.1-.07-.18-.15-.24-.26-.03-.16-.1-.32-.1-.49-.04-.35.08-.69.19-1.01.03-.05.06-.1.1-.14Z"/>
        <path class="cls-1" d="M34.72,22.12c.23-.03.46-.04.69-.03.14,0,.28.11.31.25-.02.16-.18.25-.32.29-.41.11-.85.16-1.27.09-.1-.01-.2-.06-.24-.15-.02-.12.08-.2.17-.26.21-.1.44-.16.67-.19Z"/>
        <path class="cls-1" d="M11.09,22.68c.07-.05.19-.04.24.03.15.2.21.45.18.7-.03.08-.08.19-.18.18-.19.03-.26-.18-.31-.32-.06-.19-.08-.45.08-.59Z"/>
        <path class="cls-1" d="M22.41,22.95c-.03-.09.04-.17.13-.17.21-.02.42,0,.63,0,.23,0,.45.09.62.23-.03.14-.17.23-.29.28-.26,0-.52-.04-.77-.08-.11-.07-.23-.15-.31-.26Z"/>
        <path class="cls-1" d="M14.72,23.75c.12-.3.33-.59.64-.7.03.02.08.06.1.08.09.33-.04.66-.11.98-.06.14-.16.27-.24.4-.08.13-.24.18-.39.17-.11-.04-.1-.17-.12-.27-.04-.23.05-.45.12-.66Z"/>
        <path class="cls-1" d="M18.03,23.44c.21.13.2.41.26.62.09.31.05.65-.1.94-.08.05-.12-.08-.16-.13-.11-.37-.2-.75-.18-1.13.02-.12.1-.22.18-.3Z"/>
        <path class="cls-1" d="M21.71,23.65c.32-.04.62.11.87.3.2.15.37.35.44.59-.14.11-.32.04-.46-.04-.32-.15-.64-.35-.81-.66-.04-.06-.03-.12-.04-.19Z"/>
        <path class="cls-1" d="M20.36,23.87c.08,0,.17-.01.25.02.3.13.6.26.87.44.36.25.57.65.7,1.05.03.11-.03.24-.15.25-.16-.02-.3-.11-.44-.17-.42-.21-.78-.54-1.09-.89-.17-.19-.2-.46-.14-.7Z"/>
        <path class="cls-1" d="M18.85,23.92c.07-.07.18-.04.26,0,.21.11.36.31.48.51.03.07.07.2-.03.23-.12.04-.28.03-.36-.08-.11-.14-.21-.29-.32-.43-.05-.06-.1-.16-.03-.22Z"/>
        <path class="cls-1" d="M10.5,24.36c.04-.13.21-.16.3-.06.05.14.15.26.17.41.04.24.13.5-.02.72-.04.12-.19.03-.24-.04-.19-.3-.3-.68-.21-1.03Z"/>
        <path class="cls-1" d="M28.7,24.76c.31-.2.77-.24,1.07,0-.24.33-.63.49-.98.65-.16.06-.33.15-.51.11-.1-.04-.19-.11-.2-.22.1-.28.39-.41.62-.55Z"/>
        <path class="cls-1" d="M31.23,25.14c.25-.06.5.04.73.11.32.12.56.37.79.62.09.13.21.28.16.45-.16.09-.35,0-.5-.08-.36-.21-.7-.45-.94-.79-.08-.11-.16-.2-.24-.31Z"/>
        <path class="cls-1" d="M17.17,26.75c-.12-.52-.05-1.13.34-1.53.18.46,0,.94-.13,1.39-.04.08-.12.11-.21.14Z"/>
        <path class="cls-1" d="M24.93,25.44c.35-.05.71.04,1.01.2.18.1.38.21.51.38,0,.01,0,.04,0,.05-.35.18-.78.17-1.15.04-.26-.11-.52-.25-.71-.46.08-.11.2-.2.34-.21Z"/>
        <path class="cls-1" d="M14.64,25.61c.11-.05.24.03.29.13.13.28.01.69-.31.77-.28.01-.47-.36-.32-.59.09-.13.21-.23.34-.31Z"/>
        <path class="cls-1" d="M18.15,25.65s.06-.04.08-.06c.1.09.21.2.24.34.08.4.14.82.07,1.23,0,.12-.11.23-.23.25-.18-.49-.27-1.01-.24-1.53,0-.08.05-.16.08-.24Z"/>
        <path class="cls-1" d="M22.86,25.72c.37-.1.75.01,1.09.14.28.13.62.3.66.65-.08.08-.21.03-.31.02-.45-.12-.88-.31-1.27-.57-.09-.05-.14-.14-.17-.24Z"/>
        <path class="cls-1" d="M30.11,26.08c.32-.15.65.08.94.19.34.14.61.4.8.72-.03.08-.09.13-.16.17-.42-.08-.8-.27-1.17-.48-.18-.15-.27-.37-.44-.53,0-.02.02-.05.02-.07Z"/>
        <path class="cls-1" d="M21.47,26.18c.11-.15.32-.05.47-.03.36.15.72.39.87.76-.11.1-.25.12-.38.06-.34-.12-.68-.29-.92-.56-.05-.06-.08-.16-.04-.23Z"/>
        <path class="cls-1" d="M28.45,26.33c.31-.05.69-.07.95.16,0,.03-.01.1-.02.14-.09.11-.23.16-.36.22-.37.16-.78.1-1.17.12-.07-.06-.14-.15-.16-.25.16-.26.48-.32.76-.39Z"/>
        <path class="cls-1" d="M25.97,26.85c.5-.07,1.05.02,1.48.3.09.07.22.14.24.26-.25.28-.64.21-.98.21-.37,0-.69-.23-.96-.46-.08-.05-.06-.18,0-.23.06-.05.14-.06.21-.07Z"/>
        <path class="cls-1" d="M32.59,27.16s.09-.07.13-.11c.43.11.85.26,1.22.5.26.18.5.42.6.73-.16.09-.35.04-.51-.04-.33-.15-.62-.36-.91-.58-.19-.15-.4-.29-.54-.5Z"/>
        <path class="cls-1" d="M21.73,27.61c.11.05.23.08.3.17.22.31.39.66.44,1.04.02.1-.04.19-.08.28-.22.04-.39-.14-.48-.32-.22-.34-.23-.77-.18-1.17Z"/>
        <path class="cls-1" d="M12.63,28.4c0-.26.03-.59.31-.71.12.11.2.26.22.42.03.3.04.6.06.9.01.12-.08.22-.17.29-.11.02-.17-.1-.23-.17-.17-.2-.18-.48-.19-.73Z"/>
        <path class="cls-1" d="M17.77,27.82c.07-.03.12.03.15.08.1.15.16.34.12.52-.04.19-.04.42-.19.57-.06.07-.18.11-.25.04-.16-.12-.2-.32-.2-.51,0-.15,0-.33.1-.46.08-.09.16-.18.26-.24Z"/>
        <path class="cls-1" d="M28.24,28.13c.2-.08.35.11.47.24.17.19.18.46.22.7-.24.06-.42-.16-.55-.32-.14-.17-.19-.4-.14-.61Z"/>
        <path class="cls-1" d="M22.28,29.65c.03-.11.1-.21.18-.3.07.05.15.1.19.17.15.47.15,1-.02,1.46-.03.09-.09.17-.15.24-.26-.12-.3-.44-.31-.69-.02-.3.04-.6.11-.89Z"/>
        <path class="cls-1" d="M34.83,29.52c.3.23.53.55.66.91.06.22.05.47-.06.67-.07.08-.16,0-.22-.05-.25-.25-.31-.61-.37-.93-.02-.2-.1-.41-.01-.6Z"/>
        <path class="cls-1" d="M29.18,30.94c-.4-.29-.32-1,.13-1.22.2.17.21.46.16.7-.03.2-.15.37-.28.52Z"/>
        <path class="cls-1" d="M17.9,29.83c.23.11.36.34.45.56.04.23.07.46.07.69-.02.13-.1.24-.18.33-.39-.26-.51-.76-.51-1.21-.01-.15.08-.28.17-.38Z"/>
        <path class="cls-1" d="M33.68,30.39c.08-.07.14.06.19.11.26.28.46.62.53.99.03.2,0,.42-.1.6-.05.1-.19.08-.26.01-.15-.13-.22-.32-.28-.5-.12-.38-.24-.82-.07-1.21Z"/>
        <path class="cls-1" d="M27.04,30.93c.21-.09.43-.12.65-.16.13-.02.29,0,.38.12.04.08,0,.18-.07.24-.25.17-.5.37-.81.38-.13,0-.27.02-.39-.05-.08-.06-.07-.17-.06-.26.09-.11.17-.22.3-.28Z"/>
        <path class="cls-1" d="M21.3,31.13c.05-.08.13-.05.18.02.2.25.42.54.42.88,0,.13,0,.32-.17.33-.22-.16-.44-.37-.47-.65-.01-.19-.01-.38.04-.57Z"/>
        <path class="cls-1" d="M26.27,32.23c.02-.16.03-.37.19-.45.2.07.24.31.29.49.04.3-.01.63-.2.88-.04-.02-.07-.03-.11-.05-.08-.28-.21-.57-.18-.87Z"/>
        <path class="cls-1" d="M30.54,34.42c.22-.17.51-.17.78-.18.12-.01.21.07.29.14-.17.26-.51.3-.79.34-.13,0-.31.05-.38-.09-.06-.09.04-.16.1-.21Z"/>
      </g>
    </g>
  </g>
</svg>