<?xml version="1.0" encoding="UTF-8"?>
<svg id="Layer_2" data-name="Layer 2" xmlns="http://www.w3.org/2000/svg" viewBox="0 0 60.87 66.46">
  <defs>
    <style>
      .cls-1 {
        fill: #fff;
      }
    </style>
  </defs>
  <g id="Layer_1-2" data-name="Layer 1">
    <g>
      <g>
        <path class="cls-1" d="M4.37,57.84h2.66c.53,0,.92.02,1.18.07.26.04.49.14.7.27s.37.33.51.56c.14.23.2.49.2.78,0,.31-.08.6-.25.86-.17.26-.4.46-.68.59.41.12.72.32.94.6.22.29.33.62.33,1.01,0,.3-.07.6-.21.88-.14.29-.33.52-.58.69-.24.17-.54.28-.9.32-.22.02-.76.04-1.62.05h-2.27v-6.66ZM5.72,58.95v1.54h.88c.52,0,.85,0,.98-.02.23-.03.41-.11.54-.24.13-.13.2-.31.2-.52s-.06-.37-.17-.5-.28-.21-.51-.24c-.13-.01-.52-.02-1.15-.02h-.77ZM5.72,61.59v1.78h1.24c.48,0,.79-.01.92-.04.2-.04.36-.12.49-.27s.19-.33.19-.57c0-.2-.05-.37-.15-.51-.1-.14-.24-.24-.42-.3s-.58-.1-1.19-.1h-1.09Z"/>
        <path class="cls-1" d="M12.03,61.14l-1.16-.21c.13-.47.35-.81.67-1.04s.79-.34,1.42-.34c.57,0,.99.07,1.27.2.28.13.47.31.59.51.11.21.17.59.17,1.14v1.49c-.01.42,0,.74.05.94.04.2.12.42.23.65h-1.26c-.03-.08-.07-.21-.12-.38-.02-.08-.04-.13-.05-.15-.22.21-.45.37-.7.48-.25.11-.51.16-.79.16-.5,0-.89-.13-1.18-.4-.29-.27-.43-.61-.43-1.02,0-.27.07-.52.2-.73.13-.21.31-.38.55-.49.23-.11.57-.21,1.02-.3.6-.11,1.01-.22,1.24-.31v-.13c0-.25-.06-.42-.18-.53-.12-.1-.35-.16-.69-.16-.23,0-.4.05-.53.13-.13.09-.23.25-.31.47ZM13.74,62.18c-.16.05-.42.12-.78.2-.35.08-.59.15-.7.22-.17.12-.25.27-.25.45s.07.33.2.46c.13.13.3.2.51.2.23,0,.45-.08.66-.23.15-.11.26-.25.3-.42.03-.11.05-.32.05-.62v-.25Z"/>
        <path class="cls-1" d="M16.2,64.5v-6.66h1.28v2.4c.39-.45.86-.67,1.4-.67.59,0,1.07.21,1.46.64.39.43.58,1.04.58,1.83s-.2,1.46-.59,1.9-.87.67-1.43.67c-.28,0-.55-.07-.82-.21-.27-.14-.5-.34-.69-.61v.71h-1.19ZM17.47,61.98c0,.5.08.87.24,1.11.22.34.52.51.88.51.28,0,.52-.12.72-.36.2-.24.3-.62.3-1.14,0-.55-.1-.95-.3-1.19-.2-.24-.46-.37-.77-.37s-.56.12-.76.36-.3.6-.3,1.08Z"/>
        <path class="cls-1" d="M21.33,59.67h1.36l1.15,3.43,1.13-3.43h1.32l-1.7,4.64-.3.84c-.11.28-.22.5-.32.65s-.22.27-.35.36c-.13.09-.29.16-.49.22-.19.05-.41.08-.65.08s-.49-.03-.72-.08l-.11-1c.2.04.38.06.54.06.3,0,.52-.09.66-.26.14-.18.25-.4.33-.67l-1.84-4.84Z"/>
      </g>
      <path class="cls-1" d="M56.76,60.21v-1.4h-.59v-.33h1.55v.33h-.59v1.4h-.37ZM57.91,60.22v-1.74h.55l.39,1.25h.02l.39-1.25h.53v1.74h-.37v-1.25h-.02l-.4,1.25h-.34l-.4-1.27h-.02v1.27h-.34Z"/>
      <g>
        <path class="cls-1" d="M26.75,64.5l2.56-6.66h.95l2.73,6.66h-1l-.78-2.02h-2.79l-.73,2.02h-.94ZM28.67,61.76h2.26l-.7-1.84c-.21-.56-.37-1.02-.47-1.38-.08.43-.2.85-.36,1.27l-.73,1.95Z"/>
        <path class="cls-1" d="M34.33,64.5h-.76v-6.66h.82v2.38c.35-.43.79-.65,1.32-.65.3,0,.58.06.84.18.27.12.48.29.65.5s.31.48.4.78.15.63.15.98c0,.83-.2,1.47-.61,1.92s-.9.68-1.47.68-1.02-.24-1.34-.71v.6ZM34.32,62.05c0,.58.08,1,.24,1.25.26.42.61.63,1.04.63.36,0,.67-.16.93-.47.26-.31.39-.77.39-1.39s-.12-1.09-.37-1.39c-.25-.3-.55-.45-.91-.45s-.67.16-.93.47-.39.76-.39,1.35Z"/>
        <path class="cls-1" d="M38.75,64.5v-4.82h.74v.73c.19-.34.36-.57.52-.68.16-.11.33-.16.52-.16.28,0,.56.09.84.26l-.28.76c-.2-.12-.4-.18-.6-.18-.18,0-.34.05-.48.16-.14.11-.24.26-.3.45-.09.29-.14.61-.14.95v2.53h-.82Z"/>
        <path class="cls-1" d="M45,63.9c-.3.26-.59.44-.87.54-.28.11-.58.16-.9.16-.53,0-.94-.13-1.22-.39-.28-.26-.43-.59-.43-.99,0-.24.05-.45.16-.65s.25-.35.42-.47.37-.21.59-.27c.16-.04.4-.08.73-.12.66-.08,1.15-.17,1.46-.28,0-.11,0-.18,0-.21,0-.33-.08-.57-.23-.71-.21-.18-.52-.28-.93-.28-.38,0-.67.07-.85.2-.18.13-.32.37-.41.72l-.8-.11c.07-.34.19-.62.36-.83.17-.21.41-.37.72-.49.31-.11.68-.17,1.09-.17s.75.05,1,.14c.26.1.45.22.57.37.12.15.21.33.25.56.03.14.04.39.04.75v1.09c0,.76.02,1.24.05,1.44.03.2.1.39.21.58h-.85c-.08-.17-.14-.37-.16-.59ZM44.93,62.08c-.3.12-.74.22-1.34.31-.34.05-.57.1-.71.16-.14.06-.25.15-.32.27s-.11.25-.11.39c0,.22.08.4.25.54.16.15.41.22.72.22s.6-.07.84-.21c.25-.14.43-.33.54-.57.09-.18.13-.46.13-.82v-.3Z"/>
        <path class="cls-1" d="M46.6,64.5v-.66l3.07-3.53c-.35.02-.66.03-.92.03h-1.97v-.66h3.94v.54l-2.61,3.06-.5.56c.37-.03.71-.04,1.03-.04h2.23v.7h-4.27Z"/>
        <path class="cls-1" d="M51.38,62.09c0-.89.25-1.56.75-1.99.41-.36.92-.54,1.52-.54.66,0,1.21.22,1.63.65.42.43.63,1.03.63,1.8,0,.62-.09,1.11-.28,1.46-.19.36-.46.63-.81.83-.36.2-.74.29-1.17.29-.68,0-1.22-.22-1.64-.65-.42-.43-.62-1.06-.62-1.87ZM52.22,62.09c0,.62.13,1.08.4,1.39.27.31.61.46,1.02.46s.74-.16,1.01-.46c.27-.31.4-.78.4-1.41,0-.6-.14-1.05-.41-1.36-.27-.31-.61-.46-1.01-.46s-.75.15-1.02.46c-.27.31-.4.77-.4,1.39Z"/>
      </g>
      <path class="cls-1" d="M59.19,20.83c-.37-1.1-.79-2.18-1.27-3.21C49.18-1.29,23.73-5.88,8.54,8.25,3.66,12.8.02,19.35,0,26.15c-.01,6,3.83,11.64,9.94,12.71,4.57.8,9.95.05,13.25-3.47,1.25-1.33,2.18-2.94,2.69-4.69.25-.88.41-1.84.36-2.76-.03-.51-.1-1.04-.26-1.53-.21-.63-.5-1.15-.91-1.67-.79-1.01-2.07-1.57-3.34-1.63-.05,0-.09,0-.14,0-.08-.37-.19-.71-.37-1.08-.23-.48-.57-.92-.98-1.26-.89-.76-1.95-1.17-3.12-1.25-1.04-.08-2.11.23-3.02.73-1.87,1.02-3.04,2.95-3.62,4.95-.57,1.93-.69,4.02-.48,6.02.11,1.02.28,2.02.52,3,.22.92-.67,1.46-1.45,1.22-.9-.28-1.84-.96-2.45-1.63C-1.77,24.54,8.5,11.38,16.43,6.85c9.01-5.14,21.37-5.17,29.42,1.86,5.89,5.14,8.5,13.51,5.9,20.97-.6,1.71-1.64,4.01-3.72,4.12-2.12.11-4.01-1.9-5.4-3.24-2.13-1.95-4.77-2.99-6.92-.63-.83.85-1.17,2.17-.81,3.57.15.59-.35,1.13-.94.98-1.96-.48-4.43-1.12-5.54-.88-.79.14-1.42.39-1.91.78-.07.06-.14.12-.22.19-.56.54-.87,1.28-.92,2.26-.01.29-.21.55-.48.65-2.85,1.05-3.68,4.53-1.1,6.53l.11.08-.03.05c-.53,1.09-.07,2.44.56,3.39.59.88,1.42,1.44,2.37,1.86.27.12.44.38.47.67.23,2.69,2.88,3.96,8,4.24,7.87.43,16.1-1.79,21.03-8.32,5.26-6.97,5.62-16.93,2.88-25.14ZM13.32,27.67c.17-1.41.65-2.93,1.65-3.97.42-.44.97-.79,1.58-.88.61-.09,1.27.11,1.66.58.34.41.44.97.39,1.49l-.17,1.88c.65-.42,1.21-.72,1.89-.77.76-.06,1.58.16,2.09.73.45.51.6,1.23.54,1.91,0,.08-.02.16-.03.25-.17,1.27-.8,2.64-1.6,3.62-.43.53-.92,1.02-1.45,1.45-.55.41-1.15.75-1.78,1.03-.66.25-1.35.44-2.04.55-.57.06-1.14.08-1.71.04-.45-1.34-.8-2.72-1.01-4.12-.15-1.26-.17-2.53-.02-3.79ZM57.13,26.87c.41,2.17.65,4.35.53,6.62-.65,12.76-11.36,18.53-23.05,18.11-6.34-.23-4.97-2.48-3.24-2.33,1.73.15,6.36-1.51,2.31-1.52-5.32-.02-8.88-2.89-6.52-3.01,2.56-.14,8.75,1.18,7.75.07-1.11-1.23-10.14-2.5-9.57-4.12.81-2.34,9.95,1.66,10.53.73.59-.96-4.67-2.46-6.24-3.35-1.76-1.01-1.71-2.76,1.91-1.83,3.62.93,7.38,2.13,7.63.64.25-1.49-2.51-4.04-1.32-4.96,1.58-1.22,3.1,1.43,5.93,3.42,4.34,3.05,8.21.61,9.89-2.55,1.7-3.19,2.18-7.22,2.36-10.78.41,1.64.81,3.26,1.12,4.89Z"/>
    </g>
  </g>
</svg>