<?xml version="1.0" encoding="UTF-8"?>
<svg id="Layer_2" xmlns="http://www.w3.org/2000/svg" xmlns:xlink="http://www.w3.org/1999/xlink" viewBox="0 0 101.91 101.91">
  <defs>
    <style>
      .cls-1 {
        fill: #cbd2eb;
      }

      .cls-2 {
        fill: #b5c0e2;
      }

      .cls-3 {
        fill: #b2bde1;
      }

      .cls-4 {
        fill: #bcc5e5;
      }

      .cls-5 {
        fill: #b9c3e3;
      }

      .cls-6 {
        fill: #e2e5f4;
      }

      .cls-7 {
        fill: #d7dcef;
      }

      .cls-8 {
        fill: #dee2f2;
      }

      .cls-9 {
        fill: #c4cce8;
      }

      .cls-10 {
        fill: #b6c0e2;
      }

      .cls-11 {
        fill: #b7c1e3;
      }

      .cls-12 {
        fill: #bec7e5;
      }

      .cls-13 {
        fill: #aebadf;
      }

      .cls-14 {
        fill: #c6cde9;
      }

      .cls-15 {
        fill: #d4d9ee;
      }

      .cls-16 {
        fill: #d5daef;
      }

      .cls-17 {
        fill: #b3bee1;
      }

      .cls-18 {
        fill: none;
      }

      .cls-19 {
        fill: #ccd3eb;
      }

      .cls-20 {
        fill: #b4bfe1;
      }

      .cls-21 {
        fill: #c3c3e2;
      }

      .cls-22 {
        fill: #cad1ea;
      }

      .cls-23 {
        fill: #d6dbef;
      }

      .cls-24 {
        fill: #bfc8e6;
      }

      .cls-25 {
        fill: #dadef0;
      }

      .cls-26 {
        fill: #d2d8ed;
      }

      .cls-27 {
        fill: #c7cee9;
      }

      .cls-28 {
        fill: #adb9df;
      }

      .cls-29 {
        fill: #dce0f1;
      }

      .cls-30 {
        fill: #a8b5dc;
      }

      .cls-31 {
        fill: #ced4ec;
      }

      .cls-32 {
        fill: #bdc6e5;
      }

      .cls-33 {
        fill: #b8c2e3;
      }

      .cls-34 {
        fill: #b0bce0;
      }

      .cls-35 {
        fill: #c1c9e7;
      }

      .cls-36 {
        fill: #c3cbe7;
      }

      .cls-37 {
        fill: #a9b6dd;
      }

      .cls-38 {
        fill: #afbbe0;
      }

      .cls-39 {
        fill: #d8ddf0;
      }

      .cls-40 {
        fill: #c2cae7;
      }

      .cls-41 {
        fill: #d0d6ed;
      }

      .cls-42 {
        fill: #c0c8e6;
      }

      .cls-43 {
        fill: #d1d7ed;
      }

      .cls-44 {
        fill: #2e3192;
      }

      .cls-45 {
        fill: #c5cde8;
      }

      .cls-46 {
        fill: #cdd3eb;
      }

      .cls-47 {
        fill: #dbdff1;
      }

      .cls-48 {
        fill: #e1e4f3;
      }

      .cls-49 {
        fill: #c8cfe9;
      }

      .cls-50 {
        fill: #d3d9ee;
      }

      .cls-51 {
        fill: #dfe3f2;
      }

      .cls-52 {
        fill: #b1bce0;
      }

      .cls-53 {
        fill: #abb8de;
      }

      .cls-54 {
        fill: #aab7de;
      }

      .cls-55 {
        fill: #aab6dd;
      }

      .cls-56 {
        fill: #bbc4e4;
      }

      .cls-57 {
        fill: #cfd5ec;
      }

      .cls-58 {
        fill: #acb9de;
      }

      .cls-59 {
        fill: #bac4e4;
      }

      .cls-60 {
        fill: #c9d0ea;
      }

      .cls-61 {
        clip-path: url(#clippath);
      }

      .cls-62 {
        fill: #dde1f2;
      }

      .cls-63 {
        fill: #e0e3f3;
      }
    </style>
    <clipPath id="clippath">
      <rect class="cls-18" x="0" y="0" width="101.91" height="101.91" rx="35.28" ry="35.28"/>
    </clipPath>
  </defs>
  <g id="Layer_1-2" data-name="Layer_1">
    <g>
      <g class="cls-61">
        <rect class="cls-30" x="0" width="101.91" height="101.91"/>
        <circle class="cls-30" cx="50.95" cy="50.95" r="50.95"/>
        <circle class="cls-37" cx="50.95" cy="50.95" r="50.1"/>
        <circle class="cls-55" cx="50.95" cy="50.95" r="49.25"/>
        <circle class="cls-54" cx="50.95" cy="50.95" r="48.4"/>
        <circle class="cls-53" cx="50.95" cy="50.95" r="47.55"/>
        <circle class="cls-58" cx="50.95" cy="50.95" r="46.7"/>
        <circle class="cls-28" cx="50.95" cy="50.95" r="45.85"/>
        <circle class="cls-13" cx="50.95" cy="50.95" r="45"/>
        <circle class="cls-38" cx="50.95" cy="50.95" r="44.15"/>
        <circle class="cls-34" cx="50.95" cy="50.95" r="43.3"/>
        <circle class="cls-52" cx="50.95" cy="50.95" r="42.45"/>
        <circle class="cls-3" cx="50.95" cy="50.95" r="41.6"/>
        <circle class="cls-17" cx="50.95" cy="50.95" r="40.75"/>
        <circle class="cls-20" cx="50.95" cy="50.95" r="39.9"/>
        <circle class="cls-2" cx="50.95" cy="50.95" r="39.05"/>
        <circle class="cls-10" cx="50.95" cy="50.95" r="38.2"/>
        <circle class="cls-11" cx="50.95" cy="50.95" r="37.35"/>
        <circle class="cls-33" cx="50.95" cy="50.95" r="36.5"/>
        <circle class="cls-5" cx="50.95" cy="50.95" r="35.65"/>
        <circle class="cls-59" cx="50.95" cy="50.95" r="34.8"/>
        <circle class="cls-56" cx="50.95" cy="50.95" r="33.95"/>
        <circle class="cls-4" cx="50.95" cy="50.95" r="33.1"/>
        <circle class="cls-32" cx="50.95" cy="50.95" r="32.25"/>
        <circle class="cls-12" cx="50.95" cy="50.95" r="31.4"/>
        <circle class="cls-24" cx="50.95" cy="50.95" r="30.55"/>
        <circle class="cls-42" cx="50.95" cy="50.95" r="29.7"/>
        <circle class="cls-35" cx="50.95" cy="50.95" r="28.85"/>
        <circle class="cls-40" cx="50.95" cy="50.95" r="28"/>
        <circle class="cls-36" cx="50.95" cy="50.95" r="27.15"/>
        <circle class="cls-9" cx="50.95" cy="50.95" r="26.3"/>
        <circle class="cls-45" cx="50.95" cy="50.95" r="25.45"/>
        <circle class="cls-14" cx="50.95" cy="50.95" r="24.6"/>
        <circle class="cls-27" cx="50.95" cy="50.95" r="23.75"/>
        <circle class="cls-27" cx="50.95" cy="50.95" r="22.9"/>
        <circle class="cls-49" cx="50.95" cy="50.95" r="22.06"/>
        <circle class="cls-60" cx="50.95" cy="50.95" r="21.23"/>
        <circle class="cls-22" cx="50.95" cy="50.95" r="20.39"/>
        <circle class="cls-1" cx="50.95" cy="50.95" r="19.55"/>
        <circle class="cls-19" cx="50.95" cy="50.95" r="18.71"/>
        <circle class="cls-46" cx="50.95" cy="50.95" r="17.88"/>
        <circle class="cls-31" cx="50.95" cy="50.95" r="17.04"/>
        <circle class="cls-57" cx="50.95" cy="50.95" r="16.2"/>
        <circle class="cls-41" cx="50.95" cy="50.95" r="15.36"/>
        <circle class="cls-43" cx="50.95" cy="50.95" r="14.52"/>
        <circle class="cls-26" cx="50.95" cy="50.95" r="13.69"/>
        <circle class="cls-50" cx="50.95" cy="50.95" r="12.85"/>
        <circle class="cls-15" cx="50.95" cy="50.95" r="12.01"/>
        <circle class="cls-16" cx="50.95" cy="50.95" r="11.17"/>
        <circle class="cls-23" cx="50.95" cy="50.95" r="10.34"/>
        <circle class="cls-7" cx="50.95" cy="50.95" r="9.5"/>
        <circle class="cls-39" cx="50.95" cy="50.95" r="8.66"/>
        <circle class="cls-25" cx="50.95" cy="50.95" r="7.82"/>
        <circle class="cls-47" cx="50.95" cy="50.95" r="6.99"/>
        <circle class="cls-29" cx="50.95" cy="50.95" r="6.15"/>
        <circle class="cls-62" cx="50.95" cy="50.95" r="5.31"/>
        <circle class="cls-8" cx="50.95" cy="50.95" r="4.47"/>
        <circle class="cls-51" cx="50.95" cy="50.95" r="3.64"/>
        <circle class="cls-63" cx="50.95" cy="50.95" r="2.8"/>
        <circle class="cls-48" cx="50.95" cy="50.95" r="1.96"/>
        <circle class="cls-6" cx="50.95" cy="50.95" r="1.12"/>
      </g>
      <path class="cls-21" d="M31.45,20.28h19.58c5.35,0,9.93,1.91,13.76,5.74s5.74,8.44,5.74,13.85c0,4.97-1.68,9.33-5.04,13.06,3.36,3.73,5.04,8.08,5.04,13.06,0,5.41-1.91,10.03-5.74,13.85s-8.41,5.74-13.76,5.74h-19.58V20.28ZM51.03,33.25h-6.62v13.24h6.62c1.8,0,3.36-.65,4.66-1.96,1.31-1.31,1.96-2.87,1.96-4.71s-.65-3.39-1.96-4.66c-1.31-1.27-2.86-1.91-4.66-1.91ZM51.03,72.6c1.8,0,3.36-.64,4.66-1.91,1.31-1.27,1.96-2.83,1.96-4.66s-.65-3.4-1.96-4.71c-1.31-1.31-2.86-1.96-4.66-1.96h-6.62v13.24h6.62Z"/>
      <path class="cls-44" d="M39.7,16.94l19.27,3.51c5.26.96,9.43,3.66,12.5,8.11,3.08,4.45,4.13,9.33,3.16,14.65-.89,4.89-3.32,8.87-7.3,11.94,2.63,4.27,3.51,8.85,2.61,13.75-.97,5.32-3.68,9.52-8.13,12.6-4.45,3.08-9.3,4.14-14.56,3.18l-19.27-3.51,11.7-64.23ZM49.59,71.92c1.77.32,3.42-.03,4.93-1.05s2.43-2.43,2.76-4.24c.33-1.8-.03-3.47-1.08-4.98s-2.46-2.44-4.24-2.76l-6.51-1.19-2.37,13.03,6.51,1.19ZM56.65,33.2l-6.51-1.19-2.37,13.03,6.51,1.19c1.77.32,3.42-.04,4.94-1.09,1.52-1.05,2.44-2.48,2.77-4.28.33-1.8-.03-3.45-1.09-4.94-1.06-1.49-2.47-2.39-4.25-2.72Z"/>
    </g>
  </g>
</svg>