<?xml version="1.0" encoding="UTF-8"?>
<svg id="Layer_2" xmlns="http://www.w3.org/2000/svg" viewBox="0 0 225.03 122.51">
  <defs>
    <style>
      .cls-1 {
        letter-spacing: .03em;
      }

      .cls-2 {
        fill: #231f20;
        font-family: Abolition-Regular, Abolition;
        font-size: 15.18px;
      }

      .cls-3, .cls-4 {
        fill: #2bb673;
      }

      .cls-4 {
        font-family: GleffySlant-Regular, 'Gleffy Slant';
        font-size: 112.71px;
        letter-spacing: .04em;
      }

      .cls-5 {
        letter-spacing: .04em;
      }

      .cls-6 {
        letter-spacing: .04em;
      }
    </style>
  </defs>
  <g id="Layer_1-2" data-name="Layer_1">
    <g>
      <text class="cls-4" transform="translate(87.78 94)"><tspan x="0" y="0">ER</tspan></text>
      <path class="cls-3" d="M51.22,4.29c1.46-2.22,4.04-3.1,6.36-2.16l28.63,11.61c4.06,1.65,7.78,3.76,11.16,6.33,3.38,2.58,6.03,5.54,7.94,8.9,1.92,3.35,2.87,6.98,2.87,10.87,0,3.89-1.41,7.96-4.2,12.2-2.65,4.08-5.86,7.25-9.63,9.5-1.96,1.17-4,2.15-6.12,2.95-2.86,1.07-4.31,4.47-3.41,7.73.56,2.02.78,4.07.67,6.13-.23,4.13-1.53,7.96-3.9,11.49-2.05,3.12-4.8,5.89-8.25,8.34-3.45,2.44-7.42,4.23-11.92,5.37-4.5,1.14-9.49,1.52-14.98,1.16-5.49-.36-11.26-1.77-17.3-4.22l-25.41-10.3c-3.54-1.44-4.86-6.32-2.63-9.71L51.22,4.29ZM37.03,83.29c2.76,1.12,5.38,1.77,7.86,1.95,2.47.18,4.72.02,6.73-.48,2.01-.5,3.76-1.27,5.26-2.31s2.66-2.26,3.5-3.68c1.61-2.64,1.75-5.56.43-8.79-1.33-3.22-4.58-5.89-9.76-7.99l-3.22-1.31c-2.32-.94-4.9-.06-6.36,2.16l-7.06,10.74c-2.23,3.39-.91,8.27,2.63,9.71h0ZM63.29,29.58l-6.73,10.21c-2.24,3.39-.92,8.28,2.63,9.72h0c2.33.95,4.58,1.47,6.74,1.58,2.16.11,4.17-.09,6.03-.6,1.86-.5,3.51-1.24,4.93-2.19,1.42-.96,2.53-2.1,3.34-3.42,1.7-2.6,2.08-5.46,1.16-8.58-.92-3.11-3.76-5.64-8.51-7.56l-3.23-1.31c-2.32-.94-4.9-.07-6.36,2.15Z"/>
      <text class="cls-2" transform="translate(80.38 113.38) scale(.97 1)"><tspan class="cls-5" x="0" y="0">Bus</tspan><tspan class="cls-6" x="17.26" y="0">c</tspan><tspan class="cls-5" x="22.71" y="0">a, encuentr</tspan><tspan class="cls-1" x="79.72" y="0">a y</tspan><tspan class="cls-5" x="94.04" y="0" xml:space="preserve"> realiz</tspan><tspan class="cls-1" x="126.81" y="0">a</tspan></text>
    </g>
  </g>
</svg>