<?xml version="1.0" encoding="UTF-8"?>
<svg id="Layer_2" xmlns="http://www.w3.org/2000/svg" viewBox="0 0 53.67 53.67">
  <defs>
    <style>
      .cls-1, .cls-2, .cls-3 {
        fill: #ec008c;
      }

      .cls-1, .cls-4 {
        fill-rule: evenodd;
      }

      .cls-4, .cls-5 {
        fill: #55b948;
      }

      .cls-6 {
        fill: #e6e7e8;
      }

      .cls-3 {
        font-family: Rubik-SemiBold, Rubik;
        font-size: 7.47px;
        font-variation-settings: 'wght' 600;
        font-weight: 600;
        letter-spacing: -.05em;
      }
    </style>
  </defs>
  <g id="Layer_1-2" data-name="Layer_1">
    <g>
      <rect class="cls-6" width="53.67" height="53.67" rx="12" ry="12"/>
      <path class="cls-4" d="M9.12,37.51c1.05,0,1.97-.53,2.52-1.33.29-.34.72-.56,1.21-.56.88,0,1.6.71,1.6,1.59v.66c.45-.37.87-.78,1.25-1.23-.04.06.46-1.18.68-1.89-.11.24-.12-.61-.14-1.28-.1-.18-.39-1.23-.56-1.61-.08-.18-.13-.32-.18-.43-.04,0-.08.02-.12.03h-.2c-.25.03-.49.04-.73.03v.14c0,.88-.71,1.6-1.59,1.6-.48,0-.92-.21-1.21-.55-.56-.8-1.48-1.32-2.53-1.32-1.7,0-3.07,1.39-3.07,3.08,0,1.7,1.39,3.07,3.09,3.07Z"/>
      <path class="cls-1" d="M11.5,15.19c.29-.34.72-.56,1.21-.56.88,0,1.6.71,1.6,1.59v.66c.45-.37.87-.78,1.25-1.23-.04.06.46-1.18.68-1.89-.11.24-.12-.61-.14-1.28-.1-.18-.39-1.23-.56-1.61-.09-.21-.15-.36-.2-.49-.06-.06-.13-.14-.22-.25-.28-.33-.55-.65-.82-.98v1.48c0,.88-.71,1.6-1.59,1.6-.48,0-.92-.21-1.21-.55-.56-.8-1.48-1.32-2.53-1.32-1.7,0-3.07,1.39-3.07,3.08,0,1.7,1.39,3.07,3.09,3.07,1.05,0,1.97-.53,2.52-1.33Z"/>
      <g>
        <path class="cls-2" d="M20.79,28.67h0s2.8,0,2.8,0c0,.79.65,1.44,1.44,1.44h7.17c.79,0,1.44-.65,1.44-1.44s-.65-1.44-1.44-1.44h-7.17c-3.96,0-7.17-3.21-7.17-7.17s3.21-7.17,7.17-7.17h6.22c3.55,0,6.5,2.58,7.07,5.97h4.9c.02-.25.03-.49.03-.74,0-5.77-4.67-10.44-10.44-10.44H14.03v20.98h6.76Z"/>
        <path class="cls-5" d="M41.96,21.92l.09.05c.48-.92.82-1.92,1.02-2.97h-7.38s-3,0-3,0c0-.79-.65-1.44-1.44-1.44h-6.22c-.79,0-1.44.65-1.44,1.44s.65,1.44,1.44,1.44h7.17c3.96,0,7.17,3.21,7.17,7.17s-3.21,7.17-7.17,7.17h-7.17c-3.55,0-6.5-2.58-7.07-5.97h-3.93v11.18h20.83c5.77,0,10.44-4.67,10.44-10.44,0-3-1.29-5.72-3.34-7.63Z"/>
      </g>
      <text class="cls-3" transform="translate(17.04 48.73)"><tspan x="0" y="0">Studio</tspan></text>
    </g>
  </g>
</svg>