<?xml version="1.0" encoding="UTF-8"?>
<svg id="Layer_2" data-name="Layer 2" xmlns="http://www.w3.org/2000/svg" viewBox="0 0 189.78 61.12">
  <defs>
    <style>
      .cls-1 {
        fill: #690d23;
      }
    </style>
  </defs>
  <g id="Layer_1-2" data-name="Layer 1">
    <g>
      <path class="cls-1" d="M0,5.08c1.01.04,2.33.08,3.99.13,1.65.04,3.3.06,4.93.06,2.01,0,3.95-.02,5.81-.06,1.86-.04,3.17-.06,3.93-.06,4.94,0,8.64.92,11.09,2.76,2.45,1.84,3.68,4.21,3.68,7.1,0,1.47-.39,2.93-1.16,4.4-.78,1.47-2.01,2.79-3.71,3.96-1.7,1.17-3.91,2.05-6.63,2.64v.13c3.69.34,6.61,1.08,8.77,2.23,2.16,1.15,3.7,2.51,4.62,4.08.92,1.57,1.38,3.21,1.38,4.93,0,2.56-.66,4.74-1.98,6.57-1.32,1.82-3.23,3.22-5.72,4.18-2.49.96-5.46,1.44-8.89,1.44-.92,0-2.32-.03-4.21-.09-1.89-.06-4.17-.09-6.85-.09-1.72,0-3.4.01-5.06.03-1.66.02-2.98.07-3.99.16v-1.26c1.38-.08,2.42-.25,3.11-.5.69-.25,1.15-.75,1.38-1.51.23-.75.35-1.88.35-3.39V11.74c0-1.55-.12-2.69-.35-3.42-.23-.73-.69-1.23-1.38-1.51-.69-.27-1.73-.43-3.11-.47v-1.26ZM17.59,6.34c-1.72,0-2.84.36-3.36,1.07-.52.71-.79,2.16-.79,4.34v31.16c0,1.47.12,2.58.35,3.33.23.75.67,1.26,1.32,1.51.65.25,1.58.38,2.8.38,3.39,0,5.86-.95,7.41-2.86,1.55-1.91,2.32-4.62,2.32-8.14,0-3.23-.83-5.72-2.48-7.48-1.66-1.76-4.39-2.64-8.2-2.64h-5.72v-1.07h5.4c2.14,0,3.78-.47,4.93-1.41,1.15-.94,1.95-2.2,2.39-3.77.44-1.57.66-3.26.66-5.06,0-3.1-.54-5.43-1.63-7.01-1.09-1.57-2.89-2.36-5.4-2.36Z"/>
      <path class="cls-1" d="M76.61,47.53c-.42-.16-.77-.44-1.04-.89-.44-.73-.85-1.96-1.22-3.68l-1.44-6.47c-.55-2.6-1.65-4.53-3.3-5.81-1.66-1.28-4.22-2.08-7.7-2.42-.12-.02-.27-.04-.4-.06,1.67-.19,3.17-.49,4.45-.92,2.32-.78,4.16-1.77,5.5-2.98,1.34-1.21,2.28-2.54,2.83-3.99.54-1.45.82-2.86.82-4.24,0-2.22-.61-4.15-1.82-5.78-1.22-1.63-3.05-2.9-5.5-3.8-2.45-.9-5.56-1.35-9.33-1.35-.75,0-2.05.02-3.9.06-1.84.04-3.79.06-5.84.06-1.63,0-3.27-.02-4.9-.06-1.63-.04-2.97-.08-4.02-.13v1.26c1.38.04,2.42.2,3.11.47.69.27,1.15.78,1.38,1.51.23.73.35,1.87.35,3.42v31.16c0,1.51-.12,2.64-.35,3.39-.23.75-.69,1.26-1.38,1.51-.69.25-1.73.42-3.11.5v1.26c1.05-.08,2.39-.14,4.02-.16,1.63-.02,3.39-.03,5.28-.03,1.67,0,3.33.01,4.96.03,1.63.02,2.97.07,4.02.16v-1.26c-1.34-.08-2.36-.25-3.05-.5-.69-.25-1.16-.75-1.41-1.51-.25-.75-.38-1.88-.38-3.39v-14.45h4.71c1.47,0,2.58.38,3.33,1.13.75.75,1.35,1.8,1.79,3.14.44,1.34.83,2.89,1.16,4.65l1.19,6.28c.5,2.64,1.44,4.43,2.83,5.37,1.38.94,3.08,1.41,5.09,1.41.83,0,1.58-.07,2.27-.2.3-.91.64-1.81,1-2.71ZM56.44,27.2h-3.2v-15.46c0-2.18.26-3.62.79-4.34.52-.71,1.64-1.07,3.36-1.07,3.18,0,5.42.91,6.72,2.73,1.3,1.82,1.95,4.39,1.95,7.7,0,1.93-.24,3.68-.72,5.25-.48,1.57-1.42,2.83-2.83,3.77-1.4.94-3.42,1.41-6.06,1.41Z"/>
      <path class="cls-1" d="M96.79,5.88l15.27,39.4c.63,1.51,1.31,2.54,2.04,3.11.73.57,1.41.87,2.04.91v1.26c-1.09-.08-2.4-.14-3.93-.16-1.53-.02-3.09-.03-4.68-.03-1.84,0-3.56.01-5.15.03-1.59.02-2.89.07-3.89.16v-1.26c2.14-.08,3.5-.45,4.08-1.1.59-.65.46-2.04-.38-4.18l-11.06-29.85,1.13-1.38-10.05,26.07c-.8,2.09-1.28,3.81-1.44,5.15-.17,1.34-.06,2.39.31,3.14.38.75,1.01,1.29,1.88,1.6.88.31,1.97.49,3.27.53v1.26c-1.34-.08-2.64-.14-3.89-.16-1.26-.02-2.51-.03-3.77-.03-.92,0-1.79.01-2.61.03-.82.02-1.54.07-2.17.16v-1.26c.92-.21,1.83-.75,2.73-1.63.9-.88,1.77-2.41,2.61-4.59l14.39-37.2c.5.04,1.05.06,1.63.06s1.13-.02,1.63-.06ZM102.26,32.46v1.26h-18.72l.63-1.26h18.1Z"/>
      <path class="cls-1" d="M129.51,61.12l-18.82-50.11c-1.09-2.98-2.32-5.17-3.7-6.58-1.37-1.4-2.64-2.31-3.78-2.71V0c.86.06,1.82.12,2.88.17,1.06.06,2.28.08,3.65.08,1.66,0,3.34-.03,5.03-.08S118.25.06,120.14,0v1.72c-2.35.06-4.15.57-5.41,1.55-1.26.98-1.89,2.58-1.89,4.81,0,2.24.72,5.27,2.15,9.11l12.23,34.51,2.38,6.57,12.47-49.33c.74-2.01,1.06-3.51.94-4.51-.11-1-.67-1.69-1.68-2.06-1-.37-2.45-.59-4.34-.65V0c1.32.06,3.08.12,5.29.17s4.57.08,7.09.08c2.06,0,4.17-.03,6.32-.08C157.84.12,159.66.06,161.15,0v1.72c-.86.06-1.79.46-2.79,1.2-1,.75-1.94,2.18-2.79,4.3"/>
      <path class="cls-1" d="M170.43,4.89l15.27,39.4c.63,1.51,1.31,2.54,2.04,3.11.73.57,1.41.87,2.04.91v1.26c-1.09-.08-2.4-.14-3.93-.16-1.53-.02-3.09-.03-4.68-.03-1.84,0-3.56.01-5.15.03-1.59.02-2.89.07-3.89.16v-1.26c2.14-.08,3.5-.45,4.08-1.1.59-.65.46-2.04-.38-4.18l-11.06-29.85,1.13-1.38-10.05,26.07c-.8,2.09-1.28,3.81-1.44,5.15-.17,1.34-.06,2.39.31,3.14.38.75,1.01,1.29,1.88,1.6.88.31,1.97.49,3.27.53v1.26c-1.34-.08-2.64-.14-3.89-.16-1.26-.02-2.51-.03-3.77-.03-.92,0-1.79.01-2.61.03-.82.02-1.54.07-2.17.16v-1.26c.92-.21,1.83-.75,2.73-1.63.9-.88,1.77-2.41,2.61-4.59l14.39-37.2c.5.04,1.05.06,1.63.06s1.13-.02,1.63-.06ZM175.9,31.47v1.26h-18.72l.63-1.26h18.1Z"/>
      <line class="cls-1" x1="139.69" y1="10.2" x2="129.78" y2="50.34"/>
    </g>
  </g>
</svg>