<?xml version="1.0" encoding="UTF-8"?>
<svg id="Layer_2" data-name="Layer 2" xmlns="http://www.w3.org/2000/svg" viewBox="0 0 65.58 65.58">
  <defs>
    <style>
      .cls-1 {
        fill: #231f20;
      }

      .cls-2 {
        fill: #147d53;
      }

      .cls-3 {
        fill: #fff;
      }
    </style>
  </defs>
  <g id="Layer_1-2" data-name="Layer 1">
    <g>
      <circle class="cls-2" cx="32.79" cy="32.79" r="32.79"/>
      <g>
        <path class="cls-1" d="M13.79,48.65l.92,1.01c.51.56.48,1.12.07,1.5-.34.31-.75.31-1.04.13.13.26.24.78-.21,1.2-.58.52-1.23.33-1.69-.18l-.94-1.03,2.89-2.63ZM11.32,51.32l.74.81c.35.38.82.52,1.24.14.36-.33.4-.79-.12-1.37l-.63-.69-1.22,1.12ZM13.4,50.72c.45.5.81.51,1.14.21.28-.26.33-.66-.03-1.07l-.72-.79-1.03.94.65.71Z"/>
        <path class="cls-1" d="M16.02,51.02l-1.53,1.81c-.67.79-.4,1.37.02,1.72.49.42,1.04.52,1.7-.26l1.53-1.81.24.21-1.52,1.79c-.79.93-1.53.8-2.15.28-.59-.5-.83-1.25-.1-2.12l1.55-1.83.25.21Z"/>
        <path class="cls-1" d="M20.2,56.41c-.57.9-1.57,1.42-2.59.77-.93-.59-1-1.68-.4-2.63.59-.94,1.6-1.37,2.58-.75.91.57,1.02,1.64.41,2.61ZM17.5,54.72c-.48.76-.51,1.74.28,2.23.85.54,1.64.07,2.14-.72.48-.77.5-1.69-.29-2.19-.84-.53-1.66-.07-2.13.68Z"/>
        <path class="cls-1" d="M20.62,58.78l.62-1.33s.02-.07.02-.09l-.26-2.72.33.15c.07.77.2,2.09.23,2.43.28-.19,1.37-.94,2.04-1.37l.31.15-2.33,1.53s-.03.03-.05.07l-.62,1.32-.29-.14Z"/>
        <path class="cls-1" d="M23.02,58.37l-.92,1.1-.3-.1,2.66-3.21.35.13.1,4.19-.32-.11-.03-1.43-1.55-.55ZM24.57,58.61c-.02-1.23-.05-1.83-.03-2.11h0c-.19.25-.66.82-1.32,1.63l1.35.48Z"/>
        <path class="cls-1" d="M25.58,60.64l.79-3.82.45.09c.4,1.04,1.35,3.45,1.5,3.91h0c.08-.55.2-1.12.33-1.74l.36-1.72.31.07-.79,3.82-.41-.09c-.38-1-1.33-3.5-1.52-3.98h0c-.08.5-.2,1.06-.34,1.75l-.37,1.76-.31-.07Z"/>
        <path class="cls-1" d="M30.72,57.83l-1.3-.1.02-.29,2.93.23-.02.29-1.31-.1-.29,3.6-.32-.02.29-3.61Z"/>
        <path class="cls-1" d="M33.93,59.72l.13,1.81-.32.02-.28-3.89,1.4-.1c.77-.06,1.21.33,1.25.94.04.5-.24.84-.66.97.4.07.69.31.74.97v.15c.03.27.04.64.12.78l-.31.02c-.08-.16-.09-.47-.12-.81v-.1c-.05-.63-.26-.89-1-.83l-.95.07ZM33.91,59.43l.93-.07c.68-.05.98-.32.94-.83-.04-.47-.36-.72-.97-.68l-1.02.07.11,1.51Z"/>
        <path class="cls-1" d="M39.1,58.92l-1.95.37.3,1.6,2.14-.41v.29s-2.39.46-2.39.46l-.73-3.83,2.36-.45.05.28-2.05.39.26,1.39,1.95-.37.06.28Z"/>
        <path class="cls-1" d="M40.1,59.54c.26.46.68.64,1.29.45.68-.21.83-.63.7-1.03-.13-.42-.4-.62-1.28-.56-.85.05-1.27-.1-1.44-.64-.15-.49.06-1.06.86-1.31.82-.26,1.33.13,1.52.57l-.31.1c-.21-.37-.56-.57-1.14-.39-.53.17-.74.51-.62.92.13.41.42.49,1.16.44,1.13-.07,1.42.3,1.56.75.17.55-.08,1.15-.95,1.42-.93.29-1.44-.14-1.67-.62l.31-.1Z"/>
        <path class="cls-1" d="M44.78,56.86l-1.82.8.66,1.49,1.99-.88.07.28-2.23.98-1.57-3.57,2.19-.97.12.26-1.91.84.57,1.29,1.82-.8.12.26Z"/>
        <path class="cls-1" d="M46.14,56.78l.26,1.41-.27.16-.77-4.1.32-.19,3.28,2.6-.29.18-1.12-.9-1.41.84ZM47.32,55.74c-.96-.77-1.44-1.14-1.64-1.33h0c.07.31.21,1.03.41,2.06l1.24-.73Z"/>
        <path class="cls-1" d="M48.6,54.66l1.11,1.44-.25.19-2.38-3.09,1.11-.86c.61-.47,1.19-.39,1.56.09.3.39.27.83-.02,1.17.37-.17.74-.12,1.15.4l.09.12c.17.22.37.52.52.6l-.25.19c-.16-.09-.34-.34-.54-.61l-.06-.08c-.39-.5-.7-.6-1.29-.15l-.75.58ZM48.42,54.43l.74-.57c.54-.41.63-.81.32-1.21-.29-.38-.7-.4-1.18-.03l-.81.62.92,1.2Z"/>
        <path class="cls-1" d="M53.52,51.26c.31.57.32,1.23-.26,1.82-.79.8-1.85.59-2.63-.19-.75-.74-1.02-1.84-.22-2.65.6-.6,1.28-.62,1.84-.25l-.22.22c-.48-.23-.95-.23-1.42.24-.68.69-.34,1.6.26,2.19.59.59,1.5.92,2.2.22.45-.45.44-.91.24-1.38l.22-.22Z"/>
        <path class="cls-1" d="M51.67,49.02l.19-.25,1.36,1.02,1.4-1.86-1.36-1.02.19-.25,3.13,2.35-.19.25-1.54-1.16-1.4,1.86,1.54,1.16-.19.25-3.13-2.35Z"/>
      </g>
      <g>
        <circle class="cls-1" cx="32.79" cy="32.79" r="21.54"/>
        <g>
          <path class="cls-3" d="M32.79,44.68c-3.18,0-6.16-1.24-8.41-3.48s-3.48-5.23-3.48-8.41,1.24-6.16,3.48-8.41c2.25-2.25,5.23-3.48,8.41-3.48s6.16,1.24,8.41,3.48c2.25,2.25,3.48,5.23,3.48,8.41s-1.24,6.16-3.48,8.41-5.23,3.48-8.41,3.48ZM32.79,21.68c-6.12,0-11.11,4.98-11.11,11.11s4.98,11.11,11.11,11.11,11.11-4.98,11.11-11.11-4.98-11.11-11.11-11.11Z"/>
          <path class="cls-3" d="M32.79,39.47c-3.68,0-6.68-3-6.68-6.68s3-6.68,6.68-6.68,6.68,3,6.68,6.68-3,6.68-6.68,6.68ZM32.79,26.9c-3.25,0-5.89,2.64-5.89,5.89s2.64,5.89,5.89,5.89,5.89-2.64,5.89-5.89-2.64-5.89-5.89-5.89Z"/>
          <path class="cls-3" d="M32.79,26.9c-.22,0-.39-.18-.39-.39v-5.22c0-.22.18-.39.39-.39s.39.18.39.39v5.22c0,.22-.18.39-.39.39Z"/>
          <path class="cls-3" d="M27.35,30.04c-.07,0-.13-.02-.2-.05l-4.52-2.61c-.19-.11-.25-.35-.14-.54.11-.19.35-.25.54-.14l4.52,2.61c.19.11.25.35.14.54-.07.13-.21.2-.34.2Z"/>
          <path class="cls-3" d="M22.83,38.93c-.14,0-.27-.07-.34-.2-.11-.19-.04-.43.14-.54l4.52-2.61c.19-.11.43-.04.54.14.11.19.04.43-.14.54l-4.52,2.61c-.06.04-.13.05-.2.05Z"/>
          <path class="cls-3" d="M32.79,44.68c-.22,0-.39-.18-.39-.39v-5.22c0-.22.18-.39.39-.39s.39.18.39.39v5.22c0,.22-.18.39-.39.39Z"/>
          <path class="cls-3" d="M42.75,38.93c-.07,0-.13-.02-.2-.05l-4.52-2.61c-.19-.11-.25-.35-.14-.54.11-.19.35-.25.54-.14l4.52,2.61c.19.11.25.35.14.54-.07.13-.21.2-.34.2Z"/>
          <path class="cls-3" d="M38.23,30.04c-.14,0-.27-.07-.34-.2-.11-.19-.04-.43.14-.54l4.52-2.61c.19-.11.43-.04.54.14.11.19.04.43-.14.54l-4.52,2.61c-.06.04-.13.05-.2.05Z"/>
        </g>
      </g>
      <circle class="cls-3" cx="32.92" cy="32.74" r="2.75"/>
    </g>
  </g>
</svg>