<?xml version="1.0" encoding="UTF-8"?>
<svg id="Layer_2" data-name="Layer 2" xmlns="http://www.w3.org/2000/svg" viewBox="0 0 302.3 302.3">
  <defs>
    <style>
      .cls-1 {
        fill: #003d5d;
      }

      .cls-2 {
        fill: #f2f2f2;
      }

      .cls-3 {
        fill: #fb5546;
      }
    </style>
  </defs>
  <g id="Layer_1" data-name="Layer 1">
    <g>
      <circle class="cls-3" cx="151.15" cy="151.15" r="151.15"/>
      <g>
        <path class="cls-2" d="M214.75,164.34c1.31-.24,2.83-.31,3.97.5,2.16,1.36,2.4,4.88.49,6.55-1.78,1.71-4.99,1.49-6.48-.5-1.68-2.1-.74-5.88,2.01-6.55Z"/>
        <path class="cls-1" d="M111.74,211.81c2.24-1.23,5.07-.85,7.29.26.3.19,1,.42.61.88-.45.61-.63,1.51-1.29,1.91-1.27-.82-2.77-1.34-4.3-1.11-.62-.03-1.04.52-1.33,1-.09.65.54,1.1,1.03,1.4,1.75.73,3.81.95,5.25,2.29,1.78,1.76,1.22,5.15-1.04,6.24-2.83,1.32-6.29.54-8.67-1.38.44-.81.93-1.59,1.48-2.33,1.57,1.14,3.6,2.37,5.58,1.48.76-.24.71-1.08.71-1.71-1.89-1.83-5.19-1.29-6.75-3.59-.87-1.78-.45-4.36,1.43-5.34Z"/>
        <path class="cls-1" d="M193.21,211.49c2.15-.67,4.65-.64,6.62.54.72.41,1.33.99,1.98,1.51-.65.71-1.36,1.38-1.86,2.2-1.21-1.53-3.3-2.48-5.22-1.76-2.27.61-3.48,3.34-2.77,5.5.37,1.24,1.26,2.38,2.5,2.84,1.9.82,4.17,0,5.42-1.57l.25-.05c.53.61,1.02,1.26,1.6,1.82.1.49-.52.72-.8,1.02-2.84,2.49-7.66,2.45-10.26-.38-1.72-1.84-2.33-4.66-1.58-7.06.54-2.09,2.19-3.75,4.12-4.61Z"/>
        <path class="cls-1" d="M206.71,211.35c.96.03,1.91-.01,2.87.02,0,1.82,0,3.63-.06,5.45,2.16-.03,4.33,0,6.49-.01-.02-1.83.02-3.66-.04-5.49.9.06,1.81.07,2.72.03-.02,4.58-.02,9.16,0,13.73-.9-.03-1.8-.03-2.7,0,.02-1.88,0-3.77.02-5.65-2.15,0-4.29.05-6.43-.02,0,1.89-.05,3.77.04,5.66-.97-.01-1.94-.01-2.9.03,0-4.58.01-9.17,0-13.75Z"/>
        <path class="cls-1" d="M83.48,211.33c.95.05,1.9.05,2.84.03-.07,4.58-.06,9.16,0,13.73-.95-.03-1.9-.03-2.85,0,.02-4.59.02-9.17,0-13.76Z"/>
        <path class="cls-1" d="M92.29,211.33c.92.03,1.85.04,2.77.07,1.97,2.58,3.94,5.18,5.85,7.81.22.35.52.65.83.93-.2-2.93,0-5.86-.11-8.79.95.01,1.9,0,2.85-.04,0,4.59-.12,9.19.04,13.77-.9-.03-1.8-.03-2.7-.04-1.9-2.63-3.97-5.15-5.86-7.79-.24-.35-.53-.66-.84-.94-.01,2.92,0,5.84,0,8.75-.94-.02-1.88-.01-2.82.02,0-4.59.02-9.17,0-13.76Z"/>
        <path class="cls-1" d="M125.01,211.36c.98.01,1.95,0,2.93.02-.13,2-.03,4.01-.06,6.02,0,1.32-.13,2.72.49,3.93.81,1.01,2.18,1.71,3.47,1.25.73-.19,1.23-.77,1.74-1.29.4-.9.5-1.88.47-2.85-.03-2.35.07-4.71-.05-7.06.99,0,1.97,0,2.96-.04,0,2.47,0,4.95,0,7.43-.12,1.59-.31,3.33-1.39,4.59-1.73,2.1-4.92,2.42-7.35,1.5-2.15-.85-3.23-3.24-3.23-5.43,0-2.69,0-5.37,0-8.06Z"/>
        <path class="cls-1" d="M142.84,211.32c2.47.12,4.95-.01,7.41.1,1.81.08,3.61,1.45,3.72,3.35.37,2.11-.29,4.99-2.77,5.37,1.17,1.64,2.22,3.35,3.46,4.94-1.16-.01-2.32-.04-3.47,0-1-1.47-1.97-2.96-3.02-4.4-.82-.27-1.72-.07-2.57-.1,0,1.5,0,3.01,0,4.51-.93-.04-1.85-.04-2.78-.01.07-4.58.04-9.17.01-13.75ZM145.61,213.92c0,1.38,0,2.76,0,4.15,1.39-.03,2.79.1,4.17-.08,1.7-.33,2.04-3.14.49-3.87-1.54-.29-3.12-.13-4.67-.2Z"/>
        <path class="cls-1" d="M158.19,211.33c3.69.05,7.39.09,11.08-.04.03.93.05,1.87,0,2.8-1.38-.12-2.75-.04-4.13-.08.07,3.68-.07,7.37.07,11.05-1,0-1.99,0-2.99,0v-11.04c-1.33.03-2.67-.02-4,.07,0-.92,0-1.84-.03-2.76Z"/>
        <path class="cls-1" d="M174.17,211.32c3.24.09,6.48.06,9.72.02-.03.91-.03,1.83-.04,2.75-2.31-.09-4.62-.03-6.92-.05.06.91.06,1.82,0,2.73,2.18,0,4.36.03,6.54-.03,0,.89,0,1.77,0,2.66h-6.54c.04.99.05,1.99.01,2.99,2.49.03,4.99,0,7.48.02-.02.89-.03,1.77,0,2.66-3.42-.02-6.84-.03-10.26,0v-13.76Z"/>
        <path class="cls-2" d="M199.43,164.6h7.29c0,12.84-.02,25.68.02,38.53-2.29-.04-4.59.07-6.87-.05.1-1.32.04-2.64.17-3.96-.7.63-1.11,1.52-1.85,2.12-2.02,1.79-4.74,2.71-7.43,2.62-3.83.13-7.56-1.76-10.04-4.63-2.44-2.96-3.55-6.88-3.32-10.69.02-3.51,1.56-6.92,3.99-9.43,2.67-2.55,6.36-4.1,10.07-3.9,2.49-.16,5.03.74,6.88,2.42.45.44.73,1.03,1.25,1.41-.27-4.81.03-9.64-.15-14.45ZM191.17,181.62c-1.97.24-3.86,1.28-4.96,2.94-1.46,1.98-1.68,4.61-1.2,6.96.49,2.46,2.32,4.65,4.75,5.37,2.62.8,5.69.22,7.7-1.7,2.75-2.87,3.07-7.77.54-10.88-1.58-2.03-4.3-3.07-6.83-2.69Z"/>
        <path class="cls-2" d="M91.35,167.17c3.85-2,8.36-2.37,12.6-1.75,3.95.66,7.7,2.66,10.25,5.77-1.5,1.87-3.22,3.55-4.71,5.42-2.23-3.07-5.99-4.81-9.75-4.7-2.81.24-5.57,1.35-7.65,3.27-5.15,4.95-5.16,14.32.3,19.05,4.75,4.47,13.27,3.79,17.11-1.55,1.62,1.44,3.01,3.14,4.64,4.57-.09.15-.26.46-.35.61-3.34,3.73-8.3,6.12-13.36,5.93-3.03.15-6.03-.65-8.79-1.84-4.11-1.85-7.49-5.29-9.16-9.48-1.91-4.46-1.98-9.58-.57-14.19,1.55-4.73,4.92-8.94,9.45-11.12Z"/>
        <path class="cls-2" d="M118.26,179.98c2.99-3.01,7.14-4.94,11.43-4.77,3.14-.15,6.45.63,8.86,2.74,2.18,1.88,3.11,4.8,3.39,7.58.06,5.87-.05,11.73.08,17.6-2.21,0-4.42.02-6.64,0,0-1.12.02-2.24.05-3.35-.93,1-1.74,2.18-3.01,2.81-2.23,1.34-4.91,1.39-7.43,1.22-3.19-.38-6.51-2.21-7.55-5.41-.87-2.76-.75-6.22,1.41-8.37,1.74-1.89,4.36-2.57,6.82-2.9,3.05-.2,6.1-.06,9.15-.12.5-.29.15-1.02.17-1.47-.19-2.1-2.01-3.77-4.06-4.03-3.44-.83-6.81.91-9.48,2.95-1.04-1.51-2.24-2.91-3.22-4.46ZM124.21,193.72c-.75,1.83.32,4.07,2.25,4.57,2.25.48,4.87.3,6.64-1.35,1.61-1.31,2.2-3.43,2.01-5.44-2.26,0-4.52-.02-6.78,0-1.6.07-3.39.65-4.13,2.2Z"/>
        <path class="cls-2" d="M154.23,179.02c1.83-2.5,4.91-3.91,7.99-3.8,2.38-.12,4.84.48,6.83,1.82,2.46,1.81,3.8,4.82,4.12,7.8.02,6.09-.02,12.19.02,18.29h-7.12c.04-4.43.03-8.86-.04-13.29.02-2.2.14-4.67-1.33-6.48-2.27-2.32-6.44-2.42-8.7-.05-1.29,1.4-1.65,3.37-1.76,5.2,0,4.87-.03,9.75.03,14.62h-7.01c0-9.08.02-18.16-.02-27.24,2.33,0,4.66,0,6.99,0,0,1.04,0,2.08-.01,3.13Z"/>
        <path class="cls-2" d="M212.48,175.89h7.15c-.09,9.07-.08,18.16-.01,27.23-2.38.02-4.76,0-7.13,0,.04-9.08.05-18.16,0-27.24Z"/>
        <g>
          <path class="cls-1" d="M145.57,60.24c1.45-.83,2.96-1.8,4.71-1.69,2.38-.19,4.48,1.1,6.43,2.29,11.22,6.38,22.37,12.88,33.56,19.31,1.68.97,3.61,1.86,4.46,3.74,1.45,3.1,1.2,6.7.66,9.98-.1.96-.96,1.48-1.72,1.91-6.41,3.73-12.73,7.61-19.14,11.35-2.92,1.71-5.79,3.53-8.79,5.08.13-3.68.07-7.37.13-11.06.05-1.02-.24-2.25.61-3.02,1.08-.82,2.34-1.39,3.45-2.18,3.78-2.41,7.67-4.66,11.43-7.09-5.26-3.27-10.71-6.25-16.03-9.44-3.99-2.35-8.03-4.6-12.08-6.83-.88-.46-1.71-1.04-2.66-1.34-9.58,4.94-18.56,10.93-27.9,16.29-1.96,1.17-4.26,2.25-5.16,4.5-1.31,2.38-1.28,5.15-1.27,7.79.03,7.08-.04,14.16.05,21.23-.06,2.5.66,4.99,1.97,7.11,1.01,1.64,2.66,2.71,4.22,3.77,4.97,3.18,10.17,5.95,15.27,8.9,2.78,1.55,5.54,3.15,8.41,4.55,2.17,1.13,4.86.7,6.84-.63,10.68-6.21,21.34-12.47,31.86-18.96,1.26-.78,2.59-1.46,3.71-2.43,2.16,1.22,4.28,2.5,6.38,3.82.6.28.55,1.02.67,1.58.21,3.06-1.22,6.28-3.9,7.89-11.73,7.03-23.58,13.87-35.36,20.81-1.99,1.17-4.07,2.54-6.47,2.49-3.06.17-5.52-1.91-8.06-3.27-9.21-5.38-18.41-10.76-27.6-16.17-2.83-1.75-6-3.2-8.09-5.88-1.35-1.68-2.14-3.78-2.39-5.9,0-12.74,0-25.48,0-38.22.1-3.3,1.63-6.7,4.58-8.39,12.42-7.29,24.86-14.54,37.24-21.89Z"/>
          <path class="cls-2" d="M122.69,87.55c9.34-5.36,18.32-11.35,27.9-16.29.95.3,1.78.87,2.66,1.34,4.05,2.24,8.09,4.48,12.08,6.83,5.31,3.19,10.76,6.16,16.03,9.44-3.76,2.43-7.65,4.68-11.43,7.09-6.55-3.68-13.04-7.49-19.64-11.08-5.52,3.2-10.95,6.54-16.36,9.91-3.01,1.79-4.73,5.2-5.07,8.62-.18,2.68.03,5.36-.04,8.05-.06,3.13-.16,6.42,1.22,9.31.83,1.71,2.21,3.09,3.81,4.09,4.5,2.9,9.23,5.44,13.91,8.05.74.58,1.63.07,2.33-.33,8.24-5.04,16.62-9.87,24.83-14.94,1.18-.73,2.67-.74,3.86-.02,3.25,1.96,6.54,3.87,9.83,5.77-1.13.98-2.46,1.65-3.71,2.43-10.52,6.49-21.18,12.74-31.86,18.96-1.98,1.33-4.67,1.76-6.84.63-2.87-1.4-5.63-2.99-8.41-4.55-5.1-2.96-10.3-5.72-15.27-8.9-1.56-1.06-3.22-2.13-4.22-3.77-1.32-2.12-2.04-4.61-1.97-7.11-.08-7.07-.02-14.15-.05-21.23,0-2.64-.04-5.4,1.27-7.79.91-2.26,3.2-3.34,5.16-4.5Z"/>
          <path class="cls-2" d="M166.84,115.5l25.55-15.98c1.81-1.13,2.94-3.11,2.98-5.25v-.4s-29.65,18.34-29.65,18.34l-.19,2.49c-.05.7.71,1.17,1.31.79Z"/>
        </g>
      </g>
    </g>
  </g>
</svg>