<?xml version="1.0" encoding="UTF-8"?>
<svg id="Layer_2" data-name="Layer 2" xmlns="http://www.w3.org/2000/svg" xmlns:xlink="http://www.w3.org/1999/xlink" viewBox="0 0 340.75 340.75">
  <defs>
    <style>
      .cls-1 {
        fill: url(#Blue-2);
      }

      .cls-1, .cls-2 {
        stroke: #fcfcfa;
        stroke-miterlimit: 10;
        stroke-width: 7px;
      }

      .cls-3 {
        fill: #ffed5c;
      }

      .cls-4 {
        fill: #8f106a;
      }

      .cls-5 {
        fill: #f6ffff;
      }

      .cls-6 {
        fill: #ff79a7;
      }

      .cls-2, .cls-7 {
        fill: #d4449c;
      }

      .cls-8 {
        fill: #32a6d4;
      }

      .cls-9 {
        fill: #232f3e;
      }

      .cls-10 {
        fill: url(#Blue);
      }
    </style>
    <linearGradient id="Blue" x1="250.95" y1="31.11" x2="89.87" y2="310.1" gradientUnits="userSpaceOnUse">
      <stop offset="0" stop-color="#2bc4f3"/>
      <stop offset=".5" stop-color="#00aeee"/>
      <stop offset="1" stop-color="#0095da"/>
    </linearGradient>
    <linearGradient id="Blue-2" data-name="Blue" x1="104.1" y1="120.97" x2="237.31" y2="120.97" xlink:href="#Blue"/>
  </defs>
  <g id="Layer_1" data-name="Layer 1">
    <g>
      <circle class="cls-5" cx="170.37" cy="170.37" r="170.34"/>
      <circle class="cls-10" cx="170.41" cy="170.6" r="161.04"/>
      <g>
        <path class="cls-4" d="M81.13,237.89c-.18,0-.44-.04-.77-.11-.34-.07-1-.27-1.97-.59-.98-.32-1.91-.73-2.8-1.23-.89-.5-1.88-1.23-2.96-2.21-1.08-.98-2.02-2.09-2.8-3.33-.78-1.24-1.44-2.84-1.97-4.8-.53-1.95-.8-4.12-.8-6.51,0-1.56.12-3.05.35-4.45.23-1.4.56-2.65.99-3.73.43-1.08.9-2.09,1.41-3.01.52-.92,1.1-1.72,1.76-2.4.66-.68,1.31-1.28,1.95-1.81.64-.53,1.31-.99,2-1.36.69-.37,1.31-.68,1.87-.91.55-.23,1.11-.44,1.68-.61,1.42-.43,2.83-.41,4.21.05,3.09,1.03,5.64,2.83,7.63,5.39.92,1.17,1.24,2.47.96,3.89-.29,1.42-1.07,2.49-2.35,3.2-.93.53-1.9.73-2.93.59-1.03-.14-1.92-.59-2.67-1.33-.6-.57-1.3-.98-2.08-1.23-.5-.18-.98-.19-1.44-.05-.43.14-.84.33-1.23.56-.39.23-.82.57-1.28,1.01-.46.45-.84,1.07-1.12,1.87-.29.8-.43,1.72-.43,2.75,0,2.81.78,5.42,2.35,7.84.46.68,1.09,1.08,1.89,1.23.8.14,1.54-.03,2.21-.53v-.05c.18-.11.44-.31.8-.61.35-.3.66-.56.91-.77.25-.21.57-.46.96-.75.39-.28.74-.53,1.04-.75.3-.21.65-.42,1.04-.61.39-.2.75-.34,1.07-.43.32-.09.64-.13.96-.13s.6.07.85.21l.27.16c1.39.71,2.35,1.79,2.88,3.23.53,1.44.5,2.87-.11,4.29-.68,1.64-1.56,3.03-2.67,4.19-1.1,1.16-2.19,1.97-3.25,2.45-1.07.48-2.1.84-3.09,1.09-1,.25-1.8.37-2.4.37l-.91-.05Z"/>
        <path class="cls-4" d="M118.04,230.58c.43,1.1.37,2.18-.16,3.23-.53,1.05-1.44,1.84-2.72,2.37-2.24.89-4.32,1.46-6.24,1.71s-3.55.22-4.88-.08-2.55-.82-3.65-1.55c-1.1-.73-1.99-1.53-2.67-2.4-.68-.87-1.28-1.84-1.81-2.91-1.88-3.95-2.13-8.07-.75-12.37.53-1.64,1.21-3.08,2.03-4.32.82-1.24,1.71-2.21,2.69-2.91.98-.69,2-1.25,3.07-1.68,1.07-.43,2.18-.68,3.33-.77,1.15-.09,2.23-.1,3.23-.03.99.07,2.01.21,3.04.43,1.31.28,2.4.84,3.25,1.68.85.84,1.35,1.77,1.49,2.8v.05c0,.21.03.83.08,1.84s.06,1.59.03,1.73c-.04.68-.13,1.32-.29,1.92-.16.6-.47,1.31-.93,2.11-.46.8-1.06,1.49-1.79,2.08-.73.59-1.75,1.13-3.07,1.63-1.32.5-2.83.82-4.53.96-.29,0-.45.14-.51.43-.05.29.04.48.29.59.07.07.17.15.29.24.12.09.41.28.85.56.44.29.92.48,1.44.59.51.11,1.18.2,2,.27.82.07,1.67-.04,2.56-.32.57-.11,1.13-.11,1.68,0,.55.11,1.06.34,1.52.69.46.36.8.8,1.01,1.33.04.04.07.07.11.11ZM105.77,218.53c-.14.32-.12.63.08.93.19.3.47.45.83.45.96,0,2.06-.18,3.31-.53.25-.07.44-.22.59-.45.14-.23.16-.49.05-.77-.28-.96-1.02-1.44-2.21-1.44s-2.07.6-2.64,1.81Z"/>
        <path class="cls-4" d="M121.34,202.56c1.03-1.19,2.27-1.79,3.71-1.79s2.67.6,3.68,1.79c1.01,1.19,1.52,2.64,1.52,4.35v25.07c0,1.71-.51,3.16-1.52,4.35-1.01,1.19-2.25,1.79-3.71,1.79-.92,0-1.8-.27-2.61-.83-.82-.55-1.46-1.3-1.92-2.24-.46-.94-.69-1.96-.69-3.07v-25.07c0-1.71.52-3.15,1.55-4.35Z"/>
        <path class="cls-4" d="M155.58,230.58c.43,1.1.37,2.18-.16,3.23-.53,1.05-1.44,1.84-2.72,2.37-2.24.89-4.32,1.46-6.24,1.71s-3.55.22-4.88-.08-2.55-.82-3.65-1.55c-1.1-.73-1.99-1.53-2.67-2.4-.68-.87-1.28-1.84-1.81-2.91-1.88-3.95-2.13-8.07-.75-12.37.53-1.64,1.21-3.08,2.03-4.32.82-1.24,1.71-2.21,2.69-2.91.98-.69,2-1.25,3.07-1.68,1.07-.43,2.18-.68,3.33-.77,1.15-.09,2.23-.1,3.23-.03.99.07,2.01.21,3.04.43,1.31.28,2.4.84,3.25,1.68.85.84,1.35,1.77,1.49,2.8v.05c0,.21.03.83.08,1.84s.06,1.59.03,1.73c-.04.68-.13,1.32-.29,1.92-.16.6-.47,1.31-.93,2.11-.46.8-1.06,1.49-1.79,2.08-.73.59-1.75,1.13-3.07,1.63-1.32.5-2.83.82-4.53.96-.29,0-.45.14-.51.43-.05.29.04.48.29.59.07.07.17.15.29.24.12.09.41.28.85.56.44.29.92.48,1.44.59.51.11,1.18.2,2,.27.82.07,1.67-.04,2.56-.32.57-.11,1.13-.11,1.68,0,.55.11,1.06.34,1.52.69.46.36.8.8,1.01,1.33.04.04.07.07.11.11ZM143.32,218.53c-.14.32-.12.63.08.93.19.3.47.45.83.45.96,0,2.06-.18,3.31-.53.25-.07.44-.22.59-.45.14-.23.16-.49.05-.77-.28-.96-1.02-1.44-2.21-1.44s-2.07.6-2.64,1.81Z"/>
        <path class="cls-4" d="M168.97,211.49c.96.04,1.92.13,2.88.29.96.16,2.07.52,3.33,1.07,1.26.55,2.35,1.26,3.28,2.13.92.87,1.71,2.12,2.37,3.73.66,1.62.99,3.51.99,5.68,0,1.96-.27,3.72-.8,5.28-.53,1.56-1.24,2.81-2.11,3.73-.87.92-1.83,1.71-2.88,2.35-1.05.64-2.1,1.09-3.15,1.36-1.05.27-2,.46-2.85.59-.85.12-1.55.19-2.08.19h-3.2c-1.25,0-2.4-.24-3.47-.72-1.07-.48-1.91-1.14-2.53-1.97-.62-.83-.95-1.75-.99-2.75l-.91-27.79c-.04-.75.18-1.44.64-2.08.46-.64,1.08-1.14,1.87-1.49.78-.35,1.64-.53,2.56-.53s1.78.18,2.56.53c.78.36,1.4.84,1.87,1.44.46.6.69,1.26.69,1.97l.05,5.49c0,.43.18.78.53,1.07.35.29.8.43,1.33.43ZM169.07,229.14c3.41-.25,5.12-1.23,5.12-2.93,0-.68-.29-1.35-.85-2.03-.57-.67-1.24-1.21-2.03-1.6-.78-.39-1.53-.62-2.24-.69-.5-.04-.93.08-1.31.35-.37.27-.56.61-.56,1.04v4.53c0,.25.08.48.24.69.16.21.39.38.69.51.3.12.61.17.93.13Z"/>
        <path class="cls-4" d="M203.58,213.52c.85,1.14,1.19,2.39,1.01,3.76-.18,1.37-.84,2.5-1.97,3.39l-.05.05c-1.1.85-2.35,1.24-3.73,1.15-1.39-.09-2.58-.61-3.57-1.57-.28-.25-.48-.37-.59-.37-.25.07-.52.45-.8,1.12-.32.75-.48,1.55-.48,2.4v9.55c0,1.35-.5,2.51-1.49,3.47-1,.96-2.2,1.44-3.6,1.44s-2.6-.48-3.6-1.44c-1-.96-1.49-2.12-1.49-3.47v-17.97c0-.85.18-1.67.53-2.45.35-.78.83-1.45,1.41-2,.59-.55,1.29-.99,2.11-1.33.82-.34,1.67-.51,2.56-.51,1.31,0,2.36.52,3.15,1.55.25.39.59.46,1.01.21l.11-.05c.64-.43,1.21-.68,1.71-.77.5-.09,1.12-.1,1.87-.03,2.06.21,4.04,1.51,5.92,3.89Z"/>
        <path class="cls-4" d="M225.5,216.72c.89,2.7,1,7.27.32,13.71-.18,2.03-1.17,3.77-2.99,5.23-.85.68-1.79,1.2-2.8,1.57-1.01.37-2.04.58-3.07.61-.32.04-.64.05-.96.05-2.2,0-4.23-.29-6.08-.88-1.85-.59-3.34-1.41-4.48-2.48-1.6-1.49-2.4-3.38-2.4-5.65,0-3.2,1.63-5.72,4.91-7.57,1.92-1.1,4.18-1.87,6.77-2.29.11,0,.18-.05.21-.16.03-.07.03-.14,0-.21-.21-.28-.68-.47-1.39-.56-.71-.09-1.37-.08-1.97.03-1.25.25-2.4.04-3.47-.64-1.07-.67-1.74-1.62-2.03-2.83-.32-1.28-.12-2.47.61-3.57.73-1.1,1.75-1.78,3.07-2.03,3.88-.71,7.29-.27,10.24,1.33,2.74,1.46,4.57,3.57,5.49,6.35ZM216.59,229.62v-1.28c0-.28-.09-.52-.27-.69-.18-.18-.41-.28-.69-.32-2.63-.07-4.25.37-4.85,1.33.11.85,1.67,1.49,4.69,1.92.28.04.54-.04.77-.24.23-.2.35-.44.35-.72Z"/>
        <path class="cls-4" d="M249.87,230.47c.5,1.35.41,2.69-.27,4-.71,1.32-1.81,2.19-3.31,2.61-1.78.53-3.41.8-4.91.8-1.32,0-2.52-.19-3.63-.59-1.81-.68-3.27-1.85-4.37-3.52-1-1.53-1.51-3.22-1.55-5.07l-.11-9.12c0-.11-.03-.21-.08-.32-.05-.11-.12-.2-.19-.27-.07-.07-.16-.13-.27-.19-.11-.05-.23-.08-.37-.08-1.25,0-2.24-.42-2.99-1.25-.75-.83-1.12-1.86-1.12-3.07v-.53c0-.96.32-1.82.96-2.59.64-.76,1.46-1.27,2.45-1.52.64-.14.96-.55.96-1.23v-3.36c0-.78.19-1.5.56-2.16.37-.66.89-1.21,1.55-1.65.66-.44,1.4-.72,2.21-.83,1.49-.18,2.81.21,3.95,1.17,1.1.92,1.65,2.08,1.65,3.47v2.83c0,.29.09.54.27.77.18.23.41.36.69.4,1.07.25,1.95.78,2.67,1.6.71.82,1.07,1.74,1.07,2.77s-.35,2-1.04,2.8c-.69.8-1.57,1.32-2.64,1.57-.5.11-.73.41-.69.91.04.39.05.6.05.64.18,4.37.48,6.9.91,7.57.07.14.37.16.91.05,1.39-.35,2.72-.21,4,.43,1.31.64,2.2,1.62,2.67,2.93Z"/>
        <path class="cls-4" d="M274.09,230.58c.43,1.1.37,2.18-.16,3.23-.53,1.05-1.44,1.84-2.72,2.37-2.24.89-4.32,1.46-6.24,1.71s-3.55.22-4.88-.08-2.55-.82-3.65-1.55c-1.1-.73-1.99-1.53-2.67-2.4-.68-.87-1.28-1.84-1.81-2.91-1.88-3.95-2.13-8.07-.75-12.37.53-1.64,1.21-3.08,2.03-4.32.82-1.24,1.71-2.21,2.69-2.91.98-.69,2-1.25,3.07-1.68,1.07-.43,2.18-.68,3.33-.77,1.15-.09,2.23-.1,3.23-.03.99.07,2.01.21,3.04.43,1.31.28,2.4.84,3.25,1.68.85.84,1.35,1.77,1.49,2.8v.05c0,.21.03.83.08,1.84s.06,1.59.03,1.73c-.04.68-.13,1.32-.29,1.92-.16.6-.47,1.31-.93,2.11-.46.8-1.06,1.49-1.79,2.08-.73.59-1.75,1.13-3.07,1.63-1.32.5-2.83.82-4.53.96-.29,0-.45.14-.51.43-.05.29.04.48.29.59.07.07.17.15.29.24.12.09.41.28.85.56.44.29.92.48,1.44.59.51.11,1.18.2,2,.27.82.07,1.67-.04,2.56-.32.57-.11,1.13-.11,1.68,0,.55.11,1.06.34,1.52.69.46.36.8.8,1.01,1.33.04.04.07.07.11.11ZM261.82,218.53c-.14.32-.12.63.08.93.19.3.47.45.83.45.96,0,2.06-.18,3.31-.53.25-.07.44-.22.59-.45.14-.23.16-.49.05-.77-.28-.96-1.02-1.44-2.21-1.44s-2.07.6-2.64,1.81Z"/>
      </g>
      <g>
        <path class="cls-4" d="M130.46,282.51c-1.21.11-2.35-.11-3.41-.64-1.07-.53-1.92-1.3-2.56-2.29-.64-.99-.96-2.1-.96-3.31v-24.75c0-1.95.75-3.55,2.27-4.8,1.51-1.24,3.24-1.71,5.2-1.39,2.63.43,4.97,1.09,7.01,2,2.04.91,3.67,1.91,4.88,3.01,1.21,1.1,2.23,2.27,3.07,3.49.83,1.23,1.41,2.42,1.73,3.57.32,1.16.55,2.2.69,3.12.14.93.2,1.67.16,2.24l-.05.85c0,2.85-.37,5.38-1.12,7.6-.75,2.22-1.71,3.99-2.88,5.31-1.17,1.32-2.59,2.43-4.24,3.33s-3.25,1.54-4.8,1.89c-1.55.36-3.21.6-4.99.75ZM133.24,258.88v8.96c0,.6.24,1.09.72,1.47.48.37,1,.51,1.57.4,1.21-.21,2.3-.94,3.28-2.19.98-1.24,1.47-2.52,1.47-3.84-.04,0-.04-.1,0-.29.04-.2.02-.48-.05-.85-.07-.37-.14-.77-.21-1.2-.07-.43-.22-.87-.45-1.33-.23-.46-.51-.89-.83-1.28-.32-.39-.76-.75-1.31-1.07-.55-.32-1.17-.55-1.84-.69-.6-.11-1.15.04-1.63.43-.48.39-.72.89-.72,1.49Z"/>
        <path class="cls-4" d="M168.92,257.65c2.42,2.81,3.63,6.56,3.63,11.25,0,4.98-1.35,8.66-4.05,11.04-2.03,1.74-4.44,2.61-7.25,2.61h-.43c-1.99-.21-3.96-.98-5.92-2.29-3.88-2.63-5.81-6.75-5.81-12.37,0-1.96.26-3.74.77-5.36.52-1.62,1.13-2.92,1.84-3.89.71-.98,1.56-1.84,2.53-2.59.98-.75,1.83-1.29,2.56-1.63.73-.34,1.47-.6,2.21-.77,1.28-.39,2.54-.39,3.79,0,2.45.78,4.5,2.12,6.13,4ZM162.68,272.32c.67-.57,1.01-1.55,1.01-2.93v-1.12c0-1.46-.16-2.6-.48-3.41-.46-1.31-1.33-1.97-2.61-1.97-.53,0-.98.18-1.33.53-.57.57-.94,1.43-1.12,2.59-.18,1.16-.25,2.16-.21,3.01v.05c0,.46.05.9.16,1.31.11.41.24.74.4.99.16.25.35.48.56.69s.41.37.59.48c.18.11.36.2.56.27.19.07.35.12.45.13.11.02.19.03.27.03.68.04,1.26-.18,1.76-.64Z"/>
        <path class="cls-4" d="M196.22,261.6c.5,11.02-.53,18.86-3.09,23.52-1.42,2.63-3.54,4.34-6.35,5.12-1.17.32-2.44.48-3.79.48-1.07,0-2.19-.11-3.36-.32-1.64-.29-2.91-1.1-3.81-2.45-.91-1.35-1.13-2.81-.67-4.37.35-1.28,1.12-2.3,2.29-3.07,1.17-.76,2.47-1.08,3.89-.93.89.11,1.78.16,2.67.16,1.07,0,1.64-.28,1.71-.85.03-.21-.02-.39-.16-.53-.14-.21-.36-.32-.64-.32-5.08-.32-8.57-2.33-10.45-6.03-.89-1.78-1.3-3.59-1.23-5.44,0-4.55,1.46-7.96,4.37-10.24,2.24-1.71,5.21-2.68,8.91-2.93,2.56-.18,4.78.55,6.67,2.19,1.92,1.64,2.93,3.65,3.04,6.03ZM186.41,269.12v-5.71c0-.25-.1-.47-.29-.67-.2-.19-.44-.29-.72-.29h-.05c-.68.04-1.52.45-2.53,1.25s-1.52,1.52-1.52,2.16.49,1.47,1.47,2.48c.98,1.01,1.79,1.57,2.43,1.68.32.04.6-.03.85-.21.25-.18.37-.41.37-.69Z"/>
        <path class="cls-4" d="M218.86,272.59c.34,2.28-.26,4.32-1.79,6.13-2.06,2.56-4.71,3.84-7.95,3.84-2.53,0-5.23-.76-8.11-2.29-1.1-.57-1.85-1.41-2.24-2.53-.39-1.12-.34-2.21.16-3.28.57-1.21,1.51-2.04,2.83-2.51,1.31-.46,2.61-.39,3.89.21.6.29,1.19.51,1.76.67.57.16.98.23,1.23.21.25-.02.44-.06.59-.13.07-.14.09-.27.05-.37-.04-.07-.12-.14-.27-.21-1.35-.35-2.58-.75-3.68-1.2-1.1-.44-2.1-.93-2.99-1.47-.89-.53-1.65-1.1-2.29-1.71-.64-.6-1.17-1.26-1.6-1.97-.93-1.56-1.21-3.06-.85-4.48.82-3.52,2.47-5.92,4.96-7.2,2.77-1.42,6.36-1.31,10.77.32,1.17.43,2.04,1.18,2.61,2.27.57,1.08.66,2.2.27,3.33-.43,1.32-1.32,2.26-2.67,2.83-1.35.57-2.7.57-4.05,0-1.21-.5-2.01-.66-2.4-.48l-.05.05c-.14.64.16,1.05.91,1.23,3.09.85,5.58,1.94,7.47,3.25,1.96,1.39,3.1,3.22,3.44,5.49Z"/>
      </g>
      <g>
        <path class="cls-5" d="M81.13,236.21c-.18,0-.44-.04-.77-.11-.34-.07-1-.27-1.97-.59-.98-.32-1.91-.73-2.8-1.23-.89-.5-1.88-1.23-2.96-2.21-1.08-.98-2.02-2.09-2.8-3.33-.78-1.24-1.44-2.84-1.97-4.8-.53-1.95-.8-4.12-.8-6.51,0-1.56.12-3.05.35-4.45.23-1.4.56-2.65.99-3.73.43-1.08.9-2.09,1.41-3.01.52-.92,1.1-1.72,1.76-2.4.66-.68,1.31-1.28,1.95-1.81.64-.53,1.31-.99,2-1.36.69-.37,1.31-.68,1.87-.91.55-.23,1.11-.44,1.68-.61,1.42-.43,2.83-.41,4.21.05,3.09,1.03,5.64,2.83,7.63,5.39.92,1.17,1.24,2.47.96,3.89-.29,1.42-1.07,2.49-2.35,3.2-.93.53-1.9.73-2.93.59-1.03-.14-1.92-.59-2.67-1.33-.6-.57-1.3-.98-2.08-1.23-.5-.18-.98-.19-1.44-.05-.43.14-.84.33-1.23.56-.39.23-.82.57-1.28,1.01-.46.45-.84,1.07-1.12,1.87-.29.8-.43,1.72-.43,2.75,0,2.81.78,5.42,2.35,7.84.46.68,1.09,1.08,1.89,1.23.8.14,1.54-.03,2.21-.53v-.05c.18-.11.44-.31.8-.61.35-.3.66-.56.91-.77.25-.21.57-.46.96-.75.39-.28.74-.53,1.04-.75.3-.21.65-.42,1.04-.61.39-.2.75-.34,1.07-.43.32-.09.64-.13.96-.13s.6.07.85.21l.27.16c1.39.71,2.35,1.79,2.88,3.23.53,1.44.5,2.87-.11,4.29-.68,1.64-1.56,3.03-2.67,4.19-1.1,1.16-2.19,1.97-3.25,2.45-1.07.48-2.1.84-3.09,1.09-1,.25-1.8.37-2.4.37l-.91-.05Z"/>
        <path class="cls-5" d="M118.04,228.9c.43,1.1.37,2.18-.16,3.23-.53,1.05-1.44,1.84-2.72,2.37-2.24.89-4.32,1.46-6.24,1.71s-3.55.22-4.88-.08-2.55-.82-3.65-1.55c-1.1-.73-1.99-1.53-2.67-2.4-.68-.87-1.28-1.84-1.81-2.91-1.88-3.95-2.13-8.07-.75-12.37.53-1.64,1.21-3.08,2.03-4.32.82-1.24,1.71-2.21,2.69-2.91.98-.69,2-1.25,3.07-1.68,1.07-.43,2.18-.68,3.33-.77,1.15-.09,2.23-.1,3.23-.03.99.07,2.01.21,3.04.43,1.31.28,2.4.84,3.25,1.68.85.84,1.35,1.77,1.49,2.8v.05c0,.21.03.83.08,1.84s.06,1.59.03,1.73c-.04.68-.13,1.32-.29,1.92-.16.6-.47,1.31-.93,2.11-.46.8-1.06,1.49-1.79,2.08-.73.59-1.75,1.13-3.07,1.63-1.32.5-2.83.82-4.53.96-.29,0-.45.14-.51.43-.05.29.04.48.29.59.07.07.17.15.29.24.12.09.41.28.85.56.44.29.92.48,1.44.59.51.11,1.18.2,2,.27.82.07,1.67-.04,2.56-.32.57-.11,1.13-.11,1.68,0,.55.11,1.06.34,1.52.69.46.36.8.8,1.01,1.33.04.04.07.07.11.11ZM105.77,216.85c-.14.32-.12.63.08.93.19.3.47.45.83.45.96,0,2.06-.18,3.31-.53.25-.07.44-.22.59-.45.14-.23.16-.49.05-.77-.28-.96-1.02-1.44-2.21-1.44s-2.07.6-2.64,1.81Z"/>
        <path class="cls-5" d="M121.34,200.88c1.03-1.19,2.27-1.79,3.71-1.79s2.67.6,3.68,1.79c1.01,1.19,1.52,2.64,1.52,4.35v25.07c0,1.71-.51,3.16-1.52,4.35-1.01,1.19-2.25,1.79-3.71,1.79-.92,0-1.8-.27-2.61-.83-.82-.55-1.46-1.3-1.92-2.24-.46-.94-.69-1.96-.69-3.07v-25.07c0-1.71.52-3.15,1.55-4.35Z"/>
        <path class="cls-5" d="M155.58,228.9c.43,1.1.37,2.18-.16,3.23-.53,1.05-1.44,1.84-2.72,2.37-2.24.89-4.32,1.46-6.24,1.71s-3.55.22-4.88-.08-2.55-.82-3.65-1.55c-1.1-.73-1.99-1.53-2.67-2.4-.68-.87-1.28-1.84-1.81-2.91-1.88-3.95-2.13-8.07-.75-12.37.53-1.64,1.21-3.08,2.03-4.32.82-1.24,1.71-2.21,2.69-2.91.98-.69,2-1.25,3.07-1.68,1.07-.43,2.18-.68,3.33-.77,1.15-.09,2.23-.1,3.23-.03.99.07,2.01.21,3.04.43,1.31.28,2.4.84,3.25,1.68.85.84,1.35,1.77,1.49,2.8v.05c0,.21.03.83.08,1.84s.06,1.59.03,1.73c-.04.68-.13,1.32-.29,1.92-.16.6-.47,1.31-.93,2.11-.46.8-1.06,1.49-1.79,2.08-.73.59-1.75,1.13-3.07,1.63-1.32.5-2.83.82-4.53.96-.29,0-.45.14-.51.43-.05.29.04.48.29.59.07.07.17.15.29.24.12.09.41.28.85.56.44.29.92.48,1.44.59.51.11,1.18.2,2,.27.82.07,1.67-.04,2.56-.32.57-.11,1.13-.11,1.68,0,.55.11,1.06.34,1.52.69.46.36.8.8,1.01,1.33.04.04.07.07.11.11ZM143.32,216.85c-.14.32-.12.63.08.93.19.3.47.45.83.45.96,0,2.06-.18,3.31-.53.25-.07.44-.22.59-.45.14-.23.16-.49.05-.77-.28-.96-1.02-1.44-2.21-1.44s-2.07.6-2.64,1.81Z"/>
        <path class="cls-5" d="M168.97,209.81c.96.04,1.92.13,2.88.29.96.16,2.07.52,3.33,1.07,1.26.55,2.35,1.26,3.28,2.13.92.87,1.71,2.12,2.37,3.73.66,1.62.99,3.51.99,5.68,0,1.96-.27,3.72-.8,5.28-.53,1.56-1.24,2.81-2.11,3.73-.87.92-1.83,1.71-2.88,2.35-1.05.64-2.1,1.09-3.15,1.36-1.05.27-2,.46-2.85.59-.85.12-1.55.19-2.08.19h-3.2c-1.25,0-2.4-.24-3.47-.72-1.07-.48-1.91-1.14-2.53-1.97-.62-.83-.95-1.75-.99-2.75l-.91-27.79c-.04-.75.18-1.44.64-2.08.46-.64,1.08-1.14,1.87-1.49.78-.35,1.64-.53,2.56-.53s1.78.18,2.56.53c.78.36,1.4.84,1.87,1.44.46.6.69,1.26.69,1.97l.05,5.49c0,.43.18.78.53,1.07.35.29.8.43,1.33.43ZM169.07,227.46c3.41-.25,5.12-1.23,5.12-2.93,0-.68-.29-1.35-.85-2.03-.57-.67-1.24-1.21-2.03-1.6-.78-.39-1.53-.62-2.24-.69-.5-.04-.93.08-1.31.35-.37.27-.56.61-.56,1.04v4.53c0,.25.08.48.24.69.16.21.39.38.69.51.3.12.61.17.93.13Z"/>
        <path class="cls-5" d="M203.58,211.84c.85,1.14,1.19,2.39,1.01,3.76-.18,1.37-.84,2.5-1.97,3.39l-.05.05c-1.1.85-2.35,1.24-3.73,1.15-1.39-.09-2.58-.61-3.57-1.57-.28-.25-.48-.37-.59-.37-.25.07-.52.45-.8,1.12-.32.75-.48,1.55-.48,2.4v9.55c0,1.35-.5,2.51-1.49,3.47-1,.96-2.2,1.44-3.6,1.44s-2.6-.48-3.6-1.44c-1-.96-1.49-2.12-1.49-3.47v-17.97c0-.85.18-1.67.53-2.45.35-.78.83-1.45,1.41-2,.59-.55,1.29-.99,2.11-1.33.82-.34,1.67-.51,2.56-.51,1.31,0,2.36.52,3.15,1.55.25.39.59.46,1.01.21l.11-.05c.64-.43,1.21-.68,1.71-.77.5-.09,1.12-.1,1.87-.03,2.06.21,4.04,1.51,5.92,3.89Z"/>
        <path class="cls-5" d="M225.5,215.04c.89,2.7,1,7.27.32,13.71-.18,2.03-1.17,3.77-2.99,5.23-.85.68-1.79,1.2-2.8,1.57-1.01.37-2.04.58-3.07.61-.32.04-.64.05-.96.05-2.2,0-4.23-.29-6.08-.88-1.85-.59-3.34-1.41-4.48-2.48-1.6-1.49-2.4-3.38-2.4-5.65,0-3.2,1.63-5.72,4.91-7.57,1.92-1.1,4.18-1.87,6.77-2.29.11,0,.18-.05.21-.16.03-.07.03-.14,0-.21-.21-.28-.68-.47-1.39-.56-.71-.09-1.37-.08-1.97.03-1.25.25-2.4.04-3.47-.64-1.07-.67-1.74-1.62-2.03-2.83-.32-1.28-.12-2.47.61-3.57.73-1.1,1.75-1.78,3.07-2.03,3.88-.71,7.29-.27,10.24,1.33,2.74,1.46,4.57,3.57,5.49,6.35ZM216.59,227.94v-1.28c0-.28-.09-.52-.27-.69-.18-.18-.41-.28-.69-.32-2.63-.07-4.25.37-4.85,1.33.11.85,1.67,1.49,4.69,1.92.28.04.54-.04.77-.24.23-.2.35-.44.35-.72Z"/>
        <path class="cls-5" d="M249.87,228.8c.5,1.35.41,2.69-.27,4-.71,1.32-1.81,2.19-3.31,2.61-1.78.53-3.41.8-4.91.8-1.32,0-2.52-.19-3.63-.59-1.81-.68-3.27-1.85-4.37-3.52-1-1.53-1.51-3.22-1.55-5.07l-.11-9.12c0-.11-.03-.21-.08-.32-.05-.11-.12-.2-.19-.27-.07-.07-.16-.13-.27-.19-.11-.05-.23-.08-.37-.08-1.25,0-2.24-.42-2.99-1.25-.75-.83-1.12-1.86-1.12-3.07v-.53c0-.96.32-1.82.96-2.59.64-.76,1.46-1.27,2.45-1.52.64-.14.96-.55.96-1.23v-3.36c0-.78.19-1.5.56-2.16.37-.66.89-1.21,1.55-1.65.66-.44,1.4-.72,2.21-.83,1.49-.18,2.81.21,3.95,1.17,1.1.92,1.65,2.08,1.65,3.47v2.83c0,.29.09.54.27.77.18.23.41.36.69.4,1.07.25,1.95.78,2.67,1.6.71.82,1.07,1.74,1.07,2.77s-.35,2-1.04,2.8c-.69.8-1.57,1.32-2.64,1.57-.5.11-.73.41-.69.91.04.39.05.6.05.64.18,4.37.48,6.9.91,7.57.07.14.37.16.91.05,1.39-.35,2.72-.21,4,.43,1.31.64,2.2,1.62,2.67,2.93Z"/>
        <path class="cls-5" d="M274.09,228.9c.43,1.1.37,2.18-.16,3.23-.53,1.05-1.44,1.84-2.72,2.37-2.24.89-4.32,1.46-6.24,1.71s-3.55.22-4.88-.08-2.55-.82-3.65-1.55c-1.1-.73-1.99-1.53-2.67-2.4-.68-.87-1.28-1.84-1.81-2.91-1.88-3.95-2.13-8.07-.75-12.37.53-1.64,1.21-3.08,2.03-4.32.82-1.24,1.71-2.21,2.69-2.91.98-.69,2-1.25,3.07-1.68,1.07-.43,2.18-.68,3.33-.77,1.15-.09,2.23-.1,3.23-.03.99.07,2.01.21,3.04.43,1.31.28,2.4.84,3.25,1.68.85.84,1.35,1.77,1.49,2.8v.05c0,.21.03.83.08,1.84s.06,1.59.03,1.73c-.04.68-.13,1.32-.29,1.92-.16.6-.47,1.31-.93,2.11-.46.8-1.06,1.49-1.79,2.08-.73.59-1.75,1.13-3.07,1.63-1.32.5-2.83.82-4.53.96-.29,0-.45.14-.51.43-.05.29.04.48.29.59.07.07.17.15.29.24.12.09.41.28.85.56.44.29.92.48,1.44.59.51.11,1.18.2,2,.27.82.07,1.67-.04,2.56-.32.57-.11,1.13-.11,1.68,0,.55.11,1.06.34,1.52.69.46.36.8.8,1.01,1.33.04.04.07.07.11.11ZM261.82,216.85c-.14.32-.12.63.08.93.19.3.47.45.83.45.96,0,2.06-.18,3.31-.53.25-.07.44-.22.59-.45.14-.23.16-.49.05-.77-.28-.96-1.02-1.44-2.21-1.44s-2.07.6-2.64,1.81Z"/>
      </g>
      <g>
        <path class="cls-5" d="M130.46,279.83c-1.21.11-2.35-.11-3.41-.64-1.07-.53-1.92-1.3-2.56-2.29-.64-.99-.96-2.1-.96-3.31v-24.75c0-1.95.75-3.55,2.27-4.8,1.51-1.24,3.24-1.71,5.2-1.39,2.63.43,4.97,1.09,7.01,2,2.04.91,3.67,1.91,4.88,3.01,1.21,1.1,2.23,2.27,3.07,3.49.83,1.23,1.41,2.42,1.73,3.57.32,1.16.55,2.2.69,3.12.14.93.2,1.67.16,2.24l-.05.85c0,2.85-.37,5.38-1.12,7.6-.75,2.22-1.71,3.99-2.88,5.31-1.17,1.32-2.59,2.43-4.24,3.33s-3.25,1.54-4.8,1.89c-1.55.36-3.21.6-4.99.75ZM133.24,256.2v8.96c0,.6.24,1.09.72,1.47.48.37,1,.51,1.57.4,1.21-.21,2.3-.94,3.28-2.19.98-1.24,1.47-2.52,1.47-3.84-.04,0-.04-.1,0-.29.04-.2.02-.48-.05-.85-.07-.37-.14-.77-.21-1.2-.07-.43-.22-.87-.45-1.33-.23-.46-.51-.89-.83-1.28-.32-.39-.76-.75-1.31-1.07-.55-.32-1.17-.55-1.84-.69-.6-.11-1.15.04-1.63.43-.48.39-.72.89-.72,1.49Z"/>
        <path class="cls-5" d="M168.92,254.98c2.42,2.81,3.63,6.56,3.63,11.25,0,4.98-1.35,8.66-4.05,11.04-2.03,1.74-4.44,2.61-7.25,2.61h-.43c-1.99-.21-3.96-.98-5.92-2.29-3.88-2.63-5.81-6.75-5.81-12.37,0-1.96.26-3.74.77-5.36.52-1.62,1.13-2.92,1.84-3.89.71-.98,1.56-1.84,2.53-2.59.98-.75,1.83-1.29,2.56-1.63.73-.34,1.47-.6,2.21-.77,1.28-.39,2.54-.39,3.79,0,2.45.78,4.5,2.12,6.13,4ZM162.68,269.64c.67-.57,1.01-1.55,1.01-2.93v-1.12c0-1.46-.16-2.6-.48-3.41-.46-1.31-1.33-1.97-2.61-1.97-.53,0-.98.18-1.33.53-.57.57-.94,1.43-1.12,2.59-.18,1.16-.25,2.16-.21,3.01v.05c0,.46.05.9.16,1.31.11.41.24.74.4.99.16.25.35.48.56.69s.41.37.59.48c.18.11.36.2.56.27.19.07.35.12.45.13.11.02.19.03.27.03.68.04,1.26-.18,1.76-.64Z"/>
        <path class="cls-5" d="M196.22,258.92c.5,11.02-.53,18.86-3.09,23.52-1.42,2.63-3.54,4.34-6.35,5.12-1.17.32-2.44.48-3.79.48-1.07,0-2.19-.11-3.36-.32-1.64-.29-2.91-1.1-3.81-2.45-.91-1.35-1.13-2.81-.67-4.37.35-1.28,1.12-2.3,2.29-3.07,1.17-.76,2.47-1.08,3.89-.93.89.11,1.78.16,2.67.16,1.07,0,1.64-.28,1.71-.85.03-.21-.02-.39-.16-.53-.14-.21-.36-.32-.64-.32-5.08-.32-8.57-2.33-10.45-6.03-.89-1.78-1.3-3.59-1.23-5.44,0-4.55,1.46-7.96,4.37-10.24,2.24-1.71,5.21-2.68,8.91-2.93,2.56-.18,4.78.55,6.67,2.19,1.92,1.64,2.93,3.65,3.04,6.03ZM186.41,266.44v-5.71c0-.25-.1-.47-.29-.67-.2-.19-.44-.29-.72-.29h-.05c-.68.04-1.52.45-2.53,1.25s-1.52,1.52-1.52,2.16.49,1.47,1.47,2.48c.98,1.01,1.79,1.57,2.43,1.68.32.04.6-.03.85-.21.25-.18.37-.41.37-.69Z"/>
        <path class="cls-5" d="M218.86,269.91c.34,2.28-.26,4.32-1.79,6.13-2.06,2.56-4.71,3.84-7.95,3.84-2.53,0-5.23-.76-8.11-2.29-1.1-.57-1.85-1.41-2.24-2.53-.39-1.12-.34-2.21.16-3.28.57-1.21,1.51-2.04,2.83-2.51,1.31-.46,2.61-.39,3.89.21.6.29,1.19.51,1.76.67.57.16.98.23,1.23.21.25-.02.44-.06.59-.13.07-.14.09-.27.05-.37-.04-.07-.12-.14-.27-.21-1.35-.35-2.58-.75-3.68-1.2-1.1-.44-2.1-.93-2.99-1.47-.89-.53-1.65-1.1-2.29-1.71-.64-.6-1.17-1.26-1.6-1.97-.93-1.56-1.21-3.06-.85-4.48.82-3.52,2.47-5.92,4.96-7.2,2.77-1.42,6.36-1.31,10.77.32,1.17.43,2.04,1.18,2.61,2.27.57,1.08.66,2.2.27,3.33-.43,1.32-1.32,2.26-2.67,2.83-1.35.57-2.7.57-4.05,0-1.21-.5-2.01-.66-2.4-.48l-.05.05c-.14.64.16,1.05.91,1.23,3.09.85,5.58,1.94,7.47,3.25,1.96,1.39,3.1,3.22,3.44,5.49Z"/>
      </g>
      <g>
        <g>
          <path class="cls-2" d="M167.39,138.62c-.55.09-1.09.2-1.61.34.52-.13,1.06-.25,1.61-.34Z"/>
          <path class="cls-1" d="M236.78,132.62c-1.05,4.1-3.96,7.36-5.66,11.17-1.1,2.45-1.47,5.14-1.88,7.77-.2,1.33-.67,2.67-1.6,3.65-3.24,3.41-8.45.33-10.94-2.56-1.16-1.46-2.08-3.09-2.89-4.77,0,5.87-.75,11.9-3.38,17.23-4.9,10.41-16.04,16.45-27.13,17.88-.31,1.16-.98,2.15-1.41,3.25-4.57,6.35-14.19,7.56-20.19,2.51-.87-.69-1.61-1.52-2.23-2.42-.66-1.02-1.14-2.15-1.52-3.3-19.01-2.85-31.07-15.58-30.44-35.15-.75,1.67-1.71,3.26-2.87,4.68-2.31,2.68-6.53,5.44-10.05,3.51-1.29-.82-2.12-2.23-2.4-3.7-.47-2.32-.63-4.71-1.37-6.96-.99-3.12-2.97-5.77-4.52-8.62-2.86-4.8-2.93-11.08-.22-15.96,1.64-2.98,4.09-5.4,6.6-7.66,3.61-3.19,7.53-6.02,11.61-8.58,3.61-2.2,7.44-4.22,11.62-5.04,3.47-.71,7.29-.37,10.03,2.05.09-.28.19-.56.34-.82,1.76-3.2,3.55-6.38,5.35-9.56.19-.29.29-.67.59-.87.07-.23.14-.46.25-.68,1.95-3.51,3.89-7.03,5.81-10.57.15-.25.26-.55.49-.74,2.36-4.78,5.17-9.37,7.63-14.12-.34-.32-.71-.61-1.06-.92-1.87-1.71-2.75-4.39-2.3-6.87.52-3.15,3.16-5.84,6.34-6.31,1.37-.14,2.79-.11,4.07.42,4.63,1.69,6.4,7.68,3.51,11.65-.55.82-1.31,1.47-2.08,2.07.38.81.91,1.52,1.26,2.34,1.26,2.17,2.44,4.39,3.66,6.59.28.45.51.93.72,1.41.19.23.34.49.48.76,1.68,3.12,3.45,6.2,5.13,9.33.97,1.5,1.75,3.12,2.64,4.67.9,1.65,1.85,3.27,2.7,4.95.73,1.26,1.42,2.55,2.15,3.81.61,1.13,1.32,2.2,1.84,3.36.73-.51,1.42-1.08,2.23-1.46,1.88-.93,4.04-1.01,6.09-.81,9.39,1.12,23.22,11.26,29.35,18.4,3.51,4.03,5.11,9.73,3.67,14.95Z"/>
        </g>
        <g>
          <g>
            <path class="cls-8" d="M163.08,56.46c.52-3.15,3.16-5.84,6.34-6.31,1.37-.14,2.79-.1,4.07.42,4.62,1.69,6.4,7.69,3.51,11.65-.54.83-1.31,1.47-2.08,2.07.38.8.91,1.52,1.26,2.34-4.31,5.6-10.49,9.98-17.37,11.73,2.36-4.78,5.17-9.37,7.63-14.12-.35-.32-.71-.61-1.07-.92-1.86-1.71-2.75-4.39-2.3-6.87Z"/>
            <path class="cls-8" d="M180.57,74.64c.19.23.34.49.47.76,1.69,3.12,3.46,6.2,5.13,9.33-9.68,11.39-25.62,19.61-40.77,18.42.48-.72.5-1.63.93-2.38,1.76-3.2,3.55-6.38,5.35-9.56.19-.29.3-.67.59-.87,10.87-1.37,21.55-7.02,28.3-15.71Z"/>
            <path class="cls-8" d="M180.45,104.14c4.06-2.8,7.87-6,11.06-9.77.73,1.26,1.42,2.55,2.15,3.81.61,1.12,1.32,2.19,1.84,3.35.18.49.38.97.57,1.45.24,1.03.22,2.18-.37,3.09-1.17,1.97-3.29,3.08-5.32,3.97-2.92,1.21-6.02,1.88-9.11,2.43-5.55.88-11.21.98-16.81.5-.88-.06-1.75-.18-2.62-.33,6.56-1.96,12.96-4.6,18.62-8.5Z"/>
          </g>
          <g>
            <path class="cls-3" d="M176.19,66.64c1.27,2.17,2.44,4.39,3.67,6.59.28.45.51.93.72,1.42-6.76,8.69-17.44,14.34-28.3,15.71.07-.23.14-.46.25-.68,1.95-3.51,3.89-7.03,5.81-10.57.15-.25.26-.55.49-.74,6.88-1.75,13.06-6.14,17.37-11.73Z"/>
            <path class="cls-3" d="M186.17,84.74c.97,1.5,1.75,3.12,2.65,4.67.9,1.65,1.84,3.28,2.69,4.95-7.69,9.02-18.37,15.04-29.68,18.28-4.82-.68-13.87-2.21-16.16-7-.35-.78-.3-1.65-.28-2.48,15.15,1.19,31.09-7.03,40.77-18.42Z"/>
          </g>
          <g>
            <path class="cls-4" d="M135.96,99.56c3.46-.71,7.29-.37,10.03,2.04-.14.54-.29,1.08-.59,1.56-.4.18-.79.4-1.13.68-6.65,5.24-10.86,13.1-12.27,21.38-1.3,7.58-1.65,15.4-4.44,22.65-.75,1.68-1.71,3.26-2.87,4.68-2.31,2.68-6.53,5.44-10.06,3.51-1.28-.82-2.12-2.22-2.4-3.7-.47-2.32-.63-4.7-1.38-6.96-.99-3.12-2.97-5.77-4.52-8.62-2.86-4.8-2.93-11.08-.21-15.96,1.64-2.98,4.09-5.4,6.6-7.66,3.61-3.19,7.53-6.02,11.61-8.57,3.61-2.2,7.44-4.22,11.62-5.04Z"/>
            <path class="cls-4" d="M197.72,100.08c1.87-.93,4.04-1.01,6.09-.81,9.38,1.12,23.23,11.27,29.35,18.4,3.5,4.04,5.1,9.74,3.67,14.95-1.05,4.11-3.96,7.36-5.65,11.17-1.09,2.46-1.48,5.14-1.88,7.77-.2,1.33-.67,2.66-1.6,3.65-3.24,3.41-8.45.33-10.94-2.56-1.16-1.46-2.08-3.1-2.89-4.77-5.45-14.93-1.69-29.59-14.28-41.99-1.12-1.03-2.23-2.09-3.52-2.9-.19-.48-.39-.97-.57-1.45.73-.51,1.42-1.08,2.23-1.45Z"/>
          </g>
          <path class="cls-7" d="M196.07,102.98c1.29.81,2.4,1.88,3.52,2.9,12.59,12.4,8.83,27.06,14.28,41.99,0,5.87-.75,11.9-3.38,17.22-4.9,10.41-16.04,16.45-27.13,17.88.8-2.58.55-5.3.62-7.96,1.76-1.3,3.15-3.13,3.79-5.24.35-.99.46-2.04.63-3.08.04-.35.46-.4.71-.53,5.45-1.81,9.4-6.26,10.79-11.8.46-.1.97-.11,1.37-.4.5-.39.44-1.16.09-1.63-1-1.38-3.31-1.99-4.72-.92-.43.36-.59,1-.39,1.53.21.34.58.53.88.77-1.7,5.68-6.75,9.51-12.62,9.94-4.12.3-9.18-.22-11.7-3.92-.55-.87-.83-1.99-.49-2.98.15-.49.75-.49,1.16-.62,2.58-.49,5.09-1.58,6.98-3.43,1.66-1.55,2.86-3.76,2.75-6.09-.76-8.93-14.42-9.9-20.66-6.38-8.25,5.03-3.64,13.81,4.33,15.65.66.2,1.38.23,1.98.58.44.51.38,1.26.27,1.88-.34,1.51-1.51,2.67-2.76,3.5-4.87,2.91-12.62,2.42-17.13-1-2.3-1.79-3.99-4.35-4.81-7.14.32-.34.81-.65.8-1.17.07-.74-.54-1.33-1.2-1.53-1.5-.43-3.29.16-4.09,1.54-.32.51-.19,1.26.36,1.55.42.17.88.19,1.32.26.46,1.71,1.02,3.42,1.97,4.92,1.85,3.27,5.06,5.6,8.56,6.83.34.16.89.23.9.71.3,3.1,1.61,6.34,4.33,8.06.1,2.71-.22,5.5.61,8.13-19.01-2.85-31.07-15.58-30.45-35.15,2.79-7.25,3.14-15.07,4.44-22.65,1.4-8.29,5.62-16.15,12.27-21.38.34-.29.72-.5,1.13-.68-.02.83-.08,1.71.28,2.48,2.29,4.79,11.33,6.32,16.16,7,.87.15,1.74.28,2.62.33,5.6.48,11.26.38,16.81-.5,3.1-.55,6.2-1.22,9.11-2.43,2.03-.89,4.15-2,5.32-3.97.59-.92.61-2.06.37-3.09ZM152.01,119.13c-1.84.35-3.62,1.22-4.92,2.59-.45.49-.94,1.11-.78,1.82.09.56.86.83,1.29.45,1.98-1.38,4.38-2.03,6.76-2.22,1.73-.16,1.64-2.22.11-2.64-.8-.18-1.64-.13-2.45,0ZM186.94,119.12c-1.58.4-1.66,2.56.11,2.67,1.86.18,3.73.6,5.4,1.47.76.34,1.83,1.58,2.54.55.48-1.81-2.09-3.28-3.45-3.97-1.43-.64-3.05-1.04-4.61-.71ZM151.05,130.99c-.61.17-1.18.47-1.68.86-1.82,1.49-2.33,4.1-1.77,6.31.42,1.46,1.43,2.82,2.88,3.37,5.92,1.97,8.27-7.58,3.44-10.17-.87-.48-1.92-.61-2.88-.37ZM188.54,130.98c-5.63,1.49-4.45,11.71,1.75,10.73,1.4-.31,2.55-1.38,3.15-2.65.63-1.26.67-2.73.46-4.1-.46-2.41-2.8-4.62-5.36-3.97Z"/>
          <g>
            <path class="cls-9" d="M152.01,119.13c.81-.13,1.65-.19,2.45,0,1.54.43,1.62,2.48-.11,2.64-2.38.19-4.78.84-6.76,2.22-.43.38-1.19.11-1.29-.45-.17-.71.33-1.33.78-1.82,1.3-1.37,3.08-2.23,4.92-2.59Z"/>
            <path class="cls-9" d="M186.94,119.12c1.56-.33,3.18.08,4.61.71,1.36.68,3.93,2.16,3.45,3.97-.71,1.03-1.78-.21-2.54-.55-1.67-.87-3.54-1.29-5.4-1.47-1.77-.11-1.69-2.26-.11-2.67Z"/>
            <path class="cls-9" d="M151.05,130.99c.96-.25,2.01-.11,2.88.37,4.83,2.59,2.48,12.14-3.44,10.17-1.46-.55-2.46-1.91-2.88-3.37-.56-2.2-.05-4.82,1.77-6.31.5-.39,1.07-.69,1.68-.86Z"/>
            <path class="cls-9" d="M188.54,130.98c2.56-.65,4.89,1.56,5.36,3.97.21,1.37.17,2.84-.46,4.1-.6,1.28-1.75,2.35-3.15,2.65-6.2.98-7.38-9.24-1.75-10.73Z"/>
            <path class="cls-9" d="M162.56,140.24c6.23-3.52,19.9-2.55,20.66,6.38.11,2.32-1.08,4.53-2.75,6.09-1.89,1.84-4.41,2.94-6.98,3.43-.41.13-1.01.13-1.16.62-.35,1-.06,2.11.49,2.98,2.52,3.7,7.57,4.23,11.7,3.92,5.87-.43,10.92-4.27,12.62-9.94-.3-.25-.67-.44-.88-.77-.2-.52-.04-1.17.39-1.53,1.41-1.07,3.72-.45,4.72.92.35.47.4,1.23-.09,1.63-.4.28-.91.29-1.37.4-1.39,5.54-5.34,10-10.79,11.8-.26.14-.67.19-.71.53-.16,1.03-.27,2.08-.63,3.08-.64,2.11-2.03,3.94-3.79,5.24-.09-2.49.05-4.99-.05-7.47-2.6,0-5.22.37-7.79-.22-1.38-.25-2.76-.64-4.18-.53-.09,4.38.02,8.76-.04,13.14-.02.95-1.29,1.28-1.97.8-.4-.29-.46-.82-.47-1.27.1-4.21.03-8.42.06-12.63-1.31-.22-2.61.16-3.89.38-1.5.29-3.02.49-4.55.45-1.23,0-2.46-.19-3.68-.08-.07,2.43.05,4.87-.02,7.3-2.72-1.72-4.02-4.97-4.33-8.06,0-.48-.56-.55-.9-.71-3.5-1.23-6.71-3.56-8.56-6.83-.96-1.5-1.51-3.21-1.97-4.92-.44-.08-.9-.09-1.32-.26-.55-.29-.68-1.04-.36-1.55.79-1.37,2.59-1.97,4.09-1.54.66.2,1.27.79,1.2,1.53.01.53-.48.83-.8,1.17.82,2.79,2.51,5.34,4.81,7.14,4.51,3.42,12.26,3.91,17.13,1,1.25-.83,2.42-2,2.76-3.5.11-.62.16-1.37-.27-1.88-.6-.35-1.32-.39-1.98-.58-7.97-1.85-12.58-10.63-4.33-15.65Z"/>
          </g>
          <path class="cls-6" d="M165.65,167.22c1.28-.22,2.58-.6,3.89-.38-.03,4.21.04,8.42-.06,12.63.01.45.07.98.47,1.27.68.48,1.95.15,1.97-.8.06-4.38-.05-8.76.04-13.14,1.42-.11,2.8.27,4.18.53,2.57.59,5.19.22,7.79.22.1,2.49-.04,4.98.05,7.47-.07,2.66.18,5.38-.62,7.96-.31,1.16-.98,2.15-1.42,3.25-4.57,6.35-14.19,7.56-20.19,2.51-.86-.69-1.6-1.52-2.23-2.42-.66-1.02-1.14-2.15-1.51-3.3-.83-2.63-.51-5.42-.61-8.13.06-2.43-.06-4.87.02-7.3,1.23-.11,2.45.08,3.68.08,1.53.03,3.05-.16,4.55-.45Z"/>
        </g>
      </g>
    </g>
  </g>
</svg>