<?xml version="1.0" encoding="UTF-8"?>
<svg id="Layer_2" data-name="Layer 2" xmlns="http://www.w3.org/2000/svg" viewBox="0 0 204.41 54.86">
  <defs>
    <style>
      .cls-1 {
        letter-spacing: -.01em;
      }

      .cls-2, .cls-3 {
        fill: #231f20;
      }

      .cls-4 {
        letter-spacing: 0em;
      }

      .cls-3 {
        font-family: ITCAvantGardePro-Bold, 'ITC Avant Garde Gothic Pro';
        font-size: 31.98px;
        font-weight: 700;
      }
    </style>
  </defs>
  <g id="Layer_1-2" data-name="Layer 1">
    <g>
      <g>
        <text class="cls-3" transform="translate(46.65 41.3)"><tspan x="0" y="0">Ci</tspan><tspan class="cls-1" x="35.75" y="0">c</tspan><tspan x="56.12" y="0">lo </tspan></text>
        <text class="cls-3" transform="translate(136.39 41.3)"><tspan x="0" y="0">Az</tspan><tspan class="cls-4" x="38.44" y="0">u</tspan><tspan x="58.88" y="0">l</tspan></text>
      </g>
      <g>
        <path class="cls-2" d="M28.93,40.26v-.08c0-.09,0-.19,0-.28,0-.04,0-.08,0-.11,0-.09,0-.17-.01-.26,0-.09,0-.18-.02-.27,0-.06,0-.11-.01-.17,0-.08-.01-.16-.02-.24,0-.09-.02-.18-.03-.27,0-.01,0-.02,0-.03-.01-.09-.02-.17-.03-.26,0-.03,0-.06-.01-.08-.01-.07-.02-.14-.03-.22-.01-.07-.02-.14-.04-.22-.01-.07-.03-.14-.04-.22,0-.02,0-.04-.01-.06-.33-1.71-.98-3.4-1.98-5-.04-.06-.08-.12-.12-.18-.06-.1-.13-.2-.2-.3l-.85-1.26-7.19-10.66-3.88-5.75-1.98,2.93v.02s0,.04,0,.06c.34,1.76,1.02,3.51,2.08,5.15,0,0,0,0,0,0l8.09,12c.05.08.11.16.16.24.15.24.29.48.42.72.8,1.5,1.22,3.12,1.21,4.76v.15s0,.01,0,.01c0,.07,0,.14,0,.21-.04,1.64-.46,3.19-1.21,4.56-1.21,2.22-3.24,3.94-5.78,4.74h-.02c-.13.05-.25.08-.34.11-.75.21-1.53.32-2.32.34h-.02c-.09,0-.19,0-.28,0-5.5,0-9.98-4.47-9.98-9.97v-.16c0-2,.61-3.98,1.79-5.72l7.03-10.43-.12-.17c-.95-1.41-1.67-2.91-2.16-4.48l-8.48,12.57C.8,34.61,0,37.46,0,40.26c0,.04,0,.09,0,.13,0,7.99,6.48,14.47,14.47,14.47.13,0,.27,0,.4,0,1.14-.02,2.28-.19,3.42-.5.17-.05.34-.1.51-.15,2.63-.82,4.94-2.38,6.68-4.42.44-.52.85-1.07,1.21-1.64,1.38-2.18,2.2-4.75,2.24-7.5,0-.07,0-.15,0-.22h0c0-.06,0-.1,0-.14Z"/>
        <path class="cls-2" d="M26.69,32.49l-.12-.17c.04.06.08.12.12.18.02-.03.04-.06.06-.09l-.05.08ZM41.16,14.24h0c-.04-2.76-.86-5.33-2.24-7.51-.37-.58-.77-1.13-1.21-1.65-2.65-3.11-6.6-5.08-11.01-5.08-.13,0-.27,0-.4,0-1.14.03-2.28.19-3.42.5-.17.05-.34.1-.51.15-5.8,1.82-10.04,7.19-10.14,13.57h0c0,.08,0,.16,0,.24,0,.04,0,.09,0,.13,0,.9.08,1.8.25,2.7,0,.02,0,.04.01.06.34,1.76,1.02,3.51,2.08,5.15,0,0,0,0,0,0,.07.11.14.21.21.32l8.03,11.92.44.65,1.44,2.14v.02s1.99,2.94,1.99,2.94l1.98-2.93v-.02s0-.04,0-.06c-.33-1.71-.98-3.4-1.98-5,.02-.03.04-.06.06-.09l-.05.08-.12-.17-1.05-1.55-7.03-10.43c-.05-.08-.11-.16-.16-.24-1.08-1.68-1.64-3.57-1.63-5.48v-.16c0-.07,0-.14,0-.21.09-4.29,2.88-8.02,6.99-9.3h.02c.14-.05.24-.08.34-.11.75-.21,1.53-.32,2.32-.34h.02c.09,0,.19,0,.28,0,3.78,0,7.07,2.11,8.77,5.21.74,1.35,1.17,2.9,1.21,4.54,0,0,0,0,0,0,0,.07,0,.14,0,.22h0s0,.13,0,.13v.03c0,1.64-.41,3.27-1.21,4.76-.11.21-.23.42-.36.62,0,0,0,0,0,0-.07.11-.14.22-.21.33l-7.03,10.43.12.18c.12.18.23.35.35.53.78,1.25,1.39,2.57,1.81,3.94l.38-.56h0s7.25-10.76,7.25-10.76l.85-1.26c.09-.13.17-.26.25-.38,0,0,0,0,0,0,.02-.03.04-.06.06-.09,1-1.6,1.65-3.29,1.98-5h0s0-.04.01-.06c.04-.19.07-.38.1-.57,0-.05.01-.09.02-.14.01-.11.03-.21.04-.31,0-.08.02-.16.03-.25,0-.09.02-.18.02-.28,0-.06,0-.12.01-.18,0-.08.01-.16.01-.24,0-.09,0-.18.01-.26,0,0,0-.01,0-.02,0-.03,0-.07,0-.1,0-.12,0-.24,0-.35,0-.04,0-.09,0-.13h0c0-.08,0-.16,0-.23ZM26.69,32.49l-.12-.17c.04.06.08.12.12.18.02-.03.04-.06.06-.09l-.05.08Z"/>
      </g>
    </g>
  </g>
</svg>