<?xml version="1.0" encoding="UTF-8"?>
<svg id="Layer_2" xmlns="http://www.w3.org/2000/svg" viewBox="0 0 70.07 81.49">
  <defs>
    <style>
      .cls-1 {
        fill: #fff;
      }

      .cls-2 {
        fill: #f7941d;
      }
    </style>
  </defs>
  <g id="Layer_1-2" data-name="Layer_1">
    <g>
      <path class="cls-2" d="M58.58,43.26h-.01c-.02-.07-.05-.15-.08-.23,0,0-2.9-7.26-4.41-10.11-.11-.25-.27-.47-.49-.81-.72-1.09-2.28-1.31-3.35-.91-.87.33-1.37.93-1.65,1.71-.78-1.71-2.58-2.42-4.22-1.79-1.05.4-1.72,1.27-2.01,2.29-.89-1.44-2.58-1.99-4.11-1.4-1.34.51-2.17,1.74-2.17,3.15l-4.2-10.94c-.74-1.93-2.65-2.98-4.28-2.36-1.62.62-2.34,2.69-1.6,4.62l7.35,19.16c-.88-1.05-1.66-1.98-2.25-2.63-2.08-2.31-4.74-3.19-6.27-2.2-2.28,1.48,1.03,4.73,2.9,7.45,1.53,2.24,4.62,6.43,5.51,7.39,1.55,1.67,3.05,3.03,4.33,3.84,4.19,3.02,8.97,3.2,13.5,1.46,5.48-2.1,11.23-8.01,7.51-17.71Z"/>
      <path class="cls-1" d="M40.74,81.49c-5.5,0-10.84-1.08-15.86-3.2-4.85-2.05-9.21-4.99-12.95-8.73-3.74-3.74-6.68-8.1-8.73-12.95-2.13-5.02-3.2-10.36-3.2-15.86s1.08-10.84,3.2-15.86c2.05-4.85,4.99-9.21,8.73-12.95,3.74-3.74,8.1-6.68,12.95-8.73,5.02-2.13,10.36-3.2,15.86-3.2s10.84,1.08,15.86,3.2c4.85,2.05,9.21,4.99,12.95,8.73.68.68.68,1.78,0,2.46s-1.78.68-2.46,0c-3.42-3.42-7.41-6.11-11.84-7.99-4.59-1.94-9.47-2.93-14.5-2.93s-9.91.99-14.5,2.93c-4.44,1.88-8.42,4.56-11.84,7.99-3.42,3.42-6.11,7.41-7.99,11.84-1.94,4.59-2.93,9.47-2.93,14.5s.99,9.91,2.93,14.5c1.88,4.44,4.56,8.42,7.99,11.85,3.42,3.42,7.41,6.11,11.84,7.99,4.59,1.94,9.47,2.93,14.5,2.93s9.91-.98,14.5-2.93c4.44-1.88,8.42-4.56,11.84-7.99.68-.68,1.78-.68,2.46,0,.68.68.68,1.78,0,2.46-3.74,3.74-8.1,6.68-12.95,8.73-5.02,2.12-10.36,3.2-15.86,3.2Z"/>
      <path class="cls-1" d="M40.85,74.98c-4.61,0-9.08-.9-13.29-2.68-4.06-1.72-7.71-4.18-10.85-7.31-3.13-3.13-5.59-6.78-7.31-10.85-1.78-4.21-2.68-8.68-2.68-13.29s.9-9.08,2.68-13.29c1.72-4.06,4.18-7.71,7.31-10.85,3.13-3.13,6.78-5.59,10.85-7.31,4.21-1.78,8.68-2.68,13.29-2.68s9.08.9,13.29,2.68c4.06,1.72,7.71,4.18,10.85,7.31.57.57.57,1.49,0,2.06s-1.49.57-2.06,0c-2.87-2.87-6.21-5.12-9.92-6.69-3.85-1.63-7.93-2.45-12.15-2.45s-8.3.83-12.15,2.45c-3.72,1.57-7.06,3.82-9.92,6.69-2.87,2.87-5.12,6.21-6.69,9.92-1.63,3.85-2.45,7.93-2.45,12.15s.83,8.3,2.45,12.15c1.57,3.72,3.82,7.06,6.69,9.92,2.87,2.87,6.21,5.12,9.92,6.69,3.85,1.63,7.93,2.45,12.15,2.45s8.3-.83,12.15-2.45c3.72-1.57,7.05-3.82,9.92-6.69.57-.57,1.49-.57,2.06,0,.57.57.57,1.49,0,2.06-3.13,3.13-6.78,5.6-10.85,7.31-4.21,1.78-8.68,2.68-13.29,2.68Z"/>
    </g>
  </g>
</svg>