<?xml version="1.0" encoding="UTF-8"?>
<svg id="Layer_2" data-name="Layer 2" xmlns="http://www.w3.org/2000/svg" viewBox="0 0 208.19 52.32">
  <defs>
    <style>
      .cls-1 {
        fill: #58595b;
        font-family: ArchivoRoman-Regular, Archivo;
        font-size: 13.16px;
        font-variation-settings: 'wght' 400, 'wdth' 100;
      }

      .cls-2 {
        fill: #00b3be;
      }
    </style>
  </defs>
  <g id="Layer_1-2" data-name="Layer 1">
    <g>
      <g>
        <path class="cls-2" d="M33.46,26.86c0,.41-.23,1.55-.69,3.43-.45,1.88-.82,2.88-1.12,3-3.3,1.2-6.59,1.8-9.9,1.8-3.88,0-7.19-1.42-9.96-4.29-2.76-2.86-4.13-6.26-4.13-10.19,0-4.16,1.38-7.74,4.15-10.72,2.78-2.97,6.23-4.46,10.38-4.46,3.2,0,6.55.43,10.08,1.28.14.03.32,1.01.55,2.95.21,1.94.32,3.12.32,3.57s-.4.66-1.19.66c-.03,0-.26-.05-.7-.14-.15-.52-.4-1.08-.73-1.66-.33-.6-.83-1.23-1.5-1.9-.66-.67-1.56-1.22-2.73-1.65-1.16-.43-2.45-.64-3.89-.64-5.25,0-7.87,3.94-7.87,11.8,0,3.67.8,6.77,2.41,9.27,1.62,2.52,3.91,3.76,6.87,3.76,2.17,0,4.06-.79,5.64-2.37.39-.39.73-.9,1.03-1.57.3-.66.54-1.22.7-1.66.16-.46.26-.68.28-.68,1.21,0,1.87.14,1.99.44h0ZM50.51,7.88c-1.56,0-2.85.57-3.88,1.69-1.03,1.14-1.74,2.52-2.14,4.16-.4,1.65-.59,3.53-.59,5.64,0,1.49.13,2.97.42,4.42.27,1.45.7,2.88,1.27,4.27.58,1.4,1.41,2.53,2.5,3.4,1.09.86,2.34,1.29,3.78,1.29,2.2,0,3.85-1.12,4.95-3.35,1.11-2.23,1.65-4.97,1.65-8.23,0-1.61-.13-3.16-.38-4.61-.24-1.45-.65-2.86-1.21-4.22-.56-1.37-1.38-2.45-2.46-3.26-1.1-.81-2.39-1.22-3.92-1.22h0ZM41.19,30.86c-2.77-2.91-4.15-6.41-4.15-10.53s1.38-7.62,4.15-10.54c2.78-2.92,6.11-4.38,9.97-4.38s7.21,1.46,9.99,4.38c2.8,2.92,4.19,6.43,4.19,10.54s-1.39,7.62-4.19,10.53c-2.78,2.9-6.11,4.36-9.99,4.36s-7.19-1.46-9.97-4.36h0ZM75.51,5.9c.6,0,2.65-.08,6.17-.26.08.26.13.53.13.79,0,.56-.06.84-.17.84-.26,0-.8.12-1.58.38-.8.24-1.22.47-1.28.67-.2.8-.31,1.97-.31,3.53v16.69c0,1.43.12,2.5.36,3.16.14.47,1.15.71,2.99.71h1.15c1.82,0,3.47-.39,4.93-1.15.5-.26,1.07-.76,1.69-1.5.63-.73,1.13-1.55,1.48-2.47.06-.17.26-.26.61-.26.71,0,1.15.09,1.33.26-1.44,4.06-2.23,6.57-2.38,7.58-1.67,0-4.28-.03-7.84-.09-3.54-.06-5.95-.09-7.21-.09l-6.43.26c-.11-.11-.17-.37-.17-.74,0-.59.06-.88.17-.88.35,0,.9-.1,1.65-.3.75-.21,1.17-.44,1.26-.66.17-.68.26-1.98.26-3.89V11.67c0-1.8-.12-2.89-.36-3.31-.15-.23-.56-.48-1.23-.72-.68-.25-1.18-.38-1.5-.38-.12,0-.18-.25-.18-.75,0-.53.03-.82.09-.88,4.06.18,6.18.26,6.38.26h0ZM103.13,5.9c.6,0,2.65-.08,6.17-.26.08.26.13.53.13.79,0,.56-.06.84-.17.84-.26,0-.8.12-1.58.38-.8.24-1.22.47-1.28.67-.2.8-.31,1.97-.31,3.53v16.69c0,1.43.12,2.5.35,3.16.14.47,1.15.71,2.99.71h1.15c1.82,0,3.47-.39,4.93-1.15.5-.26,1.06-.76,1.69-1.5.63-.73,1.13-1.55,1.48-2.47.06-.17.26-.26.61-.26.71,0,1.15.09,1.33.26-1.44,4.06-2.23,6.57-2.38,7.58-1.67,0-4.28-.03-7.84-.09-3.54-.06-5.95-.09-7.21-.09l-6.43.26c-.11-.11-.17-.37-.17-.74,0-.59.06-.88.17-.88.36,0,.9-.1,1.65-.3.75-.21,1.17-.44,1.26-.66.17-.68.26-1.98.26-3.89V11.67c0-1.8-.12-2.89-.36-3.31-.15-.23-.56-.48-1.23-.72-.68-.25-1.18-.38-1.5-.38-.12,0-.18-.25-.18-.75,0-.53.03-.82.09-.88,4.06.18,6.18.26,6.38.26h0ZM130.79,5.77c1.29,0,3.56-.03,6.82-.11,3.27-.07,5.73-.11,7.41-.11.03.29.45,2.47,1.28,6.52-.15.14-.5.21-1.01.21-.32,0-.53-.1-.62-.3-.56-1.12-1.44-2.07-2.65-2.86-1.2-.79-2.37-1.19-3.51-1.19h-1.68c-1.85,0-2.8.18-2.86.57-.14.71-.21,1.85-.21,3.44v6.78c0,.17.63.26,1.89.26h2.33c1.83,0,2.82-.06,2.99-.17.15-.12.26-.55.36-1.28.06-.45.14-.86.26-1.28.03-.2.25-.31.66-.31.5,0,.82.08.97.22v8.33c-.12.11-.43.17-.92.17-.38,0-.62-.12-.71-.35-.12-.41-.21-.76-.3-1.06-.09-.29-.16-.52-.22-.66-.06-.15-.12-.28-.2-.4-.07-.11-.11-.19-.14-.22-.03-.03-.09-.07-.18-.11-.09-.04-.14-.08-.17-.1-.39-.24-1.53-.36-3.44-.36-2.11,0-3.16.12-3.16.39v6.79c0,1.41.12,2.46.35,3.12.14.47,1.14.71,2.98.71h1.16c1.82,0,3.45-.39,4.93-1.15.49-.26,1.05-.76,1.68-1.5.63-.73,1.13-1.55,1.48-2.47.03-.17.23-.26.62-.26.7,0,1.14.09,1.31.26-1.43,4.06-2.22,6.57-2.37,7.58-1.49,0-3.87-.03-7.13-.09-3.26-.06-5.89-.09-7.92-.09l-6.42.26c-.12-.11-.18-.37-.18-.74,0-.59.06-.88.18-.88.35,0,.9-.1,1.64-.3.75-.21,1.18-.44,1.26-.66.17-.68.26-1.98.26-3.89V11.84c0-1.61-.09-2.76-.26-3.44-.08-.23-.52-.5-1.3-.79-.78-.28-1.33-.44-1.65-.44-.11,0-.17-.26-.17-.79,0-.48.04-.75.13-.84,2.34.15,4.5.22,6.47.22h0ZM151.75,20.6c0-4.14,1.4-7.7,4.22-10.69,2.82-2.99,6.24-4.49,10.26-4.49,3.21,0,6.56.43,10.08,1.28.15.03.36,1.14.62,3.33.26,2.18.4,3.48.4,3.9,0,.23-.26.35-.79.35-.62,0-1.07-.07-1.36-.22-.15-.56-.39-1.13-.71-1.71-.32-.59-.8-1.25-1.45-1.99-.65-.73-1.55-1.33-2.69-1.78-1.15-.46-2.43-.69-3.87-.69-5.29,0-7.92,3.91-7.92,11.71,0,2.2.28,4.26.85,6.15.58,1.9,1.59,3.53,3.04,4.91,1.45,1.38,3.27,2.07,5.44,2.07,1.29,0,2.23-.23,2.82-.7.31-.26.48-.71.48-1.33v-3.07c0-1.5-.1-2.64-.3-3.39-.23-.8-1.21-1.2-2.9-1.2-.12,0-.19-.24-.2-.72-.02-.49.03-.79.15-.9.53.03,1.23.06,2.09.1.86.05,1.66.08,2.38.11.71.03,1.41.05,2.09.05.45,0,2.41-.09,5.94-.26.09.26.13.56.13.88,0,.52-.06.78-.18.78-.67,0-1.45.23-2.32.66-.48.23-.71,1.4-.71,3.48v2.56c0,.53.05.92.13,1.19.09.26.13.43.13.49,0,.5-.3.91-.92,1.24-1.09.56-1.93.96-2.54,1.21-.6.25-1.67.53-3.22.83-1.54.31-3.26.47-5.16.47-3.88,0-7.18-1.45-9.91-4.33-2.73-2.89-4.09-6.31-4.09-10.24h0ZM190.73,5.77c1.29,0,3.56-.03,6.82-.11,3.27-.07,5.73-.11,7.4-.11.03.29.45,2.47,1.28,6.52-.15.14-.5.21-1.01.21-.32,0-.53-.1-.62-.3-.56-1.12-1.44-2.07-2.65-2.86-1.2-.79-2.37-1.19-3.51-1.19h-1.68c-1.85,0-2.8.18-2.86.57-.14.71-.21,1.85-.21,3.44v6.78c0,.17.63.26,1.89.26h2.33c1.83,0,2.82-.06,2.99-.17.15-.12.26-.55.35-1.28.06-.45.14-.86.26-1.28.03-.2.25-.31.66-.31.5,0,.82.08.97.22v8.33c-.12.11-.43.17-.92.17-.39,0-.62-.12-.71-.35-.12-.41-.21-.76-.3-1.06-.09-.29-.16-.52-.22-.66-.06-.15-.12-.28-.2-.4-.07-.11-.11-.19-.14-.22-.03-.03-.09-.07-.18-.11-.09-.04-.14-.08-.17-.1-.39-.24-1.53-.36-3.44-.36-2.11,0-3.16.12-3.16.39v6.79c0,1.41.12,2.46.35,3.12.14.47,1.14.71,2.98.71h1.16c1.82,0,3.45-.39,4.93-1.15.49-.26,1.06-.76,1.68-1.5.63-.73,1.13-1.55,1.48-2.47.03-.17.23-.26.62-.26.7,0,1.14.09,1.31.26-1.43,4.06-2.22,6.57-2.37,7.58-1.49,0-3.87-.03-7.13-.09-3.26-.06-5.89-.09-7.92-.09l-6.42.26c-.12-.11-.18-.37-.18-.74,0-.59.06-.88.18-.88.36,0,.9-.1,1.64-.3.75-.21,1.18-.44,1.26-.66.17-.68.26-1.98.26-3.89V11.84c0-1.61-.09-2.76-.26-3.44-.08-.23-.52-.5-1.3-.79-.78-.28-1.33-.44-1.65-.44-.11,0-.17-.26-.17-.79,0-.48.04-.75.13-.84,2.34.15,4.5.22,6.47.22h0Z"/>
        <path class="cls-2" d="M0,18.86l3.01-.55,1.46,2.24c-.14.29-.11.69.06.96.17.26.39.38.65.43l.58,1.77,1.92-1.25-1.38-1.25c.06-.25.04-.49-.13-.76-.17-.27-.52-.46-.85-.44l-1.23-1.89,6.62-1.22c-.73-3.5.68-7.24,3.86-9.31,2.92-1.91,6.55-1.88,9.37-.24L28.93,0,10.53,3.4,0,18.86Z"/>
      </g>
      <text class="cls-1" transform="translate(51.8 46.98)"><tspan x="0" y="0">Access Unplugged</tspan></text>
    </g>
  </g>
</svg>