<?xml version="1.0" encoding="UTF-8"?>
<svg id="Layer_2" data-name="Layer 2" xmlns="http://www.w3.org/2000/svg" viewBox="0 0 50.48 50.48">
  <defs>
    <style>
      .cls-1 {
        fill: #27aae1;
      }

      .cls-2 {
        fill: #06559f;
      }
    </style>
  </defs>
  <g id="Layer_1-2" data-name="Layer 1">
    <g>
      <circle class="cls-1" cx="25.24" cy="25.24" r="25.24"/>
      <g>
        <path class="cls-2" d="M14.83,18.8s1.77,6.37,9.8,7.22c1.46-2.1,1.7-5.63,1.1-7.81,1.2.99,1.87,3.9,1.12,6.96-.63,2.17.07,2.93.34,3.7.78,2.25.98,5.38-.73,7.03.5-2.6-1.82-6.15-4.16-7.42-2.34-1.28-7.71-3.79-7.47-9.67Z"/>
        <ellipse class="cls-2" cx="22.39" cy="22.39" rx="1.75" ry="2.11" transform="translate(-7.89 13.12) rotate(-27.98)"/>
        <path class="cls-2" d="M16.37,41.56c-.26.81-.21,1.35-.21,1.35,0,0,1.91-2.75,5.35-4.45.55-.27,3.29-.85,4.32-2.15.91-1.14-.14-3.15-2.22-6.22,0,0,.91,2.29.47,4.14-.27,1.15-1.54,2.01-3.13,2.66-2.11,1.08-3.29,2.3-3.96,3.35"/>
        <path class="cls-2" d="M26.09,36.5c-1.9,4.31-4.79,4.04-6.77,7.33.29-3.15,3.46-5.11,4.59-5.8,1.02-.4,2.18-1.53,2.18-1.53Z"/>
        <g>
          <path class="cls-2" d="M28.39,13.74c.43-.69.78-1.43.99-2.24.32-1.23.46-2.46,1.19-3.74-8.6-.03-7.76,8.2-7.76,8.2.57-3.87,3.91-5.38,4.97-5.93-2.92,1.7-4.37,6.57-4.95,8.18,0,0,1.44-1.22,3.62-2.61,1.35-.89,1.93-1.86,1.93-1.86Z"/>
          <path class="cls-2" d="M22.81,18.27s.02-.01.03-.02c0-.02,0-.04,0-.04,0,.02-.01.04-.02.06Z"/>
          <path class="cls-2" d="M35.65,17.44c-.39-.59-.79-1.11-1.22-1.57-1.34-1.44-3.08-2.14-4.82-2.2-.12.19-.26.36-.4.52,0,0,0,0,0,0,0,0,0,0,0,0-.17.18-.35.34-.54.48-.6.53-1.63,1.41-2.58,2.17,2.23-.53,4.97-.46,6.81,1.51,4.86,5.28,1.04,13.46-3.11,18.94.38-2.08-.07-3.6-.42-4.35-.11,5.17-2.86,8.11-2.86,8.11,6.23-2.2,14.14-15.73,9.14-23.6Z"/>
        </g>
      </g>
    </g>
  </g>
</svg>