<?xml version="1.0" encoding="UTF-8"?>
<svg id="Layer_2" xmlns="http://www.w3.org/2000/svg" viewBox="0 0 170.28 43.13">
  <defs>
    <style>
      .cls-1 {
        letter-spacing: -.01em;
      }

      .cls-2 {
        fill: #2e3192;
        letter-spacing: -.06em;
      }

      .cls-2, .cls-3 {
        font-family: AvegaRegular, Avega;
        font-size: 33.45px;
      }

      .cls-4 {
        letter-spacing: -.02em;
      }

      .cls-5 {
        letter-spacing: 0em;
      }

      .cls-6, .cls-7, .cls-3 {
        fill: #231f20;
      }

      .cls-8 {
        letter-spacing: -.02em;
      }

      .cls-9 {
        letter-spacing: -.02em;
      }

      .cls-10 {
        letter-spacing: .02em;
      }

      .cls-11 {
        fill: #fff;
      }

      .cls-7 {
        font-family: AcuminConcept-Wide, 'Acumin Variable Concept';
        font-size: 6.9px;
        font-variation-settings: 'wght' 382, 'wdth' 115, 'slnt' 0;
      }

      .cls-12 {
        letter-spacing: -.02em;
      }

      .cls-13 {
        letter-spacing: 0em;
      }

      .cls-14 {
        letter-spacing: 0em;
      }

      .cls-15 {
        letter-spacing: -.02em;
      }

      .cls-16 {
        letter-spacing: -.04em;
      }

      .cls-17 {
        letter-spacing: -.02em;
      }

      .cls-3 {
        letter-spacing: -.06em;
      }

      .cls-18 {
        letter-spacing: -.01em;
      }

      .cls-19 {
        letter-spacing: .01em;
      }

      .cls-20 {
        letter-spacing: -.02em;
      }

      .cls-21 {
        letter-spacing: 0em;
      }

      .cls-22 {
        letter-spacing: -.01em;
      }

      .cls-23 {
        letter-spacing: -.01em;
      }
    </style>
  </defs>
  <g id="Layer_1-2" data-name="Layer_1">
    <g>
      <g>
        <path class="cls-6" d="M170.28,22.5c0-.22-.09-.41-.23-.55.04-.44.06-.89.06-1.35,0-1.66-.25-3.17-.73-4.47-.49-1.31-1.16-2.4-1.99-3.23-.82-.82-1.84-1.51-3.01-2.05-.43-.2-.88-.38-1.33-.53-.05-.38-.38-.68-.77-.68-.24,0-.46.11-.6.28-.32-.08-.64-.14-.96-.2-1.25-.21-2.62-.31-4.08-.31h-.58c-.14-.18-.36-.3-.61-.3s-.47.12-.61.3h-5.67c-.14-.2-.37-.32-.63-.32-.43,0-.78.35-.78.78,0,.27.14.51.35.65v7.17c-.21.14-.35.38-.35.65s.14.51.35.65v5.88c-.21.14-.35.38-.35.65s.14.51.35.65v4.85c-.21.14-.35.38-.35.65,0,.43.35.78.78.78.29,0,.54-.16.68-.4h6.77c.14.12.32.19.51.19s.38-.07.51-.19h.24c1.7,0,3.32-.23,4.81-.68,1.14-.34,2.2-.82,3.18-1.42.06.02.13.03.19.03.39,0,.72-.29.77-.68,1.2-.89,2.16-2.1,2.85-3.57.37-.78.64-1.63.81-2.53.24-.13.41-.39.41-.69ZM164.77,28.78l-2.63-1.05,2.2-1.52.74,2.28c-.13.07-.23.17-.3.29ZM161.78,11.01c.09.08.2.13.32.16l-.13,4.34-2.68-2.42,2.49-2.08ZM161.91,20.54c0,2.98-1.63,4.44-4.99,4.44h-.98v-3.61c.18-.14.29-.36.29-.61s-.11-.46-.29-.61v-3.36c.17-.07.31-.21.39-.38h.86c1.46,0,2.63.37,3.47,1.11.33.29.59.61.79.98-.15.14-.25.34-.25.57,0,.39.29.71.66.77.03.22.04.45.04.7ZM153.8,26.69l-1.95-3.27,3.15-2.03c.05.04.11.07.18.1v3.96l-1.37,1.25ZM150.67,21.44l2.08-4.83,2.27,3.5c-.21.14-.34.38-.34.65,0,.16.05.32.14.44l-3.09,2-1.05-1.75ZM151.49,23.34l-2.27,1.47,1.32-3.07.95,1.6ZM155.17,16.7v3.17l-2.3-3.55.75-1.75,1.3,1.16c-.05.1-.08.22-.08.34,0,.26.13.49.32.63ZM152.7,16.06l-3.54-5.46,4.26,3.79-.72,1.67ZM161.95,15.85l-.06,1.91c-.2-.3-.44-.57-.72-.82-.98-.86-2.32-1.3-3.97-1.3h-.91s-.01-.02-.02-.03l2.82-2.35,2.87,2.59ZM156.07,15.43c-.13-.09-.28-.14-.44-.14-.21,0-.41.09-.55.23l-1.35-1.2,1.58-3.66s.09.01.14.01c.2,0,.39-.08.53-.21l2.91,2.63-2.81,2.35ZM155.07,10.57l-1.54,3.57-4.34-3.86s.04-.07.05-.1h5.48c.07.17.19.31.34.39ZM152.58,16.35l-2.07,4.82-1.39-2.32c.12-.14.2-.32.2-.52,0-.31-.18-.58-.45-.7v-7l3.71,5.73ZM148.91,19.01l1.46,2.45-1.45,3.37s-.04-.02-.06-.03v-5.77s.03-.01.04-.02ZM149.31,25.51c0-.14-.04-.27-.1-.38l2.42-1.56,1.98,3.31-4.59,4.17s-.09-.07-.15-.09v-4.74c.26-.13.45-.39.45-.7ZM149.19,31.24l4.55-4.14,2.25,3.77c-.12.11-.21.25-.25.41h-6.53s-.01-.02-.02-.04ZM156.5,30.68c-.1,0-.2.02-.29.06l-2.27-3.81,1.3-1.18h1.18l5.18,2.06-4.53,3.12c-.14-.15-.34-.25-.57-.25ZM157.12,25.74c1.78-.03,3.16-.47,4.09-1.3.88-.79,1.37-1.94,1.46-3.43l1.6,4.95-2.4,1.66-4.74-1.88ZM162.66,20.17c-.01-.21-.03-.42-.07-.62.11-.13.17-.3.17-.49,0-.35-.23-.65-.55-.75-.02-.05-.05-.1-.07-.15l.07-2.1,6.64,6c-.08.12-.12.26-.12.42,0,.12.03.23.07.33l-4.32,2.98-1.82-5.63ZM166.85,13.44c.75.75,1.36,1.74,1.81,2.95.46,1.22.69,2.63.69,4.21,0,.39-.02.77-.05,1.15-.1.03-.2.08-.28.14l-6.81-6.15.14-4.55c.15-.01.29-.07.41-.16.44.15.87.32,1.3.52,1.1.5,2.03,1.14,2.79,1.9ZM160.59,10.48c.32.05.64.12.96.2.02.05.04.1.07.14l-2.52,2.11-2.95-2.66s.03-.05.04-.08h.46c1.41,0,2.74.1,3.95.3ZM161.84,30.63c-1.42.43-2.96.65-4.58.65-.01-.05-.03-.09-.05-.13l4.67-3.22,2.79,1.11c-.01.05-.02.11-.02.16,0,.07,0,.13.03.2-.88.52-1.83.94-2.84,1.24ZM168.37,25.4c-.61,1.3-1.44,2.36-2.46,3.17-.13-.1-.29-.16-.47-.16-.04,0-.08,0-.11,0l-.76-2.35,4.38-3.02s.1.09.15.12c-.16.79-.41,1.54-.73,2.23Z"/>
        <circle class="cls-6" cx="167.38" cy="13.39" r=".77"/>
        <circle class="cls-6" cx="161.7" cy="31.06" r=".77"/>
        <rect class="cls-6" x="155.17" y="22.01" width="18.63" height=".33" transform="translate(94.02 172.45) rotate(-72.56)"/>
      </g>
      <g>
        <circle class="cls-11" cx="29.97" cy="3.13" r="3.13"/>
        <circle class="cls-11" cx="80.34" cy="3.13" r="3.13"/>
        <rect class="cls-11" x="29.97" y="2.92" width="50.37" height=".43"/>
      </g>
      <g>
        <text class="cls-3" transform="translate(0 31.95)"><tspan x="0" y="0">DISCITE </tspan></text>
        <text class="cls-2" transform="translate(126.16 32.34)"><tspan x="0" y="0">3</tspan></text>
      </g>
      <text class="cls-7" transform="translate(11.43 41.32)"><tspan class="cls-8" x="0" y="0">P</tspan><tspan class="cls-14" x="4.95" y="0">R</tspan><tspan class="cls-1" x="10.06" y="0">I</tspan><tspan class="cls-14" x="12.06" y="0">N</tspan><tspan class="cls-20" x="17.79" y="0">T </tspan><tspan class="cls-4" x="24.16" y="0">Y</tspan><tspan class="cls-18" x="28.63" y="0">O</tspan><tspan class="cls-1" x="34.46" y="0">U</tspan><tspan class="cls-20" x="40" y="0">R </tspan><tspan class="cls-1" x="46.97" y="0">I</tspan><tspan class="cls-23" x="48.97" y="0">D</tspan><tspan class="cls-19" x="54.46" y="0">E</tspan><tspan class="cls-5" x="59.44" y="0">AS</tspan><tspan class="cls-16" x="69.69" y="0">,</tspan><tspan class="cls-12" x="71.18" y="0"> </tspan><tspan class="cls-17" x="73.1" y="0">S</tspan><tspan class="cls-8" x="77.98" y="0">H</tspan><tspan class="cls-22" x="83.59" y="0">A</tspan><tspan class="cls-8" x="88.79" y="0">P</tspan><tspan class="cls-12" x="93.74" y="0">E </tspan><tspan class="cls-14" x="100.43" y="0">T</tspan><tspan class="cls-1" x="104.93" y="0">H</tspan><tspan class="cls-20" x="110.58" y="0">E </tspan><tspan class="cls-15" x="117.27" y="0">F</tspan><tspan class="cls-21" x="121.83" y="0">U</tspan><tspan class="cls-13" x="127.45" y="0">T</tspan><tspan class="cls-1" x="131.97" y="0">U</tspan><tspan class="cls-14" x="137.52" y="0">R</tspan><tspan class="cls-10" x="142.62" y="0">E</tspan><tspan class="cls-9" x="147.67" y="0">.</tspan></text>
    </g>
  </g>
</svg>