<?xml version="1.0" encoding="UTF-8"?>
<svg id="Layer_2" data-name="Layer 2" xmlns="http://www.w3.org/2000/svg" viewBox="0 0 279.65 69.8">
  <defs>
    <style>
      .cls-1 {
        fill: #fff;
      }

      .cls-2 {
        fill: #f3cd3e;
      }

      .cls-3 {
        fill: #010101;
      }

      .cls-4 {
        fill: #f7abbc;
      }
    </style>
  </defs>
  <g id="Layer_1" data-name="Layer 1">
    <g>
      <g>
        <g>
          <path class="cls-2" d="M209.42,17.75c2.31-1.26,5.76-.83,7.13,1.62,1.14,2.04.71,4.58-.7,6.37-.25.31-.41.69-.42,1.09,0,.09,0,.18,0,.27-.01.93-.77,1.67-1.69,1.67-.99,0-1.99,0-2.98,0-.86,0-1.6-.65-1.68-1.51-.06-.7-.23-1.36-.76-1.9-1.84-2.21-1.5-6.12,1.1-7.59Z"/>
          <rect class="cls-2" x="211" y="9" width="1.89" height="5.14" rx=".86" ry=".86"/>
          <rect class="cls-2" x="220.06" y="13.72" width="1.89" height="5.14" rx=".86" ry=".86" transform="translate(102.01 -170.65) rotate(53.31)"/>
          <rect class="cls-2" x="202.09" y="14.13" width="1.89" height="5.14" rx=".86" ry=".86" transform="translate(337.75 -136.11) rotate(126.69)"/>
        </g>
        <path class="cls-1" d="M44.41,41.4c.72-3.41,2.42-6.59,5.25-8.67.28-.21.57-.4.87-.58,4.36-2.67,10.08-2.46,14.63.53-.04-5.29-.02-10.57-.01-15.85,3.06.02,6.12-.04,9.18.05-.09,14.1-.01,28.19-.04,42.29h-8.25c0-.85-.01-1.7-.01-2.55-5.78,3.8-12.82,3.71-17.29.05-2.78-2.27-4.27-5.87-4.63-9.39-.19-1.92-.1-3.93.31-5.87ZM57.59,38.04c-4.44,1.71-5.12,7.82-2.99,11.56,1.74,3.48,7.25,4.03,9.51.8,2.08-3.02,2.14-7.36.13-10.43-1.41-2.15-4.33-2.76-6.66-1.94Z"/>
        <path class="cls-1" d="M121.19,39.27c2.32-6.9,4.61-13.8,6.97-20.68,3.35.01,6.7,0,10.06,0,1.89,5.52,3.79,11.05,5.61,16.59,2.51-.37,5.01-.81,7.5-1.32,1.56,1.04,3.19,2.65,2.7,4.72-.37,1.14-.65,2.91-2.14,3.03-1.83.39-3.69.62-5.52,1.01,1.98,5.69,3.84,11.41,5.84,17.09-3.01.05-6.02.03-9.02.02-1.55-5.24-3.2-10.45-4.73-15.7-3.72.56-7.41,1.29-11.1,1.94-1.4,4.6-2.78,9.2-4.24,13.79-2.94-.05-5.89.03-8.83-.08,1.49-4.01,2.73-8.09,4.13-12.12-1.98.26-4.03,1.1-6,.38-2.23-.68-4.44-1.4-6.69-2.05,1.32-1.37,2.96-2.36,4.45-3.51,3.01-2.68,7.35-2.14,11.02-3.12ZM129.89,37.71c2.07-.37,4.14-.74,6.21-1.07-.87-3.25-1.96-6.44-2.86-9.68-1.21,3.55-2.23,7.17-3.36,10.75ZM109.46,44.13c.11.66.2,1.33.3,1.99,1.25.38,2.5.77,3.76,1.12.22-1.86.14-3.82-.97-5.4-1.01.78-2.04,1.55-3.09,2.29Z"/>
        <path class="cls-1" d="M188.81,23.25c3.07.11,6.15.05,9.23.06,0,2.54.03,5.09-.04,7.63,2.27.05,4.55.05,6.82.04,0,2.43.04,4.86-.06,7.29-2.28-.08-4.56-.08-6.84-.08-.02,3.26-.06,6.51-.02,9.77.03,1.34.24,3,1.58,3.7,1.68.8,3.59.25,5.35.15,0,2.4,0,4.79,0,7.19-3.89.78-8.22,1.13-11.79-.92-2.91-1.65-4.27-5.12-4.28-8.34-.03-3.84.02-7.68,0-11.53h-4.71c-.02-2.42-.02-4.84.02-7.26,1.55.02,3.1.04,4.66.05.05-2.58-.01-5.17.08-7.75Z"/>
        <path class="cls-1" d="M159.39,33.6c4.08-3.39,9.9-4.02,14.92-2.79,3.56.85,6.44,3.39,8.46,6.37-2.36,1.27-4.7,2.57-7.05,3.86-.92-1.16-1.85-2.48-3.32-2.97-3.07-1.2-6.96.32-8.04,3.53-1.24,3.52-.71,8.53,2.99,10.36,3.04,1.51,6.85.15,8.4-2.83,2.43,1.13,4.83,2.3,7.2,3.52-1.69,2.89-4.12,5.55-7.42,6.55-6.79,2.18-15.52.26-19.19-6.3-3.2-6.11-2.47-14.73,3.04-19.29Z"/>
        <path class="cls-1" d="M260.14,30.59c4.58-.83,9.6-.3,13.54,2.32,8.01,5.45,7.96,19.24-.18,24.54-4.26,2.73-9.71,3.14-14.54,1.95-4.37-1.1-8.21-4.34-9.59-8.67-1.58-4.9-1.18-10.72,1.97-14.93,2.09-2.83,5.39-4.58,8.8-5.21ZM261.76,38.08c-4.22,1.67-4.8,7.38-3.17,11.08,1.62,4.17,8.21,4.6,10.46.8,1.66-2.84,1.7-6.62.1-9.49-1.4-2.56-4.78-3.35-7.39-2.38Z"/>
        <path class="cls-1" d="M76.1,30.93c3.07.08,6.15.05,9.23.03.05,5.26.02,10.53.01,15.8,0,1.42.06,2.96.96,4.14,1.89,2.47,6.28,2.08,7.84-.57.68-1.06.82-2.34.81-3.56,0-5.28-.06-10.56.02-15.84,3.08.08,6.16.04,9.25.04.03,9.39,0,18.79.01,28.18h-8.41c0-1.18.01-2.36.04-3.54-3.61,5.17-11.82,5.78-16.41,1.65-2.53-2.35-3.39-5.94-3.38-9.28.01-5.68-.05-11.36.04-17.05Z"/>
        <path class="cls-1" d="M207.94,30.97c3.06.02,6.13-.05,9.19.06-.12,9.37-.02,18.74-.05,28.12h-9.15c0-9.39,0-18.79,0-28.18Z"/>
        <path class="cls-1" d="M218.37,31.72c3.32,0,6.63,0,9.95.01,2.11,6.32,4.19,12.65,6.34,18.96,2.15-6.31,4.21-12.66,6.36-18.98,3.29.01,6.58,0,9.87.01-3.76,9.38-7.53,18.76-11.25,28.15-3.39.02-6.79.06-10.18-.02-3.59-9.41-7.38-18.76-11.08-28.13Z"/>
        <path class="cls-3" d="M109.46,43.38c1.04-.74,2.07-1.51,3.09-2.29,1.1,1.59,1.19,3.55.97,5.4-1.26-.35-2.51-.74-3.76-1.12-.09-.67-.19-1.33-.3-1.99Z"/>
        <g>
          <path class="cls-4" d="M31.89,1.85c.64,1.59,1.26,3.19,1.85,4.8-5.51,4.19-11.09,8.3-16.81,12.2-2.61,1.72-5.19,3.64-8.22,4.53.39-.89.8-1.79,1.52-2.44,6.36-6.02,13.25-11.08,19.5-17.2"/>
          <path class="cls-4" d="M6.62,21.33C10.69,13.98,15.57,7.12,20.02,0c.45,2.45.88,4.9,1.31,7.35-4.04,4.16-8.11,8.28-12.13,12.47-.7.73-1.49,1.49-2.57,1.51Z"/>
          <path class="cls-4" d="M41.64,42.96c-6.17,2.31-12.34,4.66-18.53,6.94,0,1.63-.01,3.25-.03,4.88,6.21-2.32,12.41-4.68,18.62-6.98.04,3.63-.04,7.27.07,10.91-9.38,3.69-18.89,7.04-28.32,10.59-5.55,1.97-12.08-2.1-12.74-8.11-.3-10-.37-20-.57-30,.22-3.71-1.03-7.88,1.22-11.18,1.31-1.83,3.41-3.66,5.77-3.24.86,2.47-2.56,3.05-3.31,5.01-.83,1.82.76,3.44,2.09,4.4,1.47,1.09,3.44.89,5.07.34,10.24-3.52,20.48-7.01,30.72-10.5,0,4.1.02,8.21,0,12.31-6.21,2.36-12.44,4.62-18.62,7.03,0,1.81,0,3.62.01,5.43,6.15-2.26,12.28-4.57,18.4-6.91"/>
          <path class="cls-4" d="M13.35,22.72c8.87-5.39,17.69-10.87,26.54-16.29-.23,2.19-.2,4.43-.73,6.57-6.15,2.86-12.45,5.35-18.65,8.08-3.11,1.23-6.07,2.91-9.34,3.65.63-.78,1.32-1.53,2.18-2.02Z"/>
        </g>
      </g>
      <g>
        <path class="cls-4" d="M78.17,20.24v-3.37h6.75v3.37h-1.69v4.23h-3.37v-4.23h-1.69Z"/>
        <path class="cls-4" d="M92.04,18.48v5.99h-2.95v-1.05h-.02c-.3.38-.61.66-.93.84-.31.18-.69.26-1.12.26-.63,0-1.13-.19-1.52-.56-.38-.37-.57-.89-.57-1.56v-3.92h2.91v3.23c0,.54.19.82.56.82.25,0,.44-.11.56-.32v-3.73h3.08Z"/>
        <path class="cls-4" d="M102.33,17.27l-.84,2.39c-.55-.74-1.18-1.11-1.89-1.11-.4,0-.59.15-.59.45,0,.09.06.19.19.28.12.1.45.25.98.45.58.23,1.03.44,1.34.62s.55.43.7.72.23.63.23,1.02c0,.81-.31,1.43-.93,1.86-.62.43-1.52.64-2.72.64-1.34,0-2.5-.19-3.47-.57l.82-2.54c.24.37.54.67.89.89s.69.33,1.02.33c.16,0,.29-.04.4-.12.11-.08.16-.18.16-.3s-.05-.22-.16-.32c-.1-.1-.38-.25-.83-.43-.4-.16-.74-.32-1-.48-.27-.15-.5-.37-.69-.66-.2-.29-.29-.65-.29-1.08,0-.84.31-1.48.92-1.91.61-.43,1.52-.64,2.72-.64,1.09,0,2.11.17,3.04.51Z"/>
        <path class="cls-4" d="M105.91,18.48v.46c.46-.34.95-.51,1.48-.51.75,0,1.38.28,1.88.84.5.56.75,1.26.75,2.11,0,.91-.27,1.67-.81,2.26-.54.59-1.22.89-2.06.89-.42,0-.83-.09-1.25-.26v1.9h-3.08v-7.68h3.08ZM105.91,21.12v1.08c.18.1.36.14.53.14s.33-.07.45-.2c.12-.14.17-.32.17-.54s-.06-.41-.17-.55-.26-.21-.45-.21c-.21,0-.38.09-.53.28Z"/>
        <path class="cls-4" d="M113.64,24.56c-.95,0-1.73-.29-2.35-.86-.62-.57-.92-1.32-.92-2.24s.3-1.67.91-2.25c.61-.58,1.39-.87,2.36-.87s1.76.29,2.37.87c.61.58.91,1.33.91,2.25s-.3,1.66-.91,2.24c-.61.57-1.4.86-2.37.86ZM113.64,20.72c-.2,0-.36.06-.49.19-.12.13-.19.29-.19.5s.06.37.19.49c.12.13.29.19.49.19s.37-.06.49-.19c.13-.13.19-.29.19-.49s-.06-.37-.19-.5c-.13-.13-.29-.19-.49-.19Z"/>
        <path class="cls-4" d="M122.29,18.48v1.68h-1.28v1.28c0,.43.19.65.58.65.29,0,.53-.14.74-.43v2.38c-.48.32-1.07.48-1.77.48-.74,0-1.36-.22-1.87-.66s-.76-1.05-.76-1.82v-1.88h-1.25l4.33-3.4v1.71h1.28Z"/>
      </g>
    </g>
  </g>
</svg>