<?xml version="1.0" encoding="UTF-8"?>
<svg id="Layer_2" data-name="Layer 2" xmlns="http://www.w3.org/2000/svg" viewBox="0 0 156.74 39.49">
  <defs>
    <style>
      .cls-1 {
        fill: #fff;
      }

      .cls-2 {
        fill: #231f20;
      }
    </style>
  </defs>
  <g id="Layer_1-2" data-name="Layer 1">
    <g>
      <g>
        <g>
          <path class="cls-2" d="M6.73,16.84c-.05.87-.09,1.76-.11,2.68-.03.92-.05,1.85-.08,2.79h1.91c.92,0,1.8-.06,2.64-.17s1.48-.24,1.91-.36c-.23,1.96-.23,3.82,0,5.58-.43-.13-1.07-.25-1.91-.38-.84-.13-1.72-.19-2.64-.19h-1.91c0,1.1.02,2.19.06,3.27.04,1.08.08,2.11.13,3.08h1.03c1.63,0,3.18-.06,4.65-.17,1.47-.11,2.68-.25,3.65-.4-.15,1.94-.15,3.88,0,5.81-1.2-.05-2.44-.09-3.73-.11-1.29-.02-2.62-.04-4-.04s-2.76.01-4.15.04c-1.39.03-2.79.06-4.19.11.1-.54.2-1.22.29-2.07.09-.84.17-1.78.23-2.81.06-1.03.11-2.13.15-3.29.04-1.16.06-2.35.06-3.58v-3.1c0-1.22-.02-2.42-.06-3.6-.04-1.17-.09-2.28-.15-3.33-.06-1.04-.14-1.99-.23-2.85s-.19-1.57-.29-2.16c1.4.05,2.8.09,4.19.11,1.39.03,2.77.04,4.15.04s2.71-.01,4-.04c1.29-.02,2.53-.06,3.73-.11-.15,1.94-.15,3.88,0,5.81-.97-.15-2.19-.29-3.65-.4-1.47-.11-3.02-.17-4.65-.17h-1.03Z"/>
          <path class="cls-2" d="M31.63,38.37c0-1.02-.23-2.21-.69-3.56-.46-1.35-1.03-2.72-1.7-4.09s-1.41-2.7-2.2-3.96c-.79-1.26-1.52-2.33-2.18-3.19,0,.53,0,1.08-.02,1.64-.01.56-.02,1.13-.02,1.72v2.87c0,2.35.07,4.21.21,5.58.14,1.38.31,2.37.52,2.98-.59-.05-1.19-.09-1.8-.11-.61-.02-1.22-.04-1.84-.04s-1.22.01-1.82.04c-.6.03-1.2.06-1.82.11.1-.51.2-1.17.29-1.97.09-.8.17-1.7.23-2.68.06-.98.11-2.03.15-3.16.04-1.12.06-2.27.06-3.44v-2.87c0-1.3-.02-2.59-.06-3.86s-.09-2.47-.15-3.58c-.06-1.11-.14-2.11-.23-3s-.19-1.63-.29-2.22c.61.05,1.24.09,1.87.11.64.03,1.29.04,1.95.04s1.31-.01,1.95-.04c.64-.02,1.26-.06,1.87-.11,0,1.1.23,2.31.69,3.65.46,1.34,1.03,2.68,1.72,4.03.69,1.35,1.43,2.65,2.22,3.88.79,1.24,1.5,2.31,2.14,3.23,0-.54,0-1.08.02-1.64.01-.56.02-1.13.02-1.72v-2.87c0-2.35-.07-4.21-.21-5.58-.14-1.38-.31-2.37-.52-2.98.61.05,1.22.09,1.82.11.6.03,1.21.04,1.82.04s1.22-.01,1.84-.04c.61-.02,1.21-.06,1.8-.11-.1.51-.2,1.17-.29,1.97-.09.8-.17,1.7-.23,2.68-.06.98-.11,2.03-.15,3.16-.04,1.12-.06,2.27-.06,3.44v2.87c0,1.3.02,2.58.06,3.84s.09,2.45.15,3.56c.06,1.11.14,2.12.23,3.02.09.91.18,1.65.29,2.24-.61-.05-1.24-.09-1.87-.11-.64-.02-1.29-.04-1.95-.04s-1.31.01-1.95.04c-.64.03-1.26.06-1.87.11Z"/>
          <path class="cls-2" d="M69.34,16.84c-.05.87-.09,1.76-.11,2.68-.03.92-.05,1.85-.08,2.79h1.91c.92,0,1.8-.06,2.64-.17s1.48-.24,1.91-.36c-.23,1.96-.23,3.82,0,5.58-.43-.13-1.07-.25-1.91-.38-.84-.13-1.72-.19-2.64-.19h-1.91c0,1.1.02,2.19.06,3.27.04,1.08.08,2.11.13,3.08h1.03c1.63,0,3.18-.06,4.65-.17,1.47-.11,2.68-.25,3.65-.4-.15,1.94-.15,3.88,0,5.81-1.2-.05-2.44-.09-3.73-.11-1.29-.02-2.62-.04-4-.04s-2.76.01-4.15.04c-1.39.03-2.79.06-4.19.11.1-.54.2-1.22.29-2.07.09-.84.17-1.78.23-2.81.06-1.03.11-2.13.15-3.29.04-1.16.06-2.35.06-3.58v-3.1c0-1.22-.02-2.42-.06-3.6-.04-1.17-.09-2.28-.15-3.33-.06-1.04-.14-1.99-.23-2.85s-.19-1.57-.29-2.16c1.4.05,2.8.09,4.19.11,1.39.03,2.77.04,4.15.04s2.71-.01,4-.04c1.29-.02,2.53-.06,3.73-.11-.15,1.94-.15,3.88,0,5.81-.97-.15-2.19-.29-3.65-.4-1.47-.11-3.02-.17-4.65-.17h-1.03Z"/>
          <path class="cls-2" d="M94.24,38.37c0-1.02-.23-2.21-.69-3.56-.46-1.35-1.03-2.72-1.7-4.09s-1.41-2.7-2.2-3.96c-.79-1.26-1.52-2.33-2.18-3.19,0,.53,0,1.08-.02,1.64-.01.56-.02,1.13-.02,1.72v2.87c0,2.35.07,4.21.21,5.58.14,1.38.31,2.37.52,2.98-.59-.05-1.19-.09-1.8-.11-.61-.02-1.22-.04-1.84-.04s-1.22.01-1.82.04c-.6.03-1.2.06-1.82.11.1-.51.2-1.17.29-1.97.09-.8.17-1.7.23-2.68.06-.98.11-2.03.15-3.16.04-1.12.06-2.27.06-3.44v-2.87c0-1.3-.02-2.59-.06-3.86s-.09-2.47-.15-3.58c-.06-1.11-.14-2.11-.23-3s-.19-1.63-.29-2.22c.61.05,1.24.09,1.87.11.64.03,1.29.04,1.95.04s1.31-.01,1.95-.04c.64-.02,1.26-.06,1.87-.11,0,1.1.23,2.31.69,3.65.46,1.34,1.03,2.68,1.72,4.03.69,1.35,1.43,2.65,2.22,3.88.79,1.24,1.5,2.31,2.14,3.23,0-.54,0-1.08.02-1.64.01-.56.02-1.13.02-1.72v-2.87c0-2.35-.07-4.21-.21-5.58-.14-1.38-.31-2.37-.52-2.98.61.05,1.22.09,1.82.11.6.03,1.21.04,1.82.04s1.22-.01,1.84-.04c.61-.02,1.21-.06,1.8-.11-.1.51-.2,1.17-.29,1.97-.09.8-.17,1.7-.23,2.68-.06.98-.11,2.03-.15,3.16-.04,1.12-.06,2.27-.06,3.44v2.87c0,1.3.02,2.58.06,3.84s.09,2.45.15,3.56c.06,1.11.14,2.12.23,3.02.09.91.18,1.65.29,2.24-.61-.05-1.24-.09-1.87-.11-.64-.02-1.29-.04-1.95-.04s-1.31.01-1.95.04c-.64.03-1.26.06-1.87.11Z"/>
          <path class="cls-2" d="M104.53,22.84c0-1.17-.02-2.32-.06-3.44-.04-1.12-.09-2.17-.15-3.16-.06-.98-.14-1.87-.23-2.68-.09-.8-.19-1.46-.29-1.97.92.05,1.75.06,2.5.02s1.45-.08,2.08-.13c.64-.05,1.23-.11,1.78-.17.55-.06,1.09-.1,1.63-.1,1.81,0,3.43.23,4.86.69,1.43.46,2.65,1.22,3.67,2.3,1.02,1.07,1.8,2.49,2.33,4.25s.8,3.94.8,6.54-.27,4.78-.8,6.54c-.54,1.76-1.31,3.17-2.33,4.25-1.02,1.07-2.24,1.84-3.67,2.29-1.43.46-3.05.69-4.86.69-.54,0-1.08-.03-1.63-.1-.55-.06-1.14-.12-1.78-.17-.64-.05-1.33-.1-2.08-.13s-1.59-.03-2.5.02c.1-.51.2-1.17.29-1.97.09-.8.17-1.7.23-2.68.06-.98.11-2.03.15-3.16.04-1.12.06-2.27.06-3.44v-4.28ZM110.65,33.59h2.07c1.3,0,2.4-.7,3.29-2.1.89-1.4,1.34-3.56,1.34-6.46s-.45-5.06-1.34-6.46c-.89-1.4-1.99-2.1-3.29-2.1h-2.07c-.1,1.17-.17,2.51-.21,4s-.06,3.01-.06,4.57.02,3.08.06,4.57.11,2.82.21,4Z"/>
          <path class="cls-2" d="M125.38,38.37c.1-.59.2-1.33.29-2.24.09-.9.17-1.91.23-3.02.06-1.11.11-2.29.15-3.56s.06-2.54.06-3.84v-2.87c0-1.17-.02-2.32-.06-3.44-.04-1.12-.09-2.17-.15-3.16-.06-.98-.14-1.87-.23-2.68-.09-.8-.18-1.46-.29-1.97.61.05,1.22.09,1.82.11.6.03,1.21.04,1.82.04s1.22-.01,1.84-.04c.61-.02,1.21-.06,1.8-.11-.1.51-.2,1.17-.29,1.97-.09.8-.17,1.7-.23,2.68-.06.98-.11,2.03-.15,3.16-.04,1.12-.06,2.27-.06,3.44v2.87c0,1.3.02,2.58.06,3.84s.09,2.45.15,3.56c.06,1.11.14,2.12.23,3.02.09.91.18,1.65.29,2.24-.59-.05-1.19-.09-1.8-.11-.61-.02-1.22-.04-1.84-.04s-1.22.01-1.82.04c-.6.03-1.2.06-1.82.11Z"/>
          <path class="cls-2" d="M134.56,38.37c.59-2.22,1.19-4.62,1.8-7.21s1.19-5.13,1.72-7.61c.53-2.49.99-4.79,1.36-6.9.37-2.12.61-3.8.71-5.05.77.05,1.66.09,2.68.11,1.02.03,1.96.04,2.83.04s1.81-.01,2.83-.04c1.02-.02,1.91-.06,2.68-.11.1,1.25.34,2.93.71,5.05.37,2.12.82,4.42,1.36,6.9.54,2.49,1.11,5.02,1.72,7.61s1.21,4.99,1.8,7.21c-.59-.05-1.22-.09-1.89-.11-.68-.02-1.35-.04-2.01-.04s-1.36.01-2.03.04c-.66.03-1.3.06-1.91.11.05-.69.08-1.4.08-2.14s-.02-1.49-.08-2.26c-.38-.08-.81-.14-1.28-.19-.47-.05-.95-.08-1.44-.08h-1c-.51,0-1,.03-1.47.08-.47.05-.91.1-1.32.15-.13,1.53-.13,3.01,0,4.44-.59-.05-1.22-.09-1.89-.11-.68-.02-1.35-.04-2.01-.04s-1.36.01-2.03.04c-.66.03-1.3.06-1.91.11ZM145.65,17.95c-.2.54-.42,1.19-.65,1.95-.23.77-.46,1.62-.69,2.56-.23.94-.46,1.95-.69,3-.23,1.06-.43,2.15-.61,3.27.69.08,1.42.11,2.18.11h1c.36,0,.71-.01,1.07-.04.36-.02.7-.06,1.03-.11-.18-1.12-.38-2.21-.61-3.27-.23-1.06-.46-2.05-.69-2.98-.23-.93-.46-1.78-.69-2.54-.23-.76-.45-1.42-.65-1.95Z"/>
        </g>
        <g id="C_-_0008_-_A.cdr">
          <path class="cls-1" d="M43.82,23.23c-.27.87-.35,1.75-.28,2.6.05.6.18,1.24.4,1.8.72,1.94,2.17,3.3,4.29,3.96,3.65,1.12,4.7-.86,7.24-.39l2.98,6.65c-.76.4-1.56.74-2.39,1.02-.83.28-1.7.46-2.6.56-.91.09-1.88.09-2.92-.02-1.04-.11-2.16-.34-3.35-.71-1.97-.6-3.66-1.5-5.07-2.69-1.41-1.19-2.52-2.57-3.32-4.13-.8-1.56-1.28-3.24-1.44-5.03-.17-1.79.03-3.6.59-5.42s1.41-3.43,2.56-4.82c1.14-1.39,2.48-2.51,4.02-3.35,1.53-.84,3.22-1.36,5.06-1.55,1.84-.19,3.74.01,5.71.62,1.19.37,2.25.8,3.17,1.29.92.5,1.73,1.04,2.43,1.62.7.59,1.31,1.23,1.84,1.92.53.7,1,1.42,1.4,2.18l-6.2,3.82c-2.37-1.03-2.12-3.26-5.77-4.38-2.13-.65-4.09-.33-5.77.86-.5.34-.97.79-1.34,1.26-.54.66-.96,1.44-1.23,2.31h0ZM60.26,26.43c.07-.24.32-.37.56-.3s.37.32.3.56l-1.04,3.39c-.07.24-.32.37-.56.3s-.37-.32-.3-.56l1.04-3.39ZM61.58,27.42c.07-.24.32-.37.56-.3s.37.32.3.56l-.71,2.32c-.07.24-.32.37-.56.3s-.37-.32-.3-.56l.71-2.32ZM59.02,25.18c.07-.24.32-.37.56-.3s.37.32.3.56l-1.53,4.97c-.07.24-.32.37-.56.3s-.37-.32-.3-.56l1.53-4.97ZM51.07,20.57c.19.06.29.26.24.45s-.26.3-.45.24c-.9-.28-1.83-.16-2.6.25-.77.41-1.39,1.11-1.67,2.01-.06.19-.26.3-.45.24s-.3-.26-.24-.45c.33-1.09,1.08-1.94,2.01-2.44.93-.5,2.06-.63,3.15-.3h0Z"/>
        </g>
      </g>
      <path class="cls-1" d="M134.16,0h-.01s-.03.02-.05.04c-1.49,1.44-3.01,2.85-4.5,4.29-.08.08-.17.15-.25.23-.03.03-.05.06-.06.1.15.1.31.18.47.27.15.08.31.16.47.24-.01.05-.04.1-.06.14-.04.08-.08.15-.12.23-.41.63-.8,1.26-1.2,1.9-.36.58-.71,1.16-1.07,1.73-.02.03-.02.07-.01.11h.02s.05-.04.07-.06c.12-.11.23-.22.35-.34,1.43-1.37,2.99-2.62,4.4-4.01.07-.08.17-.14.22-.22.01-.02.03-.05,0-.06-.11-.07-.23-.13-.34-.19-.19-.1-.37-.22-.57-.32.32-.56.6-1.13.9-1.7.39-.76.79-1.52,1.3-2.21.04-.05.09-.11.06-.18Z"/>
    </g>
  </g>
</svg>