<?xml version="1.0" encoding="UTF-8"?>
<svg id="Layer_2" data-name="Layer 2" xmlns="http://www.w3.org/2000/svg" viewBox="0 0 92.32 92.32">
  <defs>
    <style>
      .cls-1 {
        fill: #231f20;
      }

      .cls-2 {
        fill: #fff;
        font-family: Alfarn2, 'Alfarn 2';
        font-size: 8.41px;
      }

      .cls-3 {
        letter-spacing: -.02em;
      }

      .cls-4 {
        fill: #768cc6;
      }
    </style>
  </defs>
  <g id="Layer_1-2" data-name="Layer 1">
    <g>
      <circle class="cls-1" cx="46.16" cy="46.16" r="46.16"/>
      <g>
        <path class="cls-4" d="M25.22,36.6h32.67c.65,0,1.18-.53,1.18-1.18v-11.99c0-.65.53-1.18,1.18-1.18h7.88c.65,0,1.18.53,1.18,1.18v36.29c0,.65-.53,1.18-1.18,1.18h-7.88c-.65,0-1.18-.53-1.18-1.18v-11.99c0-.65-.53-1.18-1.18-1.18H25.22c-.65,0-1.18-.53-1.18-1.18v-7.57c0-.65.53-1.18,1.18-1.18Z"/>
        <path class="cls-4" d="M23.76,31.29c0,.48.39.86.86.86h9.44l15.25.02c.48,0,.87-.39.87-.86v-8.21c0-.48-.39-.86-.86-.86h-24.7c-.48,0-.87.39-.86.87v8.19Z"/>
        <path class="cls-4" d="M23.76,60c0,.41.33.74.74.74h9.56l15.37.02c.41,0,.75-.33.75-.74v-8.45c0-.41-.33-.74-.74-.74h-24.94c-.41,0-.74.33-.74.74v8.43Z"/>
      </g>
      <g>
        <text class="cls-2" transform="translate(23.89 70.24)"><tspan x="0" y="0">E</tspan><tspan class="cls-3" x="5.75" y="0">v</tspan><tspan x="11.08" y="0">ent</tspan></text>
        <text class="cls-2" transform="translate(49.91 70.24)"><tspan x="0" y="0">HUB</tspan></text>
      </g>
    </g>
  </g>
</svg>