<?xml version="1.0" encoding="UTF-8"?>
<svg id="Layer_2" xmlns="http://www.w3.org/2000/svg" xmlns:xlink="http://www.w3.org/1999/xlink" viewBox="0 0 151.68 98.52">
  <defs>
    <style>
      .cls-1 {
        font-family: Alfarn, Alfarn;
        font-size: 20.84px;
        letter-spacing: -.05em;
      }

      .cls-1, .cls-2 {
        fill: #02263b;
      }

      .cls-2 {
        stroke: #fff;
        stroke-width: 5.68px;
      }

      .cls-2, .cls-3, .cls-4 {
        stroke-miterlimit: 10;
      }

      .cls-3, .cls-4 {
        stroke: #00aeef;
        stroke-width: .71px;
      }

      .cls-3, .cls-5 {
        fill: #2ea1db;
      }

      .cls-6, .cls-4 {
        fill: #fff;
      }

      .cls-7 {
        fill: #d4e2e5;
      }

      .cls-8 {
        fill: url(#Fading_Sky);
      }
    </style>
    <linearGradient id="Fading_Sky" data-name="Fading Sky" x1="32.4" y1="93.8" x2="112.68" y2="93.8" gradientUnits="userSpaceOnUse">
      <stop offset="0" stop-color="#2484c6"/>
      <stop offset="1" stop-color="#2484c6" stop-opacity="0"/>
    </linearGradient>
  </defs>
  <g id="Layer_1-2" data-name="Layer_1">
    <g>
      <path class="cls-5" d="M112.68,98.52c21.54,0,39-17.46,39-39s-17.46-39-39-39c-7.7,0-14.87,2.23-20.92,6.08C86.5,11.13,71.85,0,54.6,0,33.16,0,15.74,17.2,15.37,38.55,6.15,44.26,0,54.47,0,66.12c0,17.89,14.51,32.4,32.4,32.4"/>
      <path class="cls-8" d="M32.4,98.52c8.93,0,17.01-3.61,22.87-9.45,4.53,4.15,10.57,6.68,17.2,6.68,6.06,0,11.63-2.12,16-5.65,6.65,5.27,15.06,8.42,24.21,8.42"/>
      <path class="cls-6" d="M112.68,91.82c-7.36,0-14.29-2.41-20.05-6.97l-4.2-3.33-4.17,3.37c-3.37,2.72-7.45,4.16-11.79,4.16-4.71,0-9.21-1.75-12.68-4.92l-4.72-4.32-4.53,4.52c-4.85,4.83-11.29,7.5-18.14,7.5-14.17,0-25.7-11.53-25.7-25.7,0-4.46,1.16-8.85,3.35-12.7,2.13-3.74,5.19-6.91,8.85-9.18l3.11-1.92.06-3.66c.15-8.57,3.6-16.61,9.71-22.63,6.12-6.03,14.23-9.34,22.82-9.34,13.95,0,26.33,8.86,30.82,22.06l2.75,8.07,7.19-4.58c5.17-3.29,11.16-5.03,17.32-5.03,8.63,0,16.74,3.36,22.84,9.46,6.1,6.1,9.46,14.21,9.46,22.84s-3.36,16.74-9.46,22.84c-6.1,6.1-14.21,9.46-22.84,9.46Z"/>
      <path class="cls-7" d="M11.69,69.1c0-4.46,1.16-8.85,3.35-12.7,2.13-3.74,5.19-6.91,8.85-9.18l3.11-1.92.06-3.66c.15-8.57,3.6-16.61,9.71-22.63,6.12-6.03,14.23-9.34,22.82-9.34,5.01,0,9.81,1.15,14.12,3.22-5.43-3.94-12.07-6.2-19.12-6.2-8.59,0-16.7,3.32-22.82,9.34-6.12,6.02-9.57,14.05-9.71,22.63l-.06,3.66-3.11,1.92c-3.66,2.27-6.72,5.44-8.85,9.18-2.19,3.85-3.35,8.24-3.35,12.7,0,10.41,6.23,19.39,15.15,23.43-6.17-4.7-10.16-12.12-10.16-20.45Z"/>
      <g>
        <path class="cls-4" d="M59,24.43h-11.21c-.3,0-.58.12-.78.32-.2.2-.32.47-.32.78s.12.57.32.77c.2.2.48.32.78.32h11.21c.3,0,.57-.12.77-.32.2-.2.32-.47.32-.77s-.12-.58-.32-.78c-.2-.2-.47-.32-.77-.32h0ZM48.27,29.09v5.79s0,6.73,0,6.73v.06h0c-.12,2.42-.76,4.73-1.8,7.08-1.02,2.29-2.42,4.64-4.11,7.17-.01.02-.02.04-.04.05l-9.42,13.97c-.34.51-.54,1.13-.59,1.77-.06.69.04,1.4.3,2.04.3.74.83,1.4,1.51,1.87.64.44,1.41.7,2.26.7h34.07c.84,0,1.62-.26,2.26-.7.69-.47,1.22-1.12,1.51-1.87.25-.63.36-1.34.3-2.04-.05-.65-.25-1.26-.59-1.77l-9.46-14.02h0c-1.69-2.54-3.09-4.88-4.11-7.17-1.04-2.35-1.68-4.66-1.8-7.08v-6.79s0-5.79,0-5.79h-10.25Z"/>
        <path class="cls-3" d="M70.43,76.74h-34.07c-.89,0-1.75-.27-2.49-.77-.75-.51-1.34-1.24-1.67-2.06-.28-.69-.39-1.46-.32-2.23.06-.74.29-1.42.66-1.97l9.43-13.98s.01-.01.02-.02v-.02c1.93-2.86,3.18-5.05,4.09-7.1,1.08-2.42,1.65-4.69,1.76-6.92v-6.78s0-6.21,0-6.21h11.1v12.99c.12,2.23.7,4.49,1.77,6.92.91,2.05,2.16,4.23,4.05,7.07h0s.02.04.02.04l9.46,14.02c.37.55.6,1.23.66,1.97.07.77-.05,1.54-.33,2.23-.32.81-.91,1.55-1.67,2.06-.74.5-1.6.77-2.49.77ZM42.66,56.21l-9.42,13.97c-.29.43-.47.97-.52,1.57-.05.63.04,1.27.27,1.84.26.66.75,1.26,1.36,1.67.6.41,1.3.62,2.02.62h34.07c.72,0,1.42-.22,2.02-.62.61-.42,1.1-1.01,1.36-1.67.23-.57.32-1.21.27-1.84-.05-.6-.23-1.14-.52-1.57l-9.44-13.99h0s-.02-.04-.02-.04c-1.93-2.89-3.21-5.12-4.15-7.23-1.12-2.52-1.72-4.89-1.84-7.23v-.02s0-12.16,0-12.16h-9.4v5.36s0,6.81,0,6.81c-.12,2.34-.72,4.71-1.84,7.23-.93,2.1-2.21,4.32-4.14,7.22-.02.03-.03.05-.05.07ZM59,27.05h-11.21c-.4,0-.79-.16-1.08-.45-.29-.29-.45-.67-.45-1.07s.16-.79.45-1.08c.29-.29.67-.45,1.08-.45h11.21c.4,0,.78.16,1.07.45.29.29.45.67.45,1.08s-.16.78-.45,1.07c-.29.29-.67.45-1.07.45ZM47.79,24.86c-.18,0-.35.07-.48.2-.13.13-.2.3-.2.47s.07.34.2.47c.13.13.3.2.48.2h11.21c.18,0,.35-.07.47-.2.13-.13.2-.3.2-.47s-.07-.35-.2-.47c-.13-.13-.3-.2-.47-.2h-11.21Z"/>
      </g>
      <g>
        <path class="cls-2" d="M66.58,56.63v1.23h7.71v3.38h-7.71v1.25h7.71v3.38h-11.98v-12.61h11.98v3.38h-7.71Z"/>
        <path class="cls-2" d="M74.83,62.49l6.25-5.69v-.17h-6.25l-.02-3.38h12.05l-.02,3.35-6.54,5.73-.02.15h6.59v3.38h-12.03v-3.38Z"/>
        <path class="cls-2" d="M103.32,62.49v3.38h-11.15v-12.61h4.27v9.23h6.88Z"/>
        <path class="cls-2" d="M103.53,53.25h4.27v12.61h-4.27v-12.61Z"/>
        <path class="cls-2" d="M108.63,53.25h4.33l3.13,3.98h.17l3.13-3.98h4.34v12.61h-4.27v-7h-.13l-3.04,3.4h-.21l-3.04-3.4h-.12v7h-4.27v-12.61Z"/>
        <path class="cls-2" d="M124.47,62.49h7.25c.54,0,.77-.29.77-.65,0-.4-.25-.6-.79-.6h-3.27c-2.38,0-4.19-1.21-4.19-3.98,0-2.92,2.4-4,4.42-4h7.54v3.38h-6.88c-.52,0-.73.27-.73.6s.21.63.73.63h2.79c3,0,4.73,1.54,4.73,3.9s-1.79,4.11-4.67,4.11h-7.71v-3.38Z"/>
      </g>
      <text class="cls-1" transform="translate(52.2 66.36)"><tspan x="0" y="0">ez lims</tspan></text>
    </g>
  </g>
</svg>