<?xml version="1.0" encoding="UTF-8"?>
<svg id="Layer_2" data-name="Layer 2" xmlns="http://www.w3.org/2000/svg" viewBox="0 0 117.22 117.22">
  <defs>
    <style>
      .cls-1 {
        fill: #fff;
      }

      .cls-2 {
        fill: #69c7c2;
      }

      .cls-3 {
        fill: #68c7c3;
      }

      .cls-4 {
        fill: #2c3541;
      }
    </style>
  </defs>
  <g id="Layer_1-2" data-name="Layer 1">
    <g>
      <circle class="cls-4" cx="58.61" cy="58.61" r="58.61"/>
      <g>
        <path class="cls-1" d="M11.52,58.69h1.7c.22,0,.39.18.39.4v9.25c0,.22-.18.4-.39.4h-1.7c-.22,0-.39-.18-.39-.4v-9.25c0-.1.04-.21.11-.28.07-.07.17-.12.28-.12Z"/>
        <path class="cls-1" d="M24.88,58.81c.07.07.11.17.11.28v9.25c0,.22-.18.4-.39.4h-2.21c-.12,0-.24-.06-.31-.16l-4.16-5.63c-.05-.07-.14-.1-.22-.07-.08.03-.13.1-.13.19v5.27c0,.22-.18.4-.39.4h-1.7c-.22,0-.39-.18-.39-.4v-9.25c0-.22.18-.4.39-.4h2.21c.12,0,.24.06.31.16l4.16,5.63c.05.07.14.1.22.07.08-.03.13-.1.13-.19v-5.27c0-.22.18-.4.39-.4h1.7c.1,0,.2.04.28.12Z"/>
        <path class="cls-1" d="M26.86,58.69h9.11c.22,0,.39.18.39.4v1.72c0,.22-.18.4-.39.4h-9.11c-.22,0-.39-.18-.39-.4v-1.72c0-.22.18-.4.39-.4ZM36.37,62.85v1.72c0,.22-.18.4-.39.4h-6.63c-.1,0-.2.04-.28.12-.07.07-.11.17-.11.28v2.98c0,.22-.18.4-.39.4h-1.7c-.22,0-.39-.18-.39-.4v-5.49c0-.22.18-.4.39-.4h9.11c.22,0,.39.18.39.4Z"/>
        <path class="cls-1" d="M47.66,66.33c.07.07.11.17.11.28v1.72c0,.22-.18.4-.39.4h-9.16c-.22,0-.39-.18-.39-.4v-9.24c0-.22.18-.4.39-.4h1.7c.22,0,.39.18.39.4v6.73c0,.22.18.4.39.4h6.67c.1,0,.2.04.28.12Z"/>
        <path class="cls-1" d="M49.63,58.69h9.11c.22,0,.39.18.39.4v1.72c0,.22-.18.4-.39.4h-9.11c-.22,0-.39-.18-.39-.4v-1.72c0-.22.18-.4.39-.4ZM49.63,62.46h9.11c.22,0,.39.18.39.4v1.72c0,.22-.18.4-.39.4h-9.11c-.22,0-.39-.18-.39-.4v-1.72c0-.22.18-.4.39-.4ZM49.63,68.73c-.22,0-.39-.18-.39-.4v-1.72c0-.22.18-.4.39-.4h9.11c.22,0,.39.18.39.4v1.72c0,.22-.18.4-.39.4h-9.11Z"/>
        <path class="cls-1" d="M69.16,68.48c-.05.16-.2.27-.37.27h-2.81c-.09,0-.17-.03-.24-.08l-4.98-3.84c-.1-.07-.15-.19-.15-.31v-1.6c0-.12.06-.24.15-.31l4.96-3.82c.07-.05.15-.08.24-.08h2.81c.17,0,.32.11.37.27.05.16,0,.34-.13.44l-5.19,4c-.1.07-.15.19-.15.31s.06.24.15.31l5.21,4.01c.13.1.19.28.13.44Z"/>
        <path class="cls-1" d="M80.54,59.08v1.72c0,.22-.18.4-.39.4h-2.92c-.22,0-.39.18-.39.4v6.74c0,.22-.18.4-.39.4h-1.7c-.22,0-.39-.18-.39-.4v-6.74c0-.22-.18-.4-.39-.4h-2.92c-.22,0-.39-.18-.39-.4v-1.72c0-.22.18-.4.39-.4h9.11c.22,0,.39.18.39.4Z"/>
        <path class="cls-1" d="M82.4,58.69h1.7c.22,0,.39.18.39.4v9.25c0,.22-.18.4-.39.4h-1.7c-.22,0-.39-.18-.39-.4v-9.25c0-.1.04-.21.11-.28.07-.07.17-.12.28-.12Z"/>
      </g>
      <g>
        <path class="cls-3" d="M91.72,66.53v1.65h1.77v.45h-2.17v-2.1h.4Z"/>
        <path class="cls-3" d="M96.57,68.63h-.47l-.21-.4h-1.44l-.21.4h-.47l.97-1.8c.17-.33.19-.31.54-.31.19,0,.25.17.33.31l.97,1.8ZM95.11,67.01l-.42.77h.96l-.42-.77h-.13Z"/>
        <path class="cls-3" d="M98.86,66.54c.32.09.45.68.24,1.04.23.41.04,1.05-.32,1.05h-1.94v-2.1h2.01ZM98.69,66.98h-1.44v.37h1.44c.15,0,.15-.37,0-.37ZM98.69,67.8h-1.44v.37h1.43c.16,0,.15-.37,0-.37Z"/>
        <path class="cls-3" d="M99.82,67.79c-.23-.06-.34-.38-.34-.63,0-.29.15-.64.42-.64h1.88v.45h-1.78c-.15,0-.15.37,0,.37h1.42c.48,0,.57,1.05.12,1.25-.04.02-.08.02-.12.02h-1.88v-.45h1.78c.15,0,.15-.37,0-.37h-1.5Z"/>
      </g>
      <path class="cls-1" d="M107.32,58.97c-.07-.07-.17-.12-.28-.12h-1.7c-.22,0-.39.18-.39.4v5.27c0,.09-.05.16-.13.19-.08.03-.17,0-.22-.07l-4.16-5.63c-.07-.1-.19-.16-.31-.16h-2.21c-.22,0-.39.18-.39.4v5.33h2.49v-1.35c0-.09.05-.16.13-.19s.17,0,.22.07l4.16,5.63c.07.1.19.16.31.16h2.21c.22,0,.39-.18.39-.4v-9.25c0-.1-.04-.21-.11-.28Z"/>
      <path class="cls-1" d="M89.89,61.14c.86-.41,1.88-.29,2.63.29.75.59,1.11,1.54.92,2.47,0,.04,0,.08,0,.12h2.52c.3-2.4-1.2-4.72-3.6-5.41-2.61-.76-5.34.68-6.16,3.24-.82,2.56.57,5.32,3.13,6.22l.83-2.34h0c-1.02-.35-1.71-1.32-1.69-2.39.01-.95.56-1.8,1.42-2.21Z"/>
      <path class="cls-2" d="M78.23,47.42c-.11,1.04-1.15,2.42-1.51,2.96-.87,1.28-2.02,2.37-3.46,2.98-1.95.82-4.2.67-6.19-.03-5.67-2.02-9.12-7.46-14.19-10.42-4.27-2.64-8.61-1.72-11.55,2.37-1.4,1.97-2.39,4.39-2.69,6.79-.19,1.14.44,1.6,1.53,1.39,7.33-1.39,12.4-2.39,18.55-3.59,5.99-1.16,11.66-2.38,17.97-3.53.87-.16,1.65.05,1.54,1.07Z"/>
    </g>
  </g>
</svg>