<?xml version="1.0" encoding="UTF-8"?>
<svg id="Layer_2" data-name="Layer 2" xmlns="http://www.w3.org/2000/svg" viewBox="0 0 411.48 411.48">
  <defs>
    <style>
      .cls-1 {
        fill: #f7a072;
      }

      .cls-2 {
        fill: #f2f2f2;
      }

      .cls-3 {
        fill: #48aea7;
      }
    </style>
  </defs>
  <g id="Layer_1" data-name="Layer 1">
    <g>
      <circle class="cls-2" cx="205.74" cy="205.74" r="205.74"/>
      <g>
        <g>
          <path class="cls-1" d="M208.62,103.37c4.34-.68,8.93.56,12.39,3.27,3.05,2.4,5.29,5.89,5.95,9.74,1.04,4.9-.7,10.13-4.01,13.8-2.49,2.63-5.87,4.42-9.46,4.94-4.42.7-9.14-.48-12.61-3.33-3.92-3.05-6.2-8.01-6.14-12.95.21-3.89,1.71-7.74,4.44-10.55,2.47-2.67,5.87-4.35,9.45-4.92Z"/>
          <path class="cls-3" d="M156.72,135.55c.5-1.34,1.8-2.38,3.27-2.35,7.24-.21,14.54.74,21.42,3.02,8.71,2.96,15.84,9.32,21.25,16.6,3.45,4.64,6.14,9.81,8.38,15.13.38-.12.4-.63.58-.93,3.69-9.24,9.37-17.85,17.16-24.12,3.73-2.97,7.89-5.48,12.45-6.93,6.77-2.19,13.96-3.05,21.06-2.73,1.76.06,2.84,1.74,3.28,3.27.86,3.32.79,6.78.78,10.18-.19,6.74-1.65,13.54-4.86,19.51-2.72,4.89-6.38,9.26-10.73,12.78-1.6,1.37-3.41,2.45-5.08,3.73.14.25.31.48.53.68,4.42,4.17,8.04,9.3,9.97,15.1,1.26,3.89,2.22,7.92,2.36,12.02-.08,2.76.33,5.66-.79,8.27-.71,1.78-2.55,2.78-4.34,3.2-2.42.63-4.93.38-7.4.43-10.69-.54-21.21-5.22-28.5-13.11-2.29-2.58-4.34-5.43-5.73-8.61-.23-.49-.37-1.03-.73-1.44-4.25,9.72-12.92,17.21-22.88,20.68-4.8,1.73-9.93,2.66-15.04,2.49-2.64.05-5.63-.15-7.64-2.08-1.84-1.68-2.01-4.36-2.06-6.69-.25-6.28,1.14-12.54,3.61-18.29,1.74-3.93,4.43-7.35,7.27-10.54.63-.72,1.42-1.29,1.95-2.1-3.53-2.46-6.98-5.11-9.87-8.32-3.35-3.73-6.2-7.97-7.97-12.68-2.4-6.27-3.03-13.08-2.78-19.74.23-2.15.26-4.38,1.06-6.42ZM166.03,145.49c-.63,8.65,2.38,17.66,8.57,23.83,3.02,3.18,6.82,5.49,10.76,7.35,5.7,2.63,11.92,3.91,18.12,4.69.03-.48,0-.97-.08-1.44-.61-3.23-1.26-6.45-2.34-9.56-2.76-8.26-7.66-16.02-14.84-21.1-5.41-3.84-12.06-6.1-18.72-5.99-1.3-.17-1.37,1.31-1.48,2.23ZM234.32,150.32c-7.79,6.35-12.89,15.63-14.95,25.4-.34,1.87-.87,3.75-.84,5.67,6.79-.84,13.62-2.3,19.69-5.57,4.58-2.48,8.96-5.62,11.98-9.92,3.44-4.63,5.24-10.35,5.63-16.07.18-1.93.26-3.92-.25-5.81-.31-1.02-1.54-.73-2.34-.79-6.88.1-13.55,2.87-18.92,7.09ZM186.04,187.74c-2.47,1.76-4.85,3.72-6.68,6.15-3.52,4.51-5.05,10.34-4.93,16.01.06.97.3,2.47,1.57,2.45,8.43-.3,16.84-3.97,22.38-10.41,2.97-3.52,4.95-7.87,5.7-12.4-5.45-.39-10.98-.37-16.29-1.8-.57-.11-1.24-.44-1.74,0ZM234.7,187.57c-3.54.95-7.21,1.3-10.85,1.63-1.99.1-3.99.1-5.98.36.13,1.88.88,3.64,1.5,5.4,1.81,4.74,5.23,8.72,9.33,11.63,4.37,3.03,9.48,5,14.77,5.6,1.01.1,2.06.35,3.07.09,1.08-.69,1.03-2.18,1.07-3.31-.11-4.62-1.24-9.28-3.67-13.25-1.97-3.25-4.8-5.91-7.91-8.06-.38-.35-.89-.18-1.32-.08Z"/>
        </g>
        <g>
          <path class="cls-1" d="M96.18,263.53c.93-.2,1.82-.69,2.78-.69,1.35,1.21,2.46,2.66,3.63,4.03,1.93,2.25,3.26,4.91,4.67,7.49,2.5,4.63,4.72,9.4,6.97,14.15h6.04c.93,0,1.52-.97,1.11-1.8-1.94-3.83-3.65-7.78-5.63-11.59-2.27-4.51-4.83-8.88-7.77-12.98-.83-1.14-1.87-2.12-2.65-3.29,7.55-5.52,12.29-14.3,13.87-23.42.03-.63.25-1.54-.45-1.89-1.61-.2-3.24-.07-4.86-.09-.66.06-1.58-.03-1.94.66-.44.9-.54,1.92-.76,2.89-1.09,5.12-3.16,10.15-6.72,14.06-2.79,3.05-6.25,5.71-10.3,6.76-.09-7.68,0-15.38-.04-23.06.07-.61-.37-1.29-1.02-1.29-1.73-.06-3.47-.07-5.2,0-.94.09-1.21,1.13-1.11,1.93.18,8.14-.07,16.27-.03,24.41.1,8.68.14,17.37.1,26.06-.16.81.46,1.7,1.34,1.63,1.72,0,3.46.1,5.18-.06.93-.32.83-1.45.87-2.24-.02-7.02-.22-14.03-.08-21.04.59-.41,1.35-.43,2.01-.65Z"/>
          <circle class="cls-1" cx="337.54" cy="281.62" r="5.72"/>
          <path class="cls-3" d="M137.15,271.58l-5.33,15.68c-.11.32-.41.54-.75.54h-5.64c-.55,0-.93-.54-.75-1.05l18.16-51.69c.11-.32.41-.53.75-.53h7.34c.34,0,.64.21.75.53l18.16,51.69c.18.52-.2,1.05-.75,1.05h-5.89c-.34,0-.64-.21-.75-.53l-5.49-15.7c-.11-.32-.41-.53-.75-.53h-18.32c-.34,0-.64.22-.75.54ZM154.27,265.67c.55,0,.93-.54.75-1.06l-5.08-14.28c-1.22-3.48-2.03-6.64-2.85-9.72h-.16c-.81,3.08-1.63,6.4-2.77,9.64l-5,14.36c-.18.51.2,1.05.75,1.05h14.36Z"/>
          <path class="cls-3" d="M172.78,235.91c0-.39.28-.72.67-.78,3.54-.58,8.41-.99,12.92-.99,7.57,0,12.53,1.42,15.87,4.35,2.68,2.37,4.31,6.01,4.31,10.2,0,6.96-4.56,11.62-10.25,13.52v.24c4.15,1.42,6.67,5.22,7.97,10.75,1.53,6.36,2.7,11.03,3.72,13.54.21.52-.17,1.08-.73,1.08-1.64,0-4.47,0-5.6,0-.31,0-.59-.18-.72-.46-.87-1.89-2.01-6.18-3.35-12.26-1.63-7.35-4.64-10.12-11.06-10.35h-5.88c-.44,0-.79.35-.79.79v21.5c0,.44-.35.79-.79.79h-5.49c-.44,0-.79-.35-.79-.79v-51.1ZM179.86,258.71c0,.44.35.79.79.79h6.45c7.57,0,12.37-4.03,12.37-10.12,0-6.88-5.13-9.88-12.61-9.88-2.89,0-5.03.17-6.35.41-.37.07-.64.4-.64.78v18.01Z"/>
          <path class="cls-3" d="M217.36,234.53c.44,0,.79.35.79.79v30.83c0,11.86,5.45,16.92,12.77,16.92,8.05,0,13.34-5.22,13.34-16.92v-30.83c0-.44.35-.79.79-.79h5.58c.44,0,.79.35.79.79v30.35c0,16.36-8.87,23-20.75,23-11.23,0-19.69-6.17-19.69-22.77v-30.59c0-.44.35-.79.79-.79h5.58Z"/>
          <path class="cls-3" d="M254.59,287.01v-51.69c0-.44.35-.79.79-.79h6.59c.27,0,.52.14.66.36l17.26,26.59c3.99,6.24,7.24,11.86,9.76,17.31l.24-.08c-.65-7.11-.81-13.6-.81-21.9v-21.5c0-.44.35-.79.79-.79h5.09c.44,0,.79.35.79.79v51.69c0,.44-.35.79-.79.79h-5.94c-.27,0-.52-.14-.67-.36l-17.18-26.67c-3.82-5.93-7.49-12.02-10.17-17.79l-.24.08c.41,6.72.49,13.12.49,21.97v21.97c0,.44-.35.79-.79.79h-5.09c-.44,0-.79-.35-.79-.79Z"/>
          <path class="cls-3" d="M329.34,278.64c0,2.95.13,5.84.44,8.28.06.47-.31.89-.78.89h-4.81c-.4,0-.74-.3-.79-.7l-.49-4.12h-.24c-2.2,3-6.43,5.69-12.04,5.69-7.97,0-12.04-5.45-12.04-10.99,0-9.09,8.17-14.13,22.88-14.23.44,0,.79-.35.79-.79h0c0-3.08-.89-8.85-8.95-8.77-3.39,0-6.84.84-9.51,2.35-.43.24-.98.04-1.14-.42l-1.09-3.12c-.13-.37.03-.77.37-.96,3.23-1.79,7.76-2.98,12.43-2.98,12.04,0,14.97,7.98,14.97,15.57v14.31ZM322.42,269.06c0-.43-.35-.79-.78-.79-7.61-.05-15.9,1.44-15.9,8.63,0,4.58,3.09,6.64,6.67,6.64,5.21,0,8.54-3.16,9.68-6.4.24-.79.33-1.58.33-2.21v-5.86Z"/>
        </g>
      </g>
    </g>
  </g>
</svg>