<?xml version="1.0" encoding="UTF-8"?>
<svg id="Layer_2" data-name="Layer 2" xmlns="http://www.w3.org/2000/svg" viewBox="0 0 110.62 110.62">
  <defs>
    <style>
      .cls-1 {
        fill: #231f20;
      }

      .cls-2, .cls-3 {
        fill: #fff;
      }

      .cls-4 {
        letter-spacing: 0em;
      }

      .cls-5 {
        letter-spacing: 0em;
      }

      .cls-3 {
        font-family: Zuume-Regular, Zuume;
        font-size: 8.16px;
      }
    </style>
  </defs>
  <g id="Layer_1-2" data-name="Layer 1">
    <g>
      <g>
        <circle class="cls-1" cx="55.31" cy="55.31" r="55.31"/>
        <g>
          <path class="cls-2" d="M36.46,79.27h-.94c-.44,0-.8-.36-.8-.8v-22.54c0-.44-.36-.8-.8-.8h-.85c-.16,0-.32.05-.45.14l-5.27,3.64c-.22.15-.34.39-.34.66v18.9c0,.44-.36.8-.8.8h-.94c-.16,0-.32-.05-.45-.14l-4.3-2.93c-.22-.15-.35-.39-.35-.66v-34.07c0-.26.13-.51.35-.66l4.3-2.93c.13-.09.29-.14.45-.14h.94c.44,0,.8.36.8.8v18.07c0,.64.72,1.02,1.25.66l6.12-4.19c.22-.15.35-.39.35-.66v-13.88c0-.44.36-.8.8-.8h.94c.16,0,.32.05.45.14l4.3,2.93c.22.15.35.39.35.66v7.28c0,.26-.13.51-.35.66l-5.2,3.57c-.65.44-.33,1.45.45,1.45h0c.16,0,.32.05.45.14l4.3,2.93c.22.15.35.39.35.66v17.38c0,.26-.13.51-.35.66l-4.3,2.93c-.13.09-.29.14-.45.14Z"/>
          <path class="cls-2" d="M62.46,79.27h-11.19c-.16,0-.32-.05-.45-.14l-4.3-2.93c-.22-.15-.35-.39-.35-.66v-34.07c0-.26.13-.51.35-.66l4.3-2.93c.13-.09.29-.14.45-.14h11.19c.16,0,.32.05.45.14l4.3,2.93c.22.15.35.39.35.66v7.28c0,.26-.13.51-.35.66l-5.2,3.57c-.65.44-.33,1.45.45,1.45h0c.16,0,.32.05.45.14l4.3,2.93c.22.15.35.39.35.66v17.38c0,.26-.13.51-.35.66l-4.3,2.93c-.13.09-.29.14-.45.14ZM54.25,57.27l6.12-4.19c.22-.15.35-.39.35-.66v-13.17c0-.44-.36-.8-.8-.8h-6.12c-.44,0-.8.36-.8.8v17.36c0,.64.72,1.02,1.25.66ZM60.72,77.77v-21.83c0-.44-.36-.8-.8-.8h-.85c-.16,0-.32.05-.45.14l-5.27,3.64c-.22.15-.34.39-.34.66v18.19c0,.44.36.8.8.8h6.12c.44,0,.8-.36.8-.8Z"/>
          <path class="cls-2" d="M88.45,79.27h-11.19c-.16,0-.32-.05-.45-.14l-4.3-2.93c-.22-.15-.35-.39-.35-.66v-34.07c0-.26.13-.51.35-.66l4.3-2.93c.13-.09.29-.14.45-.14h.94c.44,0,.8.36.8.8v39.22c0,.44.36.8.8.8h6.12c.44,0,.8-.36.8-.8v-22.54c0-.44.36-.8.8-.8h.94c.16,0,.32.05.45.14l4.3,2.93c.22.15.35.39.35.66v17.38c0,.26-.13.51-.35.66l-4.3,2.93c-.13.09-.29.14-.45.14Z"/>
        </g>
      </g>
      <text class="cls-3" transform="translate(35.19 88.01)"><tspan class="cls-4" x="0" y="0">b</tspan><tspan x="3.1" y="0">y </tspan><tspan class="cls-5" x="7.17" y="0">s</tspan><tspan x="10.12" y="0">tudio kinesis</tspan></text>
    </g>
  </g>
</svg>