<?xml version="1.0" encoding="UTF-8"?>
<svg id="Layer_2" data-name="Layer 2" xmlns="http://www.w3.org/2000/svg" viewBox="0 0 129.62 74.79">
  <defs>
    <style>
      .cls-1, .cls-2, .cls-3 {
        font-family: Montserrat-Regular, Montserrat;
      }

      .cls-2 {
        letter-spacing: -.02em;
      }

      .cls-4, .cls-5 {
        font-family: KeflynRegular, Keflyn;
      }

      .cls-6, .cls-7 {
        fill: #231f20;
      }

      .cls-8 {
        fill: #fff;
      }

      .cls-3 {
        letter-spacing: -.01em;
      }

      .cls-7 {
        font-size: 11.5px;
      }

      .cls-9 {
        fill: #705f7c;
      }

      .cls-5 {
        letter-spacing: 0em;
      }

      .cls-10 {
        fill: #519342;
      }
    </style>
  </defs>
  <g id="Layer_1-2" data-name="Layer 1">
    <g>
      <text class="cls-7" transform="translate(0 71.78)"><tspan class="cls-4" x="0" y="0">Lean</tspan><tspan class="cls-5" x="28.11" y="0">P</tspan><tspan class="cls-4" x="35.96" y="0">ack </tspan><tspan class="cls-3" x="60.36" y="0">A</tspan><tspan class="cls-1" x="68.49" y="0">u</tspan><tspan class="cls-2" x="76.23" y="0">t</tspan><tspan class="cls-1" x="80.68" y="0">omation</tspan></text>
      <g>
        <path class="cls-10" d="M15.37,48.93h33.49v12.12H1.16V0h14.22v48.93Z"/>
        <path class="cls-10" d="M66.18.09c2.85,0,5.44.31,7.76.92,2.32.61,4.24,1.38,5.76,2.31,1.51.93,2.82,2.12,3.92,3.58,1.1,1.45,1.93,2.83,2.49,4.14.55,1.31.99,2.83,1.31,4.58.32,1.74.51,3.18.57,4.32.06,1.13.09,2.43.09,3.88s-.03,2.76-.09,3.92c-.06,1.16-.25,2.6-.57,4.32-.32,1.72-.76,3.23-1.31,4.53-.55,1.31-1.38,2.69-2.49,4.14-1.11,1.45-2.41,2.63-3.92,3.53-1.51.9-3.42,1.66-5.71,2.27-2.3.61-4.9.92-7.81.92h-16.22v13.61h-14.22V0c16.69.06,26.83.09,30.44.09ZM62.08,35.41c1.51,0,2.88-.13,4.1-.39,1.22-.26,2.21-.61,2.97-1.05.75-.44,1.41-1,1.96-1.7.55-.7.97-1.34,1.26-1.92.29-.58.51-1.32.65-2.22.14-.9.23-1.63.26-2.18.03-.55.04-1.26.04-2.14,0-1.22-.06-2.25-.17-3.1-.12-.84-.39-1.84-.83-3.01-.44-1.16-1.03-2.12-1.79-2.88-.76-.75-1.89-1.39-3.4-1.92-1.51-.52-3.31-.78-5.41-.78h-11.77v23.29h12.12Z"/>
        <path class="cls-10" d="M112.53,60.96l-4.1-12.04h-17.35l-4.01,12.04h-15.26L92.12.09l.09-.09h15.18v.09l20.41,60.87h-15.26ZM95.09,36.89h9.33l-4.62-13.95-4.71,13.95Z"/>
        <g>
          <g>
            <circle class="cls-8" cx="60.04" cy="23.66" r="15.84" transform="translate(14.62 69.51) rotate(-66.78)"/>
            <path class="cls-6" d="M60.07,41.05c-.98,0-1.97-.08-2.96-.25-4.58-.78-8.57-3.3-11.26-7.08-2.68-3.79-3.73-8.39-2.95-12.97,1.61-9.45,10.61-15.82,20.05-14.21,4.58.78,8.57,3.3,11.26,7.08s3.73,8.39,2.95,12.97c-.78,4.58-3.3,8.57-7.08,11.26-2.97,2.11-6.44,3.2-10.01,3.2ZM60.01,9.36c-2.94,0-5.8.9-8.24,2.64-3.12,2.21-5.19,5.5-5.83,9.27-.64,3.77.22,7.56,2.43,10.68,2.21,3.12,5.5,5.19,9.27,5.83,3.77.64,7.56-.22,10.67-2.43,3.12-2.21,5.19-5.5,5.83-9.27h0c.64-3.77-.22-7.56-2.43-10.67-2.21-3.12-5.5-5.19-9.27-5.83-.81-.14-1.63-.21-2.43-.21Z"/>
          </g>
          <circle class="cls-9" cx="60.04" cy="23.66" r="4.04" transform="translate(19.18 73.62) rotate(-72.23)"/>
          <g>
            <g>
              <path class="cls-6" d="M62.54,14.84c-.09.54-.6.9-1.14.81-.54-.09-.9-.6-.81-1.14.09-.54.6-.9,1.14-.81s.9.6.81,1.14Z"/>
              <path class="cls-6" d="M59.48,32.82c-.09.54-.6.9-1.14.81s-.9-.6-.81-1.14.6-.9,1.14-.81.9.6.81,1.14Z"/>
            </g>
            <g>
              <path class="cls-6" d="M55.57,15.65c.32.44.21,1.06-.23,1.38-.44.32-1.06.21-1.38-.23-.32-.44-.21-1.06.23-1.38.44-.32,1.06-.21,1.38.23Z"/>
              <path class="cls-6" d="M66.12,30.54c.32.44.21,1.06-.23,1.38-.44.32-1.06.21-1.38-.23-.32-.44-.21-1.06.23-1.38.44-.32,1.06-.21,1.38.23Z"/>
            </g>
            <g>
              <path class="cls-6" d="M51.21,21.16c.54.09.9.6.81,1.14s-.6.9-1.14.81-.9-.6-.81-1.14.6-.9,1.14-.81Z"/>
              <path class="cls-6" d="M69.2,24.22c.54.09.9.6.81,1.14s-.6.9-1.14.81c-.54-.09-.9-.6-.81-1.14s.6-.9,1.14-.81Z"/>
            </g>
            <g>
              <path class="cls-6" d="M52.02,28.13c.44-.32,1.06-.21,1.38.23.32.44.21,1.06-.23,1.38-.44.32-1.06.21-1.38-.23-.32-.44-.21-1.06.23-1.38Z"/>
              <path class="cls-6" d="M66.91,17.58c.44-.32,1.06-.21,1.38.23.32.44.21,1.06-.23,1.38-.44.32-1.06.21-1.38-.23s-.21-1.06.23-1.38Z"/>
            </g>
          </g>
        </g>
        <g>
          <circle class="cls-8" cx="98.12" cy="32.01" r="9.37" transform="translate(26.33 106.16) rotate(-64)"/>
          <path class="cls-6" d="M98.12,42.3c-.73,0-1.47-.08-2.22-.24-5.54-1.22-9.05-6.72-7.82-12.26h0c.59-2.68,2.19-4.97,4.51-6.45,2.32-1.48,5.07-1.97,7.75-1.37,5.54,1.22,9.05,6.72,7.82,12.26-1.06,4.79-5.32,8.07-10.04,8.07ZM89.86,30.19h0c-1.01,4.56,1.88,9.08,6.44,10.09,4.56,1.01,9.08-1.88,10.09-6.44.49-2.21.09-4.47-1.13-6.38-1.22-1.91-3.1-3.22-5.31-3.71-2.21-.49-4.47-.09-6.38,1.13-1.91,1.22-3.22,3.1-3.71,5.31Z"/>
        </g>
        <g>
          <circle class="cls-8" cx="98.12" cy="32.01" r="2.39" transform="translate(33.7 112.65) rotate(-69.45)"/>
          <path class="cls-6" d="M98.13,35.31c-.24,0-.48-.03-.72-.08-.86-.19-1.6-.7-2.07-1.45-.47-.74-.63-1.63-.44-2.49.39-1.78,2.16-2.9,3.94-2.51,1.78.39,2.9,2.16,2.51,3.94-.19.86-.7,1.6-1.45,2.07-.54.34-1.15.52-1.77.52ZM98.12,30.53c-.68,0-1.3.47-1.45,1.16-.09.39-.02.78.2,1.12.21.33.54.56.93.65.39.09.78.01,1.12-.2.33-.21.57-.54.65-.93.18-.8-.33-1.59-1.13-1.77-.11-.02-.21-.03-.32-.03Z"/>
        </g>
        <g>
          <g>
            <path class="cls-6" d="M96.39,37.16c.07-.32.38-.51.7-.44s.51.38.44.7-.38.51-.7.44-.51-.38-.44-.7Z"/>
            <path class="cls-6" d="M98.72,26.61c.07-.32.38-.51.7-.44s.51.38.44.7-.38.51-.7.44-.51-.38-.44-.7Z"/>
          </g>
          <g>
            <path class="cls-6" d="M100.53,36.88c-.17-.27-.09-.63.18-.81.27-.17.63-.09.81.18.17.27.09.63-.18.81-.27.17-.63.09-.81-.18Z"/>
            <path class="cls-6" d="M94.73,27.77c-.17-.27-.09-.63.18-.81.27-.17.63-.09.81.18.17.27.09.63-.18.81-.27.17-.63.09-.81-.18Z"/>
          </g>
          <g>
            <path class="cls-6" d="M103.27,33.75c-.32-.07-.51-.38-.44-.7s.38-.51.7-.44.51.38.44.7-.38.51-.7.44Z"/>
            <path class="cls-6" d="M92.72,31.42c-.32-.07-.51-.38-.44-.7s.38-.51.7-.44c.32.07.51.38.44.7s-.38.51-.7.44Z"/>
          </g>
          <g>
            <path class="cls-6" d="M102.99,29.6c-.27.17-.63.09-.81-.18-.17-.27-.09-.63.18-.81.27-.17.63-.09.81.18.17.27.09.63-.18.81Z"/>
            <path class="cls-6" d="M93.89,35.41c-.27.17-.63.09-.81-.18-.17-.27-.09-.63.18-.81.27-.17.63-.09.81.18s.09.63-.18.81Z"/>
          </g>
        </g>
        <g>
          <circle class="cls-8" cx="60.33" cy="23.69" r="14.3" transform="translate(23.66 77.14) rotate(-76.99)"/>
          <path class="cls-6" d="M60.34,38.9c-1.08,0-2.18-.12-3.28-.36-8.19-1.81-13.38-9.94-11.57-18.13h0c.88-3.97,3.24-7.36,6.67-9.54,3.42-2.18,7.49-2.91,11.46-2.03,8.19,1.81,13.38,9.94,11.57,18.13-1.57,7.09-7.87,11.93-14.85,11.93ZM60.31,10.3c-2.52,0-5,.72-7.18,2.11-3.02,1.92-5.1,4.91-5.87,8.4h0c-1.59,7.21,2.98,14.37,10.19,15.96,7.21,1.59,14.37-2.98,15.96-10.19,1.59-7.21-2.98-14.37-10.19-15.96-.97-.21-1.95-.32-2.91-.32ZM46.37,20.61h0,0Z"/>
        </g>
        <g>
          <circle class="cls-8" cx="60.33" cy="23.69" r="2.69" transform="translate(24.19 77.49) rotate(-77.54)"/>
          <path class="cls-6" d="M60.33,27.29c-.26,0-.52-.03-.78-.09-1.94-.43-3.17-2.36-2.74-4.3h0c.21-.94.77-1.74,1.58-2.26.81-.52,1.78-.69,2.72-.48.94.21,1.74.77,2.26,1.58.52.81.69,1.78.48,2.71-.37,1.68-1.87,2.83-3.52,2.83ZM60.33,21.91c-.34,0-.67.1-.96.28-.4.26-.68.65-.78,1.12h0c-.21.96.4,1.92,1.36,2.13.96.21,1.91-.4,2.13-1.36.1-.46.02-.94-.24-1.34s-.65-.68-1.12-.78c-.13-.03-.26-.04-.39-.04ZM57.7,23.11h0,0Z"/>
        </g>
        <g>
          <line class="cls-8" x1="97.55" y1="41.37" x2="59.36" y2="37.91"/>
          <path class="cls-6" d="M97.55,42.28s-.05,0-.08,0l-38.19-3.46c-.5-.05-.87-.49-.82-.99.05-.5.49-.87.99-.82l38.19,3.46c.5.05.87.49.82.99-.04.47-.44.83-.9.83Z"/>
        </g>
        <g>
          <line class="cls-8" x1="65.46" y1="10.28" x2="101.56" y2="23.21"/>
          <path class="cls-6" d="M101.56,24.12c-.1,0-.21-.02-.31-.05l-36.1-12.93c-.47-.17-.72-.69-.55-1.16.17-.47.69-.72,1.16-.55l36.1,12.93c.47.17.72.69.55,1.16-.13.37-.48.6-.86.6Z"/>
        </g>
        <g>
          <g>
            <path class="cls-6" d="M57.85,31.05c.1-.45.55-.74,1-.64s.74.55.64,1-.55.74-1,.64-.74-.55-.64-1Z"/>
            <path class="cls-6" d="M61.18,15.97c.1-.45.55-.74,1-.64s.74.55.64,1-.55.74-1,.64-.74-.55-.64-1Z"/>
          </g>
          <g>
            <path class="cls-6" d="M63.78,30.65c-.25-.39-.13-.91.25-1.15.39-.25.91-.13,1.15.25.25.39.13.91-.25,1.15-.39.25-.91.13-1.15-.25Z"/>
            <path class="cls-6" d="M55.47,17.63c-.25-.39-.13-.91.25-1.15.39-.25.91-.13,1.15.25.25.39.13.91-.25,1.15-.39.25-.91.13-1.15-.25Z"/>
          </g>
          <g>
            <path class="cls-6" d="M67.7,26.17c-.45-.1-.74-.55-.64-1s.55-.74,1-.64.74.55.64,1-.55.74-1,.64Z"/>
            <path class="cls-6" d="M52.61,22.84c-.45-.1-.74-.55-.64-1s.55-.74,1-.64c.45.1.74.55.64,1s-.55.74-1,.64Z"/>
          </g>
          <g>
            <path class="cls-6" d="M67.3,20.24c-.39.25-.91.13-1.15-.25-.25-.39-.13-.91.26-1.15.39-.25.91-.13,1.15.25.25.39.13.91-.26,1.15Z"/>
            <path class="cls-6" d="M54.27,28.55c-.39.25-.91.13-1.15-.25-.25-.39-.13-.91.25-1.15.39-.25.91-.13,1.15.25.25.39.13.91-.25,1.15Z"/>
          </g>
        </g>
      </g>
    </g>
  </g>
</svg>