<?xml version="1.0" encoding="UTF-8"?>
<svg id="Layer_2" data-name="Layer 2" xmlns="http://www.w3.org/2000/svg" viewBox="0 0 145.57 29.03">
  <defs>
    <style>
      .cls-1, .cls-2 {
        fill: #231f20;
      }

      .cls-2 {
        font-family: EurostileT-Regu, EurostileT;
        font-size: 15.82px;
      }
    </style>
  </defs>
  <g id="Layer_1-2" data-name="Layer 1">
    <g>
      <path class="cls-1" d="M40.94,4.51c-.77.62-1.54.39-1.77.51-.19.37-.73,1.05-2.19,1.24l.97-.8s-1.69,1.56-3.89.2l.89-.4s-1.56.28-2.43-.97c0,0,.73.08,1.05-.19,0,0-1.44-.28-1.92-1.11l.99.19s-1.3-.51-1.5-1.92c0,0,.77-1.22,2.4-.21,0,0-.02-.32-.29-.44,0,0,.9-.71,1.79.46,0,0-.3-.77-.77-.95,0,0,1.74-.5,3.15,1.26,0,0-.17-.86-.68-1.23,0,0,1.77.23,2.16,2.18,0,0,.04-.73-.23-1.02.53.25,1.24.88.88,2.74-2-.36-3.89-1.09-5.47-1.92,0,0,.91.78,2.28,1.44.81.29,3.26.91,4.59.95"/>
      <text class="cls-2" transform="translate(129.27 18.89)"><tspan x="0" y="0">Rx</tspan></text>
      <g>
        <path class="cls-1" d="M0,8.15h2.9l-.06,3,.06.06c.53-1.07,1.15-1.82,1.88-2.25,1.19-.74,2.74-1.1,4.65-1.1,3.36,0,5.41,1.12,6.15,3.35h.06c.6-1.07,1.31-1.84,2.15-2.31,1.24-.69,2.81-1.04,4.73-1.04,3.08,0,5.12.82,6.11,2.46.61,1.01.92,2.59.92,4.73v13.02h-2.9v-13.29c0-1.31-.16-2.29-.48-2.94-.49-1-1.78-1.5-3.88-1.5-3.04,0-4.9.77-5.56,2.31-.33.76-.5,2.06-.5,3.9v11.52h-2.9v-13.02c-.06-1.33-.1-2.13-.14-2.4-.03-.26-.12-.53-.26-.79-.51-1.01-1.86-1.52-4.04-1.52-2.64,0-4.38.76-5.21,2.27-.51.93-.77,2.31-.77,4.15v11.32H0V8.15Z"/>
        <path class="cls-1" d="M38.11,8.15v19.92h-2.9V8.15h2.9Z"/>
        <path class="cls-1" d="M43.24,8.15h2.92l-.08,2.71.08.06c.32-.74.69-1.28,1.1-1.63,1.14-.96,2.98-1.44,5.52-1.44,3.32,0,5.49.85,6.5,2.56.46.75.69,2.31.69,4.69v12.96h-2.9v-12.71c0-1.71-.15-2.87-.46-3.48-.52-1.03-1.91-1.54-4.19-1.54-1.68,0-2.94.22-3.77.67-1.26.67-2.01,1.76-2.25,3.27-.1.57-.15,1.17-.15,1.81v11.98h-3.02V8.15Z"/>
        <path class="cls-1" d="M75.79,8.15v2.42h-7.69v12.19c0,.92.1,1.61.29,2.06.19.46.53.76,1.02.92.35.1.87.15,1.56.15,1.26,0,2.06-.29,2.4-.88.32-.56.48-1.56.48-3,0-.26-.01-.6-.04-1h2.73c.02.67.02,1.19.02,1.56,0,1.72-.35,3.06-1.04,4-.89,1.19-2.44,1.79-4.65,1.79-1.9,0-3.29-.31-4.15-.92-.88-.64-1.37-1.65-1.48-3.04-.03-.31-.04-.85-.04-1.65v-12.19h-2.75v-2.42h2.75V3.36h2.9v4.79h7.69Z"/>
      </g>
      <g>
        <path class="cls-1" d="M84.85.29v28.45h-2.9V.29h2.9Z"/>
        <path class="cls-1" d="M92.87.29v3.27h-2.9V.29h2.9ZM92.87,8.81v19.92h-2.9V8.81h2.9Z"/>
        <path class="cls-1" d="M98.77,28.74V11.23h-3.04v-2.42h3.04v-2.96c0-1.81.31-3.12.94-3.94.96-1.28,2.66-1.92,5.11-1.92.65,0,1.4.05,2.23.15v2.42c-.97-.1-1.73-.15-2.27-.15-1.33,0-2.23.37-2.69,1.1-.28.44-.42,1.13-.42,2.06v3.23h5.38v2.42h-5.38v17.5h-2.9Z"/>
        <path class="cls-1" d="M123.8,22.71h2.98c.01.38.02.67.02.88,0,1.85-.51,3.17-1.54,3.96-.67.53-1.56.91-2.68,1.14-1.12.23-2.61.34-4.47.34-3.5,0-5.85-.67-7.04-2.02-.78-.9-1.27-2.22-1.48-3.94-.15-1.31-.23-2.72-.23-4.25,0-2.08.1-3.72.31-4.91.21-1.19.57-2.15,1.08-2.89.74-1.1,1.83-1.81,3.29-2.13,1.19-.25,2.53-.38,4-.38,2.72,0,4.65.29,5.77.85,1.72.88,2.68,2.92,2.88,6.13.04.72.07,1.99.08,3.81h-14.34c0,2.45.19,4.2.58,5.25.36.97,1.24,1.58,2.65,1.83.61.11,1.43.17,2.46.17,1.93,0,3.31-.13,4.13-.38.88-.28,1.38-.94,1.5-2,.03-.28.04-.77.04-1.48ZM123.8,17.05c-.04-2.1-.19-3.5-.44-4.21-.32-.89-1.03-1.47-2.13-1.75-.63-.15-1.59-.23-2.9-.23-1.75,0-3.01.15-3.79.46-1.13.44-1.79,1.62-2,3.52-.06.53-.08,1.26-.06,2.21h11.32Z"/>
      </g>
    </g>
  </g>
</svg>