<?xml version="1.0" encoding="UTF-8"?>
<svg id="Layer_2" data-name="Layer 2" xmlns="http://www.w3.org/2000/svg" viewBox="0 0 166.41 166.41">
  <defs>
    <style>
      .cls-1 {
        fill: #fff;
      }

      .cls-2 {
        fill: #b3643b;
      }
    </style>
  </defs>
  <g id="Layer_1" data-name="Layer 1">
    <g>
      <circle class="cls-2" cx="83.2" cy="83.2" r="83.2"/>
      <g>
        <g>
          <path class="cls-1" d="M77.91,21.56c2.67-1.48,5.84-1.78,8.82-1.31,2.48.43,4.87,1.6,6.56,3.49.8.83,1.43,1.82,1.97,2.83,2.33-.16,4.79.17,6.73,1.55,2.25,1.54,3.76,4.21,3.71,6.96.02,2.16-.83,4.32-2.37,5.84-1.25,1.29-2.9,2.12-4.61,2.61-.1,2.45-.28,4.89-.3,7.34-4.37-.81-8.8-1.44-13.26-1.39-5.02-.13-10.05.39-14.97,1.41-.02-1.99-.22-3.97-.19-5.95,0-.47-.03-.94-.08-1.41-2.24-.6-4.32-1.93-5.63-3.86-1.64-2.4-1.86-5.67-.64-8.3,1.57-3.48,5.68-5.38,9.38-4.71,1.14-2.09,2.72-4.01,4.88-5.09Z"/>
          <path class="cls-1" d="M81.06,52.58c5.58-.28,11.17.25,16.66,1.22.3.03.55.26.6.56.8,2.68.57,5.59-.23,8.24-1.88,6.06-8.06,10.55-14.44,10.22-5.64-.16-10.85-4.14-12.84-9.37-1.04-2.7-1.31-5.71-.7-8.54.13-.43.2-1.07.75-1.12,3.36-.66,6.77-1.02,10.18-1.21Z"/>
          <path class="cls-1" d="M114.17,107.5c-.09,1.26-1.09,2.2-2.14,2.76-1.69.91-3.53,1.49-5.35,2.05-5.45,1.52-11.1,2.24-16.74,2.59-2.65.11-5.31.29-7.97.12-6.35-.21-12.7-.98-18.88-2.48-2.18-.55-4.36-1.18-6.38-2.15-1.04-.55-2.17-1.41-2.24-2.68,0-2.97-.04-5.95.17-8.91.03-1.37.02-2.74.17-4.1,0-.05,0-.08,0-.13.08-2.57.2-5.15.65-7.7.65-3.41,2.8-6.44,5.65-8.38,1.7-1.16,3.54-2.06,5.47-2.78,1.45-.55,2.94.66,2.73,2.2-.05.37-.08.74-.09,1.11,0,.05,0,.09-.01.13-.24,1.99.04,10.08.19,14.07-2.31.56-4.03,2.64-4.03,5.12,0,2.92,2.36,5.27,5.27,5.27s5.28-2.36,5.28-5.27c0-2.52-1.76-4.62-4.13-5.14.03-4.06.71-12.28.9-14.52.11-1.09.35-2.19.75-3.21.45-1.14,1.81-1.6,2.88-1.02,1.45.81,3.06,1.33,4.69,1.62,3.91.69,8.07.08,11.56-1.81,1.08-.58,2.42-.14,2.88.98.59,1.43.83,3.02.94,4.57.03,1.72.09,3.43.06,5.14-.01.9-.63,1.67-1.49,1.93-1.21.36-2.32,1.03-3.16,1.99-1.28,1.43-1.99,3.33-2.2,5.23,0,.08-.01.15-.01.23-.02,2.75,0,5.49,0,8.24-.05,1.53.46,3.07,1.43,4.27.81.96,2.01,1.72,3.31,1.65.71.01,1.45-.22,1.93-.76.47-.51.48-1.27.31-1.9-.26-.67-.91-1.11-1.58-1.27-.09-.02-.17-.03-.25-.04-1.06-.11-1.84-1.06-1.74-2.13,0-.81,0-1.63,0-2.45,0-1.39,0-2.79,0-4.18,0-.7-.04-1.41.18-2.09.69-3,4.48-4.81,7.23-3.41,1.42.61,2.47,1.93,2.85,3.42.26.79.17,1.64.18,2.46,0,2.21.02,4.42-.01,6.64-.03.81-.61,1.72-1.51,1.7-1.16-.1-2.44.84-2.32,2.08-.05,1.08,1.01,1.81,1.99,1.89.09,0,.19,0,.28,0,.82-.06,1.62-.34,2.32-.76,1.63-.95,2.54-2.86,2.57-4.72-.03-2.66,0-5.32-.01-7.99.02-2.81-1.34-5.61-3.57-7.32-.57-.43-1.21-.69-1.89-.91-.79-.26-1.37-.96-1.43-1.8-.1-1.25.05-2.54-.01-3.8.03-1.08-.03-2.18-.19-3.25-.22-1.54,1.32-2.73,2.77-2.17,2.38.94,4.66,2.13,6.61,3.81,2.03,1.73,3.49,4.13,4.07,6.73.53,2.27.55,4.61.74,6.92,0,.05,0,.09,0,.15,0,1.87.25,3.74.2,5.62.03,2.85.28,5.69.17,8.53Z"/>
        </g>
        <g>
          <path class="cls-1" d="M73.58,128.88c-.2-.13-.32-.3-.34-.49s0-.37.11-.55.25-.32.46-.45c.2-.12.42-.2.67-.22.34-.03.65.03.93.16s.52.33.71.59c.19.26.32.55.38.89s.06.69-.02,1.05c-.11.42-.3.82-.57,1.2-.27.38-.59.72-.96,1.01-.37.29-.78.52-1.21.7-.44.18-.87.26-1.3.26-1.16.01-2.1-.21-2.81-.69-.71-.47-1.24-1.1-1.57-1.88-.33-.78-.49-1.67-.46-2.65.02-.98.18-1.98.47-2.99.3-1.01.72-1.99,1.26-2.93.55-.94,1.18-1.75,1.9-2.43.72-.67,1.51-1.18,2.38-1.51.86-.33,1.76-.39,2.69-.17.39.09.74.25,1.05.46.31.22.55.49.73.81.17.32.28.7.3,1.12.03.42-.05.89-.22,1.41-.11.34-.27.64-.5.92-.22.28-.47.51-.76.7-.28.19-.59.33-.91.42s-.64.1-.95.03c-.31-.05-.56-.18-.76-.36s-.33-.39-.4-.6-.09-.41-.04-.61c.05-.2.15-.33.31-.39.09-.04.2-.05.32-.04s.24.04.34.08c.24.09.51.05.8-.14.29-.19.52-.47.68-.85.13-.3.17-.56.09-.78-.07-.22-.21-.38-.42-.49-.2-.1-.44-.14-.73-.12-.28.02-.57.11-.85.27-.51.31-1.01.79-1.49,1.44-.48.65-.9,1.38-1.26,2.18-.36.81-.66,1.65-.89,2.51-.23.86-.35,1.67-.35,2.42,0,.75.11,1.38.34,1.91.24.53.64.86,1.2.99.4.09.75.05,1.04-.12.29-.18.51-.4.66-.67.15-.27.22-.54.22-.82s-.09-.48-.28-.6Z"/>
          <path class="cls-1" d="M90.17,125.86c.17.07.33.17.46.32s.14.33.05.55c-.27.62-.61,1.21-1.02,1.78s-.86,1.06-1.35,1.49-1,.75-1.54.99c-.53.24-1.05.33-1.57.29-.35-.03-.69-.12-1.02-.27-.33-.15-.6-.38-.82-.68-.28-.39-.43-.8-.46-1.22-.02-.42.04-.85.17-1.26s.31-.83.52-1.22.41-.77.6-1.12c.07-.13.09-.27.07-.4-.02-.13-.08-.24-.17-.3-.09-.07-.23-.08-.41-.05-.17.03-.38.15-.61.35-.2.17-.43.4-.68.67-.25.27-.5.57-.75.89-.25.32-.49.66-.72,1.02s-.42.72-.57,1.08c-.19.43-.35.84-.49,1.22-.14.38-.24.73-.3,1.04-.04.2-.2.32-.49.35-.28.03-.57,0-.87-.11-.3-.11-.55-.27-.76-.5s-.27-.49-.19-.8c.21-.82.45-1.71.72-2.68.26-.96.54-1.93.82-2.91s.58-1.93.88-2.86c.3-.93.61-1.78.92-2.55.16-.39.4-.65.72-.79s.63-.18.94-.14c.31.04.57.14.77.29.2.16.27.32.2.5-.15.36-.32.82-.52,1.36-.2.55-.39,1.11-.58,1.7-.19.59-.37,1.16-.55,1.73-.18.57-.32,1.05-.45,1.46-.03.13,0,.21.07.22.07.01.15-.03.23-.14.12-.15.31-.38.56-.71s.55-.63.91-.91.77-.48,1.23-.6c.46-.12.97-.04,1.53.21.59.28.99.61,1.18.98.2.37.27.76.22,1.16-.05.4-.17.81-.35,1.2s-.37.76-.54,1.1c-.17.34-.28.63-.34.87-.06.24.02.4.23.49.19.07.42.02.69-.15.27-.17.55-.4.83-.7.28-.3.56-.62.84-.98s.52-.69.72-1c.15-.23.31-.35.49-.36.17-.01.35.02.53.1Z"/>
          <path class="cls-1" d="M97.53,125.86c.13-.16.32-.22.55-.18.23.04.42.13.57.28.13.12.23.25.27.39.05.14.02.31-.09.5-.35.61-.79,1.19-1.31,1.75-.53.56-1.11,1.04-1.74,1.46-.63.41-1.3.72-2.01.94-.71.22-1.42.28-2.13.2-.82-.09-1.46-.37-1.92-.84-.46-.46-.76-1.01-.9-1.65-.14-.63-.14-1.3.01-2,.15-.7.42-1.34.81-1.93.39-.59.89-1.06,1.49-1.44.6-.37,1.28-.54,2.05-.5.63.04,1.12.2,1.47.48s.56.61.65.99c.09.38.06.79-.07,1.2s-.35.79-.65,1.11c-.3.32-.66.56-1.1.72-.44.15-.92.15-1.45-.01-.11-.03-.2-.05-.28-.08-.08-.03-.16-.03-.22-.02s-.12.05-.16.12c-.04.07-.07.18-.08.34-.04.39.05.69.28.91.23.22.51.35.85.4.5.09,1,.04,1.51-.15.51-.2.98-.46,1.44-.8.45-.34.87-.71,1.24-1.11.38-.4.69-.77.95-1.09ZM92.37,124.97c-.19.19-.28.38-.26.57.01.19.15.3.42.32.38.03.66-.04.85-.2.22-.16.32-.33.32-.52s-.06-.33-.18-.44c-.12-.11-.29-.15-.51-.13-.22.02-.43.15-.65.39Z"/>
          <path class="cls-1" d="M105.45,126.03c.16.15.28.31.34.49.07.18.02.36-.14.55-.2.24-.45.53-.74.85s-.62.65-.98.97c-.36.32-.76.62-1.18.89s-.88.47-1.36.61c-.19.07-.32.13-.41.2-.08.07-.13.15-.14.24-.01.09,0,.21.03.35.03.14.07.31.11.52.12.55.13,1.15.03,1.8-.1.65-.28,1.27-.53,1.87s-.56,1.14-.94,1.62c-.38.48-.78.82-1.19,1.02-.23.11-.47.16-.72.15-.25,0-.5-.04-.74-.09-.47-.08-.84-.29-1.1-.64s-.44-.78-.54-1.31c-.09-.53-.12-1.15-.07-1.84.05-.69.15-1.44.29-2.23.15-.79.34-1.63.57-2.5.23-.87.47-1.74.73-2.62.12-.43.24-.85.35-1.24.11-.4.23-.8.35-1.2.05-.16.04-.26-.05-.3-.09-.04-.17-.06-.23-.06h-.46c-.12.03-.21-.02-.27-.14-.06-.12-.08-.26-.06-.4.02-.15.09-.29.2-.42.11-.13.27-.21.47-.22h.53c.28-.03.46-.13.53-.3.24-.65.52-1.26.83-1.84.39-.7.83-1.23,1.3-1.59.48-.36.95-.58,1.42-.67s.9-.06,1.31.07.76.34,1.04.61.47.59.57.96c.09.37.06.75-.1,1.12-.07.16-.17.3-.31.42s-.31.19-.5.21c-.23.04-.39.02-.5-.05-.1-.07-.19-.16-.25-.27-.07-.09-.14-.17-.21-.23-.07-.06-.19-.1-.33-.13-.27-.03-.52.07-.75.3-.23.23-.45.54-.67.93-.16.34-.06.49.3.46h.91c.11.01.17.08.19.21.02.13,0,.27-.03.42-.04.16-.11.29-.2.41-.09.12-.21.18-.34.16h-.99c-.13.01-.27.05-.39.1-.13.05-.23.2-.31.45-.19.59-.36,1.17-.51,1.74-.15.57-.28,1.07-.4,1.52-.04.15-.06.29-.06.42s.04.25.11.33c.07.09.19.15.33.18.15.03.35.02.61-.05.42-.11.83-.26,1.22-.46.4-.2.77-.43,1.11-.69.34-.26.66-.53.94-.81s.53-.55.73-.81c.2-.24.42-.34.65-.3.23.04.43.14.61.28ZM98.23,134.94c.12-.2.23-.44.32-.72.09-.28.17-.56.22-.85s.08-.58.09-.86c0-.28-.02-.54-.09-.77-.04-.13-.12-.2-.23-.19-.11,0-.19.08-.21.23-.03.09-.07.31-.13.64s-.12.68-.18,1.05c-.06.37-.1.71-.13,1.02-.03.31-.01.49.04.55.11.11.21.07.3-.1Z"/>
        </g>
        <g>
          <path class="cls-1" d="M118.51,128.81l-2,5.24h-2.89l-2.02-5.24v5.24h-3.6v-14.66h3.8c.35.93,1.44,3.77,3.26,8.51,1.82-4.75,2.91-7.58,3.28-8.51h3.8v14.66h-3.62v-5.24Z"/>
          <path class="cls-1" d="M131.51,120.12c.43.43.65.94.65,1.52v10.17c0,.58-.22,1.08-.65,1.52-.49.49-1.08.73-1.78.73h-6.39v-14.66h6.39c.7,0,1.29.24,1.78.73ZM128.55,130.27v-7.08c0-.15-.05-.28-.16-.38-.11-.11-.24-.16-.38-.16h-1.07v8.15h1.07c.15,0,.28-.05.38-.15.11-.1.16-.23.16-.37Z"/>
        </g>
        <g>
          <path class="cls-1" d="M58.68,126.22c.18.08.33.2.46.34s.14.33.05.55c-.27.62-.62,1.21-1.04,1.78-.42.57-.88,1.06-1.38,1.48-.49.42-1.01.75-1.56.98-.55.24-1.08.33-1.59.29-.35-.03-.69-.12-1.02-.28-.33-.16-.6-.38-.82-.67-.28-.39-.43-.8-.45-1.22-.02-.42.04-.85.17-1.27.13-.42.31-.84.52-1.23.21-.4.41-.77.6-1.1.07-.13.09-.27.08-.4s-.07-.24-.17-.3c-.1-.07-.24-.09-.4-.06-.17.03-.37.14-.6.34-.88.77-1.58,1.66-2.1,2.66-.53,1-.99,2.1-1.4,3.29-.07.2-.24.32-.53.34s-.57,0-.86-.11c-.29-.1-.53-.26-.73-.49s-.25-.49-.17-.8c.05-.23.15-.51.28-.85s.28-.7.43-1.08c.16-.38.31-.78.47-1.18.15-.4.29-.79.39-1.15.13-.47.09-.77-.14-.9-.23-.13-.54-.04-.93.27-.22.18-.45.4-.71.67s-.51.57-.76.89c-.25.32-.49.67-.71,1.03-.22.36-.41.72-.56,1.07-.19.43-.35.84-.48,1.23-.13.39-.23.74-.29,1.05-.03.13-.12.23-.26.29-.15.06-.31.08-.5.07-.18-.01-.38-.05-.59-.12-.21-.07-.39-.16-.55-.29-.16-.13-.27-.28-.35-.44-.08-.17-.09-.35-.04-.56.09-.35.21-.79.34-1.33s.28-1.1.42-1.68c.15-.58.3-1.14.46-1.68.15-.54.31-.99.46-1.35.16-.39.4-.65.73-.79.32-.13.64-.18.94-.14.3.04.56.14.76.29s.27.32.2.5c-.07.15-.13.31-.19.48-.06.17-.12.35-.19.56-.01.04-.03.08-.04.12-.01.04-.03.08-.04.12-.03.13,0,.21.07.22.07.01.15-.03.23-.12.12-.15.31-.38.56-.69.25-.31.55-.6.9-.86.35-.26.76-.45,1.22-.57.47-.11.98-.06,1.55.17.2.08.36.2.47.34.11.15.18.31.23.49.05.18.08.35.09.54.01.18.02.35.02.5,0,.08.02.13.07.15.05.02.1,0,.17-.07.12-.16.31-.4.56-.72.25-.32.56-.61.92-.88.36-.27.78-.46,1.25-.57.47-.11.98-.03,1.54.22.59.28.98.61,1.17.97s.26.75.21,1.14c-.05.4-.17.8-.35,1.19s-.37.76-.55,1.09-.29.61-.35.85c-.06.24.02.39.23.47.19.07.42.02.7-.15s.56-.4.86-.69.59-.61.87-.97.53-.68.73-.98c.15-.23.31-.35.49-.36.17-.01.35.01.53.08Z"/>
          <path class="cls-1" d="M69.44,126.2c.16.07.31.18.43.32.13.15.14.33.05.55-.24.57-.56,1.14-.96,1.73-.4.59-.85,1.11-1.36,1.57-.51.46-1.07.82-1.68,1.09s-1.25.37-1.92.3c-.15.63-.3,1.26-.45,1.88s-.29,1.21-.42,1.77c-.14.56-.26,1.08-.37,1.58-.12.49-.21.92-.29,1.28-.04.2-.21.32-.5.34-.29.03-.59-.02-.9-.13-.31-.11-.58-.29-.8-.53-.22-.24-.29-.51-.21-.82.3-1.05.58-2.11.84-3.17.26-1.06.53-2.13.8-3.19-.43.31-.87.55-1.3.71-.44.16-.87.23-1.3.2-.35-.03-.69-.12-1.02-.28-.33-.16-.6-.39-.82-.69-.23-.32-.36-.68-.4-1.06-.04-.38-.03-.75.04-1.1.04-.2.13-.51.27-.92s.3-.84.46-1.29c.17-.45.33-.88.5-1.27.16-.4.28-.68.34-.84.16-.39.42-.65.76-.78s.68-.17,1.01-.12c.33.05.61.15.84.3.23.16.31.32.24.5-.08.22-.2.51-.35.88-.16.37-.31.76-.48,1.16s-.32.79-.46,1.17c-.15.38-.25.68-.3.91-.16.61-.07.97.26,1.09.4.15.75.12,1.05-.08s.58-.54.85-1.01c.27-.47.53-1.06.79-1.76s.55-1.47.87-2.31c.15-.4.39-.67.74-.79s.68-.16,1.02-.11c.34.05.62.15.85.31.23.16.31.33.24.51-.35.85-.65,1.67-.89,2.45-.24.78-.5,1.62-.77,2.51.46.01.87-.06,1.23-.21.36-.15.69-.36.99-.61.3-.25.56-.53.8-.83.24-.3.46-.61.66-.92.16-.23.33-.35.51-.36.17-.01.35.01.53.08Z"/>
        </g>
      </g>
    </g>
  </g>
</svg>