<?xml version="1.0" encoding="UTF-8"?>
<svg id="Layer_2" data-name="Layer 2" xmlns="http://www.w3.org/2000/svg" viewBox="0 0 246.36 307.95">
  <defs>
    <style>
      .cls-1 {
        fill: #f16a21;
      }

      .cls-2 {
        fill: #231f20;
      }
    </style>
  </defs>
  <g id="Layer_1" data-name="Layer 1">
    <g>
      <g>
        <path class="cls-1" d="M0,242.4V65.55C0,21.56,19.8,0,63.79,0h118.78c43.99,0,63.79,21.56,63.79,65.55v176.85c0,43.99-19.8,65.55-63.79,65.55H63.79c-43.99,0-63.79-21.56-63.79-65.55Z"/>
        <path class="cls-2" d="M9.37,235.67V72.28c0-40.64,18.29-60.56,58.94-60.56h109.74c40.65,0,58.94,19.92,58.94,60.56v163.4c0,40.65-18.29,60.56-58.94,60.56h-109.74c-40.65,0-58.94-19.92-58.94-60.56Z"/>
        <path class="cls-1" d="M180.74,131.04c-.09,3.93-2.56,6.47-4.18,9.33-10.63,15.89-21.06,32.06-31.34,48.38-12.64,18.51-38.81,66.38-51.37,84.98-.64,1.19-1.51,1.72-2.46,1.94-2.72.62-5.55-1.49-6.11-5.15-.13-.9-.13-1.87.07-2.84,5.06-22.41,23.98-74.06,29-96.5.53-2.39.09-4.8-.96-6.54,0-.02-.02-.02-.02-.02-.11-.17-.22-.35-.33-.5-.37-.52-.77-.92-1.21-1.27-.29-.22-.61-.4-.94-.55-.5-.22-1.05-.35-1.62-.35-12.14,0-24.28.02-36.4,0h-1.21c-3.4-.05-6.73-4.35-5.98-9.13.64-3.21,2.5-5.62,4.18-7.93,11.09-16.27,22.2-32.51,33.31-48.75,12.64-18.51,25.25-37.04,37.82-55.64.64-1.19,1.53-1.72,2.46-1.92,2.72-.62,5.55,1.47,6.11,5.12.13.92.13,1.87-.07,2.84-5.06,22.44-10.41,44.72-15.45,67.16-.59,2.66.02,5.32,1.32,7.09.94,1.29,2.26,2.14,3.77,2.14,11.99,0,23.97,0,35.94-.02.15,0,.31,0,.44.02,3,.2,5.59,3.98,5.22,8.11Z"/>
      </g>
      <g>
        <path class="cls-1" d="M142.57,265.24c0,2.21.32,2.76,2.94,2.76h9.71v5.42h-12.87c-4.52,0-6.55-2.21-6.55-6.73v-24.89h6.77v23.44Z"/>
        <path class="cls-1" d="M170.48,273.42v-5.42h6.77v-19.38c-2.39,0-6.19-.45-7.45,4.07l-5.74,20.73h-7.05l6.91-24.89c1.45-5.15,2.85-6.73,6.55-6.73h13.55v31.62h-13.55Z"/>
        <path class="cls-1" d="M186.2,241.8h16.49c4.52,0,6.55,2.21,6.55,6.73v5.06c0,2.35-.41,3.07-1.26,4.02.81.81,1.26,1.36,1.26,4.02v5.06c0,4.52-2.03,6.73-6.55,6.73h-16.49v-31.62ZM202.46,249.97c0-2.21-.32-2.76-2.94-2.76h-10.3l3.75,1.36v6.32h6.73c2.44,0,2.75-.54,2.75-2.76v-2.17ZM202.46,263.07c0-2.21-.32-2.75-2.94-2.75h-6.55v7.68h6.73c2.44,0,2.75-.54,2.75-2.76v-2.17Z"/>
      </g>
    </g>
  </g>
</svg>