<?xml version="1.0" encoding="UTF-8"?>
<svg id="Layer_2" xmlns="http://www.w3.org/2000/svg" viewBox="0 0 289.98 117.46">
  <defs>
    <style>
      .cls-1 {
        fill: #fff;
      }

      .cls-2, .cls-3, .cls-4 {
        fill: #edcb48;
      }

      .cls-2, .cls-5 {
        font-size: 96.69px;
        letter-spacing: -.08em;
      }

      .cls-2, .cls-5, .cls-4 {
        font-family: oblong-Regular, oblong;
      }

      .cls-6, .cls-5 {
        fill: #d1d3d4;
      }

      .cls-4 {
        font-size: 96.69px;
        letter-spacing: -.12em;
      }
    </style>
  </defs>
  <g id="Layer_1-2" data-name="Layer_1">
    <g>
      <g>
        <path class="cls-6" d="M127.36,43.88c0,3.74-.71,7.25-2.13,10.54-1.42,3.29-3.35,6.17-5.8,8.65-2.45,2.48-5.3,4.43-8.56,5.85-3.26,1.42-6.75,2.13-10.49,2.13h-6.86v-7.06c.26-4.58,2.48-6.87,6.67-6.87h.1c2.26,0,4.33-.51,6.24-1.55,1.9-1.03,3.5-2.48,4.79-4.35h-11.31c-.32,0-.58.03-.77.1-2.39.64-4.51,1.95-6.38,3.92-1.87,1.97-2.97,4.17-3.29,6.62-.19.77-.29,1.58-.29,2.42,0,1.81.35,3.51,1.06,5.12.71,1.61,1.66,3.01,2.85,4.21,1.19,1.19,2.59,2.14,4.21,2.85,1.61.71,3.32,1.06,5.12,1.06h.1c4.12,0,6.35,2.29,6.67,6.87v7.06h-6.87c-1.48,0-2.87-.13-4.16-.39-3.29-.45-6.33-1.48-9.14-3.09-2.8-1.61-5.22-3.63-7.25-6.04-2.03-2.42-3.61-5.14-4.74-8.17-1.13-3.03-1.69-6.19-1.69-9.48,0-2.51.32-4.95.97-7.3.64-2.35,1.58-4.56,2.8-6.62,1.22-2.06,2.71-3.95,4.45-5.66,1.74-1.71,3.71-3.14,5.9-4.3,1.29-.77,2.67-1.4,4.16-1.89,1.48-.48,3-.85,4.54-1.11l.58-.1h27.85c.45,2,.68,4.19.68,6.58Z"/>
        <path class="cls-6" d="M183.15,45.04c1.22,1.23,1.74,2.68,1.55,4.35-.19,1.68-.97,3.03-2.32,4.06-1.68,1.16-3,2.71-3.96,4.64-.97,1.93-1.45,3.93-1.45,5.99v20.6c0,1.61-.23,3.29-.68,5.03-.45,1.74-1.05,3.43-1.79,5.08-.74,1.64-1.58,3.19-2.51,4.64-.94,1.45-1.89,2.69-2.85,3.72-2.71,2.9-5.79,4.98-9.23,6.24-3.45,1.26-7.11,1.89-10.97,1.89-5.93,0-11.15-1.42-15.66-4.25-4.51-2.84-7.8-7.12-9.86-12.86l-.87-2.61h10.54c1.8.19,3.09.68,3.87,1.45,1.29,1.93,2.93,3.38,4.93,4.35,2,.97,4.16,1.45,6.48,1.45,3.61,0,6.78-.95,9.52-2.85,2.74-1.9,4.46-4.69,5.17-8.36-4,2.39-8.54,3.58-13.63,3.58-3.8,0-7.35-.71-10.64-2.13-3.29-1.42-6.16-3.35-8.61-5.8-2.45-2.45-4.38-5.32-5.8-8.61-1.42-3.29-2.13-6.83-2.13-10.64s.71-7.35,2.13-10.64c1.42-3.29,3.35-6.16,5.8-8.61s5.32-4.38,8.61-5.8c3.29-1.42,6.83-2.13,10.64-2.13,7.54,0,13.96,2.64,19.24,7.93.19.26.39.48.58.68s.42.42.68.68c.84-1.1,1.95-2.16,3.34-3.19,1.38-1.03,2.66-1.9,3.82-2.61,2.19,1.29,4.22,2.87,6.09,4.74ZM162.65,63.99c0-1.87-.34-3.59-1.01-5.17-.68-1.58-1.63-2.98-2.85-4.21-1.23-1.22-2.63-2.18-4.21-2.85-1.58-.68-3.3-1.01-5.17-1.01s-3.51.34-5.12,1.01c-1.61.68-3.03,1.63-4.25,2.85s-2.18,2.63-2.85,4.21c-.68,1.58-1.02,3.3-1.02,5.17s.34,3.53,1.02,5.17c.68,1.64,1.63,3.06,2.85,4.25,1.22,1.19,2.64,2.14,4.25,2.85,1.61.71,3.32,1.06,5.12,1.06s3.59-.35,5.17-1.06c1.58-.71,2.98-1.66,4.21-2.85,1.22-1.19,2.18-2.61,2.85-4.25.68-1.64,1.01-3.37,1.01-5.17Z"/>
        <path class="cls-6" d="M239.23,45.04c1.22,1.23,1.74,2.69,1.55,4.4-.19,1.71-.97,3.08-2.32,4.11-1.74,1.16-3.08,2.72-4.01,4.69-.93,1.97-1.4,3.98-1.4,6.04v20.5c0,4.13-2.29,6.35-6.87,6.67h-7.06v-3.58c-3.87,2.26-8.28,3.38-13.25,3.38-3.8,0-7.35-.71-10.64-2.13-3.29-1.42-6.16-3.35-8.61-5.8-2.45-2.45-4.38-5.32-5.8-8.61-1.42-3.29-2.13-6.83-2.13-10.64s.71-7.35,2.13-10.64c1.42-3.29,3.35-6.16,5.8-8.61s5.32-4.38,8.61-5.8c3.29-1.42,6.83-2.13,10.64-2.13,7.54,0,13.96,2.64,19.24,7.93.13.19.29.39.48.58l.58.58c.9-1.1,1.98-2.14,3.24-3.14,1.26-1,2.5-1.82,3.72-2.47,2.13,1.16,4.16,2.71,6.09,4.64ZM219.12,64.09c0-1.87-.34-3.59-1.02-5.17-.68-1.58-1.63-2.98-2.85-4.21-1.22-1.22-2.63-2.18-4.21-2.85-1.58-.68-3.3-1.01-5.17-1.01s-3.61.34-5.22,1.01c-1.61.68-3.01,1.61-4.21,2.8s-2.13,2.59-2.8,4.21-1.02,3.35-1.02,5.22.34,3.61,1.02,5.22c.68,1.61,1.61,3.01,2.8,4.21,1.19,1.19,2.59,2.13,4.21,2.8,1.61.68,3.35,1.02,5.22,1.02s3.59-.34,5.17-1.02c1.58-.68,2.98-1.63,4.21-2.85,1.22-1.22,2.18-2.64,2.85-4.25.68-1.61,1.02-3.32,1.02-5.12Z"/>
        <path class="cls-6" d="M261.37,37.11c3.8,0,7.35.71,10.64,2.13,3.29,1.42,6.16,3.35,8.61,5.8,2.45,2.45,4.37,5.32,5.75,8.61,1.38,3.29,2.08,6.83,2.08,10.64s-.69,7.27-2.08,10.59c-1.39,3.32-3.3,6.21-5.75,8.65-2.45,2.45-5.32,4.38-8.61,5.8-3.29,1.42-6.83,2.13-10.64,2.13s-7.35-.71-10.64-2.13c-3.29-1.42-6.16-3.35-8.61-5.8-2.45-2.45-4.38-5.32-5.8-8.61-1.42-3.29-2.13-6.83-2.13-10.64s.71-7.35,2.13-10.64c1.42-3.29,3.35-6.16,5.8-8.61s5.32-4.38,8.61-5.8c3.29-1.42,6.83-2.13,10.64-2.13ZM261.37,77.53c1.8,0,3.51-.35,5.12-1.06,1.61-.71,3.01-1.66,4.21-2.85,1.19-1.19,2.14-2.59,2.85-4.21.71-1.61,1.06-3.32,1.06-5.12s-.34-3.59-1.02-5.17c-.68-1.58-1.63-2.98-2.85-4.21-1.22-1.22-2.63-2.18-4.21-2.85-1.58-.68-3.3-1.01-5.17-1.01s-3.53.34-5.17,1.01-3.06,1.63-4.25,2.85c-1.19,1.23-2.14,2.63-2.85,4.21-.71,1.58-1.06,3.3-1.06,5.17s.35,3.51,1.06,5.12c.71,1.61,1.66,3.03,2.85,4.25,1.19,1.22,2.61,2.17,4.25,2.85,1.64.68,3.37,1.01,5.17,1.01Z"/>
      </g>
      <text class="cls-5" transform="translate(21.21 98.24) rotate(-14.22)"><tspan x="0" y="0">p</tspan></text>
      <text class="cls-4" transform="translate(72.33 89.74)"><tspan x="0" y="0">egao</tspan></text>
      <text class="cls-2" transform="translate(20.19 96.2) rotate(-14.22)"><tspan x="0" y="0">p</tspan></text>
      <g>
        <circle class="cls-3" cx="49.62" cy="60.59" r="26.9"/>
        <circle class="cls-1" cx="51.97" cy="61.94" r="12.92"/>
      </g>
      <path class="cls-3" d="M51.87,54.19c.54-.38,1.22-.55,1.87-.47.72.09,1.4.49,1.83,1.08.42.58.6,1.34.46,2.05-.14.77-.64,1.46-1.32,1.84-.7.4-1.58.44-2.33.13-.85,1.13-1.68,2.26-2.53,3.39.28.36.48.78.57,1.23,1.41.18,2.82.35,4.23.53.28-.68.86-1.24,1.56-1.48.63-.23,1.35-.2,1.96.07.62.27,1.12.78,1.38,1.4.25.58.28,1.24.09,1.83-.23.74-.8,1.37-1.52,1.66-.73.31-1.61.26-2.3-.13-.73-.39-1.22-1.14-1.36-1.95-1.39-.16-2.78-.35-4.17-.51-.21.53-.58.99-1.06,1.29-.63.41-1.44.53-2.17.31-.7-.2-1.3-.69-1.63-1.34-.34-.65-.39-1.45-.13-2.14.23-.63.71-1.17,1.32-1.46.63-.32,1.39-.37,2.06-.13.87-1.15,1.72-2.31,2.59-3.46-.35-.51-.55-1.13-.5-1.75.05-.79.47-1.55,1.12-2Z"/>
    </g>
  </g>
</svg>