<?xml version="1.0" encoding="UTF-8"?>
<svg id="Layer_2" data-name="Layer 2" xmlns="http://www.w3.org/2000/svg" viewBox="0 0 106.2 60.62">
  <defs>
    <style>
      .cls-1 {
        fill: #fff;
      }
    </style>
  </defs>
  <g id="Layer_1-2" data-name="Layer 1">
    <g>
      <g>
        <path class="cls-1" d="M32.62,7.36h6.45v51.07h-6.45V7.36Z"/>
        <path class="cls-1" d="M49.15,58.43l-5.85-51.07h6.32l4.17,43.48,4.17-43.48h6.05l-5.85,51.07h-9Z"/>
        <path class="cls-1" d="M68.23,7.36h15.93v5.51h-9.47v16.93h8.27v5.51h-8.27v17.61h9.61v5.51h-16.06V7.36Z"/>
        <path class="cls-1" d="M100.08,12.74v45.69h-6.45V12.74h-6.11v-5.38h18.68v5.38h-6.11Z"/>
      </g>
      <polygon class="cls-1" points="22.19 7.93 0 7.93 0 13.88 18.67 14.19 24.3 25.34 18.87 36.49 0 36.26 0 58.52 5.7 58.52 5.83 42.31 22.19 42.21 30.05 25.07 22.19 7.93"/>
      <g>
        <polygon class="cls-1" points="65.49 60.62 56.74 58.43 58.18 58.43 71.16 60.62 65.49 60.62"/>
        <polygon class="cls-1" points="58.21 60.62 54.89 58.43 56.33 58.43 63.88 60.62 58.21 60.62"/>
        <polygon class="cls-1" points="50.92 60.62 53.04 58.43 54.48 58.43 56.6 60.62 50.92 60.62"/>
        <polygon class="cls-1" points="43.64 60.62 51.19 58.43 52.63 58.43 49.32 60.62 43.64 60.62"/>
        <polygon class="cls-1" points="36.36 60.62 49.34 58.43 50.78 58.43 42.03 60.62 36.36 60.62"/>
      </g>
      <circle class="cls-1" cx="35.91" cy="3.1" r="3.1"/>
    </g>
  </g>
</svg>