<?xml version="1.0" encoding="UTF-8"?>
<svg id="Layer_2" data-name="Layer 2" xmlns="http://www.w3.org/2000/svg" viewBox="0 0 959.15 959.15">
  <defs>
    <style>
      .cls-1 {
        fill: #084175;
      }

      .cls-2 {
        fill: #fff;
      }

      .cls-3 {
        fill: #57bde4;
      }
    </style>
  </defs>
  <g id="Layer_1" data-name="Layer 1">
    <g>
      <circle class="cls-2" cx="479.58" cy="479.58" r="479.58"/>
      <g id="_57bde4ff" data-name="#57bde4ff">
        <path class="cls-1" d="M524.08,295.69c11.23-5.78,22.52-11.45,33.94-16.87,24.25-11.52,50.03-20.07,77.11-21.05,17.69-.84,35.58,3.4,50.8,12.51,2.19,1.37,4.32,2.91,6.18,4.71,1.28,1.24.72,3.39-1,3.85-16.5,4.4-31.79,12.51-46.27,21.41-19.49,12.18-37.81,26.09-56.39,39.59-15.88,11.45-31.22,23.67-47.72,34.24-24.51,15.59-51.38,28.57-80.34,32.92-17.3,2.38-35.19,1.63-52.01-3.23-19.03-5.23-36.83-14.44-52.76-26.03-.98-.7-1.91-1.45-2.82-2.23-2.08-1.79.19-5.15,2.56-3.75.02.01.04.02.06.04,19.98,8.29,41.32,13.13,62.87,14.77.06,0,.12,0,.17,0,11.19.02,22.47.7,33.55-1.27,18.8-3.07,37.2-8.75,54.33-17.07,33.19-15.53,61.21-39.56,91.61-59.63,16.58-10.94,33.52-21.93,52.1-29.08,2.38-.91,1.72-4.43-.82-4.42-23.55.09-47.03,5.23-68.91,13.84-19.68,7.83-37.77,18.94-55.92,29.74-17.72,10.22-35.41,20.62-54.27,28.63-25.82,12.07-54.91,18.56-83.38,14.7-19.11-2.26-37.84-8.88-53.58-20.07-20.59-14.14-39.32-32.05-50.84-54.47-1.37-2.68-2.8-5.36-3.71-8.23-.36-1.14.26-2.38,1.38-2.78,1.05-.37,2.13-.54,3.15.08,4.38,2.4,8.36,5.52,12.97,7.52,11.84,5.15,24.75,7.76,37.65,7.9,14.02.16,28-1.71,42.02-1.23,10.04.35,20.26,2.04,29.44,6.27,4.4,2.03,9.01,4.57,12.34,8.14,6.91,7.38,6,5.48-4.25,5.18-16.82-.49-33.5.1-50.2,1.05-13.84.78-27.51.18-40.97-2.67-2.28-.48-3.73,2.42-1.96,3.95,6.8,5.87,14.45,10.76,22.48,14.74,18.21,8.39,38.28,12.19,58.24,12.9.06,0,.12,0,.18,0,14.17-.52,28.55-1.22,42.19-5.49,6.96-2.24,13.88-4.65,20.53-7.73,20.17-10.3,40.13-21.02,60.27-31.38Z"/>
        <path class="cls-1" d="M595.19,369.16c12.09-9.43,25.92-17.71,41.42-19.54.08,0,.16-.02.24-.02,7.27-.44,15.42-.55,21.45,4.17.84,2.58-2.49,2.33-4.07,2.93-16.68,3.1-30.17,14.19-42.99,24.59-16.11,13.38-32,27.47-50.78,37.06-13.69,7.2-28.66,12.07-44.04,13.87-.08,0-.16.02-.25.02-8.46.46-16.98.68-25.4-.35-.06,0-.12-.02-.18-.03-.03,0-.07-.01-.1-.02-3.72-.67-3.63-6,.11-6.51.38-.05.75-.11,1.11-.19,16.58-2.9,32.43-9.27,47.36-16.91,20.31-10.55,38.25-24.91,56.12-39.06Z"/>
      </g>
      <g id="_57bde4ff-2" data-name="#57bde4ff">
        <path class="cls-3" d="M521.57,286.9c11.23-5.78,22.52-11.45,33.94-16.87,24.25-11.52,50.03-20.07,77.11-21.05,17.69-.84,35.58,3.4,50.8,12.51,2.19,1.37,4.32,2.91,6.18,4.71,1.28,1.24.72,3.39-1,3.85-16.5,4.4-31.79,12.51-46.27,21.41-19.49,12.18-37.81,26.09-56.39,39.59-15.88,11.45-31.22,23.67-47.72,34.24-24.51,15.59-51.38,28.57-80.34,32.92-17.3,2.38-35.19,1.63-52.01-3.23-19.03-5.23-36.83-14.44-52.76-26.03-.98-.7-1.91-1.45-2.82-2.23-2.08-1.79.19-5.15,2.56-3.75.02.01.04.02.06.04,19.98,8.29,41.32,13.13,62.87,14.77.06,0,.12,0,.17,0,11.19.02,22.47.7,33.55-1.27,18.8-3.07,37.2-8.75,54.33-17.07,33.19-15.53,61.21-39.56,91.61-59.63,16.58-10.94,33.52-21.93,52.1-29.08,2.38-.91,1.72-4.43-.82-4.42-23.55.09-47.03,5.23-68.91,13.84-19.68,7.83-37.77,18.94-55.92,29.74-17.72,10.22-35.41,20.62-54.27,28.63-25.82,12.07-54.91,18.56-83.38,14.7-19.11-2.26-37.84-8.88-53.58-20.07-20.59-14.14-39.32-32.05-50.84-54.47-1.37-2.68-2.8-5.36-3.71-8.23-.36-1.14.26-2.38,1.38-2.78,1.05-.37,2.13-.54,3.15.08,4.38,2.4,8.36,5.52,12.97,7.52,11.84,5.15,24.75,7.76,37.65,7.9,14.02.16,28-1.71,42.02-1.23,10.04.35,20.26,2.04,29.44,6.27,4.4,2.03,9.01,4.57,12.34,8.14,6.91,7.38,6,5.48-4.25,5.18-16.82-.49-33.5.1-50.2,1.05-13.84.78-27.51.18-40.97-2.67-2.28-.48-3.73,2.42-1.96,3.95,6.8,5.87,14.45,10.76,22.48,14.74,18.21,8.39,38.28,12.19,58.24,12.9.06,0,.12,0,.18,0,14.17-.52,28.55-1.22,42.19-5.49,6.96-2.24,13.88-4.65,20.53-7.73,20.17-10.3,40.13-21.02,60.27-31.38Z"/>
        <path class="cls-3" d="M592.68,360.37c12.09-9.43,25.92-17.71,41.42-19.54.08,0,.16-.02.24-.02,7.27-.44,15.42-.55,21.45,4.17.84,2.58-2.49,2.33-4.07,2.93-16.68,3.1-30.17,14.19-42.99,24.59-16.11,13.38-32,27.47-50.78,37.06-13.69,7.2-28.66,12.07-44.04,13.87-.08,0-.16.02-.25.02-8.46.46-16.98.68-25.4-.35-.06,0-.12-.02-.18-.03-.03,0-.07-.01-.1-.02-3.72-.67-3.63-6,.11-6.51.38-.05.75-.11,1.11-.19,16.58-2.9,32.43-9.27,47.36-16.91,20.31-10.55,38.25-24.91,56.12-39.06Z"/>
      </g>
      <g>
        <path class="cls-1" d="M282.68,680.37c-7.02,0-12.32-1.66-15.88-4.97-3.56-3.31-5.84-8.63-6.85-15.95-1-7.72-2.61-13.87-4.81-18.43-2.21-4.56-5.29-7.85-9.25-9.86-3.96-2.01-9.05-3.01-15.27-3.01h-7.37v-7.37h15.5c7.62,0,13.06-1.55,16.33-4.66,3.26-3.11,4.89-8.17,4.89-15.2s-1.56-12.61-4.66-16.18c-3.11-3.56-7.88-5.34-14.29-5.34h-12.34v79.3c0,3.61.25,6.37.75,8.28.5,1.91,1.48,3.26,2.93,4.06,1.45.8,3.54,1.35,6.25,1.66l3.01.3v6.17l-24.53-.45-24.68.45v-6.17l3.01-.3c2.81-.3,4.91-.85,6.32-1.66,1.4-.8,2.36-2.16,2.86-4.06.5-1.91.75-4.67.75-8.28v-66.81c0-3.61-.25-6.4-.75-8.35-.5-1.96-1.48-3.36-2.93-4.21-1.46-.85-3.54-1.38-6.25-1.58l-3.01-.3v-6.02l23.77.45h21.97c16.25,0,28.24,2.16,35.96,6.47,7.72,4.31,11.59,11.04,11.59,20.16s-3.64,16-10.91,20.92c-7.27,4.92-17.58,7.37-30.92,7.37v-2.86c11.23,0,20.24,2.43,27.01,7.3,6.77,4.87,10.81,11.76,12.11,20.69,1.1,7.12,2.51,12.34,4.21,15.65,1.71,3.31,3.81,4.97,6.32,4.97.9,0,2.21-.25,3.91-.75l1.2,5.87c-2.41.9-4.99,1.58-7.75,2.03-2.76.45-5.49.68-8.2.68Z"/>
        <path class="cls-1" d="M336.69,680.82c-7.12,0-13.44-1.53-18.96-4.59-5.52-3.06-9.83-7.25-12.94-12.56-3.11-5.32-4.67-11.44-4.67-18.36s1.55-13.07,4.67-18.43c3.11-5.37,7.42-9.6,12.94-12.71,5.52-3.11,11.79-4.67,18.81-4.67,9.13,0,16.45,2.54,21.97,7.6,5.52,5.07,8.28,11.76,8.28,20.09,0,1-.03,2.08-.08,3.24-.05,1.15-.18,2.03-.38,2.63h-53.27l.3-5.42h20.31c7.62,0,11.44-3.46,11.44-10.38,0-3.51-.9-6.44-2.71-8.8-1.81-2.36-4.06-3.54-6.77-3.54-3.91,0-7.05,2.53-9.4,7.6-2.36,5.07-3.54,11.86-3.54,20.39,0,9.73,1.68,17.1,5.04,22.12,3.36,5.02,8.25,7.52,14.67,7.52,4.31,0,8.1-1.1,11.36-3.31,3.26-2.21,5.94-5.47,8.05-9.78l4.81,2.41c-5.42,12.64-15.4,18.96-29.94,18.96Z"/>
        <path class="cls-1" d="M374.46,679.17v-6.17l3.01-.3c2.81-.3,4.91-.85,6.32-1.66,1.4-.8,2.36-2.16,2.86-4.06.5-1.91.75-4.67.75-8.28v-66.81c0-3.61-.25-6.4-.75-8.35-.5-1.96-1.48-3.36-2.93-4.21-1.46-.85-3.54-1.38-6.25-1.58l-3.01-.3v-6.02l23.77.45h46.5l17.91-.45.3,11.29,1.2,16.85h-6.02c-1.3-7.72-4.62-13.17-9.93-16.33-5.32-3.16-13.69-4.74-25.13-4.74h-12.34v80.2c0,3.61.25,6.4.75,8.35.5,1.96,1.48,3.34,2.93,4.14,1.45.8,3.54,1.3,6.25,1.5l6.02.3v6.17l-27.54-.45h-.9l-23.77.45ZM434.5,646.21c-.4-7.32-2.06-12.56-4.96-15.72-2.91-3.16-7.58-4.74-13.99-4.74h-11.74v-6.62h11.74c6.22,0,10.73-1.38,13.54-4.14,2.81-2.76,4.61-7.5,5.42-14.22h6.02l-.45,21.67.45,23.77h-6.02Z"/>
        <path class="cls-1" d="M460.23,679.17v-5.12l2.71-.45c2.21-.4,3.86-.98,4.97-1.73,1.1-.75,1.86-2.05,2.26-3.91.4-1.85.6-4.49.6-7.9v-30.85c0-4.71-.75-7.97-2.26-9.78-1.5-1.81-4.26-2.71-8.28-2.71v-5.12c6.62,0,12.24-.12,16.85-.38,4.61-.25,9.28-.73,13.99-1.43l-1.66,18.21h2.41v32.05c0,3.51.25,6.2.75,8.05.5,1.86,1.25,3.19,2.26,3.99,1,.8,2.21,1.31,3.61,1.5l4.06.45v5.12l-23.32-.45-18.96.45ZM491.38,642.45l-2.26-11.13c2-7.12,4.96-12.54,8.88-16.25,3.91-3.71,8.48-5.57,13.69-5.57,4.11,0,7.4,1.13,9.86,3.39,2.46,2.26,3.69,5.29,3.69,9.1,0,3.41-.98,6.09-2.93,8.05s-4.59,2.93-7.9,2.93c-2.61,0-4.72-.62-6.32-1.88-1.61-1.25-2.41-2.83-2.41-4.74,0-.5.05-.95.15-1.35.1-.4.25-.95.45-1.66.2-.7.35-1.2.45-1.5.1-.3.15-.65.15-1.05,0-1.6-.85-2.41-2.56-2.41s-3.41,1.08-5.12,3.24c-1.71,2.16-3.26,5.07-4.66,8.73-1.41,3.66-2.46,7.7-3.16,12.11Z"/>
        <path class="cls-1" d="M564.96,680.82c-7.12,0-13.44-1.53-18.96-4.59-5.52-3.06-9.83-7.25-12.94-12.56-3.11-5.32-4.67-11.44-4.67-18.36s1.55-13.07,4.67-18.43c3.11-5.37,7.42-9.6,12.94-12.71,5.52-3.11,11.79-4.67,18.81-4.67,9.13,0,16.45,2.54,21.97,7.6,5.52,5.07,8.28,11.76,8.28,20.09,0,1-.03,2.08-.08,3.24-.05,1.15-.18,2.03-.38,2.63h-53.27l.3-5.42h20.31c7.62,0,11.44-3.46,11.44-10.38,0-3.51-.9-6.44-2.71-8.8-1.81-2.36-4.06-3.54-6.77-3.54-3.91,0-7.05,2.53-9.4,7.6-2.36,5.07-3.54,11.86-3.54,20.39,0,9.73,1.68,17.1,5.04,22.12,3.36,5.02,8.25,7.52,14.67,7.52,4.31,0,8.1-1.1,11.36-3.31,3.26-2.21,5.94-5.47,8.05-9.78l4.81,2.41c-5.42,12.64-15.4,18.96-29.94,18.96Z"/>
        <path class="cls-1" d="M634.33,681.12c-5.62,0-11.54-1.41-17.76-4.21-1.61-.8-2.81-1.33-3.61-1.58-.8-.25-1.46-.38-1.96-.38-.7,0-1.26.28-1.66.83-.4.55-.7,1.53-.9,2.93h-4.97l.6-9.78.45-14.75h4.36l1.66,4.36c1.2,3.21,3.03,6.12,5.49,8.73,2.46,2.61,5.29,4.66,8.5,6.17,3.21,1.5,6.47,2.26,9.78,2.26,3.81,0,6.95-.93,9.4-2.78,2.46-1.86,3.69-4.19,3.69-7,0-2.41-1.05-4.41-3.16-6.02-2.11-1.6-5.67-3.16-10.68-4.67l-9.03-2.71c-6.42-1.9-11.29-4.67-14.6-8.28-3.31-3.61-4.96-7.97-4.96-13.09,0-4.31,1.13-8.15,3.39-11.51,2.26-3.36,5.37-5.99,9.33-7.9,3.96-1.9,8.45-2.86,13.47-2.86,2.01,0,3.89.15,5.64.45,1.75.3,4.19.96,7.3,1.96,2.41.7,4.11,1.05,5.12,1.05,1.5,0,2.51-.95,3.01-2.86h4.96l-.6,9.93v12.64h-4.97c-2.51-5.82-5.47-10.23-8.88-13.24-3.41-3.01-7.12-4.51-11.13-4.51-3.11,0-5.57.83-7.37,2.48s-2.71,3.89-2.71,6.7c0,2.51.93,4.64,2.78,6.39,1.86,1.76,4.79,3.29,8.8,4.59l8.58,2.71c7.22,2.21,12.41,4.97,15.57,8.28,3.16,3.31,4.74,7.58,4.74,12.79,0,7.02-2.48,12.59-7.45,16.7-4.97,4.11-11.71,6.17-20.24,6.17Z"/>
        <path class="cls-1" d="M666.23,679.17v-5.12l2.71-.45c2.21-.4,3.86-.98,4.97-1.73,1.1-.75,1.86-2.05,2.26-3.91.4-1.85.6-4.49.6-7.9v-70.57c0-4.41-.63-7.5-1.88-9.25-1.26-1.75-3.59-2.78-7-3.08l-1.66-.15v-5.12c6.82,0,12.64-.12,17.45-.38,4.82-.25,9.53-.73,14.14-1.43v89.98c0,3.51.12,6.2.38,8.05.25,1.86.75,3.19,1.5,3.99.75.8,1.78,1.31,3.08,1.5l3.31.45v5.12l-20.92-.45-18.96.45ZM713.32,679.17v-5.12l3.31-.45c1.5-.2,2.73-.78,3.69-1.73.95-.95,1.63-2.41,2.03-4.36.4-1.96.6-4.44.6-7.45v-27.99c0-4.11-.85-7.22-2.56-9.33-1.71-2.11-4.26-3.16-7.67-3.16-3.21,0-6.15.95-8.8,2.86-2.66,1.91-5.14,4.87-7.45,8.88v-8.58c3.31-4.41,7.12-7.72,11.44-9.93,4.31-2.21,9.03-3.31,14.14-3.31,6.82,0,12.21,1.86,16.18,5.57,3.96,3.71,5.94,8.68,5.94,14.9v30.09c0,3.41.2,6.04.6,7.9.4,1.86,1.15,3.16,2.26,3.91,1.1.75,2.76,1.33,4.97,1.73l2.71.45v5.12l-20.46-.45-20.92.45Z"/>
      </g>
      <g>
        <path class="cls-1" d="M260.59,550.97v-6.17l3.01-.3c2.81-.3,4.91-.85,6.32-1.66,1.4-.8,2.36-2.16,2.86-4.06.5-1.91.75-4.67.75-8.28v-66.81c0-3.61-.25-6.4-.75-8.35-.5-1.96-1.48-3.36-2.93-4.21-1.46-.85-3.54-1.38-6.25-1.58l-3.01-.3v-6.02l23.77.45h21.97c16.35,0,28.36,2.33,36.04,7,7.67,4.67,11.51,12.01,11.51,22.04s-3.79,18.11-11.36,23.62c-7.58,5.52-18.43,8.28-32.58,8.28h-18.51v-7.52h15.5c7.62,0,13.09-1.71,16.4-5.12,3.31-3.41,4.96-9.03,4.96-16.85s-1.61-13.89-4.81-17.91c-3.21-4.01-7.98-6.02-14.29-6.02h-12.34v79.3c0,3.61.25,6.37.75,8.28.5,1.91,1.48,3.26,2.93,4.06,1.45.8,3.54,1.3,6.25,1.5l6.02.45v6.17l-27.54-.45-24.68.45Z"/>
        <path class="cls-1" d="M394.81,552.62c-7.32,0-13.87-1.56-19.64-4.66-5.77-3.11-10.33-7.35-13.69-12.71-3.36-5.37-5.04-11.46-5.04-18.28s1.68-12.92,5.04-18.28c3.36-5.37,7.92-9.6,13.69-12.71,5.77-3.11,12.31-4.67,19.64-4.67s13.87,1.56,19.64,4.67c5.77,3.11,10.33,7.35,13.69,12.71,3.36,5.37,5.04,11.46,5.04,18.28s-1.68,12.92-5.04,18.28c-3.36,5.37-7.93,9.61-13.69,12.71-5.77,3.11-12.32,4.66-19.64,4.66ZM394.81,547.2c5.01,0,8.9-2.61,11.66-7.82,2.76-5.21,4.14-12.69,4.14-22.42s-1.38-17.2-4.14-22.42c-2.76-5.21-6.65-7.82-11.66-7.82s-8.9,2.61-11.66,7.82c-2.76,5.22-4.14,12.69-4.14,22.42s1.38,17.21,4.14,22.42c2.76,5.22,6.64,7.82,11.66,7.82Z"/>
        <path class="cls-1" d="M464.78,550.51l-20.76-53.87c-1.2-2.91-2.23-4.91-3.08-6.02-.85-1.1-1.98-1.7-3.39-1.81l-2.71-.3v-5.12l19.41.45,20.92-.45v5.12l-4.06.15c-2.31.1-3.71.88-4.21,2.33-.5,1.46-.2,3.84.9,7.15l14.45,41.08h-3.31l12.04-32.8c1.7-4.61,2.56-8.17,2.56-10.68,0-4.82-2.81-7.22-8.43-7.22h-1.81v-5.12h3.61c8.83,0,13.24,3.46,13.24,10.38h-3.91c.3-6.92,4.46-10.38,12.49-10.38h14.6v5.12l-4.06.15c-2.31.1-3.71.88-4.21,2.33-.5,1.46-.2,3.84.9,7.15l14.45,41.08h-3.46l15.05-40.48c1.4-3.41,1.68-5.92.83-7.52-.85-1.6-2.78-2.46-5.79-2.56l-4.06-.15v-5.12l15.65.45,9.63-.45v5.12l-1.66.15c-1.61.1-3.01.96-4.21,2.56-1.2,1.61-2.66,4.62-4.36,9.03l-19.26,50.26h-15.8l-16.85-43.79h1.35l-16.85,43.79h-15.8Z"/>
        <path class="cls-1" d="M594.94,552.62c-7.12,0-13.44-1.53-18.96-4.59-5.52-3.06-9.83-7.25-12.94-12.56-3.11-5.32-4.67-11.44-4.67-18.36s1.55-13.07,4.67-18.43c3.11-5.37,7.42-9.6,12.94-12.71,5.52-3.11,11.79-4.67,18.81-4.67,9.13,0,16.45,2.54,21.97,7.6,5.52,5.07,8.28,11.76,8.28,20.09,0,1-.03,2.08-.08,3.24-.05,1.15-.18,2.03-.38,2.63h-53.27l.3-5.42h20.31c7.62,0,11.44-3.46,11.44-10.38,0-3.51-.9-6.44-2.71-8.8-1.81-2.36-4.06-3.54-6.77-3.54-3.91,0-7.05,2.53-9.4,7.6-2.36,5.07-3.54,11.86-3.54,20.39,0,9.73,1.68,17.1,5.04,22.12,3.36,5.02,8.25,7.52,14.67,7.52,4.31,0,8.1-1.1,11.36-3.31,3.26-2.21,5.94-5.47,8.05-9.78l4.81,2.41c-5.42,12.64-15.4,18.96-29.94,18.96Z"/>
        <path class="cls-1" d="M629.7,550.97v-5.12l2.71-.45c2.21-.4,3.86-.98,4.97-1.73,1.1-.75,1.86-2.05,2.26-3.91.4-1.85.6-4.49.6-7.9v-30.85c0-4.71-.75-7.97-2.26-9.78-1.5-1.81-4.26-2.71-8.28-2.71v-5.12c6.62,0,12.24-.12,16.85-.38,4.61-.25,9.28-.73,13.99-1.43l-1.66,18.21h2.41v32.05c0,3.51.25,6.2.75,8.05.5,1.86,1.25,3.19,2.26,3.99,1,.8,2.21,1.31,3.61,1.5l4.06.45v5.12l-23.32-.45-18.96.45ZM660.84,514.25l-2.26-11.13c2-7.12,4.96-12.54,8.88-16.25,3.91-3.71,8.48-5.57,13.69-5.57,4.11,0,7.4,1.13,9.86,3.39,2.46,2.26,3.69,5.29,3.69,9.1,0,3.41-.98,6.09-2.93,8.05s-4.59,2.93-7.9,2.93c-2.61,0-4.72-.62-6.32-1.88-1.61-1.25-2.41-2.83-2.41-4.74,0-.5.05-.95.15-1.35.1-.4.25-.95.45-1.66.2-.7.35-1.2.45-1.5.1-.3.15-.65.15-1.05,0-1.6-.85-2.41-2.56-2.41s-3.41,1.08-5.12,3.24c-1.71,2.16-3.26,5.07-4.66,8.73-1.41,3.66-2.46,7.7-3.16,12.11Z"/>
      </g>
    </g>
  </g>
</svg>