<?xml version="1.0" encoding="UTF-8"?>
<svg id="Layer_2" data-name="Layer 2" xmlns="http://www.w3.org/2000/svg" viewBox="0 0 505.02 505.02">
  <defs>
    <style>
      .cls-1 {
        fill: #fff;
      }

      .cls-2 {
        fill: #112849;
      }
    </style>
  </defs>
  <g id="Layer_1" data-name="Layer 1">
    <g>
      <rect class="cls-2" width="505.02" height="505.02" rx="12" ry="12"/>
      <path class="cls-1" d="M95.96,314.5c6.14-.11,12.29.03,18.43-.05,4.88-.12,10.1.26,14.27,3.07,3.86,2.55,5.91,7.24,5.78,11.79.36,6.75-1.83,13.6-6,18.91-4.59,5.52-11.88,7.91-18.85,8.31-2.83.08-5.66,0-8.48.07-1.93,7.38-2.87,14.99-4.85,22.36-4.57-.01-9.14,0-13.71-.01,4.71-21.43,8.85-42.99,13.4-64.45ZM107.36,324.51c-1.41,7.46-3,14.88-4.47,22.32,3.78.02,7.83.5,11.29-1.4,4.07-2.15,5.72-6.96,6.29-11.26.27-2.94.46-6.78-2.41-8.56-3.24-1.75-7.15-1.4-10.7-1.11Z"/>
      <path class="cls-1" d="M157.33,330.48c2.74-.96,5.83-1.74,8.62-.52-.75,4.51-1.84,8.98-3.28,13.32-3.18.45-6.78-.91-9.6,1.1-3.17,2.09-4.34,5.91-5.08,9.43-1.78,8.36-3.66,16.71-5.29,25.1-4.4.11-8.8.05-13.2.04,3.05-15.03,6.4-30,9.37-45.04.36-1.34.41-3.06,1.75-3.82,3.7-.34,7.44-.08,11.15-.07-.36,1.85-.68,3.69-1.08,5.53,2.03-1.89,3.93-4.13,6.64-5.05Z"/>
      <path class="cls-1" d="M184.81,329.58c5.2-.7,11.04-.43,15.34,2.96,4.45,3.5,5.9,9.56,5.63,14.99-.59,9.22-3.7,18.68-10.41,25.27-5.66,5.76-14.32,8.48-22.24,6.8-3.84-.71-7.56-2.83-9.57-6.25-2.74-4.46-2.9-9.98-2.07-15.02,1.18-8.64,4.69-17.34,11.47-23.09,3.32-2.93,7.47-4.93,11.85-5.65ZM184.81,339.25c-3.84,1.16-5.94,4.97-7.24,8.49-1.54,4.22-2.52,8.65-3.15,13.11-.28,2.64-.28,5.77,1.8,7.75,1.48,1.54,3.82,1.51,5.77,1.11,3.27-1.08,5.41-4.11,6.8-7.11,1.89-4.2,3.04-8.73,3.64-13.28.13-2.73.6-5.75-.82-8.24-1.39-2.27-4.47-2.38-6.79-1.83Z"/>
      <path class="cls-1" d="M237.66,329.63c3.06-.58,6.67-.55,9.14,1.62,1.57,1.37,1.87,3.57,2.51,5.45,3.38-2.96,7.17-5.62,11.59-6.73,3.59-1.05,7.7-.92,10.95,1.07,3.54,2.31,4.47,7.01,3.96,10.95-1.02,6.9-2.81,13.66-4.15,20.51-1.24,5.48-2.18,11.03-3.59,16.48-4.37-.01-8.75,0-13.12-.02,2.37-10.55,4.57-21.13,6.84-31.7.31-1.82.79-3.79.04-5.55-1.33-1.92-4.13-1.66-6.11-1.16-3.46.93-5.59,4.22-6.32,7.55-2.4,10.25-4.2,20.63-6.75,30.85-4.19.04-8.39,0-12.58.02,2.29-11.16,4.69-22.29,7-33.43.25-1.71.65-4.18-1.29-5.06-2.7-1.03-5.98-.35-8.02,1.7-2,1.92-2.97,4.64-3.61,7.28-2.23,9.79-4.1,19.67-6.34,29.46-4.33.11-8.65.02-12.98.04,2.8-13.11,5.52-26.24,8.21-39.37.64-3.16,1.17-6.34,2.06-9.45,4.21-.39,8.44-.12,12.67-.17-.24,1.44-.48,2.87-.73,4.31,3.28-2.09,6.74-4.09,10.66-4.65Z"/>
      <path class="cls-1" d="M300.39,329.57c5.46-.73,11.73-.42,16.02,3.49,4.07,3.55,5.29,9.28,4.96,14.47-.45,9.52-3.88,19.32-11.04,25.86-4.65,4.41-11.07,6.71-17.43,6.72-4.67-.19-9.62-1.71-12.6-5.52-3.73-4.49-3.6-10.74-3.05-16.23,1.13-8.33,4.3-16.78,10.64-22.55,3.42-3.26,7.84-5.46,12.5-6.24ZM300.39,339.25c-1.98.59-3.63,2-4.8,3.67-2.98,4.45-4.05,9.81-4.99,15-.47,3.16-1.26,6.67.41,9.62,1.64,2.84,5.69,2.99,8.27,1.45,3.15-2.01,5-5.46,6.21-8.89,1.68-4.83,2.87-9.91,2.72-15.05-.06-1.77-.45-3.73-1.85-4.93-1.66-1.33-3.99-1.31-5.95-.87Z"/>
      <g>
        <path class="cls-1" d="M363.42,314.56c4.56-.1,9.13.12,13.69-.1-7.62,15.81-15.75,31.38-23.44,47.16-2.27,4.58-4.5,9.18-6.8,13.74-.89,1.67-2.12,3.76-4.32,3.58-4.63.05-9.26.02-13.88-.02-1.03-19.17-2.05-38.34-3.53-57.49-.24-2.26-.25-4.53-.25-6.79,4.44-.14,8.89-.19,13.33.04.18,5.29.76,10.57.79,15.88.62,6.01.38,12.06.9,18.08.38,4.88.02,9.79.37,14.68,1.38-2.14,2.36-4.5,3.4-6.81,6.58-13.98,13.08-28.01,19.74-41.95Z"/>
        <path class="cls-1" d="M379.62,332.55c5.28-2.93,11.6-4,17.54-2.83,4.35.86,7.87,4.56,8.66,8.91.96,5.49.13,11.13-1.22,16.48-.42,1.35-.98,3.44-2.78,3.26-8.25.08-16.5-.08-24.75.06-.1,3.07-.7,6.71,1.6,9.19,2.25,2.5,5.96,2.56,9.05,2.03,3.27-.5,6.14-2.24,9.19-3.41.67,2.93,1.14,5.91,1.31,8.92-7.06,4.11-15.81,6.47-23.83,3.98-4.6-1.33-8.33-5.13-9.6-9.73-1.94-6.69-.49-13.8,1.79-20.2,2.43-6.71,6.6-13.2,13.05-16.65ZM386.12,339.7c-3.95,2.25-6.08,6.57-7.38,10.76,5.05.07,10.11.15,15.17-.03.61-3.04,1.27-6.43-.21-9.31-1.44-2.64-5.19-2.59-7.58-1.42Z"/>
        <path class="cls-1" d="M426.02,335.41c3.38-4.36,8.97-6.87,14.49-5.92.29,2.95-.93,5.74-1.45,8.59-.49,1.68-.56,3.63-1.71,5.03-3.27.56-7.06-.72-9.86,1.56-3.24,2.41-3.96,6.66-4.8,10.35-1.78,7.96-3.37,15.95-5.2,23.89-4.34.13-8.67.05-13.01.04,3.05-13.32,5.77-26.73,8.68-40.09.68-2.95,1.03-5.97,2.11-8.81,3.82-.18,7.64-.13,11.46-.05-.18,1.81-.4,3.62-.7,5.42Z"/>
      </g>
      <g>
        <path class="cls-1" d="M242.58,125.1c9.29-.5,18.64-.03,27.96-.24,1.3.12,3.45-.29,3.83,1.42,1.54,5.3,1.87,10.89,3.35,16.21.34,1.67,2.3,1.81,3.63,2.23,3.54.76,7.01,1.89,10.25,3.52,1.67.64,3.52,2.07,5.36,1.17,4.38-2.2,7.59-6.17,11.99-8.32.93-.45,2.04-.76,3-.2,2.3,1.05,4,3.01,5.78,4.74,5.1,5.14,10.25,10.23,15.37,15.37,1.06,1.24,2.63,2.92,1.77,4.66-2.07,4.1-5.63,7.29-7.45,11.54-1.32,3.05-.01,6.35,1.14,9.23,5.16,12.03,7.84,25.38,6.07,38.44-1.81,21.12-12.97,41.14-29.95,53.82-9.48,7.12-20.66,11.97-32.33,14.1-16.23,3.14-33.48.44-48.08-7.26-1.66-.65-3.37-1.93-5.19-1.65-4.37,2.26-7.7,6.16-12.16,8.26-2.12.97-4.14-.58-5.56-2.02-5.77-5.78-11.53-11.57-17.34-17.31-1.29-1.19-2.39-2.89-1.8-4.71,1.79-5.33,6.56-9.14,8.35-14.45-.64-2.51-2.27-4.62-3.25-7.01-1.3-2.73-1.84-5.77-3.27-8.44-1.01-1.8-3.31-1.8-5.08-2.21-3.59-.74-7.35-.88-10.8-2.18-2.22-.96-1.65-3.73-1.86-5.67-.05-8.71-.23-17.42.19-26.12-.1-1.43.67-2.88,2.1-3.31,4.78-1.35,9.99-.52,14.71-2.1,2.63-3.33,2.67-7.96,4.74-11.63.82-2.37,3.44-4.95,1.78-7.48-2.22-4.04-5.29-7.56-7.31-11.7-1.13-2.22.8-4.21,2.19-5.73,5.93-6.07,11.98-12.03,18.01-17.99.91-.8,2.12-2.05,3.4-1.2,4.88,2.53,8.33,7.33,13.38,9.48,3.33-1.01,6.22-3.11,9.52-4.22,2.84-1.2,5.99-1.54,8.75-2.94,1.98-5.29,1.29-11.22,3.03-16.59.25-.79.95-1.36,1.76-1.5ZM251.12,166.91c-8.05,1.13-15.91,4.05-22.47,8.89-16.08,11.34-24.25,32.66-19.69,51.83,2.63,11.93,9.8,22.82,19.72,29.93,8.31,6.05,18.48,9.48,28.74,9.8,10.27-.08,20.65-2.88,29.18-8.71,11.29-7.4,19.12-19.76,21.27-33.05,1.33-8.86.96-18.18-2.37-26.57-4.71-12.22-14.29-22.61-26.25-28.01-8.71-4.18-18.61-5.26-28.14-4.11Z"/>
        <path class="cls-1" d="M253.73,185.83c40.43-3.98,49.7,53.03,9.88,61.61-41.61,5.99-51.1-54.9-9.88-61.61ZM254.38,203.52c-17.54,5.28-9.2,31.49,8.14,25.8,15.64-5.66,8.07-30.21-8.14-25.8Z"/>
      </g>
    </g>
  </g>
</svg>