<?xml version="1.0" encoding="UTF-8"?>
<svg id="Layer_2" xmlns="http://www.w3.org/2000/svg" viewBox="0 0 153.32 33.11">
  <defs>
    <style>
      .cls-1 {
        font-family: SecretWater-Regular-YandiDe, 'Secret Water';
        font-size: 9.45px;
      }

      .cls-1, .cls-2, .cls-3, .cls-4 {
        fill: #e6e7e8;
      }

      .cls-3 {
        font-family: Water, Water;
        font-size: 27.75px;
      }

      .cls-4 {
        fill-rule: evenodd;
      }

      .cls-5 {
        letter-spacing: -.12em;
      }

      .cls-6 {
        letter-spacing: -.19em;
      }
    </style>
  </defs>
  <g id="Layer_1-2" data-name="Layer_1">
    <g>
      <text class="cls-3" transform="translate(34.74 23.59)"><tspan class="cls-6" x="0" y="0">U</tspan><tspan class="cls-5" x="13.96" y="0">ANTUM</tspan></text>
      <text class="cls-1" transform="translate(143.82 12.94) scale(1.09 1)"><tspan x="0" y="0">H2O</tspan></text>
      <g>
        <path class="cls-4" d="M32.61,22.85c-2.29-1.89-5.23-3.03-8.44-3.03-3.99,0-7.23-3.24-7.23-7.23,0,7.33,5.95,13.28,13.28,13.28,3.99,0,7.23,3.24,7.23,7.23,0-4.13-1.89-7.82-4.84-10.26Z"/>
        <path class="cls-4" d="M23.24,6.53c3.99,0,7.23,3.24,7.23,7.23,0,2.13-.92,4.04-2.39,5.37,2.03.55,3.91,1.59,5.46,3.01,1.93-2.37,2.98-5.32,2.98-8.38C36.52,6.43,30.57.48,23.24.48s-13.28,5.95-13.28,13.28c0,4.13,1.89,7.82,4.84,10.26,1.15.95,2.47,1.71,3.91,2.23,1.41.51,2.94.79,4.53.79h6.05c-7.33,0-13.28-5.95-13.28-13.28,0-3.99,3.24-7.23,7.23-7.23Z"/>
      </g>
      <g>
        <rect class="cls-2" x=".62" y="5.67" width="4.5" height=".62"/>
        <rect class="cls-2" x="6.51" y="5.27" width=".62" height="4.82" transform="translate(-3.44 7.07) rotate(-45)"/>
        <rect class="cls-2" x="1" y="7.38" width="4.82" height=".62" transform="translate(-4.44 4.66) rotate(-45)"/>
        <rect class="cls-2" x="4.81" y="1.64" width=".62" height="4.34"/>
        <circle class="cls-2" cx="5.12" cy="5.98" r="2.17"/>
        <circle class="cls-2" cx="5.12" cy="1.79" r="1.09"/>
        <circle class="cls-2" cx="1.71" cy="9.24" r="1.09"/>
        <circle class="cls-2" cx="8.53" cy="9.24" r="1.09"/>
        <circle class="cls-2" cx=".93" cy="5.98" r=".93"/>
      </g>
    </g>
  </g>
</svg>