<?xml version="1.0" encoding="UTF-8"?>
<svg id="Layer_2" data-name="Layer 2" xmlns="http://www.w3.org/2000/svg" viewBox="0 0 138.23 38.22">
  <defs>
    <style>
      .cls-1 {
        fill: #231f20;
      }
    </style>
  </defs>
  <g id="Layer_1-2" data-name="Layer 1">
    <g>
      <path class="cls-1" d="M51.21,30.56c-.22-.3-.64-.36-.93-.13-.31.26-.63.51-.97.74-.53.37-1.08.69-1.65.97-.55.26-1.12.47-1.7.63-.61.17-1.64.28-2.28.26-1.27-.04-2.46-.28-3.59-.73-1.22-.49-2.29-1.19-3.21-2.09-.92-.91-1.64-2.01-2.17-3.31-.53-1.3-.79-2.75-.79-4.37v-11.82c0-.36.29-.64.64-.64h4.44c.36,0,.64.29.64.64v11.82c0,.76.12,1.44.35,2.03.23.6.54,1.1.94,1.51.39.41.85.72,1.38.93.63.25,1.32.35,2.06.3.3-.02.59-.09.87-.2.71-.29,1.32-.72,1.82-1.29.39-.45.7-.96.93-1.53.22-.57.34-1.15.34-1.76v-11.82c0-.36.29-.64.64-.64h4.46c.36,0,.64.29.64.64v21.26c0,.36-.29.64-.64.64h-.41c-.21,0-.4-.1-.52-.27l-1.29-1.79Z"/>
      <path class="cls-1" d="M61.88,3.94c0,.53-.1,1.03-.31,1.49-.2.46-.48.87-.83,1.21-.35.34-.76.62-1.23.82-.47.2-.97.31-1.51.31s-1.04-.1-1.51-.31c-.47-.2-.88-.48-1.22-.82-.34-.34-.62-.75-.82-1.21-.2-.46-.31-.96-.31-1.49s.1-1.01.31-1.48c.2-.47.48-.88.82-1.22.34-.34.75-.62,1.22-.82.47-.2.97-.31,1.51-.31s1.04.1,1.51.31c.47.2.88.48,1.23.82.35.34.63.75.83,1.22.2.47.31.97.31,1.48ZM60.11,32.62h-4.24c-.43,0-.78-.35-.78-.78V10.84c0-.43.35-.78.78-.78h4.24c.43,0,.78.35.78.78v21c0,.43-.35.78-.78.78Z"/>
      <path class="cls-1" d="M90.01,32.62h-4.57c-.32,0-.58-.26-.58-.58v-13.74c0-.39-.07-.76-.22-1.12-.15-.35-.35-.66-.62-.93s-.58-.47-.93-.62-.72-.22-1.12-.22-.76.07-1.11.22-.65.35-.91.62c-.26.27-.46.58-.61.93-.15.35-.22.72-.22,1.12v13.74c0,.32-.26.58-.58.58h-4.59c-.32,0-.58-.26-.58-.58v-13.74c0-.39-.07-.76-.22-1.12-.15-.35-.36-.66-.62-.93-.27-.27-.58-.47-.93-.62-.35-.15-.72-.22-1.12-.22s-.76.07-1.11.22c-.34.15-.65.35-.91.62-.26.27-.46.58-.61.93-.15.35-.22.72-.22,1.12v13.74c0,.32-.26.58-.58.58h-4.59c-.32,0-.58-.26-.58-.58V10.64c0-.32.26-.58.58-.58h.56c.16,0,.32.07.43.19l1.02,1.13c.2.23.54.25.79.06.68-.51,1.42-.92,2.22-1.23.96-.37,1.96-.56,3-.56s2.08.2,3.08.59c.82.32,1.56.84,2.22,1.55.23.24.61.24.84-.01.24-.27.5-.5.78-.71.45-.34.92-.61,1.42-.82s1.01-.36,1.55-.45,1.06-.14,1.58-.14c1.19,0,2.31.22,3.36.67s1.96,1.06,2.74,1.84c.78.78,1.39,1.7,1.84,2.75.45,1.05.67,2.18.67,3.37v13.74c0,.32-.26.58-.58.58Z"/>
      <path class="cls-1" d="M114.48,21.21c0,1.77-.3,3.38-.91,4.84-.6,1.46-1.42,2.71-2.46,3.76s-2.26,1.86-3.65,2.43c-1.4.58-2.9.86-4.5.86s-3.08-.3-4.48-.88-2.62-1.41-3.66-2.46c-1.05-1.05-1.87-2.31-2.47-3.76-.6-1.45-.91-3.05-.91-4.79V1.86c0-.38.31-.7.7-.7h4.38c.38,0,.7.31.7.7v8.23c0,.57.64.89,1.11.56,0,0,0,0,.01,0,.44-.31.92-.56,1.43-.76.51-.2,1.04-.35,1.59-.45.55-.11,1.08-.16,1.6-.16,1.6,0,3.1.3,4.5.9,1.4.6,2.61,1.43,3.65,2.5s1.86,2.33,2.46,3.78.91,3.04.91,4.77ZM108.69,21.21c0-.87-.15-1.68-.45-2.43-.3-.75-.71-1.4-1.23-1.95s-1.13-.98-1.82-1.28c-.69-.31-1.44-.46-2.22-.46s-1.53.17-2.22.52-1.3.8-1.82,1.37c-.52.57-.93,1.22-1.22,1.96-.29.74-.44,1.5-.44,2.28,0,.87.15,1.68.44,2.42.29.74.7,1.39,1.22,1.94s1.13.98,1.82,1.29c.69.32,1.44.47,2.22.47s1.53-.16,2.22-.47c.69-.32,1.3-.75,1.82-1.29s.93-1.19,1.23-1.94c.3-.74.45-1.55.45-2.42Z"/>
      <path class="cls-1" d="M37.03,35.57l-4.34,2.52c-.28.16-.62.17-.9.03l-5.79-2.84c-.17.13-.33.24-.49.34-.16.09-.32.19-.48.28-1.32.77-2.69,1.33-4.12,1.7-1.42.37-2.85.55-4.28.54-1.43,0-2.85-.2-4.24-.57s-2.71-.91-3.96-1.61c-1.25-.7-2.4-1.57-3.45-2.59-1.05-1.02-1.96-2.2-2.73-3.52-.77-1.32-1.34-2.69-1.71-4.13C.17,24.29-.01,22.87,0,21.44c.01-1.43.2-2.84.57-4.23.37-1.39.91-2.71,1.61-3.95.71-1.24,1.57-2.39,2.6-3.44,1.02-1.05,2.2-1.96,3.52-2.73,1.32-.77,2.7-1.34,4.13-1.71,1.43-.37,2.86-.55,4.28-.55,1.42,0,2.83.19,4.22.56,1.39.37,2.71.9,3.94,1.6,1.24.7,2.39,1.57,3.44,2.6,1.06,1.03,1.97,2.21,2.74,3.53.8,1.37,1.38,2.82,1.75,4.33.37,1.52.53,3.04.48,4.56-.05,1.53-.31,3.03-.77,4.51-.36,1.16-.85,2.27-1.46,3.33-.28.48-.09,1.09.41,1.33l5.5,2.69c.69.34.72,1.31.06,1.69ZM25.52,16.34c-.71-1.22-1.61-2.23-2.7-3.04-1.09-.81-2.27-1.38-3.53-1.72-1.26-.33-2.57-.42-3.92-.26-1.35.16-2.64.6-3.85,1.3-1.23.71-2.25,1.62-3.05,2.71-.8,1.09-1.38,2.27-1.72,3.53-.34,1.26-.43,2.57-.27,3.92.16,1.35.6,2.64,1.3,3.85.71,1.22,1.6,2.22,2.69,3.02,1.09.8,2.26,1.36,3.53,1.7,1.27.34,2.58.43,3.92.27,1.35-.16,2.63-.59,3.86-1.31,1.22-.71,2.23-1.61,3.04-2.7.81-1.09,1.38-2.27,1.71-3.54.33-1.27.42-2.57.26-3.91-.15-1.34-.58-2.62-1.29-3.84Z"/>
      <circle class="cls-1" cx="58.01" cy="4.05" r="4.05"/>
      <path class="cls-1" d="M137.02,16.44c-.99-2.5-2.75-4.6-5.82-5.94-4.26-1.86-9.47-1.14-12.78,2.21-1.05,1.05-1.87,2.31-2.48,3.78-.41.98-.67,2.03-.8,3.14-.07.54-.1,1.11-.1,1.69,0,1.88.3,3.56.9,5.03.6,1.47,1.43,2.72,2.48,3.74,1.04,1.02,2.26,1.8,3.66,2.33,1.51.57,3.13.84,4.86.79.37,0,.75-.05,1.12-.12.6-.12,1.2-.29,1.78-.51.32-.11.64-.25.95-.39.67-.32,1.32-.69,1.93-1.12.34-.24.67-.49,1-.75.19-.16.42-.22.64-.19.26.02.51.15.67.37l1.38,1.91c.17.24.45.38.75.38.51,0,.92-.41.92-.92,0-5,.75-10.88-1.05-15.44ZM130.56,25.6c-.51.55-1.1,1-1.78,1.33-.69.34-1.43.52-2.22.52s-1.53-.14-2.22-.41c-.7-.26-1.3-.65-1.81-1.18-.51-.52-.92-1.16-1.21-1.93-.29-.76-.44-1.64-.44-2.62s.15-1.86.44-2.63c.29-.76.7-1.4,1.21-1.93.42-.43.92-.77,1.47-1.03.11-.06.22-.11.34-.15.69-.26,1.43-.4,2.22-.4s1.53.17,2.22.52c.7.34,1.3.8,1.82,1.37.52.57.93,1.22,1.23,1.96.3.74.45,1.5.45,2.29s-.15,1.55-.45,2.28c-.31.74-.72,1.39-1.23,1.96-.01.01-.02.02-.04.04Z"/>
    </g>
  </g>
</svg>