<?xml version="1.0" encoding="UTF-8"?>
<svg id="Layer_2" xmlns="http://www.w3.org/2000/svg" viewBox="0 0 177.41 43.5">
  <defs>
    <style>
      .cls-1 {
        letter-spacing: 0em;
      }

      .cls-2 {
        letter-spacing: -.08em;
      }

      .cls-3 {
        letter-spacing: -.06em;
      }

      .cls-4 {
        fill-rule: evenodd;
      }

      .cls-4, .cls-5 {
        fill: #e6e7e8;
      }

      .cls-5 {
        font-family: UniSansDemo-HeavyCAPS, 'Uni Sans Demo';
        font-size: 21.19px;
        font-weight: 800;
      }

      .cls-6 {
        letter-spacing: -.08em;
      }
    </style>
  </defs>
  <g id="Layer_1-2" data-name="Layer_1">
    <g>
      <path class="cls-4" d="M5.48,23.1l-5.48-2.31h10.45c-.28,2.98.71,6.06,2.99,8.35,1.3,1.3,2.87,2.18,4.53,2.65v8.91l-8.05-8.05c-2.66-2.66-4.14-6.07-4.44-9.55h0ZM20.79,43.5l10.86-10.85c2.53-2.53,4-5.74,4.39-9.04h-5.03c-.36,2.02-1.32,3.96-2.89,5.53-2.03,2.03-4.68,3.03-7.33,3.04v11.33Z"/>
      <path class="cls-4" d="M17.96,6.7c-5.88,1.09-10.58,5.54-12.06,11.27h5.23c.51-1.28,1.28-2.48,2.31-3.52,2.03-2.03,4.68-3.04,7.34-3.04V0s-2.82,6.7-2.82,6.7ZM20.78,15.73l5.18,10.11-5.18-2.17-5.18,2.17,5.18-10.11ZM35.75,18.33l5.82,2.46h-10.45c-.22-2.31-1.22-4.56-2.99-6.34-1.31-1.3-2.87-2.18-4.52-2.65v-5.1c5.99,1.12,10.78,5.73,12.15,11.63h0Z"/>
      <text class="cls-5" transform="translate(46.2 31.15)"><tspan x="0" y="0">re</tspan><tspan class="cls-6" x="26.15" y="0">t</tspan><tspan x="36.94" y="0">ake </tspan><tspan class="cls-3" x="80.55" y="0">p</tspan><tspan class="cls-2" x="92.36" y="0">a</tspan><tspan class="cls-1" x="104.48" y="0">th</tspan></text>
    </g>
  </g>
</svg>