<?xml version="1.0" encoding="UTF-8"?>
<svg id="Layer_3" data-name="Layer 3" xmlns="http://www.w3.org/2000/svg" viewBox="0 0 268.96 315.44">
  <defs>
    <style>
      .cls-1 {
        fill: #1b58ae;
      }

      .cls-2 {
        fill: #75bd58;
      }
    </style>
  </defs>
  <g id="Layer_1" data-name="Layer 1">
    <g>
      <path class="cls-1" d="M169.41,11.74c.03,9.38,20.07-2.18,20.17,7.2,24.11,8.97,48.29,17.75,72.39,26.74,3.89,1.28,7,4.88,6.94,9.1.05,19.53-.02,39.08.01,58.61.2,14.15-.48,28.38-3.33,42.29-5.04,25.86-17.2,49.9-32.98,70.84-13.23,17.75-29.11,33.27-44.97,48.63-9.71,8.95-19.69,17.6-29.9,25.96-5.24,4.24-10.43,8.57-16.14,12.16-3.8,2.38-8.77,2.97-12.85.94-4.34-2.2-8.1-5.33-11.94-8.28-13.62-11.18-27.28-22.38-39.55-35.05,8.37-7.71,16.52-15.74,23.39-24.83,9.55-12.33,17.12-26.17,22.43-40.83,3.35-9.46,6.13-19.24,6.82-29.29-1.24,1.87-1.27,4.24-2.15,6.26-8.83,23.91-24.66,44.68-43.14,61.99-6.03,5.31-11.95,10.85-18.75,15.18-7.43-7.82-15.13-15.43-21.78-23.94,23.35-11.96,44.78-28.23,61.04-48.93,7.72-9.68,14.38-20.26,19.37-31.61,6.12,2.25,13.02,2.24,19.16.09.63,17.62-.45,35.27-3.12,52.7-2.31,16.1-6.46,31.86-11.02,47.46,6.02-6.04,11.25-12.82,16.8-19.29,16.32-19.6,31.96-39.82,45.86-61.22,4.85-7.77,10.07-15.53,12.61-24.44,5.21-16.21,4.33-34.15-2.12-49.88-3.65-9.1-9.24-17.35-16.01-24.42-9-9.07-20.4-15.72-32.71-19.13-13.42-3.84-27.94-3.48-41.22.76-14.86,4.94-28.25,14.39-37.56,27.02-16.22,21.16-18.85,51.58-6.79,75.3,5.54,10.52,12.83,19.98,19.57,29.73l.03.54c-2.32,2.89-5.39,5.05-8.03,7.64-13.04,11.29-27.27,21.33-42.68,29.14-15.06-19-26.66-41.01-32.5-64.62-2.41-9.37-3.73-18.98-4.42-28.62C-.21,107.37.12,81.09.02,54.81c-.32-4.03,2.86-7.37,6.44-8.67,24.17-9.07,48.38-18.07,72.52-27.26.1-9.59,20.19,2.55,20.37-7.04M99.35,11.85c9.56-3.39,19.02-7.07,28.52-10.62,3.71-1.55,8.02-1.6,11.82-.32,9.93,3.55,19.8,7.27,29.73,10.84"/>
      <path class="cls-2" d="M105.36,117.47c2.71-14.82,18.41-25.87,33.27-23.21,10.44,1.6,19.8,9.18,23.26,19.19,1.74,4.84,1.92,10.14,1.13,15.2-1.78,10.22-9.66,18.9-19.37,22.28-6.15,2.15-13.04,2.16-19.16-.09-7.89-3.12-14.66-9.34-17.75-17.32-1.91-5.08-2.64-10.72-1.37-16.05Z"/>
    </g>
  </g>
</svg>