<?xml version="1.0" encoding="UTF-8"?>
<svg id="Layer_2" data-name="Layer 2" xmlns="http://www.w3.org/2000/svg" viewBox="0 0 175.13 33.79">
  <defs>
    <style>
      .cls-1 {
        fill: #13896e;
      }

      .cls-2 {
        fill: #84d387;
      }
    </style>
  </defs>
  <g id="Layer_1-2" data-name="Layer 1">
    <g>
      <path class="cls-2" d="M7.82,16.42c.34.73.93,1.34,1.6,1.82.6.44,1.27.8,1.71,1.39.51.67.64,1.53,1.02,2.27.89,1.73,3.04,2.68,3.7,4.5.47,1.3.6,1.8,1.16,3.06.21.48.96,1.55,1.41,2.06-.55-7.62-6.93-17.5-11.27-20.74,4.85,2.99,11.39,12.98,11.44,20.49.19-1.31.63-2.73.41-4.17-.14-.92-.69-1.83-.97-2.72-.41-1.33.33-3.1-.44-4.28-.57-.88-1.77-1.25-2.39-2.1-.88-1.22-.69-3.12-1.77-4.18-.72-.71-1.81-.99-2.56-1.67-.75-.68-1.11-1.7-1.89-2.35-1.79-1.44-4.36-.47-6.44-.99,1.92,1.48,3.94,3.09,4.63,5.36.23.75.3,1.54.63,2.25Z"/>
      <path class="cls-2" d="M17.32,4.02c.23,1.15.13,2.41.75,3.42.3.48.75.86,1.05,1.34.41.64.54,1.4.63,2.14.2,1.77-.45,2.28.04,4.98.16.87.87,2,1.02,2.87.26,1.56-.27,2.58-.29,4.16-.01,1.04.64,2.6.57,3.64-.05.73-.26,1.45-.54,2.13-.22.55-.24,1.72-.36,2.5,3.2-6.04,4.76-18.32-.89-27.49,7.63,10.27,4.06,23.15.89,27.88,1.53-.85,1.98-2.08,2.89-3.51.56-.84,1.66-1.65,1.94-2.6.38-1.28-.11-2.64-.04-3.97.13-2.4,2.05-4.67,1.36-6.98-.26-.87-.87-1.61-1.11-2.48-.29-1.03-.04-2.16-.44-3.16-.56-1.37-2.19-2.08-2.87-3.4-.5-.97-.44-2.16-1.07-3.06-1.32-1.69-4.37-2.09-6.44-2.43,1.49.87,2.58,2.37,2.91,4.02Z"/>
      <path class="cls-2" d="M17.05,31.96c-3.69.71-3.11-.6-5.85-1.6-.67-.2-1.39-.21-2.07-.37-1.06-.25-2.01-.88-2.64-1.74-.4-.55-.67-1.19-1.08-1.73-.81-1.07-2.15-1.75-2.74-2.94-.33-.68-.39-1.46-.72-2.14-.34-.7-.94-1.24-1.46-1.83C-.04,19.02-.02,17.38.02,16.61c1.13,1.32,2.84,2.14,4.22,3.21.55.43.93,1.02,1.23,1.63.44.89.79,1.92,1.66,2.45.44.27.98.37,1.41.67.52.36.8.95,1.14,1.48.49.76,1.14,1.43,1.9,1.95.54.37,1.13.67,1.65,1.06.4.3.75.66,1.14.97.79.63,2.08,1.28,2.88,1.8-3.52-1.3-10.15-4.55-15.05-11.82,3.22,5.69,7.91,9.92,14.85,11.95Z"/>
      <ellipse class="cls-2" cx="172.02" cy="30.07" rx="3.11" ry="3.07"/>
      <path class="cls-1" d="M93.31,33.38h-4.38c-.38,0-.57-.16-.57-.48,0-.09.02-.18.05-.29l7.94-24.33c.14-.45.44-.68.9-.68h5.08c.42,0,.64.21.65.62l1.18,14.08c.07.81,1.12,1.02,1.47.3l7.08-14.38c.19-.42.49-.62.9-.62h5.24c.21,0,.37.06.48.17.11.12.15.28.14.51l-2.01,24.34c-.01.25-.09.44-.25.57-.15.13-.35.2-.58.2h-4.38c-.44,0-.63-.23-.6-.7l1.15-11.18c.09-.9-1.08-1.26-1.47-.46l-5.74,11.69c-.19.42-.49.62-.92.62h-3.04c-.74,0-1.35-.59-1.41-1.35l-.9-10.87c-.07-.88-1.26-1.02-1.52-.18l-3.63,11.7c-.15.46-.45.7-.88.7Z"/>
      <path class="cls-1" d="M164.71,33.35h-4.01c-.39,0-.58-.15-.58-.45,0-.03.01-.1.04-.22l3.32-14.76h-1.94c-.39,0-.58-.16-.58-.48,0-.08,0-.14.02-.18l.85-3.75c.04-.19.22-.33.43-.33h1.9c.21,0,.39-.14.43-.34l.81-4.36c.04-.2.21-.34.42-.34l4.51-.04s.11-.02.19-.02c.18,0,.31.06.39.17.08.11.11.26.07.45l-.89,3.98c-.06.26.15.5.43.5h2.99c.39,0,.58.15.58.45,0,.03-.01.11-.03.22l-.78,3.41c-.05.21-.14.38-.28.49-.14.12-.33.18-.56.18h-3.18c-.21,0-.38.14-.43.33l-3.24,14.43c-.11.45-.39.67-.87.67Z"/>
      <path class="cls-2" d="M41.53,11.37c-1.62-.05-2.89.74-3.15,1.96s.39,1.89,2.17,2.4l1.84.52c4.56,1.3,6.85,4.11,6.47,8.56-.43,5.11-5.1,8.65-10.87,8.65-3.84,0-7.81-1.5-10.05-3.99-.56-.62-.38-1.6.33-2.06l4.01-2.58c.58-.37,1.32-.25,1.79.24,1.07,1.12,2.51,1.79,4.05,1.79,1.67,0,2.94-.79,3.2-2.01.28-1.31-.44-1.89-2.41-2.53l-1.76-.57c-4.67-1.5-6.73-4.16-6.32-8.56.47-4.98,5.18-8.6,10.69-8.64,3.91,0,7.26,1.35,9.43,4.23.49.65.29,1.59-.41,2.02l-3.92,2.36c-.56.34-1.27.23-1.73-.23-1.1-1.12-2.15-1.53-3.37-1.57Z"/>
      <path class="cls-1" d="M152.75,17.02c-1.36-.03-2.42.55-2.64,1.46s.33,1.41,1.82,1.79l1.54.39c3.82.97,5.73,3.06,5.42,6.37-.36,3.8-4.28,6.44-9.11,6.44-2.66,0-5.41-.77-7.34-2.08-1.13-.77-.98-2.31.21-3l1.72-.98c.81-.46,1.83-.35,2.57.19.83.61,1.86.96,2.95.96,1.4,0,2.46-.58,2.68-1.5.23-.97-.37-1.41-2.02-1.88l-1.47-.42c-3.92-1.12-5.64-3.09-5.29-6.37.39-3.7,4.34-6.4,8.96-6.43,2.77,0,5.19.72,6.98,2.23,1,.84.8,2.3-.39,2.94l-1.71.92c-.79.42-1.78.32-2.49-.2-.77-.57-1.53-.79-2.39-.81Z"/>
      <path class="cls-2" d="M46.78,22.72c.85-5.96,5.54-10.88,11.98-10.88,7.3,0,11.42,5.46,9.12,13.09l-14.83-.04c-.04,1.96,1.46,3.34,3.61,3.34,1.95,0,3.39-.58,4.93-2l4.56,3.13c-2.12,2.42-5.18,4.33-9.71,4.33-6.75,0-10.57-4.63-9.67-10.96ZM62.37,20.3c-.07-2.18-1.44-3.44-3.71-3.44-2.11,0-4.02,1.36-4.76,3.44h8.47Z"/>
      <path class="cls-2" d="M65.61,22.75c.94-6.46,5.51-11.04,10.99-11.04,2.51,0,5.17,1.14,6.4,3.14l.37-2.23c.06-.36.37-.62.74-.62h4.83c.47,0,.82.42.74.88l-3.87,20.01c-.07.35-.38.6-.73.6h-4.82c-.48,0-.83-.44-.73-.9l.43-1.95c-2.01,2.12-4.06,3.14-6.57,3.14-5.48,0-8.71-4.59-7.77-11.04ZM81.77,22.58c.46-2.85-1.25-4.93-3.99-4.93s-5.11,2-5.58,4.93c-.49,3.06,1.13,5.18,3.95,5.18s5.14-2.17,5.63-5.18Z"/>
      <path class="cls-1" d="M126.8,22.17c-.65,3.23.12,4.95,2.54,4.95,2.63,0,4.42-1.6,4.93-4.16l2.07-10.3c.07-.35.39-.61.75-.61h5c.48,0,.85.44.75.91l-3.95,19.64c-.07.35-.39.61-.75.61h-5c-.48,0-.85-.44-.75-.9l.38-1.91c-1.43,1.76-3.96,3.06-6.34,3.06-4.41,0-7.94-3.78-6.47-11.08l1.96-9.72c.07-.35.39-.61.75-.61h5.24c.48,0,.85.44.75.91l-1.85,9.21Z"/>
    </g>
  </g>
</svg>