<?xml version="1.0" encoding="UTF-8"?>
<svg id="Layer_2" data-name="Layer 2" xmlns="http://www.w3.org/2000/svg" viewBox="0 0 142.99 44.59">
  <defs>
    <style>
      .cls-1 {
        fill: #fff;
      }
    </style>
  </defs>
  <g id="Layer_1-2" data-name="Layer 1">
    <g>
      <path class="cls-1" d="M29.01,3.24c.8,1.08,1.25,2.06,1.36,2.95.11.89-.02,1.67-.37,2.33-.35.66-.86,1.18-1.52,1.57-.66.38-1.33.6-2.01.65-.68.05-1.31-.09-1.89-.42-.58-.32-.97-.88-1.15-1.68-.15-.55-.32-1.16-.48-1.82-.17-.66-.39-1.28-.67-1.87s-.61-1.07-.99-1.45c-.38-.38-.87-.58-1.45-.58-.8-.03-1.51.16-2.12.58-.62.42-1.11.95-1.48,1.61-.37.66-.6,1.38-.69,2.17-.09.78-.05,1.55.14,2.28.25.86.65,1.69,1.22,2.49.57.8,1.18,1.6,1.82,2.4.65.8,1.28,1.63,1.89,2.49.61.86,1.1,1.78,1.45,2.74.35.97.51,2.01.46,3.14-.05,1.12-.39,2.34-1.04,3.67-.58,1.23-1.41,2.28-2.47,3.16s-2.24,1.58-3.55,2.12c-1.31.54-2.67.89-4.08,1.06-1.41.17-2.79.15-4.13-.05-1.34-.2-2.56-.58-3.67-1.15-1.11-.57-1.98-1.34-2.63-2.33-.62-.92-.94-1.81-.97-2.65-.03-.85.12-1.59.46-2.24.34-.65.81-1.18,1.41-1.61s1.22-.7,1.87-.81c.65-.11,1.26-.03,1.84.23.58.26,1.01.75,1.29,1.45.4.98.91,1.81,1.54,2.47.63.66,1.31,1.15,2.05,1.48s1.5.47,2.28.44c.78-.03,1.5-.26,2.14-.69.74-.46,1.17-1.03,1.29-1.71.12-.68.05-1.42-.21-2.24-.26-.81-.66-1.65-1.2-2.51-.54-.86-1.11-1.7-1.71-2.51-.6-.81-1.18-1.59-1.73-2.33-.55-.74-.97-1.37-1.25-1.89-1.01-1.84-1.39-3.64-1.13-5.4.26-1.75.95-3.3,2.05-4.63,1.11-1.34,2.53-2.38,4.27-3.14C17.03.25,18.88-.08,20.85.01c.71.03,1.45.12,2.24.25.78.14,1.54.33,2.26.58.72.25,1.41.57,2.05.97.65.4,1.18.88,1.61,1.43Z"/>
      <path class="cls-1" d="M39.24,25.04c-.44-.19-.94-.05-1.43.21h0c-.74.39-1.48,1.06-2.05,1.31-.3.14-.6.25-.91.33-.69.2-1.39.26-2.09.2-.71-.06-1.25-.26-1.62-.58-.37-.32-.66-.69-.88-1.13-.21-.46-.31-.82-.28-1.06.03-.24.14-.42.3-.51.17-.09.38-.12.63-.09.24.03.48.08.69.14.77.22,1.59.32,2.45.32.17,0,.33,0,.49-.02,1.05-.07,1.95-.34,2.71-.82.88-.55,1.54-1.25,1.99-2.1.45-.85.66-1.74.64-2.7-.02-.95-.28-1.82-.8-2.61-.53-.79-1.3-1.4-2.33-1.87-1.03-.47-2.36-.62-3.99-.47-.14.02-.29.04-.42.06-1.28.21-2.45.74-3.52,1.6-1.19.96-2.16,2.11-2.93,3.48-.43.77-.79,1.56-1.06,2.39-.22.65-.39,1.32-.51,2.02-.27,1.56-.23,3.01.11,4.33.35,1.32,1.06,2.42,2.12,3.32,1.06.9,2.53,1.36,4.41,1.39.54,0,1.06-.03,1.57-.11,1.17-.15,2.27-.49,3.27-1,.67-.34,1.62-.83,2.47-1.44,1.03-.75,1.93-1.67,2-2.73,0-.04,0-.08,0-.11v-.11c-.02-.69-.41-1.4-1.04-1.67ZM31.34,19.89c.46-.71.97-1.3,1.52-1.77.55-.48,1.13-.73,1.71-.76.55-.03.92.15,1.11.53.18.39.2.83.07,1.34-.14.51-.42,1-.83,1.47s-.96.79-1.64.94c-.4.12-.85.16-1.34.09-.62-.09-.93-.33-.94-.73-.02-.4.1-.77.35-1.11Z"/>
      <path class="cls-1" d="M128.88,25.04c-.44-.19-.94-.05-1.43.21h0c-.74.39-1.48,1.06-2.05,1.31-.3.14-.6.25-.91.33-.69.2-1.39.26-2.09.2-.71-.06-1.25-.26-1.62-.58-.37-.32-.66-.69-.88-1.13-.21-.46-.31-.82-.28-1.06.03-.24.14-.42.3-.51.17-.09.38-.12.63-.09.24.03.48.08.69.14.77.22,1.59.32,2.45.32.17,0,.33,0,.49-.02,1.05-.07,1.95-.34,2.71-.82.88-.55,1.54-1.25,1.99-2.1.45-.85.66-1.74.64-2.7-.02-.95-.28-1.82-.8-2.61-.53-.79-1.3-1.4-2.33-1.87-1.03-.47-2.36-.62-3.99-.47-.14.02-.29.04-.42.06-1.28.21-2.45.74-3.52,1.6-1.19.96-2.16,2.11-2.93,3.48-.43.77-.79,1.56-1.06,2.39-.22.65-.39,1.32-.51,2.02-.27,1.56-.23,3.01.11,4.33.35,1.32,1.06,2.42,2.12,3.32,1.06.9,2.53,1.36,4.41,1.39.54,0,1.06-.03,1.57-.11,1.17-.15,2.27-.49,3.27-1,.67-.34,1.62-.83,2.47-1.44,1.03-.75,1.93-1.67,2-2.73,0-.04,0-.08,0-.11v-.11c-.02-.69-.41-1.4-1.04-1.67ZM120.98,19.89c.46-.71.97-1.3,1.52-1.77.55-.48,1.13-.73,1.71-.76.55-.03.92.15,1.11.53.18.39.2.83.07,1.34-.14.51-.42,1-.83,1.47s-.96.79-1.64.94c-.4.12-.85.16-1.34.09-.62-.09-.93-.33-.94-.73-.02-.4.1-.77.35-1.11Z"/>
      <path class="cls-1" d="M64.66,26.14c-.14-.45-.49-.82-.93-1-.16-.06-.32-.1-.5-.11-.36,0-.67.13-.95.34-.72.51-1.27,1.48-2.17,1.69-.31.02-.56-.02-.76-.09-.16-.07-.28-.17-.35-.29-.18-.29-.26-.67-.23-1.13.02-.39.12-.82.28-1.3.02-.09.06-.18.09-.27.22-.58.45-1.15.72-1.71.26-.55.51-1.06.76-1.52.24-.46.43-.8.55-1.02.27-.51.46-1,.57-1.46.18-.74.14-1.41-.11-2-.4-.95-1.12-1.64-2.14-2.08-.18-.08-.38-.14-.57-.2-.62-.18-1.31-.26-2.07-.24-.33,0-.68.02-1.04.08-1.43.18-2.81.72-4.13,1.61-.34.22-.63.27-.85.17-.23-.11-.33-.33-.3-.67.03-.49-.17-.91-.6-1.25-.43-.33-.95-.55-1.57-.64-.61-.09-1.25-.02-1.91.23-.66.25-1.22.71-1.68,1.39-.46.67-.91,1.6-1.36,2.79-.45,1.19-.86,2.45-1.25,3.78-.39,1.34-.73,2.64-1.04,3.92-.3,1.28-.54,2.33-.69,3.16-.25,1.2-.11,2.12.42,2.77.52.64,1.15,1.01,1.89,1.1.74.1,1.46-.11,2.17-.6.71-.49,1.16-1.29,1.34-2.4-.03-.83.12-1.74.46-2.72.34-.98.76-1.96,1.27-2.95.41-.79.88-1.56,1.38-2.28.12-.17.24-.34.37-.51.66-.88,1.31-1.61,1.94-2.19.63-.59,1.22-.97,1.75-1.16.54-.19.97-.09,1.31.28.21.24.27.6.16,1.08-.11.48-.29,1.04-.57,1.68-.28.65-.57,1.34-.9,2.1-.32.76-.59,1.53-.81,2.33-.21.8-.32,1.62-.32,2.47s.2,1.65.6,2.42c.3.58.72,1.06,1.25,1.43.36.26.76.47,1.17.63.03.02.06.03.09.04.15.05.31.1.47.14.39.11.79.17,1.19.2.25.02.51.03.76.02.68-.02,1.29-.13,1.84-.34.11-.04.22-.08.32-.13.03-.02.07-.03.1-.05.98-.43,1.89-1.09,2.71-1.96.63-.66,1.6-1.64,1.87-2.64,0,0,0,0,0,0,.08-.32.1-.64,0-.96Z"/>
      <path class="cls-1" d="M81.69,26.51s0,0,0,0c-.57.86-1.13,1.62-1.72,2.27-.98.91-2.07,1.68-3.29,2.31-.4.21-.82.39-1.25.54-1.08.39-2.24.57-3.5.57-1.63-.03-2.95-.38-3.96-1.04-1.01-.66-1.75-1.52-2.21-2.58-.46-1.06-.67-2.25-.63-3.57s.29-2.62.74-3.9c.45-1.28,1.07-2.48,1.87-3.59.8-1.13,1.74-2.03,2.79-2.73,1.06-.69,2.23-1.09,3.5-1.22.45-.05.91-.03,1.39.04.85.12,1.74.42,2.65.89.7.36,1.24.87,1.61,1.5.03.05.05.1.08.15.56,1,1,2.55-.32,3.18-.92.43-1.31,0-1.62-.54-.27-.48-.48-1.06-.94-1.25-.68-.28-1.36-.25-2.03.09-.68.34-1.29.85-1.84,1.52-.56.68-1.01,1.46-1.36,2.33-.35.88-.54,1.71-.56,2.51-.02.8.18,1.49.58,2.08.39.58,1.09.92,2.07,1.01,1.02.09,1.99-.08,2.93-.53.02,0,.02-.02.04-.02.92-.44,1.79-1.02,2.61-1.73l.02-.02s0,0,0,0c.28-.2.58-.34.94-.33.17,0,.34.05.5.11.44.17.79.54.93,1,.09.32.08.64,0,.96Z"/>
      <path class="cls-1" d="M94.29,25.98c-.02-.1-.06-.19-.1-.28-.27-.56-.93-.87-1.54-.78-.93.14-1.42,1.1-2.11,1.65-.48.37-.89.52-1.27.42-.61-.15-.97-.57-1.06-1.23-.09-.67-.03-1.43.18-2.27.22-.84.53-1.68.92-2.52.35-.73.7-1.34,1.08-1.83.05-.08.11-.15.17-.23.26-.31.53-.6.8-.89.13-.15.26-.28.4-.42.29-.3.49-.67.58-1.14.04-.17.06-.35.07-.54.03-.59-.16-1.09-.56-1.5-.4-.4-.9-.67-1.5-.79-.59-.13-1.2-.1-1.82.06,0,0-.02,0-.02,0-.18.05-.35.11-.51.19-.42.19-.77.48-1.08.86-.49.63-1.01,1.47-1.57,2.52-.55,1.06-1.05,2.21-1.5,3.46-.45,1.25-.79,2.52-1.04,3.81-.24,1.29-.29,2.47-.16,3.55.14,1.07.51,1.98,1.11,2.73.3.37.68.67,1.15.9.03.02.06.03.09.04.45.21.96.34,1.55.41.5.06.99.05,1.46-.02.55-.08,1.08-.24,1.59-.49.03-.02.07-.03.1-.05.91-.47,1.8-1.17,2.65-2.1.08-.08.14-.16.21-.24.68-.84,2.04-2.07,1.74-3.28ZM94.36,9.41c-.26-.63-.73-1.08-1.4-1.33-.68-.25-1.34-.22-2.01.09-.66.31-1.13.8-1.4,1.45-.28.69-.29,1.35-.02,1.96s.73,1.06,1.4,1.31c.68.25,1.34.23,2.01-.07.66-.3,1.13-.77,1.4-1.42.28-.69.29-1.35.02-1.99Z"/>
      <path class="cls-1" d="M141.43,29.59c.36-.43.67-.91.91-1.41,2.12-4.44-1.42-6.72-3.66-9.89-.2-.28-.4-.6-.38-.94s.33-.71.68-.66c.36.06.51.46.72.74.6.8,2.06.66,2.67-.17.61-.83.4-2.03-.31-2.75s-1.81-.98-2.85-.92c-4.72.26-5.78,4.77-3.23,7.99,1.17,1.47,2.47,3.2,1.27,5.08-.34.53-.93.95-1.57.92s-1.22-.62-1.07-1.22c.15-.58.8-.86,1.35-1.13s1.14-.78.98-1.35c-.06-.19-.2-.35-.35-.49-.76-.67-1.91-.87-2.92-.58-3.92,1.11-3.96,6.9-.85,8.72,1.3.76,2.93.9,4.43.57,1.62-.36,3.11-1.26,4.16-2.52Z"/>
      <path class="cls-1" d="M111.92,26.43c.92-3.29,2.19-6.22,3.68-9.32.19-.39.38-.79.37-1.22,0-.52-.31-1.01-.7-1.37-.81-.77-2.05-1.11-3.17-.86-4.05.89-4.03,7.94-5.87,10.76-.48.74-1.1,1.43-1.92,1.82-1.08.52-2.57.36-3.3-.56-.83-1.03-.46-2.55.3-3.63,1.1-1.58,6.08-5.74,3.4-7.72-.62-.45-1.41-.67-2.4-.64-.98.03-1.94.51-2.86,1.45-.62.64-1.22,1.47-1.82,2.48s-1.11,2.08-1.54,3.23c-.43,1.14-.74,2.3-.92,3.47-.18,1.17-.18,2.25,0,3.23.18.98.61,1.8,1.27,2.46.66.66,1.61,1.06,2.84,1.21.89.09,1.62.23,2.19.44.57.2,1.01.47,1.31.79.55.67.6,1.52.14,2.55-.52,1.23-1.04,2.31-1.55,3.25-.51.94-1.03,1.7-1.57,2.3-.54.6-1.11,1.01-1.71,1.23-.6.22-1.22.21-1.87-.02-.34-.12-.6-.35-.78-.7-.18-.35-.25-.75-.21-1.21.05-.45.2-.92.46-1.4.26-.48.65-.91,1.18-1.29.83-.59,1.26-1.24,1.29-1.97.03-.73-.17-1.37-.6-1.91-.43-.54-1.01-.91-1.75-1.12s-1.48-.09-2.21.35c-.71.44-1.31.98-1.8,1.62-.49.64-.86,1.35-1.11,2.13-.25.77-.35,1.56-.32,2.37.03.8.22,1.56.58,2.28.35.72.87,1.37,1.55,1.95.68.58,1.54,1.04,2.58,1.36,1.38.41,2.88.51,4.5.31,1.61-.2,3.13-.78,4.54-1.71,1.14-.73,2.01-1.57,2.63-2.5,2.82-4.3,3.86-9.11,5.18-13.85Z"/>
    </g>
  </g>
</svg>