<?xml version="1.0" encoding="UTF-8"?>
<svg id="Layer_2" data-name="Layer 2" xmlns="http://www.w3.org/2000/svg" viewBox="0 0 49.3 49.3">
  <defs>
    <style>
      .cls-1 {
        fill: #fff;
      }

      .cls-2 {
        fill: #4565af;
        fill-rule: evenodd;
      }
    </style>
  </defs>
  <g id="Layer_1-2" data-name="Layer 1">
    <g>
      <circle class="cls-1" cx="24.65" cy="24.65" r="24.65"/>
      <path class="cls-2" d="M38.81,23.75c0-7.6-6.16-13.76-13.76-13.76s-13.76,6.16-13.76,13.76c0,3.38,1.22,6.48,3.25,8.88-.39.64-1.07,1.39-2.04,2.26.99-.2,1.95-.66,2.87-1.37,2.1-1.56,3.37-3.85,3.81-6.87-3.4-1.36-5.57-4.1-6.51-8.23,1.78,2.6,5.3,4.31,10.55,5.13,1.07,2.02.86,6.68-1.73,8.58h0c2.83-1.53,4.06-4.33,3.7-8.38,5.54-2.04,9.15-4.73,10.85-8.09-.66,2.95-2.61,5.92-5.87,8.93-2.82,2.39-3.34,6.54-1.56,12.45,1.18-.32,2.29-.78,3.32-1.38l2.83,2.83c.61.61,1.62.61,2.23,0h0c.61-.61.61-1.62,0-2.23l-2.51-2.51c2.66-2.51,4.31-6.06,4.31-10M24.31,22.54c-1.88,0-3.4-1.52-3.4-3.4s1.52-3.4,3.4-3.4,3.4,1.52,3.4,3.4-1.52,3.4-3.4,3.4Z"/>
    </g>
  </g>
</svg>