<?xml version="1.0" encoding="UTF-8"?>
<svg id="Layer_2" xmlns="http://www.w3.org/2000/svg" viewBox="0 0 157.76 100.17">
  <defs>
    <style>
      .cls-1, .cls-2 {
        fill: #74cce5;
      }

      .cls-3 {
        font-size: 20.96px;
        letter-spacing: -.05em;
      }

      .cls-3, .cls-4 {
        fill: #231f20;
      }

      .cls-3, .cls-2 {
        font-family: Labora, Labora;
      }

      .cls-5 {
        fill: #fff;
      }

      .cls-2 {
        font-size: 45.6px;
        letter-spacing: -.05em;
      }

      .cls-6 {
        fill: #e45c26;
      }
    </style>
  </defs>
  <g id="Layer_1-2" data-name="Layer_1">
    <g>
      <circle class="cls-6" cx="83.2" cy="36.13" r="9.43"/>
      <g>
        <path class="cls-5" d="M77.08,42.3c0-.25.04-.5.09-.75.05-.25.12-.49.2-.73.08-.24.18-.48.28-.71.11-.23.22-.46.34-.69.06-.11.13-.22.19-.34.07-.11.14-.22.2-.33.14-.22.29-.43.44-.64l.12-.16.12-.16c.08-.1.16-.21.24-.31.16-.2.34-.4.51-.6.09-.1.18-.19.27-.29l.27-.28.28-.28c.1-.09.19-.18.29-.27.1-.09.19-.18.29-.26.1-.08.2-.17.3-.25.05-.04.09-.07.14-.11-.33-.18-.71-.36-.72-.4-.02-.07.22-.3.53-.35.31-.04,1.11.35,1.22.26.11-.09,1.97-2.18,1.97-2.26s-.69-.75-1.05-.98c-.36-.23-2.44-1.17-2.51-1.23-.06-.06.22-.28.46-.33.24-.05,2.93.84,3.01.83.09-.13.6-.68.67-.68s.43.36.42.42c0,.06-.33.37-.43.44,0,.07.92.24.99.17.07-.07.76-.83,1.24-1.3.38-.37.95-.47,1.07-.44-1.47-1.14-3.32-1.81-5.33-1.81-4.83,0-8.74,3.91-8.74,8.74,0,2.44,1,4.64,2.61,6.23,0-.05,0-.1,0-.16Z"/>
        <path class="cls-5" d="M88.56,29.32c.04.09-.05.7-.43,1.08-.47.48-1.23,1.18-1.3,1.25-.07.07.1.99.17.99.07-.1.38-.42.44-.43.06,0,.42.35.42.42s-.55.58-.67.67c-.02.07.87,2.77.82,3.01-.05.24-.27.53-.33.46-.06-.06-1-2.15-1.23-2.51-.23-.36-.9-1.06-.98-1.06-.08,0-2.17,1.86-2.26,1.97-.09.11.3.91.26,1.22-.04.31-.27.55-.35.53-.04-.01-.2-.35-.37-.66-.06.05-.11.09-.16.14-.19.16-.38.33-.57.5-.09.09-.18.17-.28.26l-.27.26-.27.27c-.09.09-.17.18-.26.27-.17.19-.34.37-.5.57-.08.1-.16.19-.24.29l-.12.15-.11.15c-.15.2-.3.4-.44.6-.28.41-.53.83-.75,1.26-.11.21-.21.43-.3.65-.09.22-.16.44-.22.66-.06.22-.1.44-.12.66-.01.13-.01.26,0,.39.32.23.65.43,1,.61.12.06.24.12.36.18.32.15.64.28.98.38.11.03.22.07.33.1.75.21,1.55.33,2.37.33,4.83,0,8.74-3.91,8.74-8.74,0-2.81-1.32-5.31-3.38-6.9Z"/>
      </g>
      <g>
        <path class="cls-1" d="M13.69,5.15h31.02v7.42H13.69c-1.75,0-3.3.74-4.38,1.82-.88.88-1.48,1.96-1.75,3.17-.07.4-.07.81-.07,1.21v6.27h32.3v7.42H13.69c-3.44,0-6.2,2.76-6.2,6.2v13.69H0V18.77c0-3.78,1.55-7.15,3.98-9.64,2.5-2.49,5.93-3.98,9.71-3.98Z"/>
        <path class="cls-1" d="M57.12,52.29c-3.24-.27-6.2-1.75-8.43-3.91-2.43-2.5-3.98-5.93-3.98-9.71V5.15h7.48v33.51c0,.47,0,.88.07,1.28.27,1.21.88,2.29,1.75,3.1.81.88,1.89,1.48,3.1,1.75v7.48Z"/>
        <path class="cls-1" d="M67.03,13.11c0,2.76-2.23,4.99-4.92,4.99s-4.99-2.23-4.99-4.99,2.23-4.92,4.99-4.92,4.92,2.23,4.92,4.92ZM62.11,20.06h3.71v28.59c0,2.02-1.69,3.71-3.71,3.71h-3.78v-28.59c0-2.02,1.69-3.71,3.78-3.71Z"/>
        <path class="cls-1" d="M99.33,34.96v16.18c0,.4,0,.81-.07,1.21v.4c0,.2-.07.4-.07.61,0,.07,0,.13-.07.2v.2l-.07.2v.2c-.07.34-.14.67-.2.94-.07.07-.07.14-.07.2v.07c-.07.07-.07.2-.13.27,0,.2-.07.4-.14.61-.07.13-.14.27-.14.4-.07.13-.14.27-.14.34-.07.07-.07.13-.13.2-.07.27-.2.54-.34.81,0,.07-.07.14-.07.14-.14.27-.27.54-.41.81-.07.07-.07.14-.13.2-.07.13-.2.34-.27.47-.07.07-.07.13-.14.2-.07.13-.2.34-.27.47-.07.07-.14.07-.14.13-.2.27-.34.47-.54.74-.07,0-.07.07-.13.14,0,.07-.07.07-.14.13-.14.2-.27.34-.4.54-.07,0-.07.07-.14.07-.07.14-.2.27-.27.34-.07.07-.14.14-.14.14-.27.27-.54.54-.88.81l-.07.07c-.07.07-.14.13-.2.13-.07.07-.14.14-.14.14-.07.07-.14.13-.2.13-.14.14-.2.2-.34.27-.07.07-.13.14-.2.14q-.07.07-.14.13c-.2.13-.4.27-.54.34-.07.07-.14.13-.2.13q-.07.07-.14.07c-.14.13-.27.2-.4.27-.07.07-.14.07-.2.13h-.07c-.07.07-.14.07-.2.13-.2.07-.34.14-.47.2q-.07.07-.14.07c-.14.07-.34.14-.47.2-.07.07-.13.07-.2.07-.07.07-.2.14-.34.2-.07,0-.14,0-.2.07-.13,0-.2.07-.27.07-.2.07-.4.13-.61.2-.07.07-.14.07-.2.07-.2.07-.4.13-.54.2h-.2c-.07,0-.07.07-.14.07h-.2l-.07.07h-.27c-.2.07-.34.07-.54.14-.13,0-.2,0-.27.07h-.34c-.07,0-.2.07-.27.07h-.54c-.07.07-.2.07-.27.07h-.94c-4.52,0-8.5-1.82-11.46-4.72-.07-.07-.14-.14-.2-.27-.07-.07-.14-.14-.2-.2h-.07c0-.07-.07-.07-.07-.13,0,0-.07,0-.07-.07l5.93-4.52h.07c0,.07.07.07.14.14,0,.07.07.07.13.13q.07.07.14.13c.07.07.14.07.14.14h.07c0,.07.07.07.14.13,0,0,.07.07.14.07,0,0,0,.07.07.07l.07.07c.14.07.2.13.27.2q.07,0,.13.07c.14.07.2.14.34.2.14.07.27.13.4.2.07.07.2.13.34.13.07.07.14.07.2.14.07,0,.14,0,.14.07.07,0,.2.07.27.07s.14.07.2.07c.13.07.27.07.34.13h.07c.07,0,.13,0,.2.07h.2c.07.07.14.07.2.07s.14,0,.2.07h.34c.07.07.13.07.13.07h.61c.07,0,.13,0,.2.07h.47c.07-.07.14-.07.2-.07h.61s.07,0,.13-.07h.34c.07-.07.2-.07.27-.07,0,0,.07,0,.13-.07h.07c.13,0,.27-.07.4-.07.14-.07.27-.13.4-.13.07,0,.14-.07.14-.07q.07,0,.13-.07t.14-.07h.2v-.07q.07,0,.14-.07h.07c.07,0,.07-.07.14-.07h.07q.07-.07.14-.13c.07,0,.14-.07.2-.07.14-.07.27-.13.34-.2s.14-.07.2-.13c.07,0,.14-.07.2-.07,0-.07.07-.07.14-.13.07,0,.07-.07.14-.07,0-.07.07-.07.07-.14.07,0,.14-.07.14-.07.07-.07.13-.07.2-.14,0,0,.07-.07.13-.13.2-.2.47-.4.67-.61.07-.07.07-.13.14-.2.07-.07.13-.13.2-.2v-.07c.07,0,.07-.07.14-.07q0-.07.07-.14c0-.07.07-.07.14-.13.07-.07.07-.14.13-.2v-.07c.07-.07.07-.14.14-.2.07-.07.14-.14.14-.2.07-.07.13-.14.13-.27.07,0,.07-.07.07-.07.07-.14.07-.2.14-.27l.07-.07q0-.07.07-.13v-.14c.07-.07.07-.13.14-.2v-.07q.07-.07.07-.14c0-.07.07-.2.07-.27.07-.07.07-.13.07-.2.07-.07.07-.13.07-.2.14-.4.2-.81.27-1.21s.14-.81.14-1.21v-1.35c-2.56,1.62-5.53,2.56-8.7,2.56-4.52,0-8.5-1.82-11.46-4.72-1.15-1.15-2.16-2.5-2.9-3.98-1.15-2.22-1.82-4.79-1.82-7.48,0-4.45,1.82-8.5,4.72-11.4,2.97-2.9,6.95-4.72,11.46-4.72,3.17,0,6.14.94,8.7,2.56,4.11,2.63,7.01,7.15,7.35,12.34h.07ZM91.91,36.17c0-2.36-1.01-4.52-2.56-6.14-1.62-1.55-3.78-2.56-6.14-2.56s-4.58,1.01-6.2,2.56c-1.55,1.62-2.49,3.78-2.49,6.14v.94c0,.07,0,.13.07.2v.34c0,.07.07.07.07.14,0,.13,0,.2.07.34v.2c.07,0,.07.07.07.13s0,.13.07.13v.2c.07.07.07.13.07.2.07.07.07.13.14.2,0,.07,0,.13.07.2,0,.07,0,.13.07.2.07.14.07.27.14.4.07,0,.07.07.14.14,0,.07,0,.13.07.13v.07c.07.13.14.27.2.4.07,0,.07.07.14.14,0,.07.07.13.14.2,0,0,.07.07.07.13.14.14.2.27.34.4.07.07.07.13.14.13,0,.07.07.14.07.14.14.13.27.27.34.4.07.07.14.13.2.2s.14.07.2.14c.07.07.14.13.2.2.07.07.2.13.27.2.07,0,.07.07.13.13q.07,0,.14.07s.07.07.14.07c0,0,0,.07.07.07.07.07.14.07.14.14h.07c.07.07.14.07.2.13.07.07.2.14.27.14q.07.07.13.07c.2.14.4.2.61.34.07,0,.13,0,.13.07.07,0,.2.07.27.07.07.07.13.07.13.07.14.07.34.14.47.14q.07,0,.07.07h.27c0,.07.07.07.13.07h.07c.07,0,.14.07.2.07h.2c.07.07.14.07.14.07.2,0,.34.07.54.07h1.69c.2,0,.34-.07.54-.07q.07,0,.14-.07h.27s.07-.07.13-.07h.07c.07,0,.13,0,.2-.07h.2c0-.07.07-.07.07-.07.14,0,.34-.07.47-.14q.07,0,.13-.07c.07,0,.2-.07.27-.07,0-.07.07-.07.14-.07.2-.13.4-.2.61-.34q.07,0,.14-.07c.07,0,.2-.07.27-.14.07-.07.14-.07.2-.13h.07q.07-.07.14-.14.07,0,.07-.07c.07,0,.14-.07.14-.07.07,0,.07-.07.07-.07.07,0,.07-.07.13-.07l.07-.07h.07c.07-.07.07-.14.14-.14.07-.07.13-.13.2-.2.07-.07.14-.07.14-.13.07-.07.2-.14.27-.2,0-.07.07-.14.14-.14,0-.07.07-.07.07-.13q.07-.07.14-.14l.07-.07q.07-.07.14-.14v-.07c.14-.07.2-.2.27-.27.07-.07.07-.14.14-.2,0-.07.07-.13.14-.13l.2-.4c0-.07.07-.07.07-.14.07-.07.07-.13.14-.2.07-.13.14-.27.2-.4l.07-.2q.07-.07.07-.14l.07-.07v-.13l.07-.07v-.07l.2-.61q.07-.07.07-.13v-.14h.07v-.2l.14-.47v-.27c.07-.4.14-.81.14-1.28Z"/>
        <path class="cls-1" d="M131.63,36.17v16.18h-7.42v-16.18c0-4.79-3.91-8.7-8.7-8.7-2.43,0-4.58,1.01-6.2,2.56-1.55,1.62-2.49,3.78-2.49,6.14v16.18h-7.48V5.15h7.48v17.46c2.49-1.62,5.46-2.56,8.7-2.56s6.14.94,8.7,2.56c.94.61,1.89,1.35,2.7,2.16,2.83,2.83,4.58,6.74,4.72,10.99v.4Z"/>
        <path class="cls-1" d="M140.01,35.41v3.71c0,.47,0,.88.07,1.28.27,1.21.88,2.29,1.75,3.1.81.88,1.89,1.48,3.1,1.75v7.48c-3.24-.27-6.2-1.75-8.43-3.91-2.43-2.5-3.98-5.93-3.98-9.71V5.6h3.71c2.09,0,3.78,1.69,3.78,3.71v11.19h4.92v7.42h-4.92v7.48Z"/>
        <path class="cls-4" d="M70.51,88.86h26.51v6.4h-26.51c-3.23,0-6.17-1.33-8.3-3.4-2.08-2.13-3.4-5.07-3.4-8.3v-28.65h6.4v28.65c0,.4,0,.75.06,1.1.23,1.04.75,1.96,1.5,2.65.92.98,2.25,1.56,3.75,1.56Z"/>
        <path class="cls-6" d="M106.91,57.45v31.09c0,4.02-3.25,7.2-7.2,7.2v-35.83c0-1.36-1.1-2.47-2.47-2.47,0-3.96,3.25-7.14,7.2-7.14h2.47v7.14Z"/>
        <path class="cls-4" d="M132.11,64.32v-.19c0-.07-.06-.13-.06-.19-.58-3.38-3.5-6.23-6.95-6.68-.06,0-.13,0-.13-.07h-.65q-.07,0-.07-.06h-.84q0,.06-.07.06h-.65c0,.07-.07.07-.13.07h-.19c-.07.06-.13.06-.19.06h-.2c0,.07-.07.07-.07.07-.13,0-.26.07-.39.07-.13.06-.26.06-.39.13-2.92.97-5.19,3.7-5.58,6.75,0,.13-.07.26-.07.39v6.75h14.34v7.2h-14.34v13.18c0,1.95-1.62,3.57-3.63,3.57h-3.57v-31.09h.07c.58-8.05,7.27-14.34,15.51-14.34,1.36,0,2.73.19,4.02.52,3.25.84,6.1,3.38,8.11,6.3,2.21,3.18,0,7.53-3.89,7.53Z"/>
        <path class="cls-4" d="M148.09,86.37c3.18,2.4,2.34,7.46-1.43,8.7-1.56.52-3.05.84-4.41.84-4.35,0-8.18-1.75-11.03-4.54-2.79-2.86-4.54-6.68-4.54-11.03,0-8.5,7.01-15.51,15.51-15.51,4.35,0,8.24,1.75,11.03,4.54,2.79,2.79,4.54,6.68,4.54,10.97v.06c0,1.3-1.1,2.34-2.4,2.34h-21.16c.39,1.36,1.1,2.6,2.08,3.57,1.56,1.49,3.63,2.4,5.97,2.4s4.28-.91,5.84-2.34ZM134.2,78h16.03c-.39-1.36-1.1-2.6-2.08-3.57-1.56-1.49-3.63-2.47-5.91-2.47s-4.41.97-5.97,2.47c-.97.97-1.69,2.21-2.08,3.57Z"/>
        <text class="cls-2" transform="translate(1.93 90.09)"><tspan x="0" y="0">Of</tspan></text>
        <text class="cls-3" transform="translate(63.64 17.81)"><tspan x="0" y="0">The</tspan></text>
      </g>
    </g>
  </g>
</svg>