<?xml version="1.0" encoding="UTF-8"?>
<svg id="Layer_2" xmlns="http://www.w3.org/2000/svg" xmlns:xlink="http://www.w3.org/1999/xlink" viewBox="0 0 105.15 60.33">
  <defs>
    <style>
      .cls-1 {
        stroke: url(#Red_Radial-2);
      }

      .cls-1, .cls-2, .cls-3, .cls-4, .cls-5, .cls-6, .cls-7, .cls-8 {
        stroke-miterlimit: 10;
      }

      .cls-1, .cls-2, .cls-3, .cls-4, .cls-5, .cls-6, .cls-8 {
        fill: none;
      }

      .cls-1, .cls-5, .cls-6, .cls-8 {
        stroke-width: .79px;
      }

      .cls-2 {
        stroke: url(#Red_Radial);
        stroke-width: .68px;
      }

      .cls-3 {
        stroke-width: 1.48px;
      }

      .cls-3, .cls-4 {
        stroke: #27aae1;
      }

      .cls-9, .cls-7 {
        fill: #fff;
      }

      .cls-4 {
        stroke-width: 1.26px;
      }

      .cls-5 {
        stroke: url(#Red_Radial-5);
      }

      .cls-6 {
        stroke: url(#Red_Radial-4);
      }

      .cls-10 {
        fill: #ee9cb0;
      }

      .cls-7 {
        fill-rule: evenodd;
        stroke: url(#Red);
        stroke-width: .41px;
      }

      .cls-8 {
        stroke: url(#Red_Radial-3);
      }
    </style>
    <radialGradient id="Red_Radial" data-name="Red Radial" cx="55.79" cy="42.16" fx="55.79" fy="42.16" r="37.91" gradientTransform="translate(-2.53 2.11) rotate(.96)" gradientUnits="userSpaceOnUse">
      <stop offset="0" stop-color="#fce6f0"/>
      <stop offset=".45" stop-color="#f9c9de"/>
      <stop offset="1" stop-color="#f7b2d0"/>
    </radialGradient>
    <radialGradient id="Red_Radial-2" data-name="Red Radial" cx="46.51" cy="16.45" fx="46.51" fy="16.45" r="24.53" xlink:href="#Red_Radial"/>
    <radialGradient id="Red_Radial-3" data-name="Red Radial" cx="46.51" cy="16.45" fx="46.51" fy="16.45" r="24.53" xlink:href="#Red_Radial"/>
    <radialGradient id="Red_Radial-4" data-name="Red Radial" cx="46.51" cy="16.45" fx="46.51" fy="16.45" r="24.53" xlink:href="#Red_Radial"/>
    <radialGradient id="Red_Radial-5" data-name="Red Radial" cx="48.61" cy="22.53" fx="48.61" fy="22.53" r="21.26" xlink:href="#Red_Radial"/>
    <linearGradient id="Red" x1="66.36" y1="7.56" x2="80.83" y2="7.56" gradientUnits="userSpaceOnUse">
      <stop offset="0" stop-color="#fce6f0"/>
      <stop offset=".45" stop-color="#f9c9de"/>
      <stop offset="1" stop-color="#f7b2d0"/>
    </linearGradient>
  </defs>
  <g id="Layer_1-2" data-name="Layer_1">
    <g>
      <g>
        <g>
          <path class="cls-10" d="M2.85,56.28c-.55-.75-.64-1.47-.27-2.13.37-.67.9-1.08,1.57-1.24.68-.17,1.2.1,1.56.77.43.85,1,1.27,1.72,1.29.72.02,1.33-.22,1.85-.7.52-.48.67-1.05.47-1.71-.18-.44-.56-.82-1.15-1.14-.59-.32-1.28-.64-2.09-.96-1.14-.43-2.24-.99-3.32-1.7-1.07-.71-1.83-1.73-2.27-3.04-.57-2.25-.33-4.22.72-5.8,1.05-1.58,2.5-2.64,4.32-3.22,1.83-.57,3.61-.55,5.35,0,1.74.55,3,1.74,3.79,3.54.31.93.17,1.61-.42,2.05-.59.45-1.26.66-1.99.64-.74-.02-1.17-.29-1.3-.81-.31-1.73-.93-2.73-1.87-3.01-.93-.27-1.81-.05-2.64.69-.83.74-1.22,1.74-1.19,2.98.12,1.1.59,1.96,1.41,2.57.82.61,1.76,1.14,2.82,1.58,1.27.51,2.37,1.14,3.29,1.91.93.76,1.3,1.91,1.12,3.45-.3,1.56-1.19,2.8-2.66,3.76-1.48.96-3.07,1.52-4.78,1.64-1.71.12-3.06-.33-4.06-1.41Z"/>
          <path class="cls-10" d="M24.11,50.93c.62-.16,1.12-.83,1.51-1.99.39-1.16.66-2.38.83-3.67.17-1.29.25-2.2.25-2.75.08-.96.56-1.59,1.43-1.91.87-.31,1.75-.31,2.62,0,.88.31,1.36.92,1.46,1.82.01.02.02.05.02.09,0,.37.04,1.11.11,2.22.07,1.11.19,2.26.37,3.43.18,1.18.44,2.05.78,2.63.34.58.78.53,1.34-.13.65-.77,1.3-2.1,1.94-3.99.64-1.89.98-4.49,1-7.8.06-.69.44-1.11,1.14-1.27.7-.15,1.38-.08,2.05.23.66.3.97.79.91,1.46-.15.94-.4,2.05-.75,3.35-.35,1.3-.79,2.64-1.32,4.02-.53,1.39-1.15,2.69-1.85,3.91-.7,1.22-1.49,2.23-2.37,3.05-.88.81-1.85,1.26-2.9,1.34-.69.05-1.35-.17-1.97-.67-.62-.5-1.15-1.32-1.58-2.46-.43-1.14-.74-2.63-.93-4.46-.58,2.47-1.26,4.45-2.05,5.92-.79,1.48-1.65,2.33-2.57,2.53-1.35.22-2.52-.21-3.51-1.31-.99-1.1-1.79-2.6-2.39-4.48-.6-1.88-1.01-3.86-1.23-5.9-.22-2.04-.23-3.84-.03-5.36.18-.9.73-1.46,1.65-1.68.92-.22,1.8-.15,2.64.19.84.34,1.23.91,1.18,1.71-.32,2.05-.39,4.01-.21,5.85.17,1.84.49,3.32.94,4.44.45,1.13.96,1.66,1.51,1.63Z"/>
          <path class="cls-10" d="M49.2,50.42c1.01.62,2.03.81,3.07.58,1.04-.23,1.7-.8,1.98-1.71.17-.58.56-.92,1.16-1.03.6-.11,1.15-.04,1.66.2.51.24.73.6.66,1.05-.32,1.1-1.07,1.94-2.26,2.52-1.19.58-2.53.91-4.02,1-2.34.08-4.25-.36-5.72-1.36-1.47-1-2.48-2.31-3.05-3.94-.56-1.63-.64-3.29-.23-4.99.41-1.7,1.31-3.15,2.72-4.36,1.41-1.2,3.34-1.89,5.8-2.05,2.21-.07,3.95.32,5.23,1.14,1.27.82,2.07,1.85,2.38,3.08.31,1.23.12,2.42-.59,3.56-.7,1.14-1.94,2-3.69,2.58-1.75.59-4.05.67-6.87.29.17,1.68.75,2.82,1.76,3.44ZM54.27,39.68c-.32-.69-.86-1.12-1.62-1.3-1.24-.22-2.29,0-3.15.65-.86.66-1.44,1.48-1.75,2.48-.31,1-.25,1.89.17,2.67.51.82,1.21,1.25,2.12,1.31.9.06,1.77-.2,2.62-.78.84-.58,1.43-1.45,1.76-2.62.22-.92.18-1.73-.15-2.42ZM66.97,50.32c1.01.58,2.02.79,3.02.61,1-.18,1.63-.64,1.87-1.39.22-.71.64-1.11,1.26-1.2.63-.09,1.19.02,1.69.34.5.33.68.76.54,1.28-.4.98-1.16,1.71-2.28,2.21-1.12.5-2.47.72-4.05.69-2.12-.08-3.87-.52-5.25-1.35-1.38-.83-2.39-1.86-3.03-3.12-.64-1.26-.9-2.56-.78-3.93.11-1.37.6-2.62,1.46-3.78,1.05-1.29,2.41-2.19,4.07-2.7,1.66-.51,3.33-.65,4.98-.39,1.66.25,3.01.88,4.05,1.88,1.04,1,1.46,2.36,1.26,4.05-.16,1.05-.71,1.98-1.64,2.77-.93.79-2.17,1.28-3.72,1.49-1.55.21-3.34-.03-5.35-.68.25,1.57.88,2.64,1.9,3.22ZM71.61,40.46c-.52-.58-1.21-.89-2.06-.93-.86-.04-1.68.18-2.47.66-.79.47-1.34,1.18-1.65,2.11-.28,1.04-.16,1.86.35,2.49.52.62,1.22,1,2.1,1.13.88.13,1.72-.02,2.52-.47.8-.45,1.35-1.24,1.64-2.38.24-1.15.1-2.02-.42-2.6Z"/>
          <path class="cls-10" d="M87.47,51.06c.1-.58.46-.89,1.11-.93.64-.04,1.26.12,1.86.49.59.37.87.86.83,1.47-.29,1.58-.99,2.75-2.12,3.51-1.13.76-2.44,1.06-3.93.95-1.49-.11-2.92-.68-4.27-1.68-1.36-1-2.4-2.48-3.14-4.46-.69-2.28-1.05-5.03-1.1-8.28-.05-3.26.03-6.04.24-8.35.13-.8.66-1.26,1.6-1.37.94-.11,1.85.01,2.73.39.88.38,1.32.92,1.31,1.61-.05.34-.11.74-.19,1.21-.14.84-.28,1.8-.4,2.86-.12,1.06-.17,2.09-.12,3.08,1.92.09,3.85.19,5.77.29.61.08,1.02.38,1.22.88.2.5.19.99,0,1.46-.2.47-.61.67-1.23.61-.44-.07-.86-.14-1.27-.21-.87-.18-1.64-.26-2.29-.25-.65.01-1.16.27-1.51.76-.36.49-.55,1.36-.56,2.63.07,2.46.52,4.17,1.35,5.16.83.99,1.68,1.33,2.54.99.87-.34,1.4-1.27,1.6-2.82Z"/>
          <path class="cls-10" d="M92.17,55.85c-.56-.88-.65-1.56-.28-2.06.37-.5.9-.72,1.57-.67.68.05,1.2.46,1.57,1.23.44.96,1.02,1.58,1.73,1.85.72.27,1.33.26,1.85-.04.51-.31.67-.84.46-1.59-.18-.51-.57-1.02-1.16-1.53-.59-.51-1.29-1.03-2.1-1.57-1.14-.74-2.25-1.58-3.34-2.5-1.08-.92-1.85-2.01-2.3-3.27-.58-2.13-.35-3.81.7-5.13,1.05-1.31,2.49-2.19,4.31-2.61,1.82-.42,3.61-.3,5.35.42,1.74.72,3.01,2.14,3.8,4.27.32,1.08.18,1.83-.41,2.22-.59.39-1.25.49-1.98.33-.73-.16-1.17-.52-1.31-1.09-.32-1.88-.95-3.01-1.89-3.4-.94-.39-1.81-.25-2.63.38-.82.63-1.21,1.54-1.17,2.73.13,1.08.61,2,1.43,2.78.82.77,1.76,1.51,2.83,2.23,1.27.83,2.37,1.79,3.3,2.88.93,1.09,1.3,2.49,1.13,4.13-.29,1.63-1.16,2.65-2.63,3.09-1.47.43-3.05.34-4.76-.21-1.71-.55-3.08-1.51-4.09-2.86Z"/>
        </g>
        <g>
          <path class="cls-4" d="M2.85,56.78c-.55-.75-.64-1.47-.27-2.13.37-.67.9-1.08,1.57-1.24.68-.17,1.2.1,1.56.77.43.85,1,1.27,1.72,1.29.72.02,1.33-.22,1.85-.7.52-.48.67-1.05.47-1.71-.18-.44-.56-.82-1.15-1.14-.59-.32-1.28-.64-2.09-.96-1.14-.43-2.24-.99-3.32-1.7-1.07-.71-1.83-1.73-2.27-3.04-.57-2.25-.33-4.22.72-5.8,1.05-1.58,2.5-2.64,4.32-3.22,1.83-.57,3.61-.55,5.35,0,1.74.55,3,1.74,3.79,3.54.31.93.17,1.61-.42,2.05-.59.45-1.26.66-1.99.64-.74-.02-1.17-.29-1.3-.81-.31-1.73-.93-2.73-1.87-3.01-.93-.27-1.81-.05-2.64.69-.83.74-1.22,1.74-1.19,2.98.12,1.1.59,1.96,1.41,2.57.82.61,1.76,1.14,2.82,1.58,1.27.51,2.37,1.14,3.29,1.91.93.76,1.3,1.91,1.12,3.45-.3,1.56-1.19,2.8-2.66,3.76-1.48.96-3.07,1.52-4.78,1.64-1.71.12-3.06-.33-4.06-1.41Z"/>
          <path class="cls-4" d="M24.11,51.43c.62-.16,1.12-.83,1.51-1.99.39-1.16.66-2.38.83-3.67.17-1.29.25-2.2.25-2.75.08-.96.56-1.59,1.43-1.91.87-.31,1.75-.31,2.62,0,.88.31,1.36.92,1.46,1.82.01.02.02.05.02.09,0,.37.04,1.11.11,2.22.07,1.11.19,2.26.37,3.43.18,1.18.44,2.05.78,2.63.34.58.78.53,1.34-.13.65-.77,1.3-2.1,1.94-3.99.64-1.89.98-4.49,1-7.8.06-.69.44-1.11,1.14-1.27.7-.15,1.38-.08,2.05.23.66.3.97.79.91,1.46-.15.94-.4,2.05-.75,3.35-.35,1.3-.79,2.64-1.32,4.02-.53,1.39-1.15,2.69-1.85,3.91-.7,1.22-1.49,2.23-2.37,3.05-.88.81-1.85,1.26-2.9,1.34-.69.05-1.35-.17-1.97-.67-.62-.5-1.15-1.32-1.58-2.46-.43-1.14-.74-2.63-.93-4.46-.58,2.47-1.26,4.45-2.05,5.92-.79,1.48-1.65,2.33-2.57,2.53-1.35.22-2.52-.21-3.51-1.31-.99-1.1-1.79-2.6-2.39-4.48-.6-1.88-1.01-3.86-1.23-5.9-.22-2.04-.23-3.84-.03-5.36.18-.9.73-1.46,1.65-1.68.92-.22,1.8-.15,2.64.19.84.34,1.23.91,1.18,1.71-.32,2.05-.39,4.01-.21,5.85.17,1.84.49,3.32.94,4.44.45,1.13.96,1.66,1.51,1.63Z"/>
          <path class="cls-4" d="M49.2,50.92c1.01.62,2.03.81,3.07.58,1.04-.23,1.7-.8,1.98-1.71.17-.58.56-.92,1.16-1.03.6-.11,1.15-.04,1.66.2.51.24.73.6.66,1.05-.32,1.1-1.07,1.94-2.26,2.52-1.19.58-2.53.91-4.02,1-2.34.08-4.25-.36-5.72-1.36-1.47-1-2.48-2.31-3.05-3.94-.56-1.63-.64-3.29-.23-4.99.41-1.7,1.31-3.15,2.72-4.36,1.41-1.2,3.34-1.89,5.8-2.05,2.21-.07,3.95.32,5.23,1.14,1.27.82,2.07,1.85,2.38,3.08.31,1.23.12,2.42-.59,3.56-.7,1.14-1.94,2-3.69,2.58-1.75.59-4.05.67-6.87.29.17,1.68.75,2.82,1.76,3.44ZM54.27,40.18c-.32-.69-.86-1.12-1.62-1.3-1.24-.22-2.29,0-3.15.65-.86.66-1.44,1.48-1.75,2.48-.31,1-.25,1.89.17,2.67.51.82,1.21,1.25,2.12,1.31.9.06,1.77-.2,2.62-.78.84-.58,1.43-1.45,1.76-2.62.22-.92.18-1.73-.15-2.42ZM66.97,50.82c1.01.58,2.02.79,3.02.61,1-.18,1.63-.64,1.87-1.39.22-.71.64-1.11,1.26-1.2.63-.09,1.19.02,1.69.34.5.33.68.76.54,1.28-.4.98-1.16,1.71-2.28,2.21-1.12.5-2.47.72-4.05.69-2.12-.08-3.87-.52-5.25-1.35-1.38-.83-2.39-1.86-3.03-3.12-.64-1.26-.9-2.56-.78-3.93.11-1.37.6-2.62,1.46-3.78,1.05-1.29,2.41-2.19,4.07-2.7,1.66-.51,3.33-.65,4.98-.39,1.66.25,3.01.88,4.05,1.88,1.04,1,1.46,2.36,1.26,4.05-.16,1.05-.71,1.98-1.64,2.77-.93.79-2.17,1.28-3.72,1.49-1.55.21-3.34-.03-5.35-.68.25,1.57.88,2.64,1.9,3.22ZM71.61,40.97c-.52-.58-1.21-.89-2.06-.93-.86-.04-1.68.18-2.47.66-.79.47-1.34,1.18-1.65,2.11-.28,1.04-.16,1.86.35,2.49.52.62,1.22,1,2.1,1.13.88.13,1.72-.02,2.52-.47.8-.45,1.35-1.24,1.64-2.38.24-1.15.1-2.02-.42-2.6Z"/>
          <path class="cls-4" d="M87.47,51.56c.1-.58.46-.89,1.11-.93.64-.04,1.26.12,1.86.49.59.37.87.86.83,1.47-.29,1.58-.99,2.75-2.12,3.51-1.13.76-2.44,1.06-3.93.95-1.49-.11-2.92-.68-4.27-1.68-1.36-1-2.4-2.48-3.14-4.46-.69-2.28-1.05-5.03-1.1-8.28-.05-3.26.03-6.04.24-8.35.13-.8.66-1.26,1.6-1.37.94-.11,1.85.01,2.73.39.88.38,1.32.92,1.31,1.61-.05.34-.11.74-.19,1.21-.14.84-.28,1.8-.4,2.86-.12,1.06-.17,2.09-.12,3.08,1.92.09,3.85.19,5.77.29.61.08,1.02.38,1.22.88.2.5.19.99,0,1.46-.2.47-.61.67-1.23.61-.44-.07-.86-.14-1.27-.21-.87-.18-1.64-.26-2.29-.25-.65.01-1.16.27-1.51.76-.36.49-.55,1.36-.56,2.63.07,2.46.52,4.17,1.35,5.16.83.99,1.68,1.33,2.54.99.87-.34,1.4-1.27,1.6-2.82Z"/>
          <path class="cls-4" d="M92.17,56.35c-.56-.88-.65-1.56-.28-2.06.37-.5.9-.72,1.57-.67.68.05,1.2.46,1.57,1.23.44.96,1.02,1.58,1.73,1.85.72.27,1.33.26,1.85-.04.51-.31.67-.84.46-1.59-.18-.51-.57-1.02-1.16-1.53-.59-.51-1.29-1.03-2.1-1.57-1.14-.74-2.25-1.58-3.34-2.5-1.08-.92-1.85-2.01-2.3-3.27-.58-2.13-.35-3.81.7-5.13,1.05-1.31,2.49-2.19,4.31-2.61,1.82-.42,3.61-.3,5.35.42,1.74.72,3.01,2.14,3.8,4.27.32,1.08.18,1.83-.41,2.22-.59.39-1.25.49-1.98.33-.73-.16-1.17-.52-1.31-1.09-.32-1.88-.95-3.01-1.89-3.4-.94-.39-1.81-.25-2.63.38-.82.63-1.21,1.54-1.17,2.73.13,1.08.61,2,1.43,2.78.82.77,1.76,1.51,2.83,2.23,1.27.83,2.37,1.79,3.3,2.88.93,1.09,1.3,2.49,1.13,4.13-.29,1.63-1.16,2.65-2.63,3.09-1.47.43-3.05.34-4.76-.21-1.71-.55-3.08-1.51-4.09-2.86Z"/>
        </g>
        <g>
          <path class="cls-9" d="M2.85,56.28c-.55-.75-.64-1.47-.27-2.13.37-.67.9-1.08,1.57-1.24.68-.17,1.2.1,1.56.77.43.85,1,1.27,1.72,1.29.72.02,1.33-.22,1.85-.7.52-.48.67-1.05.47-1.71-.18-.44-.56-.82-1.15-1.14-.59-.32-1.28-.64-2.09-.96-1.14-.43-2.24-.99-3.32-1.7-1.07-.71-1.83-1.73-2.27-3.04-.57-2.25-.33-4.22.72-5.8,1.05-1.58,2.5-2.64,4.32-3.22,1.83-.57,3.61-.55,5.35,0,1.74.55,3,1.74,3.79,3.54.31.93.17,1.61-.42,2.05-.59.45-1.26.66-1.99.64-.74-.02-1.17-.29-1.3-.81-.31-1.73-.93-2.73-1.87-3.01-.93-.27-1.81-.05-2.64.69-.83.74-1.22,1.74-1.19,2.98.12,1.1.59,1.96,1.41,2.57.82.61,1.76,1.14,2.82,1.58,1.27.51,2.37,1.14,3.29,1.91.93.76,1.3,1.91,1.12,3.45-.3,1.56-1.19,2.8-2.66,3.76-1.48.96-3.07,1.52-4.78,1.64-1.71.12-3.06-.33-4.06-1.41Z"/>
          <path class="cls-9" d="M24.11,50.93c.62-.16,1.12-.83,1.51-1.99.39-1.16.66-2.38.83-3.67.17-1.29.25-2.2.25-2.75.08-.96.56-1.59,1.43-1.91.87-.31,1.75-.31,2.62,0,.88.31,1.36.92,1.46,1.82.01.02.02.05.02.09,0,.37.04,1.11.11,2.22.07,1.11.19,2.26.37,3.43.18,1.18.44,2.05.78,2.63.34.58.78.53,1.34-.13.65-.77,1.3-2.1,1.94-3.99.64-1.89.98-4.49,1-7.8.06-.69.44-1.11,1.14-1.27.7-.15,1.38-.08,2.05.23.66.3.97.79.91,1.46-.15.94-.4,2.05-.75,3.35-.35,1.3-.79,2.64-1.32,4.02-.53,1.39-1.15,2.69-1.85,3.91-.7,1.22-1.49,2.23-2.37,3.05-.88.81-1.85,1.26-2.9,1.34-.69.05-1.35-.17-1.97-.67-.62-.5-1.15-1.32-1.58-2.46-.43-1.14-.74-2.63-.93-4.46-.58,2.47-1.26,4.45-2.05,5.92-.79,1.48-1.65,2.33-2.57,2.53-1.35.22-2.52-.21-3.51-1.31-.99-1.1-1.79-2.6-2.39-4.48-.6-1.88-1.01-3.86-1.23-5.9-.22-2.04-.23-3.84-.03-5.36.18-.9.73-1.46,1.65-1.68.92-.22,1.8-.15,2.64.19.84.34,1.23.91,1.18,1.71-.32,2.05-.39,4.01-.21,5.85.17,1.84.49,3.32.94,4.44.45,1.13.96,1.66,1.51,1.63Z"/>
          <path class="cls-9" d="M49.2,50.42c1.01.62,2.03.81,3.07.58,1.04-.23,1.7-.8,1.98-1.71.17-.58.56-.92,1.16-1.03.6-.11,1.15-.04,1.66.2.51.24.73.6.66,1.05-.32,1.1-1.07,1.94-2.26,2.52-1.19.58-2.53.91-4.02,1-2.34.08-4.25-.36-5.72-1.36-1.47-1-2.48-2.31-3.05-3.94-.56-1.63-.64-3.29-.23-4.99.41-1.7,1.31-3.15,2.72-4.36,1.41-1.2,3.34-1.89,5.8-2.05,2.21-.07,3.95.32,5.23,1.14,1.27.82,2.07,1.85,2.38,3.08.31,1.23.12,2.42-.59,3.56-.7,1.14-1.94,2-3.69,2.58-1.75.59-4.05.67-6.87.29.17,1.68.75,2.82,1.76,3.44ZM54.27,39.68c-.32-.69-.86-1.12-1.62-1.3-1.24-.22-2.29,0-3.15.65-.86.66-1.44,1.48-1.75,2.48-.31,1-.25,1.89.17,2.67.51.82,1.21,1.25,2.12,1.31.9.06,1.77-.2,2.62-.78.84-.58,1.43-1.45,1.76-2.62.22-.92.18-1.73-.15-2.42ZM66.97,50.32c1.01.58,2.02.79,3.02.61,1-.18,1.63-.64,1.87-1.39.22-.71.64-1.11,1.26-1.2.63-.09,1.19.02,1.69.34.5.33.68.76.54,1.28-.4.98-1.16,1.71-2.28,2.21-1.12.5-2.47.72-4.05.69-2.12-.08-3.87-.52-5.25-1.35-1.38-.83-2.39-1.86-3.03-3.12-.64-1.26-.9-2.56-.78-3.93.11-1.37.6-2.62,1.46-3.78,1.05-1.29,2.41-2.19,4.07-2.7,1.66-.51,3.33-.65,4.98-.39,1.66.25,3.01.88,4.05,1.88,1.04,1,1.46,2.36,1.26,4.05-.16,1.05-.71,1.98-1.64,2.77-.93.79-2.17,1.28-3.72,1.49-1.55.21-3.34-.03-5.35-.68.25,1.57.88,2.64,1.9,3.22ZM71.61,40.46c-.52-.58-1.21-.89-2.06-.93-.86-.04-1.68.18-2.47.66-.79.47-1.34,1.18-1.65,2.11-.28,1.04-.16,1.86.35,2.49.52.62,1.22,1,2.1,1.13.88.13,1.72-.02,2.52-.47.8-.45,1.35-1.24,1.64-2.38.24-1.15.1-2.02-.42-2.6Z"/>
          <path class="cls-9" d="M87.47,51.06c.1-.58.46-.89,1.11-.93.64-.04,1.26.12,1.86.49.59.37.87.86.83,1.47-.29,1.58-.99,2.75-2.12,3.51-1.13.76-2.44,1.06-3.93.95-1.49-.11-2.92-.68-4.27-1.68-1.36-1-2.4-2.48-3.14-4.46-.69-2.28-1.05-5.03-1.1-8.28-.05-3.26.03-6.04.24-8.35.13-.8.66-1.26,1.6-1.37.94-.11,1.85.01,2.73.39.88.38,1.32.92,1.31,1.61-.05.34-.11.74-.19,1.21-.14.84-.28,1.8-.4,2.86-.12,1.06-.17,2.09-.12,3.08,1.92.09,3.85.19,5.77.29.61.08,1.02.38,1.22.88.2.5.19.99,0,1.46-.2.47-.61.67-1.23.61-.44-.07-.86-.14-1.27-.21-.87-.18-1.64-.26-2.29-.25-.65.01-1.16.27-1.51.76-.36.49-.55,1.36-.56,2.63.07,2.46.52,4.17,1.35,5.16.83.99,1.68,1.33,2.54.99.87-.34,1.4-1.27,1.6-2.82Z"/>
          <path class="cls-9" d="M92.17,55.85c-.56-.88-.65-1.56-.28-2.06.37-.5.9-.72,1.57-.67.68.05,1.2.46,1.57,1.23.44.96,1.02,1.58,1.73,1.85.72.27,1.33.26,1.85-.04.51-.31.67-.84.46-1.59-.18-.51-.57-1.02-1.16-1.53-.59-.51-1.29-1.03-2.1-1.57-1.14-.74-2.25-1.58-3.34-2.5-1.08-.92-1.85-2.01-2.3-3.27-.58-2.13-.35-3.81.7-5.13,1.05-1.31,2.49-2.19,4.31-2.61,1.82-.42,3.61-.3,5.35.42,1.74.72,3.01,2.14,3.8,4.27.32,1.08.18,1.83-.41,2.22-.59.39-1.25.49-1.98.33-.73-.16-1.17-.52-1.31-1.09-.32-1.88-.95-3.01-1.89-3.4-.94-.39-1.81-.25-2.63.38-.82.63-1.21,1.54-1.17,2.73.13,1.08.61,2,1.43,2.78.82.77,1.76,1.51,2.83,2.23,1.27.83,2.37,1.79,3.3,2.88.93,1.09,1.3,2.49,1.13,4.13-.29,1.63-1.16,2.65-2.63,3.09-1.47.43-3.05.34-4.76-.21-1.71-.55-3.08-1.51-4.09-2.86Z"/>
        </g>
        <g>
          <path class="cls-2" d="M2.85,56.28c-.55-.75-.64-1.47-.27-2.13.37-.67.9-1.08,1.57-1.24.68-.17,1.2.1,1.56.77.43.85,1,1.27,1.72,1.29.72.02,1.33-.22,1.85-.7.52-.48.67-1.05.47-1.71-.18-.44-.56-.82-1.15-1.14-.59-.32-1.28-.64-2.09-.96-1.14-.43-2.24-.99-3.32-1.7-1.07-.71-1.83-1.73-2.27-3.04-.57-2.25-.33-4.22.72-5.8,1.05-1.58,2.5-2.64,4.32-3.22,1.83-.57,3.61-.55,5.35,0,1.74.55,3,1.74,3.79,3.54.31.93.17,1.61-.42,2.05-.59.45-1.26.66-1.99.64-.74-.02-1.17-.29-1.3-.81-.31-1.73-.93-2.73-1.87-3.01-.93-.27-1.81-.05-2.64.69-.83.74-1.22,1.74-1.19,2.98.12,1.1.59,1.96,1.41,2.57.82.61,1.76,1.14,2.82,1.58,1.27.51,2.37,1.14,3.29,1.91.93.76,1.3,1.91,1.12,3.45-.3,1.56-1.19,2.8-2.66,3.76-1.48.96-3.07,1.52-4.78,1.64-1.71.12-3.06-.33-4.06-1.41Z"/>
          <path class="cls-2" d="M24.11,50.93c.62-.16,1.12-.83,1.51-1.99.39-1.16.66-2.38.83-3.67.17-1.29.25-2.2.25-2.75.08-.96.56-1.59,1.43-1.91.87-.31,1.75-.31,2.62,0,.88.31,1.36.92,1.46,1.82.01.02.02.05.02.09,0,.37.04,1.11.11,2.22.07,1.11.19,2.26.37,3.43.18,1.18.44,2.05.78,2.63.34.58.78.53,1.34-.13.65-.77,1.3-2.1,1.94-3.99.64-1.89.98-4.49,1-7.8.06-.69.44-1.11,1.14-1.27.7-.15,1.38-.08,2.05.23.66.3.97.79.91,1.46-.15.94-.4,2.05-.75,3.35-.35,1.3-.79,2.64-1.32,4.02-.53,1.39-1.15,2.69-1.85,3.91-.7,1.22-1.49,2.23-2.37,3.05-.88.81-1.85,1.26-2.9,1.34-.69.05-1.35-.17-1.97-.67-.62-.5-1.15-1.32-1.58-2.46-.43-1.14-.74-2.63-.93-4.46-.58,2.47-1.26,4.45-2.05,5.92-.79,1.48-1.65,2.33-2.57,2.53-1.35.22-2.52-.21-3.51-1.31-.99-1.1-1.79-2.6-2.39-4.48-.6-1.88-1.01-3.86-1.23-5.9-.22-2.04-.23-3.84-.03-5.36.18-.9.73-1.46,1.65-1.68.92-.22,1.8-.15,2.64.19.84.34,1.23.91,1.18,1.71-.32,2.05-.39,4.01-.21,5.85.17,1.84.49,3.32.94,4.44.45,1.13.96,1.66,1.51,1.63Z"/>
          <path class="cls-2" d="M49.2,50.42c1.01.62,2.03.81,3.07.58,1.04-.23,1.7-.8,1.98-1.71.17-.58.56-.92,1.16-1.03.6-.11,1.15-.04,1.66.2.51.24.73.6.66,1.05-.32,1.1-1.07,1.94-2.26,2.52-1.19.58-2.53.91-4.02,1-2.34.08-4.25-.36-5.72-1.36-1.47-1-2.48-2.31-3.05-3.94-.56-1.63-.64-3.29-.23-4.99.41-1.7,1.31-3.15,2.72-4.36,1.41-1.2,3.34-1.89,5.8-2.05,2.21-.07,3.95.32,5.23,1.14,1.27.82,2.07,1.85,2.38,3.08.31,1.23.12,2.42-.59,3.56-.7,1.14-1.94,2-3.69,2.58-1.75.59-4.05.67-6.87.29.17,1.68.75,2.82,1.76,3.44ZM54.27,39.68c-.32-.69-.86-1.12-1.62-1.3-1.24-.22-2.29,0-3.15.65-.86.66-1.44,1.48-1.75,2.48-.31,1-.25,1.89.17,2.67.51.82,1.21,1.25,2.12,1.31.9.06,1.77-.2,2.62-.78.84-.58,1.43-1.45,1.76-2.62.22-.92.18-1.73-.15-2.42ZM66.97,50.32c1.01.58,2.02.79,3.02.61,1-.18,1.63-.64,1.87-1.39.22-.71.64-1.11,1.26-1.2.63-.09,1.19.02,1.69.34.5.33.68.76.54,1.28-.4.98-1.16,1.71-2.28,2.21-1.12.5-2.47.72-4.05.69-2.12-.08-3.87-.52-5.25-1.35-1.38-.83-2.39-1.86-3.03-3.12-.64-1.26-.9-2.56-.78-3.93.11-1.37.6-2.62,1.46-3.78,1.05-1.29,2.41-2.19,4.07-2.7,1.66-.51,3.33-.65,4.98-.39,1.66.25,3.01.88,4.05,1.88,1.04,1,1.46,2.36,1.26,4.05-.16,1.05-.71,1.98-1.64,2.77-.93.79-2.17,1.28-3.72,1.49-1.55.21-3.34-.03-5.35-.68.25,1.57.88,2.64,1.9,3.22ZM71.61,40.46c-.52-.58-1.21-.89-2.06-.93-.86-.04-1.68.18-2.47.66-.79.47-1.34,1.18-1.65,2.11-.28,1.04-.16,1.86.35,2.49.52.62,1.22,1,2.1,1.13.88.13,1.72-.02,2.52-.47.8-.45,1.35-1.24,1.64-2.38.24-1.15.1-2.02-.42-2.6Z"/>
          <path class="cls-2" d="M87.47,51.06c.1-.58.46-.89,1.11-.93.64-.04,1.26.12,1.86.49.59.37.87.86.83,1.47-.29,1.58-.99,2.75-2.12,3.51-1.13.76-2.44,1.06-3.93.95-1.49-.11-2.92-.68-4.27-1.68-1.36-1-2.4-2.48-3.14-4.46-.69-2.28-1.05-5.03-1.1-8.28-.05-3.26.03-6.04.24-8.35.13-.8.66-1.26,1.6-1.37.94-.11,1.85.01,2.73.39.88.38,1.32.92,1.31,1.61-.05.34-.11.74-.19,1.21-.14.84-.28,1.8-.4,2.86-.12,1.06-.17,2.09-.12,3.08,1.92.09,3.85.19,5.77.29.61.08,1.02.38,1.22.88.2.5.19.99,0,1.46-.2.47-.61.67-1.23.61-.44-.07-.86-.14-1.27-.21-.87-.18-1.64-.26-2.29-.25-.65.01-1.16.27-1.51.76-.36.49-.55,1.36-.56,2.63.07,2.46.52,4.17,1.35,5.16.83.99,1.68,1.33,2.54.99.87-.34,1.4-1.27,1.6-2.82Z"/>
          <path class="cls-2" d="M92.17,55.85c-.56-.88-.65-1.56-.28-2.06.37-.5.9-.72,1.57-.67.68.05,1.2.46,1.57,1.23.44.96,1.02,1.58,1.73,1.85.72.27,1.33.26,1.85-.04.51-.31.67-.84.46-1.59-.18-.51-.57-1.02-1.16-1.53-.59-.51-1.29-1.03-2.1-1.57-1.14-.74-2.25-1.58-3.34-2.5-1.08-.92-1.85-2.01-2.3-3.27-.58-2.13-.35-3.81.7-5.13,1.05-1.31,2.49-2.19,4.31-2.61,1.82-.42,3.61-.3,5.35.42,1.74.72,3.01,2.14,3.8,4.27.32,1.08.18,1.83-.41,2.22-.59.39-1.25.49-1.98.33-.73-.16-1.17-.52-1.31-1.09-.32-1.88-.95-3.01-1.89-3.4-.94-.39-1.81-.25-2.63.38-.82.63-1.21,1.54-1.17,2.73.13,1.08.61,2,1.43,2.78.82.77,1.76,1.51,2.83,2.23,1.27.83,2.37,1.79,3.3,2.88.93,1.09,1.3,2.49,1.13,4.13-.29,1.63-1.16,2.65-2.63,3.09-1.47.43-3.05.34-4.76-.21-1.71-.55-3.08-1.51-4.09-2.86Z"/>
        </g>
      </g>
      <g>
        <g>
          <path class="cls-10" d="M25.11,6.24c-3.63.19-6.63.49-8.99.88-.82.08-1.41-.21-1.75-.89-.35-.68-.43-1.41-.26-2.19.18-.78.66-1.27,1.45-1.49,3.36-.59,7.33-.89,11.88-.95,4.56-.06,8.43.02,11.63.22,1.03.12,1.67.59,1.94,1.39.27.8.2,1.57-.2,2.3-.4.73-1.1,1.05-2.09.97-2.05-.31-3.61-.42-4.68-.33-1.07.1-1.83.44-2.28,1.04-.45.6-.75,1.5-.92,2.7-.63,4.05-.99,8.41-1.07,13.04-.09,4.63.08,8.44.5,11.41.04.71-.37,1.27-1.23,1.7-.85.43-1.74.61-2.66.54-.92-.07-1.47-.52-1.64-1.35-.41-4.02-.58-8.79-.5-14.28.08-5.49.37-10.41.87-14.72Z"/>
          <path class="cls-10" d="M47.62,8.47c-.04.57-.1,1.12-.17,1.66-.07.54-.16.92-.27,1.14-.53.81-1.39,1.21-2.58,1.22-1.19,0-2.12-.37-2.77-1.12-.15-.25-.27-.65-.38-1.19-.1-.54-.18-1.1-.23-1.67-.05-.57-.07-1.01-.06-1.34.07-.87.63-1.45,1.68-1.73,1.05-.29,2.1-.29,3.14,0,1.04.29,1.6.87,1.69,1.74.01.3,0,.73-.05,1.29ZM41.35,17.8c.11-1.02.66-1.68,1.65-1.97.99-.29,1.96-.25,2.91.11.95.36,1.42,1,1.42,1.9-.17,2.57-.27,5.1-.32,7.58-.04,2.08-.11,4.12-.21,6.12-.1.65-.55,1.09-1.35,1.32-.81.23-1.62.24-2.43,0-.81-.23-1.29-.74-1.43-1.55-.17-1.86-.27-4.08-.3-6.67-.03-2.58,0-4.86.07-6.83Z"/>
          <path class="cls-10" d="M61.87,28.93c.11-.72.55-1.12,1.3-1.18.75-.06,1.48.14,2.17.59.69.45,1.02,1.06.97,1.83-.34,1.97-1.17,3.43-2.49,4.39-1.32.97-2.86,1.39-4.61,1.31-1.75-.08-3.42-.71-5.01-1.89-1.59-1.18-2.81-2.99-3.66-5.47-.79-2.87-1.21-6.38-1.25-10.55-.04-4.18.07-7.75.33-10.71.15-1.02.78-1.61,1.88-1.75,1.1-.14,2.16.03,3.19.52,1.03.49,1.54,1.17,1.52,2.04-.06.42-.14.93-.23,1.53-.17,1.07-.33,2.27-.48,3.61-.15,1.34-.2,2.64-.15,3.9,2.26.08,4.51.19,6.76.32.72.11,1.19.47,1.42,1.1.23.63.22,1.24-.02,1.82-.24.58-.72.84-1.44.77-.51-.08-1.01-.17-1.49-.26-1.03-.22-1.92-.31-2.68-.28-.76.03-1.36.36-1.78.98-.42.62-.65,1.74-.67,3.34.07,3.11.59,5.25,1.56,6.46.97,1.21,1.96,1.6,2.98,1.14,1.02-.45,1.65-1.64,1.88-3.57Z"/>
          <path class="cls-10" d="M67.51,19.27c.1-1.08.65-1.73,1.63-1.95.98-.22,1.95-.1,2.89.38.94.48,1.41,1.22,1.41,2.21-.17,2.81-.27,5.58-.32,8.29-.04,2.28-.11,4.51-.21,6.68-.1.69-.54,1.09-1.33,1.19-.79.1-1.59-.06-2.39-.46-.8-.41-1.28-1.04-1.41-1.93-.17-2.02-.28-4.4-.31-7.15-.03-2.75-.02-5.17.05-7.26Z"/>
        </g>
        <g>
          <path class="cls-3" d="M25.11,6.83c-3.63.19-6.63.49-8.99.88-.82.08-1.41-.21-1.75-.89-.35-.68-.43-1.41-.26-2.19.18-.78.66-1.27,1.45-1.49,3.36-.59,7.33-.89,11.88-.95,4.56-.06,8.43.02,11.63.22,1.03.12,1.67.59,1.94,1.39.27.8.2,1.57-.2,2.3-.4.73-1.1,1.05-2.09.97-2.05-.31-3.61-.42-4.68-.33-1.07.1-1.83.44-2.28,1.04-.45.6-.75,1.5-.92,2.7-.63,4.05-.99,8.41-1.07,13.04-.09,4.63.08,8.44.5,11.41.04.71-.37,1.27-1.23,1.7-.85.43-1.74.61-2.66.54-.92-.07-1.47-.52-1.64-1.35-.41-4.02-.58-8.79-.5-14.28.08-5.49.37-10.41.87-14.72Z"/>
          <path class="cls-3" d="M47.62,9.06c-.04.57-.1,1.12-.17,1.66-.07.54-.16.92-.27,1.14-.53.81-1.39,1.21-2.58,1.22-1.19,0-2.12-.37-2.77-1.12-.15-.25-.27-.65-.38-1.19-.1-.54-.18-1.1-.23-1.67-.05-.57-.07-1.01-.06-1.34.07-.87.63-1.45,1.68-1.73,1.05-.29,2.1-.29,3.14,0,1.04.29,1.6.87,1.69,1.74.01.3,0,.73-.05,1.29ZM41.35,18.39c.11-1.02.66-1.68,1.65-1.97.99-.29,1.96-.25,2.91.11.95.36,1.42,1,1.42,1.9-.17,2.57-.27,5.1-.32,7.58-.04,2.08-.11,4.12-.21,6.12-.1.65-.55,1.09-1.35,1.32-.81.23-1.62.24-2.43,0-.81-.23-1.29-.74-1.43-1.55-.17-1.86-.27-4.08-.3-6.67-.03-2.58,0-4.86.07-6.83Z"/>
          <path class="cls-3" d="M61.87,29.52c.11-.72.55-1.12,1.3-1.18.75-.06,1.48.14,2.17.59.69.45,1.02,1.06.97,1.83-.34,1.97-1.17,3.43-2.49,4.39-1.32.97-2.86,1.39-4.61,1.31-1.75-.08-3.42-.71-5.01-1.89-1.59-1.18-2.81-2.99-3.66-5.47-.79-2.87-1.21-6.38-1.25-10.55-.04-4.18.07-7.75.33-10.71.15-1.02.78-1.61,1.88-1.75,1.1-.14,2.16.03,3.19.52,1.03.49,1.54,1.17,1.52,2.04-.06.42-.14.93-.23,1.53-.17,1.07-.33,2.27-.48,3.61-.15,1.34-.2,2.64-.15,3.9,2.26.08,4.51.19,6.76.32.72.11,1.19.47,1.42,1.1.23.63.22,1.24-.02,1.82-.24.58-.72.84-1.44.77-.51-.08-1.01-.17-1.49-.26-1.03-.22-1.92-.31-2.68-.28-.76.03-1.36.36-1.78.98-.42.62-.65,1.74-.67,3.34.07,3.11.59,5.25,1.56,6.46.97,1.21,1.96,1.6,2.98,1.14,1.02-.45,1.65-1.64,1.88-3.57Z"/>
          <path class="cls-3" d="M67.51,19.86c.1-1.08.65-1.73,1.63-1.95.98-.22,1.95-.1,2.89.38.94.48,1.41,1.22,1.41,2.21-.17,2.81-.27,5.58-.32,8.29-.04,2.28-.11,4.51-.21,6.68-.1.69-.54,1.09-1.33,1.19-.79.1-1.59-.06-2.39-.46-.8-.41-1.28-1.04-1.41-1.93-.17-2.02-.28-4.4-.31-7.15-.03-2.75-.02-5.17.05-7.26Z"/>
        </g>
        <g>
          <path class="cls-9" d="M25.11,6.24c-3.63.19-6.63.49-8.99.88-.82.08-1.41-.21-1.75-.89-.35-.68-.43-1.41-.26-2.19.18-.78.66-1.27,1.45-1.49,3.36-.59,7.33-.89,11.88-.95,4.56-.06,8.43.02,11.63.22,1.03.12,1.67.59,1.94,1.39.27.8.2,1.57-.2,2.3-.4.73-1.1,1.05-2.09.97-2.05-.31-3.61-.42-4.68-.33-1.07.1-1.83.44-2.28,1.04-.45.6-.75,1.5-.92,2.7-.63,4.05-.99,8.41-1.07,13.04-.09,4.63.08,8.44.5,11.41.04.71-.37,1.27-1.23,1.7-.85.43-1.74.61-2.66.54-.92-.07-1.47-.52-1.64-1.35-.41-4.02-.58-8.79-.5-14.28.08-5.49.37-10.41.87-14.72Z"/>
          <path class="cls-9" d="M47.62,8.47c-.04.57-.1,1.12-.17,1.66-.07.54-.16.92-.27,1.14-.53.81-1.39,1.21-2.58,1.22-1.19,0-2.12-.37-2.77-1.12-.15-.25-.27-.65-.38-1.19-.1-.54-.18-1.1-.23-1.67-.05-.57-.07-1.01-.06-1.34.07-.87.63-1.45,1.68-1.73,1.05-.29,2.1-.29,3.14,0,1.04.29,1.6.87,1.69,1.74.01.3,0,.73-.05,1.29ZM41.35,17.8c.11-1.02.66-1.68,1.65-1.97.99-.29,1.96-.25,2.91.11.95.36,1.42,1,1.42,1.9-.17,2.57-.27,5.1-.32,7.58-.04,2.08-.11,4.12-.21,6.12-.1.65-.55,1.09-1.35,1.32-.81.23-1.62.24-2.43,0-.81-.23-1.29-.74-1.43-1.55-.17-1.86-.27-4.08-.3-6.67-.03-2.58,0-4.86.07-6.83Z"/>
          <path class="cls-9" d="M61.87,28.93c.11-.72.55-1.12,1.3-1.18.75-.06,1.48.14,2.17.59.69.45,1.02,1.06.97,1.83-.34,1.97-1.17,3.43-2.49,4.39-1.32.97-2.86,1.39-4.61,1.31-1.75-.08-3.42-.71-5.01-1.89-1.59-1.18-2.81-2.99-3.66-5.47-.79-2.87-1.21-6.38-1.25-10.55-.04-4.18.07-7.75.33-10.71.15-1.02.78-1.61,1.88-1.75,1.1-.14,2.16.03,3.19.52,1.03.49,1.54,1.17,1.52,2.04-.06.42-.14.93-.23,1.53-.17,1.07-.33,2.27-.48,3.61-.15,1.34-.2,2.64-.15,3.9,2.26.08,4.51.19,6.76.32.72.11,1.19.47,1.42,1.1.23.63.22,1.24-.02,1.82-.24.58-.72.84-1.44.77-.51-.08-1.01-.17-1.49-.26-1.03-.22-1.92-.31-2.68-.28-.76.03-1.36.36-1.78.98-.42.62-.65,1.74-.67,3.34.07,3.11.59,5.25,1.56,6.46.97,1.21,1.96,1.6,2.98,1.14,1.02-.45,1.65-1.64,1.88-3.57Z"/>
          <path class="cls-9" d="M67.51,19.27c.1-1.08.65-1.73,1.63-1.95.98-.22,1.95-.1,2.89.38.94.48,1.41,1.22,1.41,2.21-.17,2.81-.27,5.58-.32,8.29-.04,2.28-.11,4.51-.21,6.68-.1.69-.54,1.09-1.33,1.19-.79.1-1.59-.06-2.39-.46-.8-.41-1.28-1.04-1.41-1.93-.17-2.02-.28-4.4-.31-7.15-.03-2.75-.02-5.17.05-7.26Z"/>
        </g>
        <g>
          <path class="cls-1" d="M25.11,6.24c-3.63.19-6.63.49-8.99.88-.82.08-1.41-.21-1.75-.89-.35-.68-.43-1.41-.26-2.19.18-.78.66-1.27,1.45-1.49,3.36-.59,7.33-.89,11.88-.95,4.56-.06,8.43.02,11.63.22,1.03.12,1.67.59,1.94,1.39.27.8.2,1.57-.2,2.3-.4.73-1.1,1.05-2.09.97-2.05-.31-3.61-.42-4.68-.33-1.07.1-1.83.44-2.28,1.04-.45.6-.75,1.5-.92,2.7-.63,4.05-.99,8.41-1.07,13.04-.09,4.63.08,8.44.5,11.41.04.71-.37,1.27-1.23,1.7-.85.43-1.74.61-2.66.54-.92-.07-1.47-.52-1.64-1.35-.41-4.02-.58-8.79-.5-14.28.08-5.49.37-10.41.87-14.72Z"/>
          <path class="cls-8" d="M47.62,8.47c-.04.57-.1,1.12-.17,1.66-.07.54-.16.92-.27,1.14-.53.81-1.39,1.21-2.58,1.22-1.19,0-2.12-.37-2.77-1.12-.15-.25-.27-.65-.38-1.19-.1-.54-.18-1.1-.23-1.67-.05-.57-.07-1.01-.06-1.34.07-.87.63-1.45,1.68-1.73,1.05-.29,2.1-.29,3.14,0,1.04.29,1.6.87,1.69,1.74.01.3,0,.73-.05,1.29ZM41.35,17.8c.11-1.02.66-1.68,1.65-1.97.99-.29,1.96-.25,2.91.11.95.36,1.42,1,1.42,1.9-.17,2.57-.27,5.1-.32,7.58-.04,2.08-.11,4.12-.21,6.12-.1.65-.55,1.09-1.35,1.32-.81.23-1.62.24-2.43,0-.81-.23-1.29-.74-1.43-1.55-.17-1.86-.27-4.08-.3-6.67-.03-2.58,0-4.86.07-6.83Z"/>
          <path class="cls-6" d="M61.87,28.93c.11-.72.55-1.12,1.3-1.18.75-.06,1.48.14,2.17.59.69.45,1.02,1.06.97,1.83-.34,1.97-1.17,3.43-2.49,4.39-1.32.97-2.86,1.39-4.61,1.31-1.75-.08-3.42-.71-5.01-1.89-1.59-1.18-2.81-2.99-3.66-5.47-.79-2.87-1.21-6.38-1.25-10.55-.04-4.18.07-7.75.33-10.71.15-1.02.78-1.61,1.88-1.75,1.1-.14,2.16.03,3.19.52,1.03.49,1.54,1.17,1.52,2.04-.06.42-.14.93-.23,1.53-.17,1.07-.33,2.27-.48,3.61-.15,1.34-.2,2.64-.15,3.9,2.26.08,4.51.19,6.76.32.72.11,1.19.47,1.42,1.1.23.63.22,1.24-.02,1.82-.24.58-.72.84-1.44.77-.51-.08-1.01-.17-1.49-.26-1.03-.22-1.92-.31-2.68-.28-.76.03-1.36.36-1.78.98-.42.62-.65,1.74-.67,3.34.07,3.11.59,5.25,1.56,6.46.97,1.21,1.96,1.6,2.98,1.14,1.02-.45,1.65-1.64,1.88-3.57Z"/>
          <path class="cls-5" d="M67.51,19.27c.1-1.08.65-1.73,1.63-1.95.98-.22,1.95-.1,2.89.38.94.48,1.41,1.22,1.41,2.21-.17,2.81-.27,5.58-.32,8.29-.04,2.28-.11,4.51-.21,6.68-.1.69-.54,1.09-1.33,1.19-.79.1-1.59-.06-2.39-.46-.8-.41-1.28-1.04-1.41-1.93-.17-2.02-.28-4.4-.31-7.15-.03-2.75-.02-5.17.05-7.26Z"/>
        </g>
      </g>
      <path class="cls-7" d="M77.78,9.5c-.68.4-1.1-.72-.42-1.12.99-.59,1.22-2.04.57-2.8-.52-.61.58-2.06,1.28-.17.54,1.44-.08,3.29-1.44,4.09M73.7,13.38l-2.28,1.34c-.7.42-1.52.13-1.8-.64l-2.78-7.4c-.8-2.12.15-4.81,2.1-5.96,1.96-1.15,4.21-.36,5.01,1.77.41,1.08.4,1.06,1.38.49,1.96-1.15,4.21-.36,5.01,1.77.8,2.12-.15,4.81-2.1,5.96-1.51.89-3.02,1.78-4.53,2.67Z"/>
    </g>
  </g>
</svg>