<?xml version="1.0" encoding="UTF-8"?>
<svg id="Layer_2" data-name="Layer 2" xmlns="http://www.w3.org/2000/svg" viewBox="0 0 58.24 58.24">
  <defs>
    <style>
      .cls-1 {
        fill: #922a8e;
      }

      .cls-2 {
        fill: #ae7b2b;
      }

      .cls-3 {
        fill: #fffbf2;
      }

      .cls-4 {
        fill: #4e5e2a;
      }
    </style>
  </defs>
  <g id="Layer_1-2" data-name="Layer 1">
    <g>
      <circle class="cls-3" cx="29.12" cy="29.12" r="29.12"/>
      <g>
        <g>
          <path class="cls-2" d="M10.31,29.74s0,0,0,0c0-.21-.01-.41-.01-.62,0-6.12,3.01-11.54,7.64-14.85-.07-1.21.04-3.35,1.38-5.13-7.38,3.63-12.45,11.21-12.45,19.99,0,.86.05,1.71.15,2.54.04.08,2.41,4.36,3.31-1.92Z"/>
          <path class="cls-2" d="M29.12,6.86c-.18,0-.36,0-.55,0,2.35.89,4.24,2.71,5.18,4.74,7.56,2.24,13.07,9.23,13.07,17.51,0,10.09-8.18,18.26-18.26,18.26-5.23,0-9.94-2.2-13.27-5.72l-.24.59-5.97-3.44c3.6,7.43,11.22,12.56,20.04,12.56,12.29,0,22.26-9.96,22.26-22.26S41.41,6.86,29.12,6.86Z"/>
        </g>
        <g>
          <path class="cls-4" d="M27.51,23.64c-3.35-2.16-4.95-5.17-5.22-6.94-.82-5.36,4.17-4.76,4.17-4.76,0,0-.13-.94.42-3.89-5.18-.21-9.84,2.33-6.64,11.47.99,2.83,2.19,5.18,3.53,7.13,1.63-.71,3.06-2.22,3.74-3.02Z"/>
          <path class="cls-1" d="M25.76,29.19c.86.95,1.76,1.77,2.67,2.48-.76-.71-1.73-1.61-2.67-2.48Z"/>
          <path class="cls-4" d="M40.65,31.67s2.25-1.5,3.92-4.32c-1.95.11-7.29-.61-11.35-1.54-.6,2.23-2.66,5.98-3.21,6.97,6.3,3.97,12.89,3.21,14.28,3.06.18-.02.17-.17.17-.17l-3.82-4Z"/>
        </g>
        <g>
          <polygon class="cls-1" points="15.57 40.84 15.57 40.84 15.57 40.84 15.57 40.84"/>
          <path class="cls-4" d="M23.22,8.48c1.5,2.63,1.53,3.64,1.53,3.64,0,0,4.87-1.42,6.01,3.73.43,1.93-.31,5.85-3.54,9.14-1.73,2.11-13.15,7.87-15.98,8.59,2.53,2.17,7.4,1.83,7.4,1.83l-3.08,5.43c.74-.15,3.02-.6,5.73-1.88-.15-1.05-.14-2.52.77-3.55.7.51,1.6,1.2,2.37,1.77,4.6-3.13,9.21-8.84,9.21-19.26,0-9.63-5.86-10.68-10.43-9.43Z"/>
        </g>
        <path class="cls-2" d="M36.58,44.51s-4.71-4.59-8.2-4.95c-3.49-.37-4.65-1.9-5.81-2.94-1.1.18-.92,4.71,2.75,5.38,3.67.67,2.45,2.57.98,2.94-1.47.37-10.28-1.41-14.56-6.12-3.36-2.75-2.81.31-2.14.98.67.67,10.7,15.05,27.22,10.09,4.53-3.12,2.26-4.04,2.26-4.04l-2.51-1.35Z"/>
      </g>
    </g>
  </g>
</svg>