<?xml version="1.0" encoding="UTF-8"?>
<svg id="Layer_2" xmlns="http://www.w3.org/2000/svg" viewBox="0 0 109.53 109.53">
  <defs>
    <style>
      .cls-1 {
        letter-spacing: -.01em;
      }

      .cls-2 {
        fill: #273b86;
      }

      .cls-3 {
        letter-spacing: 0em;
      }

      .cls-4 {
        fill: #231f20;
      }

      .cls-5 {
        fill: #d1202f;
      }

      .cls-6, .cls-7 {
        fill: #fff;
      }

      .cls-8 {
        fill: #ed1c24;
      }

      .cls-9 {
        fill: #c9cacb;
      }

      .cls-10 {
        letter-spacing: 0em;
      }

      .cls-7 {
        font-family: EurostileTBlack, 'Eurostile T Black';
        font-size: 7.1px;
      }
    </style>
  </defs>
  <g id="Layer_1-2" data-name="Layer_1">
    <g>
      <circle class="cls-4" cx="54.77" cy="54.77" r="54.77"/>
      <text class="cls-7" transform="translate(22 33.88)"><tspan class="cls-1" x="0" y="0">A</tspan><tspan class="cls-10" x="4.61" y="0">C</tspan><tspan class="cls-3" x="9.14" y="0">ADEMIA</tspan></text>
      <polygon class="cls-6" points="91.4 35.51 75.29 77.03 62.78 77.03 50.72 46.4 46.39 46.4 46.39 77.03 34.71 77.03 34.71 46.4 25.82 46.4 21.49 35.51 58.94 35.51 69.01 62.77 78.9 35.51 91.4 35.51"/>
      <g>
        <rect class="cls-6" x="34.74" y="76.42" width="40.69" height="6.63"/>
        <rect class="cls-5" x="34.74" y="76.42" width="40.82" height="2.17"/>
        <rect class="cls-9" x="34.74" y="78.59" width="40.82" height="2.17"/>
        <rect class="cls-5" x="34.74" y="80.75" width="40.82" height="2.17"/>
        <rect class="cls-9" x="34.74" y="82.78" width="40.82" height="2.17"/>
        <path class="cls-5" d="M34.74,84.81h40.82c0,1.2-.97,2.17-2.17,2.17h-38.65v-2.17h0Z"/>
        <polygon class="cls-2" points="34.74 76.42 48.07 81.7 34.74 86.98 34.74 76.42"/>
        <polygon class="cls-6" points="38.27 78.91 38.85 80.69 40.72 80.69 39.21 81.8 39.78 83.58 38.27 82.48 36.76 83.58 37.34 81.8 35.82 80.69 37.69 80.69 38.27 78.91"/>
      </g>
      <path class="cls-8" d="M69.64,75.29c-.08.02-.15.07-.19.16-.04.09-.09.16-.13.23-.12.13-.23.31-.35.53-.01.02-.04.03-.07.04-.02.08-.06.18-.11.33-.05.14-.1.19-.15.12-.11,0-.19-.02-.26-.08-.06-.06-.12-.1-.16-.13,0-.03-.01-.09-.02-.16,0-.07-.01-.12-.02-.16.03,0,.07-.02.11-.04.04-.02.06-.03.06-.05.02-.06.03-.1.03-.13,0-.02,0-.06.03-.1.02-.06.06-.14.11-.24.05-.1.11-.18.19-.25.02-.06.06-.11.1-.15.04-.05.1-.1.18-.17.05-.03.09-.07.13-.12.04-.05.09-.1.13-.15.08-.11.17-.21.24-.32.08-.1.15-.19.23-.26.03-.04.07-.09.11-.16.05-.06.09-.12.11-.16.03-.04.06-.06.09-.06.04,0,.07-.02.09-.06.03-.04.05-.09.06-.15.01-.06.04-.12.08-.2.01-.02.04-.02.09,0,.05.02.08,0,.09-.03l-.02-.1c.04-.06.09-.11.16-.15s.11-.08.14-.12c.15-.23.3-.44.47-.65.16-.2.36-.36.58-.48.04-.15.11-.28.2-.4.09-.12.21-.23.34-.35.03-.04.08-.09.15-.14.07-.05.14-.12.21-.21.03-.04.07-.09.13-.15.06-.06.12-.13.2-.21.06-.07.12-.14.18-.22.06-.08.14-.17.23-.26h.05s.1-.03.1-.03l-.03-.13s.1-.1.15-.17.12-.13.2-.2c.04-.06.09-.12.15-.17.09-.14.19-.27.28-.37s.2-.21.32-.32c.2-.31.39-.55.57-.73.13-.21.27-.39.4-.57.13-.17.28-.35.43-.55.03-.04.07-.07.13-.09.06-.02.1-.05.13-.09,0-.04.01-.07,0-.11,0-.03,0-.07,0-.11.04-.06.1-.12.18-.17.08-.05.14-.12.17-.2.03-.04.03-.08.02-.11-.02-.03,0-.06.02-.09.02-.06.05-.1.08-.12.03-.02.04-.05.04-.09-.13.05-.26.08-.38.11s-.24.07-.37.13c-.05.01-.1.04-.15.1-.05.06-.09.09-.12.12-.11.06-.24.12-.39.17s-.28.14-.4.26c-.06.05-.11.06-.15.03-.04-.03-.08-.05-.12-.08-.24.23-.47.42-.71.57-.23.16-.49.32-.76.48-.02,0-.02,0-.02.02,0,0-.02.02-.07.03-.02,0-.02.02-.02.06,0,.03,0,.07-.03.11-.03.02-.06.04-.09.03-.03,0-.05,0-.07,0-.03.04-.09.13-.2.26-.11.13-.22.21-.34.23-.05-.06-.1-.09-.17-.1-.06,0-.13-.03-.21-.06-.04-.03-.08-.06-.12-.11-.04-.05-.08-.06-.13-.05-.05-.08-.13-.12-.24-.14-.11-.01-.2-.06-.27-.13.02-.09.01-.19,0-.29s-.02-.2,0-.29c0-.02,0-.02.02-.02.02,0,.03-.01.04-.05-.01-.05,0-.09.05-.1.04-.02.07-.04.08-.08-.01-.07-.02-.11,0-.13h.03s.03-.01.03-.01c.02,0,.02-.03,0-.07s-.03-.07-.03-.09l.1-.02s.04-.09.05-.14.02-.1.05-.14c.01-.02.03-.03.04-.02.01,0,.01,0,0-.04.02-.06.06-.1.1-.11.04-.02.07-.05.1-.09.02-.06.03-.11.03-.17,0-.05.02-.1.06-.15.03-.04.06-.08.1-.11.04-.03.07-.07.1-.11.03-.1.09-.19.16-.27.07-.09.12-.18.16-.27.08-.05.13-.11.16-.18.03-.07.09-.11.17-.13-.05-.08-.05-.15.01-.2.06-.06.1-.11.12-.17.05-.08.1-.17.13-.25.04-.09.09-.19.18-.32.07-.1.16-.21.26-.34s.22-.25.34-.38c.05-.1.1-.2.14-.31s.13-.18.26-.23c.04-.15.11-.3.21-.45.1-.15.21-.29.32-.44.04-.08.09-.15.16-.21.07-.06.12-.12.16-.18.06-.06.1-.15.12-.25.02-.1.1-.16.25-.17-.07-.07-.16-.08-.26-.03-.1.06-.19.1-.25.13-.06.05-.12.09-.19.12-.02,0-.05,0-.09,0-.04,0-.06,0-.06.03-.04.06-.15.14-.32.24-.18.1-.36.17-.55.21-.06.07-.12.12-.19.17-.07.05-.14.1-.22.15-.02,0-.05,0-.1,0-.05,0-.08.01-.07.03-.01.04-.01.06,0,.08,0,.02,0,.04-.01.06-.05.03-.1.04-.16.05-.06,0-.07.04-.01.12-.11,0-.16-.01-.16-.05,0-.04.02-.08.06-.12.04-.04.07-.1.11-.16.04-.06.06-.11.05-.14-.18.15-.33.28-.42.41-.07.1-.12.21-.16.31-.04.11-.07.18-.1.22s-.06.07-.11.08-.08.02-.12.02c-.03.02-.06.05-.08.08-.02.03-.04.06-.05.08-.04.05-.08.07-.12.06-.04,0-.07.01-.1.03-.01.02-.02.04-.01.06s-.02.03-.07.04c-.09.02-.19.09-.31.23-.12.13-.22.23-.3.3-.03.02-.06.06-.09.1-.03.04-.05.07-.06.09-.03.02-.07.04-.11.05-.04,0-.08.03-.11.05-.04.04-.08.1-.1.17-.02.07-.05.12-.07.16s-.06.06-.09.06c-.04,0-.07.01-.1.03-.03.04-.04.08-.04.12,0,.04-.02.07-.05.09-.08.11-.16.2-.22.29-.06.09-.14.2-.24.34,0,.04-.03.07-.05.09s-.04.04-.05.06c0,.07,0,.12.02.14.01.02,0,.06-.02.1-.2.08-.35.1-.47.07s-.24-.03-.37,0c-.03-.14-.07-.26-.12-.36-.05-.11-.07-.23-.06-.37h.03s.02-.04.02-.04c0-.04.03-.07.06-.11.03-.03.06-.07.08-.11v-.05s-.02-.05-.02-.05c.04-.08.12-.13.23-.16.03-.13.09-.27.19-.42.1-.15.19-.29.27-.43.09-.09.16-.17.23-.25.06-.08.13-.16.2-.24.02,0,.04,0,.08,0,.04,0,.06,0,.07-.03.08-.12.18-.27.31-.44.13-.17.28-.29.46-.36.06-.05.1-.09.13-.13.03-.04.05-.08.08-.12.1-.11.23-.22.39-.32.16-.1.32-.22.49-.34.03-.1.07-.17.12-.21h.05s.05-.02.05-.02c.01-.02.04-.06.08-.11.04-.05.14-.08.28-.07.02-.09.06-.16.13-.19.07-.03.12-.09.14-.16l.31-.06s.06-.03.07-.05c.01-.03.03-.06.06-.08.03-.04.06-.07.1-.08.04,0,.08-.03.1-.08.06-.05.12-.11.17-.2.02,0,.04,0,.07.01.03.01.06,0,.08-.04.01-.02.07-.06.17-.13.1-.06.22-.1.37-.09,0-.04.04-.06.09-.06s.09-.01.13-.04v-.03s0-.03,0-.03c0,0,.01-.01,0-.03,0-.02,0-.04,0-.08.06-.05.13-.06.21-.04.08.02.14,0,.21-.04.03-.02.04-.04.03-.06-.01-.01,0-.03.06-.04.02,0,.04-.02.06-.04.02-.02.05-.04.08-.04l.44-.09c.09-.02.15-.05.19-.09s.1-.07.17-.06c.16,0,.31.05.46.13.14.09.29.16.45.21.06.09.11.17.16.23.06.02.1.03.14.01.03-.02.07-.02.11,0,.21.08.35.17.4.26-.08.05-.08.14-.01.27.07.13.08.23.03.32h-.05s-.05.02-.05.02c-.02.09-.02.16-.02.22,0,.05-.03.12-.1.21-.01.04-.02.07-.03.1-.01.03-.03.06-.06.11-.06.07-.1.15-.13.27-.04.08-.08.16-.14.24-.03.04-.06.11-.09.19s-.08.17-.13.26c-.03.1-.09.2-.18.3,0,.04-.05.08-.16.14.02.01.03.03.04.05,0,.04,0,.06-.01.08-.03.04-.07.07-.12.08,0,.02.01.03.02.05.01.02.01.04,0,.08-.06.12-.17.25-.32.39-.15.14-.22.31-.22.5-.07.01-.11.04-.13.08-.02.04-.07.06-.16.06,0,.22-.08.4-.21.55-.13.15-.22.3-.28.46.04.03.09.01.14-.04.05-.06.1-.09.15-.1.1-.06.23-.1.4-.14-.02,0-.02,0,0-.04.01-.03.03-.03.05,0,.08.02.16,0,.26-.04.1-.05.18-.11.26-.17.08-.04.14-.03.17,0,.03.04.11.05.21.05.09-.02.16-.05.22-.09.06-.04.13-.05.21-.03.14-.01.24,0,.3.04.06.04.15.09.27.13.08.05.18.09.29.1s.22.03.33.04c0,.21-.04.38-.16.52-.12.13-.18.3-.19.49.06.1.09.1.1.02,0-.08.05-.13.12-.14.03,0,.05-.04.04-.09-.01-.05,0-.1.02-.14l.08-.02.1-.02s.03-.07.03-.19c0-.12.06-.18.19-.17.07.09.12.19.13.31s.02.23,0,.36-.02.25-.04.37c-.02.12-.03.24-.02.36-.06.03-.09.08-.09.15,0,.07-.06.1-.21.1.07.06.07.12.01.2-.06.08-.09.15-.11.22.01.05,0,.09-.03.1-.03.02-.06.04-.09.09l.02.08.02.08s-.09.06-.14.11-.06.08-.06.12c-.01.11-.08.25-.21.4-.13.16-.23.29-.32.4-.04.08-.08.15-.13.23-.05.07-.09.17-.14.28-.04.05-.09.11-.13.2-.04.09-.1.19-.17.29-.03.02-.07.04-.11.05-.04,0-.08.03-.1.08,0,.04-.02.07-.02.1,0,.03-.01.05-.02.07-.22.3-.45.57-.67.83-.22.26-.43.53-.62.82-.1.13-.18.23-.25.29-.07.07-.16.13-.27.19-.08.04-.12.09-.1.16s0,.11-.02.14c-.16.18-.31.33-.45.47-.14.14-.26.3-.36.5-.1-.05-.15-.02-.16.09,0,.11-.04.17-.11.18-.09.02-.14.05-.18.1-.03.05-.08.11-.14.18-.01.02-.01.03,0,.04.02,0,0,.01-.05.02-.03,0-.07.05-.1.11-.03.07-.06.13-.08.19-.18.09-.31.19-.39.31s-.18.23-.3.34c-.03.02-.04.05-.04.07,0,.03-.02.04-.07.05-.07.01-.11.04-.12.08-.01.04-.05.08-.13.13-.04.05-.08.1-.11.16s-.11.1-.23.13c-.06.16-.14.29-.25.41s-.22.25-.34.38c-.12.13-.22.26-.32.37-.1.12-.23.23-.38.33-.1.22-.24.42-.43.62-.15.03-.28.03-.39,0-.1-.03-.21-.07-.3-.11-.1-.04-.2-.07-.31-.09-.11-.02-.24-.02-.4.02-.05-.08-.04-.14.03-.19.07-.05.12-.11.16-.19.2-.25.41-.52.63-.8.23-.28.44-.54.64-.78.1-.11.2-.22.29-.32.1-.1.18-.2.24-.31-.27.15-.47.32-.59.51-.12.19-.29.36-.51.49,0,.05-.02.09-.04.12-.02.02-.04.05-.05.09-.04-.03-.05-.05-.02-.08.03-.02.03-.06,0-.11ZM73.87,60.83c0-.06.05-.14.12-.25s.07-.18,0-.2c0,.05-.06.14-.15.26-.09.12-.08.18.03.2Z"/>
    </g>
  </g>
</svg>