<?xml version="1.0" encoding="UTF-8"?>
<svg id="Layer_2" xmlns="http://www.w3.org/2000/svg" viewBox="0 0 23.94 9.04">
  <defs>
    <style>
      .cls-1 {
        fill: #a79abd;
      }
    </style>
  </defs>
  <g id="Layer_1-2" data-name="Layer_1">
    <path class="cls-1" d="M1.9,4.96c.07-.1.14-.17.24-.24.14-.14.31-.28.42-.42.07-.1.14-.17.21-.24.1-.07.21-.17.28-.31,0-.03,0-.1-.03-.1-.1-.07-.24-.07-.35-.07-.14-.03-.28-.07-.42-.14-.24-.1-.34-.31-.28-.55.07-.17.14-.31.31-.42.17-.14.38-.21.62-.24.07-.04.17,0,.24,0,.14,0,.24.03.35.07.24.03.45.14.66.28.03.04.1.07.14.1.1.1.24.1.35.03.17-.07.38-.1.55-.17.17-.03.38-.07.55-.14.17-.04.38-.1.59-.1.1-.04.17-.04.28-.07.24-.07.24-.14.1-.28-.1-.07-.17-.17-.24-.28-.1-.17-.1-.45.07-.66.07-.07.14-.14.24-.21.14-.1.28-.1.42,0,.1.07.17.14.28.21.03.03.1.1.14.17.21.21.35.48.38.79,0,.07.03.1.07.1.42.1.79.28,1.14.45.03.03.1,0,.1-.03v-.04s0-.1-.04-.14c-.03-.31.04-.62.17-.93.04-.1.1-.21.17-.28.24-.35.48-.62.79-.86.35-.28.52-.31.97-.21.31.1.55.24.79.45.14.14.28.28.38.45.03.07.1.07.14.03.04,0,.1-.03.17-.07.31-.21.69-.28,1.11-.34h.31c.21,0,.38,0,.55.07.24.1.48.17.73.24.1.03.17.1.28.14.21.17.45.38.62.62.14.17.28.38.45.59.14.21.17.41.17.66,0,.17-.03.35-.1.48-.03.07-.07.14-.1.21v.1s0,.07.03.07.07.04.07,0c.24-.17.52-.34.76-.55.04,0,.07-.07.07-.1v-.17c-.03-.17,0-.35.14-.48.07-.1.14-.21.21-.31.1-.17.31-.28.52-.35.07-.03.17,0,.28.03.17.04.24.14.28.31,0,.14,0,.28-.07.41-.17.24-.1.31.17.28.21-.03.38,0,.55.04.1,0,.17,0,.28.03.14.03.28.03.41-.03.03-.04.07,0,.14-.04.03,0,.1,0,.14-.03.24-.14.52-.14.79-.24h.03c.35.03.69,0,1.04.17.04.03.1.07.14.1.03.04.07.07.07.14.03.07,0,.14-.07.17-.1.1-.24.21-.42.21-.07,0-.17.03-.24.07-.07,0-.1.1-.07.17.1.07.17.17.28.28.17.21.35.42.48.66.07.17.21.24.38.28.07.04.17.07.28.1.07.03.14.1.21.14.14.1.21.24.21.45-.04.03-.04.1-.04.14,0,.14-.14.24-.28.24-.07,0-.14-.03-.24-.03q-.1-.04-.17.1s-.04.03-.04.07l-.1.1c-.1,0-.17.03-.24.03-.1.04-.21,0-.31-.03-.1-.04-.14-.1-.21-.17-.1-.24-.07-.48.1-.69.1-.17.21-.31.31-.48.03-.07.03-.14,0-.21-.17-.35-.42-.66-.79-.86h-.07s-.03.04,0,.07c0,.07,0,.1.04.17,0,.1.03.21.07.35,0,.21-.14.38-.34.38-.1,0-.21,0-.28-.03-.21-.1-.38-.24-.48-.45-.03-.1-.07-.17-.14-.28-.14-.17-.21-.38-.21-.62v-.07s-.07-.1-.1-.1-.07,0-.1-.03c-.24,0-.48-.04-.72-.07-.14,0-.24,0-.38.03-.03.04-.03.07-.03.1.1.1.21.21.28.31.14.21.07.45-.14.55-.28.14-.52.14-.79.03-.24-.1-.48-.24-.59-.52-.04-.04-.1-.07-.17-.04-.21.07-.38.21-.52.35-.03.03-.03.1,0,.14.07.14.14.28.21.38.1.14.17.28.28.38.04.1.07.21.07.35,0,.21-.03.45-.14.66-.03.17-.1.31-.17.48-.07.17-.17.35-.28.48-.21.21-.42.38-.66.52-.31.21-.69.34-1.07.41-.04,0-.1.04-.14.04-.1.03-.17.07-.24.17-.14.21-.35.41-.52.59-.17.14-.35.24-.52.31-.48.21-1,.28-1.52.31-.07,0-.14-.04-.21-.04-.21-.03-.42-.07-.59-.14-.21-.04-.38-.14-.52-.28-.07-.04-.1-.1-.14-.14-.21-.14-.31-.35-.38-.59-.03-.17-.03-.31-.14-.48-.04-.04-.04-.07-.04-.14s.04-.14.04-.17c-.04-.1-.07-.24-.07-.34-.04-.04-.04-.07-.07-.1h-.21c-.35.04-.69,0-1-.21-.17-.07-.35-.17-.52-.31-.21-.17-.41-.42-.59-.66-.03-.07-.07-.17-.1-.24-.14-.28-.17-.59-.17-.93,0-.17.03-.35.1-.48.04-.1.07-.21.1-.28.04-.04.04-.07.07-.07.17-.21.38-.42.69-.52.07,0,.14-.03.24-.03.04-.03.07-.07.07-.1-.03-.04-.03-.07-.07-.07-.28-.17-.55-.31-.86-.35-.07,0-.1.04-.1.07-.04.07-.04.17-.04.24-.03.17-.1.31-.21.41-.24.24-.48.42-.83.42-.07.03-.14.03-.21.03-.17.03-.31-.07-.45-.21-.1-.14-.14-.28.03-.45.04-.1.14-.17.21-.28v-.07s-.03-.03-.07-.03h-.04c-.14,0-.31.03-.45.07-.31.07-.62.14-.93.24-.1,0-.17.04-.24.07-.21.1-.28.14-.17.38.17.38.21.79.17,1.21-.04.17-.1.35-.28.45-.1.1-.21.21-.35.28-.1.1-.24.1-.38.03-.17-.03-.28-.1-.38-.24-.07-.07-.1-.14-.1-.24-.04-.24,0-.48.1-.73.07-.07.1-.17.14-.28.04,0,0-.03-.03-.03h-.03s-.07.03-.1.03c-.28.24-.55.48-.83.76-.03.07-.14.14-.21.21-.17.17-.31.38-.45.59-.07.1-.03.17,0,.24.07.07.1.14.17.21.1.17.24.31.35.52.07.07.1.17.14.24.07.1.04.24,0,.35-.03.1-.1.17-.17.21-.17.07-.45.04-.59-.1-.07-.07-.14-.17-.21-.31,0-.07-.04-.14-.07-.21h-.03s-.07,0-.07.04c-.03.03-.07.07-.07.14,0,.21-.07.38-.14.59-.04.1-.07.21-.1.34-.04.1-.04.17.03.28.07.07.14.14.21.21.1.14.1.28.04.41-.07.1-.1.21-.17.31-.04.1-.14.14-.21.1-.1,0-.21-.04-.24-.14-.03-.07-.07-.17-.1-.24-.04-.1-.1-.14-.21-.07-.03,0-.07,0-.1.03-.17.07-.38-.1-.41-.28,0-.24.07-.41.24-.55.17-.1.34-.21.55-.21.1,0,.17-.07.17-.14.04-.07.07-.17.07-.24,0-.21.07-.42.17-.59v-.1s-.03-.1-.07-.1c-.03.04-.1.04-.17.07-.07,0-.14.03-.21.03-.28.04-.55-.17-.59-.41-.04-.07-.04-.14,0-.17.03-.21.14-.38.31-.48.03-.04.1-.07.14-.1.1-.04.21-.07.31-.04.24.04.52.04.76.04.1-.07.14-.14.21-.21ZM8.77,5.68h-.03v.07s.07,0,.07-.03c0,0,0-.04-.03-.04ZM9.64,5.27s0,.03.03,0h.03s.04-.07.04-.07c-.04-.03-.04-.07-.07-.1-.21-.28-.35-.59-.31-.93v-.04s-.07-.07-.1-.07l-.07.07c-.1.14-.17.28-.21.45,0,.17.07.31.21.45.14.07.28.17.45.24ZM9.98,5.06s0-.04.04-.04v.04h-.04ZM10.5,2.26s0,.04.03.04c0,.03.04.03.04.03.07-.03.14-.1.21-.14.24-.17.48-.31.76-.31.1-.03.21,0,.31-.03h.07s0-.07-.03-.1c-.07-.1-.14-.14-.24-.21-.21-.07-.45-.07-.69,0-.14.04-.24.1-.35.21-.07.17-.14.31-.1.52ZM13.13,7.62c.14,0,.28-.07.42-.14.07-.04.1-.07.14-.1.14-.1.28-.21.45-.31v-.07l-.03-.03h-.03c-.45.1-.9.1-1.35.03-.24-.03-.48-.07-.73-.14-.03,0-.07-.03-.1,0-.03,0-.07,0-.07.03.04.17.1.31.35.45.24.17.59.28.97.28ZM12.64,4.51v-.04s-.03-.03-.03,0v.04s0,.03.03,0ZM13.65,4.17c0-.07-.03-.14-.07-.17-.14-.1-.24-.17-.41-.1-.17.03-.28.14-.31.31-.03.14,0,.31.1.45.03.03.07.03.1.07.17,0,.34-.07.45-.21.07-.1.1-.21.14-.35ZM15.34,2.51s.07.1.1.14c0,.04.07.04.1,0,.14-.1.14-.24.1-.38-.1-.28-.24-.48-.52-.62-.07-.07-.14-.07-.24-.07-.14,0-.24.03-.34.1-.04,0-.04.07,0,.1.03.03.1.07.17.14.24.14.45.35.62.59ZM16.31,5.3v-.59c0-.1-.07-.21-.14-.31h-.07l-.04.04c-.03.07-.03.14-.07.21,0,.14,0,.28-.07.42-.14.28-.24.55-.38.79-.04.07-.04.1-.07.14,0,.03.03.07.07.07h.1c.21-.1.38-.24.52-.45.07-.1.14-.21.14-.31Z"/>
  </g>
</svg>