<?xml version="1.0" encoding="UTF-8"?>
<svg id="Layer_3" data-name="Layer 3" xmlns="http://www.w3.org/2000/svg" viewBox="0 0 297.11 62.55">
  <defs>
    <style>
      .cls-1 {
        fill: #231f20;
      }

      .cls-2 {
        fill: #fff;
      }
    </style>
  </defs>
  <g id="Layer_1" data-name="Layer 1">
    <g>
      <g>
        <path class="cls-2" d="M23.77,43.75h30.8v11.22H0L33.63,13.7H7.14V2.49h50.01L23.77,43.75Z"/>
        <path class="cls-2" d="M113.21,2.49h12.07v4.74c1.35-1.62,3.33-3.37,5.05-4.36,2.34-1.37,4.68-1.75,7.39-1.75,2.96,0,6.16.5,9.49,2.49l-4.93,11.09c-2.71-1.75-4.93-1.87-6.16-1.87-2.59,0-5.17.37-7.52,2.87-3.33,3.62-3.33,8.6-3.33,12.09v27.17h-12.07V2.49Z"/>
        <path class="cls-2" d="M165.44,43.75h30.8v11.22h-54.57l33.63-41.26h-26.49V2.49h50.01l-33.38,41.26Z"/>
      </g>
      <path class="cls-2" d="M83.3,62.55c-17.24,0-31.27-14.03-31.27-31.27S66.06,0,83.3,0s31.27,14.03,31.27,31.27-14.03,31.27-31.27,31.27ZM83.3,5.51c-14.2,0-25.76,11.56-25.76,25.76s11.56,25.76,25.76,25.76,25.76-11.56,25.76-25.76-11.56-25.76-25.76-25.76Z"/>
      <path class="cls-1" d="M76.09,29.31c.27-.33.73-.27,1.13-.27,4.49.03,8.98-.04,13.46.04-1.48,3.24-3.69,6.2-6.45,8.61-2.99,2.87-6.99,4.64-11.09,5.7-4.16.86-8.39,1.43-12.61,1.87-.02-.07-.04-.2-.06-.27,1.16-.15,2.24-.6,3.36-.87,4.47-1.11,8.83-2.66,12.94-4.64,3.94-1.87,7.33-4.74,9.61-8.26-4.11.06-8.23.03-12.35.02.56-.74,1.36-1.29,2.05-1.92Z"/>
      <g>
        <path class="cls-2" d="M54.61,54.88c2.24-2.09,4.41-4.25,6.6-6.39,1.29-1.18,3.05-1.87,4.8-1.78,1.33.06,2.67-.38,3.99-.13,1.74,1.42,3.25,3.08,4.78,4.72,1.39,1.39,2.66,2.89,4.05,4.29.39.52.91.93,1.27,1.47h3.58c-.26-.15-.45-.43-.67-.63-1.72-1.89-3.51-3.72-5.23-5.6-.54-.61-1.2-1.12-1.67-1.78,5.45.86,11.24-1.1,15.16-4.97,2.72-2.56,4.5-6.04,5.21-9.7.61-3.04.33-6.16-.21-9.18-.12-1.5-.19-3.25.93-4.42,1.68-1.71,4.03-2.4,6.1-3.48-1.31-.71-2.93-.6-4.39-.55-.6,0-1.23.29-1.82.09-1.57-2.61-4.57-4.35-7.64-4.18-1.45-.1-2.91.21-4.24.8-1.71.75-3.05,2.17-3.95,3.78-.84,1.5-1.28,3.18-2.07,4.71-.73,1.45-1.67,2.8-2.86,3.92-2.79,2.82-5.69,5.54-8.33,8.5-.9.91-1.8,1.82-2.61,2.81-1.53,1.5-2.91,3.16-4.44,4.67-1.04,1.21-2.17,2.35-3.29,3.48-.99,1.19-2.11,2.28-3.19,3.39-1.76,1.98-4.56,4.27-6.33,6.24l6.49-.06ZM84.59,46.5c-2.09,1.01-4.47,1.33-6.76,1.13-1.11-.11-2.16-.52-3.23-.81-.01-.06-.03-.19-.04-.25,1.3-.43,2.52-1.07,3.72-1.72,1.83-.98,3.42-2.34,5.29-3.23,1.42-.78,3.06-.96,4.51-1.68,1.04-.39,1.94-1.05,2.92-1.54-1,3.38-3.26,6.46-6.4,8.12ZM90.27,17.51c.71-.17,1.56.03,1.89.75.46.76.05,1.82-.74,2.16-.72.4-1.72.03-2.03-.74-.41-.8.08-1.83.88-2.17ZM66.26,43.66c3.87-1.03,7.63-2.48,11.18-4.32,3.41-1.74,6.34-4.41,8.3-7.7-3.55.06-7.11.03-10.67.02.48-.69,1.18-1.2,1.77-1.79.23-.31.63-.26.97-.26,3.88.03,7.76-.04,11.63.03-1.28,3.02-3.19,5.77-5.57,8.03-2.58,2.67-6.04,4.33-9.59,5.31-3.59.8-7.25,1.33-10.9,1.74-.01-.06-.04-.19-.05-.25,1-.14,1.93-.56,2.91-.81Z"/>
        <path class="cls-1" d="M87.98,40.02c1.04-.39,1.94-1.05,2.92-1.54-1,3.38-3.26,6.46-6.4,8.12-2.09,1.01-4.47,1.33-6.76,1.13-1.11-.11-2.16-.52-3.23-.81-.01-.06-.03-.19-.04-.25,1.3-.43,2.52-1.07,3.72-1.72,1.83-.98,3.42-2.34,5.29-3.23,1.42-.78,3.06-.96,4.51-1.68Z"/>
      </g>
      <polygon class="cls-2" points="259.17 2.09 246.6 2.09 246.6 55.31 283.31 55.31 283.31 43.35 259.17 43.35 259.17 2.09"/>
      <ellipse class="cls-2" cx="291.35" cy="49.87" rx="5.76" ry="5.8"/>
      <path class="cls-2" d="M231.97,2.55h12.07v52.48h-12.07v-5.48c-5.3,6.23-11.83,7.1-15.52,7.1-16.02,0-25.13-13.46-25.13-27.92,0-17.08,11.58-27.55,25.25-27.55,3.82,0,10.47,1,15.4,7.48V2.55ZM203.64,28.98c0,9.1,5.67,16.7,14.41,16.7,7.64,0,14.66-5.61,14.66-16.58s-7.02-16.95-14.66-16.95c-8.75,0-14.41,7.48-14.41,16.83Z"/>
    </g>
  </g>
</svg>