<?xml version="1.0" encoding="UTF-8"?>
<svg id="Layer_2" data-name="Layer 2" xmlns="http://www.w3.org/2000/svg" viewBox="0 0 111.37 37.88">
  <defs>
    <style>
      .cls-1 {
        fill: #231f20;
      }

      .cls-2 {
        isolation: isolate;
      }
    </style>
  </defs>
  <g id="Layer_1-2" data-name="Layer 1-2">
    <g>
      <path class="cls-1" d="M99.93,11.3c-1.05.05-1.77.1-2.2.1h-.34s-.05,0-.1.05h-.05c1.25-6.23,4.45-10.06,9.58-11.45-1.2,3.07-2.63,5.46-4.31,7.18,1.87-.81,3.69-1.2,5.51-1.2,1.1,0,2.25.14,3.35.43-4.26,3.45-8.62,4.65-11.45,4.88h0Z"/>
      <g class="cls-2">
        <g class="cls-2">
          <path class="cls-1" d="M19.42,21.02c0,5.39-4.34,9.73-9.69,9.73h-.37c-.2,0-.45-.04-.65-.04-.04,0-.08,0-.12-.04h-.24s-.08-.04-.12-.04c-.08,0-.16,0-.24-.04h-.12s-.08-.04-.12-.04c-.12,0-.24-.04-.36-.08-.04,0-.12-.04-.2-.04-.16-.04-.28-.08-.45-.12t-.08-.04s-.12-.04-.16-.08h-.12s-.08-.04-.12-.08h-.08c-.12-.08-.24-.12-.37-.16-.04-.04-.08-.04-.12-.08-.41-.16-.81-.41-1.22-.65,0,0-.04-.04-.08-.04-.04-.04-.08-.04-.08-.08-.04,0-.08-.04-.12-.08-.04,0-.04-.04-.08-.04-.08-.04-.12-.08-.2-.16-.04,0-.04-.04-.08-.04-.04-.04-.08-.04-.08-.08-.08-.04-.16-.12-.24-.16,0-.04-.04-.04-.04-.08-.2-.16-.41-.33-.61-.53,0-.04-.04-.04-.04-.08l-.49-.49s-.04-.04-.04-.08t-.08-.08s-.04-.08-.08-.08c-.12-.16-.2-.28-.32-.45-.04-.04-.08-.12-.12-.2-.04-.04-.08-.12-.12-.16-.04-.04-.04-.08-.08-.12-.04-.08-.12-.2-.16-.28-.04-.04-.04-.08-.08-.12-.12-.28-.28-.57-.41-.85,0-.04-.04-.04-.04-.08-.04-.04-.04-.08-.04-.12-.04-.04-.04-.08-.04-.12-.04-.08-.08-.12-.08-.2h-.04c0-.12-.04-.24-.08-.32-.08-.16-.12-.32-.16-.49,0-.08-.04-.16-.04-.24-.04-.12-.08-.24-.08-.37-.04-.04-.04-.12-.04-.2,0-.04-.04-.08-.04-.12v-.12s-.04-.08-.04-.12c0-.12,0-.24-.04-.37v-.24c-.04-.24-.04-.49-.04-.77V2.37h2.23c1.26,0,2.27,1.01,2.27,2.23v8.27c1.5-.97,3.28-1.54,5.23-1.54,2.68,0,5.11,1.09,6.85,2.84,1.7,1.7,2.76,4.05,2.84,6.61v.24ZM14.96,20.94c-.08-2.8-2.35-5.07-5.15-5.15-1.5,0-2.84.57-3.81,1.54-.97.97-1.54,2.31-1.5,3.81.04,2.8,2.31,5.07,5.11,5.11,2.96.08,5.39-2.35,5.35-5.31ZM9.73,11.33c-1.95,0-3.73.53-5.23,1.5v.04c1.5-.97,3.28-1.54,5.23-1.54,2.68,0,5.11,1.09,6.85,2.84,1.7,1.7,2.76,4.05,2.84,6.61-.12-5.23-4.42-9.45-9.69-9.45Z"/>
          <path class="cls-1" d="M39.69,21.02v9.73h-2.96c-.85,0-1.5-.69-1.5-1.54-1.54.97-3.32,1.54-5.23,1.54-2.72,0-5.11-1.09-6.89-2.84-1.74-1.78-2.84-4.18-2.84-6.89,0-5.31,4.38-9.69,9.69-9.69,2.72,0,5.15,1.09,6.89,2.84,1.58,1.58,2.64,3.73,2.8,6.12.04.24.04.49.04.73ZM35.23,21.14c0-1.5-.57-2.84-1.54-3.81-.97-.93-2.27-1.54-3.69-1.54s-2.76.61-3.73,1.54c-.93.97-1.5,2.27-1.5,3.69s.57,2.76,1.5,3.73c.97.97,2.31,1.54,3.81,1.5,2.8-.04,5.07-2.31,5.15-5.11Z"/>
          <path class="cls-1" d="M68.93,19.64v11.11c-2.47,0-4.46-1.99-4.46-4.5v-6.69c0-2.11-1.7-3.77-3.81-3.77-2.03.04-3.69,1.74-3.69,3.81v11.15h-4.46v-11.19c0-2.11-1.7-3.77-3.81-3.77-2.03.04-3.65,1.74-3.65,3.81v6.65c0,2.51-2.03,4.5-4.5,4.5v-11.11c0-4.54,3.65-8.27,8.19-8.31,2.35,0,4.5.97,6,2.55,1.5-1.58,3.65-2.55,6.04-2.55,4.54.04,8.15,3.77,8.15,8.31Z"/>
          <path class="cls-1" d="M89.21,21.02c0,5.39-4.34,9.73-9.69,9.73h-.37c-.2,0-.45-.04-.65-.04-.04,0-.08,0-.12-.04h-.24s-.08-.04-.12-.04c-.08,0-.16,0-.24-.04h-.12s-.08-.04-.12-.04c-.12,0-.24-.04-.37-.08-.04,0-.12-.04-.2-.04-.16-.04-.28-.08-.45-.12t-.08-.04s-.12-.04-.16-.08h-.12s-.08-.04-.12-.08h-.08c-.12-.08-.24-.12-.37-.16-.04-.04-.08-.04-.12-.08-.4-.16-.81-.41-1.22-.65,0,0-.04-.04-.08-.04-.04-.04-.08-.04-.08-.08-.04,0-.08-.04-.12-.08-.04,0-.04-.04-.08-.04-.08-.04-.12-.08-.2-.16-.04,0-.04-.04-.08-.04-.04-.04-.08-.04-.08-.08-.08-.04-.16-.12-.24-.16,0-.04-.04-.04-.04-.08-.2-.16-.41-.33-.61-.53,0-.04-.04-.04-.04-.08l-.49-.49s-.04-.04-.04-.08t-.08-.08s-.04-.08-.08-.08c-.12-.16-.2-.28-.33-.45-.04-.04-.08-.12-.12-.2-.04-.04-.08-.12-.12-.16-.04-.04-.04-.08-.08-.12-.04-.08-.12-.2-.16-.28-.04-.04-.04-.08-.08-.12-.12-.28-.28-.57-.41-.85,0-.04-.04-.04-.04-.08-.04-.04-.04-.08-.04-.12-.04-.04-.04-.08-.04-.12-.04-.08-.08-.12-.08-.2h-.04c0-.12-.04-.24-.08-.32-.08-.16-.12-.32-.16-.49,0-.08-.04-.16-.04-.24-.04-.12-.08-.24-.08-.37-.04-.04-.04-.12-.04-.2,0-.04-.04-.08-.04-.12v-.12s-.04-.08-.04-.12c0-.12,0-.24-.04-.37v-.24c-.04-.24-.04-.49-.04-.77V2.37h2.23c1.26,0,2.27,1.01,2.27,2.23v8.27c1.5-.97,3.29-1.54,5.23-1.54,2.68,0,5.11,1.09,6.85,2.84s2.76,4.05,2.84,6.61v.24ZM84.75,20.94c-.08-2.8-2.35-5.07-5.15-5.15-1.5,0-2.84.57-3.81,1.54s-1.54,2.31-1.5,3.81c.04,2.8,2.31,5.07,5.11,5.11,2.96.08,5.39-2.35,5.35-5.31ZM79.52,11.33c-1.95,0-3.73.53-5.23,1.5v.04c1.5-.97,3.29-1.54,5.23-1.54,2.68,0,5.11,1.09,6.85,2.84s2.76,4.05,2.84,6.61c-.12-5.23-4.42-9.45-9.69-9.45Z"/>
          <path class="cls-1" d="M106.64,27.91c-.49.49-1.05.93-1.62,1.3-1.54.97-3.33,1.54-5.23,1.54s-3.73-.57-5.23-1.54c-2.72-1.7-4.5-4.74-4.5-8.19v-9.69c2.47,0,4.5,1.99,4.5,4.46v5.23c0,1.46.57,2.76,1.5,3.73.97.93,2.27,1.5,3.73,1.5s2.72-.57,3.69-1.5c.93-.97,1.54-2.27,1.54-3.73v-5.23c0-2.47,1.99-4.46,4.46-4.46v9.69c0,2.72-1.09,5.11-2.84,6.89Z"/>
        </g>
      </g>
      <g class="cls-2">
        <g class="cls-2">
          <path class="cls-1" d="M71.31,31.94h.93c.52,0,.87.02,1.05.06.28.06.5.2.68.41s.26.47.26.77c0,.25-.06.48-.18.67-.12.19-.29.34-.51.44s-.53.15-.92.15l1.68,2.17h-.58l-1.68-2.17h-.26v2.17h-.47v-4.68ZM71.78,32.4v1.59h.81c.31,0,.54-.02.69-.08.15-.06.27-.15.35-.29.08-.13.13-.28.13-.44s-.04-.3-.13-.43-.2-.22-.33-.28c-.14-.05-.37-.08-.69-.08h-.83Z"/>
          <path class="cls-1" d="M78.08,35.47l.38.2c-.12.24-.27.44-.43.58s-.34.26-.54.34c-.2.08-.43.12-.68.12-.56,0-1.01-.18-1.32-.55s-.48-.79-.48-1.25c0-.44.13-.83.4-1.17.34-.44.8-.66,1.37-.66s1.06.22,1.41.67c.25.32.38.71.38,1.18h-3.11c0,.4.14.73.39.99.25.26.55.38.92.38.18,0,.35-.03.51-.09.17-.06.31-.14.42-.24.12-.1.24-.27.38-.49ZM78.08,34.54c-.06-.24-.15-.43-.26-.57-.11-.14-.26-.26-.45-.34s-.38-.13-.59-.13c-.34,0-.63.11-.88.33-.18.16-.31.4-.4.71h2.58Z"/>
          <path class="cls-1" d="M79.4,33.16h.44v.62c.18-.24.38-.41.59-.53.22-.12.45-.18.71-.18s.49.07.69.2c.2.13.35.31.44.53s.14.57.14,1.04v1.78h-.45v-1.65c0-.4-.02-.67-.05-.8-.05-.23-.15-.4-.3-.52-.15-.12-.34-.17-.57-.17-.27,0-.51.09-.72.27-.21.18-.35.4-.42.66-.04.17-.06.49-.06.94v1.27h-.44v-3.46Z"/>
          <path class="cls-1" d="M83.76,31.88h.45v1.28h.71v.38h-.71v3.07h-.45v-3.07h-.61v-.38h.61v-1.28Z"/>
          <path class="cls-1" d="M86.97,35.75l.4-.24c.28.51.6.77.97.77.16,0,.3-.04.44-.11s.24-.17.31-.29c.07-.12.11-.25.11-.39,0-.16-.05-.31-.16-.46-.15-.21-.41-.46-.8-.75-.39-.29-.63-.51-.73-.64-.17-.22-.25-.46-.25-.72,0-.2.05-.39.15-.56.1-.17.23-.3.41-.4.18-.1.37-.15.58-.15.22,0,.43.05.62.16.19.11.4.31.61.6l-.38.29c-.18-.23-.33-.39-.45-.46s-.26-.11-.41-.11c-.19,0-.34.06-.46.17s-.18.26-.18.42c0,.1.02.2.06.3.04.09.12.2.23.31.06.06.26.21.6.47.41.3.68.56.83.8s.23.47.23.7c0,.34-.13.63-.39.88-.26.25-.57.38-.94.38-.28,0-.54-.08-.77-.23-.23-.15-.44-.41-.64-.76Z"/>
          <path class="cls-1" d="M90.62,33.16h.45v.64c.18-.24.38-.42.61-.54s.48-.18.76-.18c.49,0,.91.18,1.26.53.35.35.52.78.52,1.28s-.17.94-.52,1.29c-.35.35-.76.53-1.25.53-.27,0-.53-.06-.76-.17-.23-.11-.44-.28-.62-.51v1.86h-.45v-4.72ZM92.41,33.5c-.38,0-.71.13-.97.4-.26.27-.39.6-.39,1,0,.26.06.5.18.71.12.21.29.38.5.5.22.12.45.18.69.18s.46-.06.67-.19c.21-.12.38-.3.5-.52.12-.22.19-.46.19-.7s-.06-.48-.19-.7c-.12-.22-.29-.39-.5-.51-.21-.12-.44-.18-.68-.18Z"/>
          <path class="cls-1" d="M98.5,33.16v3.46h-.44v-.59c-.19.23-.4.4-.63.51-.23.12-.49.17-.76.17-.49,0-.91-.18-1.25-.53-.35-.36-.52-.79-.52-1.29s.17-.92.52-1.28.77-.53,1.26-.53c.28,0,.54.06.77.18.23.12.43.3.61.54v-.64h.44ZM96.73,33.5c-.25,0-.48.06-.69.18-.21.12-.38.29-.5.51-.12.22-.19.45-.19.7s.06.48.19.7c.12.22.29.4.5.52.21.12.44.19.68.19s.47-.06.69-.18c.22-.12.39-.29.5-.5.12-.21.18-.45.18-.71,0-.4-.13-.73-.4-1s-.59-.4-.97-.4Z"/>
          <path class="cls-1" d="M102.86,33.88l-.35.22c-.31-.41-.72-.61-1.25-.61-.42,0-.77.14-1.05.41-.28.27-.42.6-.42.99,0,.25.06.49.19.71.13.22.3.39.53.52.22.12.47.18.75.18.51,0,.92-.2,1.25-.61l.35.23c-.17.25-.39.44-.67.58-.28.14-.6.21-.95.21-.55,0-1-.17-1.36-.52s-.54-.77-.54-1.27c0-.33.08-.65.25-.93.17-.29.4-.51.7-.67.29-.16.62-.24.99-.24.23,0,.45.04.66.11.21.07.39.16.54.27.15.11.27.25.38.43Z"/>
          <path class="cls-1" d="M106.63,35.47l.38.2c-.12.24-.26.44-.43.58s-.34.26-.54.34c-.2.08-.43.12-.68.12-.56,0-1-.18-1.32-.55s-.48-.79-.48-1.25c0-.44.13-.83.4-1.17.34-.44.8-.66,1.37-.66s1.06.22,1.41.67c.25.32.38.71.38,1.18h-3.11c0,.4.14.73.38.99s.55.38.92.38c.18,0,.35-.03.51-.09.17-.06.31-.14.42-.24.12-.1.24-.27.38-.49ZM106.63,34.54c-.06-.24-.15-.43-.26-.57-.11-.14-.26-.26-.45-.34-.19-.09-.38-.13-.59-.13-.34,0-.63.11-.88.33-.18.16-.31.4-.4.71h2.58Z"/>
        </g>
      </g>
    </g>
  </g>
</svg>