<?xml version="1.0" encoding="UTF-8"?>
<svg id="Layer_2" data-name="Layer 2" xmlns="http://www.w3.org/2000/svg" viewBox="0 0 277.61 130.79">
  <defs>
    <style>
      .cls-1 {
        fill: #c3c3e2;
      }

      .cls-2 {
        fill: #2e3192;
      }

      .cls-3 {
        fill: #fff;
      }

      .cls-4 {
        isolation: isolate;
      }
    </style>
  </defs>
  <g id="Layer_1-2" data-name="Layer 1-2">
    <g>
      <g class="cls-4">
        <g class="cls-4">
          <path class="cls-3" d="M17.79,110.24h5.58v.85h-5.58v3.36h5.83v.88h-7.07v-9.03h7.07v.88h-5.83v3.06Z"/>
        </g>
        <g class="cls-4">
          <path class="cls-3" d="M26.27,115.33h-1.12v-9.03h1.12v9.03Z"/>
          <path class="cls-3" d="M33.5,115.33h-1.12v-9.03h1.12v9.03Z"/>
        </g>
        <g class="cls-4">
          <path class="cls-3" d="M41.78,115.33h-1.12l.08-.83-.03-.03c-.4.65-1.22.95-2.56.95-1.88,0-2.66-.65-2.66-2.21v-4.21h1.12v4.21c0,1.14.35,1.42,1.72,1.42,1.77,0,2.33-.47,2.33-2v-3.63h1.12v6.32Z"/>
        </g>
        <g class="cls-4">
          <path class="cls-3" d="M50.14,115.73c0,.79-.1,1.19-.36,1.54-.46.6-1.39.87-2.94.87s-2.39-.23-2.77-.78c-.21-.3-.28-.6-.28-1.29h1.07c.03,1.11.31,1.29,2.03,1.29s2.13-.34,2.13-1.54v-1.27h-.03c-.17.35-.35.5-.74.65-.45.16-.99.23-1.72.23-1.02,0-1.77-.19-2.25-.57-.59-.49-.79-1.11-.79-2.56,0-1.6.17-2.22.73-2.73.48-.45,1.24-.65,2.43-.65,1.3,0,2,.27,2.41.96h.02s-.05-.87-.05-.87h1.12v6.73ZM44.65,112.05c0,2.21.31,2.59,2.15,2.59s2.18-.49,2.18-2.63c0-1.88-.41-2.31-2.18-2.31s-2.15.41-2.15,2.35Z"/>
        </g>
        <g class="cls-4">
          <path class="cls-3" d="M52.06,110.78c.03-1.52.61-1.87,3.07-1.87s3.2.5,3.2,2.25v4.17h-1.12l.08-.68h-.02c-.48.58-1.12.77-2.62.77-2.15,0-2.91-.5-2.91-1.92,0-.73.28-1.38.71-1.64.41-.26,1.17-.38,2.25-.38.83,0,1.49.08,1.95.23.26.08.38.18.53.42h.03v-.77c0-1.48-.31-1.73-2.01-1.73-1.55,0-2.01.22-2.01.95v.2h-1.12ZM52.92,113.35c0,1.06.35,1.29,1.95,1.29,1.01,0,1.72-.12,2.06-.37.23-.15.33-.41.33-.8,0-.96-.5-1.25-2.18-1.25-1.8,0-2.16.19-2.16,1.12Z"/>
          <path class="cls-3" d="M61.39,109.01l-.12.73h.03c.48-.64,1.09-.88,2.2-.88,1.47,0,2.13.57,2.13,1.8v.43h-1.11v-.51c0-.66-.36-.93-1.27-.93-.81,0-1.4.23-1.65.65-.15.26-.21.62-.21,1.25v3.79h-1.12v-6.32h1.12Z"/>
          <path class="cls-3" d="M71.97,107.34h-1.12v-1.04h1.12v1.04ZM71.97,115.33h-1.12v-6.32h1.12v6.32Z"/>
          <path class="cls-3" d="M80.39,115.33h-1.12l.05-.83h-.02c-.38.65-1.12.92-2.49.92-1.11,0-1.88-.22-2.34-.64-.53-.47-.73-1.23-.73-2.71,0-2.37.74-3.17,2.99-3.17.81,0,1.45.11,1.93.31.31.13.45.27.58.58h.03v-3.51h1.12v9.03ZM75.44,110.02c-.35.28-.53.96-.53,2,0,2.17.36,2.61,2.15,2.61.83,0,1.37-.12,1.7-.38.35-.26.51-1.04.51-2.27,0-1.79-.5-2.29-2.23-2.29-.74,0-1.35.12-1.6.33Z"/>
          <path class="cls-3" d="M88.89,113.42c.02.11.02.23.02.26,0,1.3-.86,1.75-3.32,1.75-2.79,0-3.43-.61-3.43-3.28s.66-3.24,3.47-3.24c1.9,0,2.66.3,3.04,1.2.18.45.23.81.23,2.22h-5.55c.02,2,.3,2.3,2.23,2.3s2.18-.14,2.16-1.22h1.16ZM87.73,111.62c-.02-.88-.03-1.03-.17-1.34-.2-.46-.69-.62-1.93-.62-1.93,0-2.29.31-2.28,1.96h4.38Z"/>
          <path class="cls-3" d="M90.7,110.78c.03-1.52.61-1.87,3.07-1.87s3.2.5,3.2,2.25v4.17h-1.12l.08-.68h-.02c-.48.58-1.12.77-2.62.77-2.15,0-2.91-.5-2.91-1.92,0-.73.28-1.38.71-1.64.41-.26,1.17-.38,2.25-.38.83,0,1.49.08,1.95.23.26.08.38.18.53.42h.03v-.77c0-1.48-.31-1.73-2.01-1.73-1.55,0-2.01.22-2.01.95v.2h-1.12ZM91.56,113.35c0,1.06.35,1.29,1.95,1.29,1.01,0,1.72-.12,2.06-.37.23-.15.33-.41.33-.8,0-.96-.5-1.25-2.18-1.25-1.8,0-2.16.19-2.16,1.12Z"/>
          <path class="cls-3" d="M100.03,115.33h-1.12v-9.03h1.12v9.03Z"/>
          <path class="cls-3" d="M152.65,109.01l-.05.8h.02c.43-.64,1.14-.89,2.54-.89,1.04,0,1.88.23,2.29.62.5.47.71,1.31.71,2.72,0,2.37-.74,3.17-2.96,3.17-1.4,0-2.08-.23-2.53-.84h-.03v3.45h-1.12v-9.03h1.12ZM153.23,110.01c-.38.27-.56,1-.56,2.19,0,1.96.43,2.44,2.25,2.44,1.7,0,2.08-.45,2.08-2.42,0-2.11-.35-2.52-2.16-2.52-.81,0-1.3.09-1.6.31Z"/>
          <path class="cls-3" d="M159.98,110.78c.03-1.52.61-1.87,3.07-1.87s3.2.5,3.2,2.25v4.17h-1.12l.08-.68h-.02c-.48.58-1.12.77-2.62.77-2.15,0-2.91-.5-2.91-1.92,0-.73.28-1.38.71-1.64.41-.26,1.17-.38,2.25-.38.83,0,1.49.08,1.95.23.26.08.38.18.53.42h.03v-.77c0-1.48-.31-1.73-2.01-1.73-1.55,0-2.01.22-2.01.95v.2h-1.12ZM160.84,113.35c0,1.06.35,1.29,1.95,1.29,1.01,0,1.72-.12,2.06-.37.23-.15.33-.41.33-.8,0-.96-.5-1.25-2.18-1.25-1.8,0-2.16.19-2.16,1.12Z"/>
        </g>
        <g class="cls-4">
          <path class="cls-3" d="M169.28,109.01l-.12.73h.03c.48-.64,1.09-.88,2.2-.88,1.47,0,2.13.57,2.13,1.8v.43h-1.11v-.51c0-.66-.36-.93-1.27-.93-.81,0-1.4.23-1.65.65-.15.26-.21.62-.21,1.25v3.79h-1.12v-6.32h1.12Z"/>
        </g>
        <g class="cls-4">
          <path class="cls-3" d="M174.82,110.78c.03-1.52.61-1.87,3.07-1.87s3.2.5,3.2,2.25v4.17h-1.12l.08-.68h-.02c-.48.58-1.12.77-2.62.77-2.15,0-2.91-.5-2.91-1.92,0-.73.28-1.38.71-1.64.41-.26,1.17-.38,2.25-.38.83,0,1.49.08,1.95.23.26.08.38.18.53.42h.03v-.77c0-1.48-.31-1.73-2.01-1.73-1.55,0-2.01.22-2.01.95v.2h-1.12ZM175.68,113.35c0,1.06.35,1.29,1.95,1.29,1.01,0,1.72-.12,2.06-.37.23-.15.33-.41.33-.8,0-.96-.5-1.25-2.18-1.25-1.8,0-2.16.19-2.16,1.12Z"/>
        </g>
        <g class="cls-4">
          <path class="cls-3" d="M193.58,113.04c0,.89-.08,1.29-.41,1.65-.45.53-1.27.73-2.86.73-2.74,0-3.38-.62-3.38-3.33,0-2.49.73-3.18,3.4-3.18,1.67,0,2.58.31,2.92,1,.15.28.2.57.2,1.15h-1.12v-.16c0-.93-.46-1.2-2.06-1.2-.97,0-1.45.09-1.75.37-.26.24-.41.99-.41,2.12,0,1.06.15,1.76.46,2.1.23.26.78.35,1.96.35,1.65,0,1.93-.24,1.93-1.6h1.12Z"/>
        </g>
        <g class="cls-4">
          <path class="cls-3" d="M195.29,110.78c.03-1.52.61-1.87,3.07-1.87s3.2.5,3.2,2.25v4.17h-1.12l.08-.68h-.02c-.48.58-1.12.77-2.62.77-2.15,0-2.91-.5-2.91-1.92,0-.73.28-1.38.71-1.64.41-.26,1.17-.38,2.25-.38.83,0,1.49.08,1.95.23.26.08.38.18.53.42h.03v-.77c0-1.48-.31-1.73-2.01-1.73-1.55,0-2.01.22-2.01.95v.2h-1.12ZM196.15,113.35c0,1.06.35,1.29,1.95,1.29,1.01,0,1.72-.12,2.06-.37.23-.15.33-.41.33-.8,0-.96-.5-1.25-2.18-1.25-1.8,0-2.16.19-2.16,1.12Z"/>
        </g>
        <g class="cls-4">
          <path class="cls-3" d="M209.93,115.33h-1.12l.05-.83h-.02c-.38.65-1.12.92-2.49.92-1.11,0-1.88-.22-2.34-.64-.53-.47-.73-1.23-.73-2.71,0-2.37.74-3.17,2.99-3.17.81,0,1.45.11,1.93.31.31.13.45.27.58.58h.03v-3.51h1.12v9.03ZM204.98,110.02c-.35.28-.53.96-.53,2,0,2.17.36,2.61,2.15,2.61.83,0,1.37-.12,1.7-.38.35-.26.51-1.04.51-2.27,0-1.79-.5-2.29-2.23-2.29-.74,0-1.35.12-1.6.33Z"/>
        </g>
        <g class="cls-4">
          <path class="cls-3" d="M211.86,110.78c.03-1.52.61-1.87,3.07-1.87s3.2.5,3.2,2.25v4.17h-1.12l.08-.68h-.02c-.48.58-1.12.77-2.62.77-2.15,0-2.91-.5-2.91-1.92,0-.73.28-1.38.71-1.64.41-.26,1.17-.38,2.25-.38.83,0,1.49.08,1.95.23.26.08.38.18.53.42h.03v-.77c0-1.48-.31-1.73-2.01-1.73-1.55,0-2.01.22-2.01.95v.2h-1.12ZM212.72,113.35c0,1.06.35,1.29,1.95,1.29,1.01,0,1.72-.12,2.06-.37.23-.15.33-.41.33-.8,0-.96-.5-1.25-2.18-1.25-1.8,0-2.16.19-2.16,1.12Z"/>
        </g>
        <g class="cls-4">
          <path class="cls-3" d="M230.71,113.42c.02.11.02.23.02.26,0,1.3-.86,1.75-3.32,1.75-2.79,0-3.43-.61-3.43-3.28s.66-3.24,3.47-3.24c1.9,0,2.66.3,3.04,1.2.18.45.23.81.23,2.22h-5.55c.02,2,.3,2.3,2.23,2.3s2.18-.14,2.16-1.22h1.16ZM229.55,111.62c-.02-.88-.03-1.03-.17-1.34-.2-.46-.69-.62-1.93-.62-1.93,0-2.29.31-2.28,1.96h4.38Z"/>
        </g>
        <g class="cls-4">
          <path class="cls-3" d="M235.7,115.33h-1.62l-2.56-6.32h1.17l1.35,3.44.43,1.08.2.54.21.54h.02l.2-.54.2-.54.41-1.07,1.3-3.45h1.26l-2.58,6.32Z"/>
        </g>
        <g class="cls-4">
          <path class="cls-3" d="M245.78,113.42c.02.11.02.23.02.26,0,1.3-.86,1.75-3.32,1.75-2.79,0-3.43-.61-3.43-3.28s.66-3.24,3.47-3.24c1.9,0,2.66.3,3.04,1.2.18.45.23.81.23,2.22h-5.55c.02,2,.3,2.3,2.23,2.3s2.18-.14,2.16-1.22h1.16ZM244.63,111.62c-.02-.88-.03-1.03-.17-1.34-.2-.46-.69-.62-1.93-.62-1.93,0-2.29.31-2.28,1.96h4.38Z"/>
          <path class="cls-3" d="M248.69,109.01l-.02.87h.02c.36-.68,1.12-.96,2.58-.96,1.27,0,2.11.27,2.51.81.2.27.26.62.26,1.49v4.11h-1.12v-4.03c0-.68-.03-.87-.18-1.11-.2-.35-.68-.49-1.63-.49-1.7,0-2.36.51-2.36,1.83v3.8h-1.17v-6.32h1.12Z"/>
        </g>
        <g class="cls-4">
          <path class="cls-3" d="M260.11,109.78h-2.97v3.87c0,.79.21.99,1.07.99.94,0,1.16-.22,1.16-1.21,0-.09,0-.18-.02-.34h1.04c.02.19.02.38.02.47,0,1.3-.66,1.85-2.21,1.85-1.19,0-1.82-.26-2.06-.81-.1-.23-.12-.39-.12-.96v-3.87h-1.07v-.77h1.07v-1.52h1.12v1.52h2.97v.77Z"/>
        </g>
        <g class="cls-4">
          <path class="cls-3" d="M268.33,112.19c0,2.69-.58,3.24-3.42,3.24s-3.4-.54-3.4-3.3.59-3.21,3.42-3.21,3.4.54,3.4,3.28ZM263.01,110.12c-.23.31-.33.88-.33,2.02,0,2.27.2,2.5,2.23,2.5s2.25-.24,2.25-2.46-.21-2.48-2.23-2.48c-1.14,0-1.68.12-1.92.42Z"/>
        </g>
        <g class="cls-4">
          <path class="cls-3" d="M271.25,115.33h-1.3v-1.23h1.3v1.23Z"/>
        </g>
      </g>
      <g class="cls-4">
        <g class="cls-4">
          <path class="cls-1" d="M4.77,4.66h27.17c7.42,0,13.78,2.65,19.08,7.96,5.3,5.3,7.96,11.71,7.96,19.21,0,6.9-2.33,12.94-6.99,18.11,4.66,5.18,6.99,11.21,6.99,18.11,0,7.5-2.65,13.91-7.96,19.21-5.3,5.3-11.67,7.96-19.08,7.96H4.77V4.66ZM31.94,22.65h-9.19v18.37h9.19c2.5,0,4.66-.91,6.47-2.72,1.81-1.81,2.72-3.99,2.72-6.53s-.91-4.7-2.72-6.47c-1.81-1.77-3.97-2.65-6.47-2.65ZM31.94,77.24c2.5,0,4.66-.88,6.47-2.65,1.81-1.77,2.72-3.92,2.72-6.47s-.91-4.72-2.72-6.53c-1.81-1.81-3.97-2.72-6.47-2.72h-9.19v18.37h9.19Z"/>
        </g>
        <g class="cls-4">
          <path class="cls-1" d="M103.23,95.23l-4.01-4.01c-4.31,2.67-9.01,4.01-14.1,4.01-7.5,0-13.91-2.65-19.21-7.96s-7.96-11.69-7.96-19.15,2.65-13.84,7.96-19.15c5.3-5.3,11.69-7.96,19.15-7.96s13.84,2.65,19.15,7.96c5.3,5.3,7.96,11.67,7.96,19.08v27.17h-8.93ZM91.59,74.59c1.81-1.77,2.72-3.92,2.72-6.47s-.91-4.72-2.72-6.53c-1.81-1.81-3.99-2.72-6.53-2.72s-4.7.91-6.47,2.72c-1.77,1.81-2.65,3.99-2.65,6.53s.88,4.7,2.65,6.47c1.77,1.77,3.92,2.65,6.47,2.65s4.72-.88,6.53-2.65Z"/>
        </g>
      </g>
      <g class="cls-4">
        <g class="cls-4">
          <path class="cls-1" d="M220.94,98.46h-8.93l-4.01-4.01c-4.31,2.68-9.01,4.01-14.1,4.01-7.5,0-13.91-2.65-19.21-7.96s-7.96-11.71-7.96-19.21v-27.04h17.98v27.04c0,2.59.88,4.77,2.65,6.53,1.77,1.77,3.92,2.65,6.47,2.65s4.72-.88,6.53-2.65c1.81-1.77,2.72-3.95,2.72-6.53v-27.04h17.85v54.21Z"/>
          <path class="cls-1" d="M277.61,98.46h-8.93l-4.01-4.01c-4.31,2.68-9.01,4.01-14.1,4.01-7.5,0-13.91-2.65-19.21-7.96s-7.96-11.71-7.96-19.21v-27.04h17.98v27.04c0,2.59.88,4.77,2.65,6.53,1.77,1.77,3.92,2.65,6.47,2.65s4.72-.88,6.53-2.65c1.81-1.77,2.72-3.95,2.72-6.53v-27.04h17.85v54.21Z"/>
        </g>
      </g>
      <g class="cls-4">
        <g class="cls-4">
          <path class="cls-1" d="M113.05,113.11c1.33,0,2.89-.27,4.68-.82,1.79-.55,3.55-1.29,5.27-2.22,1.72-.94,3.24-2.05,4.57-3.34,1.33-1.29,2.22-2.63,2.69-4.04l-23.53-58.54h20.49l10.42,31.38,10.42-31.38h20.49l-25.87,64.51c-1.56,3.9-3.16,7.24-4.8,10.01-1.64,2.77-3.47,5.05-5.5,6.85-2.03,1.79-4.27,3.12-6.73,3.98-2.46.86-5.29,1.29-8.49,1.29l-4.1-17.68Z"/>
        </g>
      </g>
      <g class="cls-4">
        <g class="cls-4">
          <path class="cls-2" d="M103.07,91.41l-4.01-4.01c-4.31,2.67-9.01,4.01-14.1,4.01-7.5,0-13.91-2.65-19.21-7.96s-7.96-11.69-7.96-19.15,2.65-13.84,7.96-19.15c5.3-5.3,11.69-7.96,19.15-7.96s13.84,2.65,19.15,7.96c5.3,5.3,7.96,11.67,7.96,19.08v27.17h-8.93ZM91.43,70.77c1.81-1.77,2.72-3.92,2.72-6.47s-.91-4.72-2.72-6.53c-1.81-1.81-3.99-2.72-6.53-2.72s-4.7.91-6.47,2.72c-1.77,1.81-2.65,3.99-2.65,6.53s.88,4.7,2.65,6.47c1.77,1.77,3.92,2.65,6.47,2.65s4.72-.88,6.53-2.65Z"/>
        </g>
      </g>
      <g class="cls-4">
        <g class="cls-4">
          <path class="cls-2" d="M218.08,94.64h-8.93l-4.01-4.01c-4.31,2.67-9.01,4.01-14.1,4.01-7.5,0-13.91-2.65-19.21-7.96s-7.96-11.71-7.96-19.21v-27.04h17.98v27.04c0,2.59.88,4.77,2.65,6.53,1.77,1.77,3.92,2.65,6.47,2.65s4.72-.88,6.53-2.65c1.81-1.77,2.72-3.95,2.72-6.53v-27.04h17.85v54.21Z"/>
          <path class="cls-2" d="M274.75,94.64h-8.93l-4.01-4.01c-4.31,2.67-9.01,4.01-14.1,4.01-7.5,0-13.91-2.65-19.21-7.96s-7.96-11.71-7.96-19.21v-27.04h17.98v27.04c0,2.59.88,4.77,2.65,6.53,1.77,1.77,3.92,2.65,6.47,2.65s4.72-.88,6.53-2.65c1.81-1.77,2.72-3.95,2.72-6.53v-27.04h17.85v54.21Z"/>
        </g>
      </g>
      <g class="cls-4">
        <g class="cls-4">
          <path class="cls-2" d="M110.19,109.29c1.33,0,2.89-.27,4.68-.82,1.79-.55,3.55-1.29,5.27-2.22,1.72-.94,3.24-2.05,4.57-3.34,1.33-1.29,2.22-2.63,2.69-4.04l-23.53-58.54h20.49l10.42,31.38,10.42-31.38h20.49l-25.88,64.51c-1.56,3.9-3.16,7.24-4.8,10.01-1.64,2.77-3.47,5.05-5.5,6.85-2.03,1.79-4.27,3.12-6.73,3.98-2.46.86-5.29,1.29-8.49,1.29l-4.1-17.68Z"/>
        </g>
      </g>
      <g class="cls-4">
        <g class="cls-4">
          <path class="cls-2" d="M16.24,0l26.73,4.87c7.3,1.33,13.08,5.08,17.35,11.25,4.27,6.17,5.73,12.95,4.38,20.33-1.24,6.79-4.61,12.31-10.12,16.57,3.65,5.93,4.86,12.28,3.62,19.07-1.35,7.38-5.1,13.21-11.27,17.47-6.17,4.27-12.9,5.74-20.2,4.41L0,89.1,16.24,0ZM29.95,76.28c2.46.45,4.74-.03,6.84-1.45,2.1-1.41,3.38-3.37,3.83-5.88.46-2.5-.04-4.81-1.5-6.92-1.46-2.11-3.42-3.38-5.88-3.83l-9.04-1.65-3.29,18.07,9.04,1.65ZM39.75,22.56l-9.04-1.65-3.29,18.07,9.04,1.65c2.46.45,4.74-.06,6.85-1.51,2.11-1.46,3.39-3.44,3.84-5.94.46-2.5-.05-4.79-1.51-6.85-1.47-2.06-3.43-3.32-5.89-3.77Z"/>
        </g>
      </g>
    </g>
  </g>
</svg>