<?xml version="1.0" encoding="UTF-8"?>
<svg id="Layer_2" xmlns="http://www.w3.org/2000/svg" version="1.1" viewBox="0 0 98.28 32.45">
  <!-- Generator: Adobe Illustrator 30.4.0, SVG Export Plug-In . SVG Version: 2.1.3 Build 159)  -->
  <g id="Layer_1-2">
    <g>
      <g>
        <path d="M26.87,31.47v-3.7h2.62v.44h-2.11v1.19h1.92v.44h-1.92v1.63h-.51Z"/>
        <path d="M31.07,31.53c-.28,0-.52-.05-.71-.16-.19-.11-.34-.27-.44-.49s-.15-.5-.15-.84.05-.62.15-.84.25-.38.44-.49.44-.16.73-.16c.27,0,.49.05.67.15s.32.26.41.46.14.46.14.76v.23h-2.04c0,.23.04.41.1.56s.15.25.27.32.27.1.45.1c.12,0,.23-.02.32-.05.09-.03.17-.08.23-.13.06-.06.11-.13.14-.21s.05-.17.05-.26h.46c0,.15-.03.29-.09.42-.05.13-.13.24-.24.33-.1.09-.23.16-.38.21s-.32.08-.52.08h0ZM30.28,29.81h1.54c0-.16-.02-.29-.05-.4-.04-.11-.09-.2-.15-.26s-.14-.12-.23-.15c-.09-.03-.19-.05-.3-.05-.17,0-.31.03-.42.09-.12.06-.2.15-.26.28-.06.13-.1.29-.11.49h-.02Z"/>
        <path d="M34.03,31.53c-.28,0-.52-.05-.71-.16s-.34-.27-.44-.49-.15-.5-.15-.84.05-.62.15-.84c.1-.22.25-.38.44-.49s.44-.16.73-.16c.27,0,.49.05.67.15.18.1.32.26.41.46s.14.46.14.76v.23h-2.04c0,.23.04.41.1.56.06.15.15.25.27.32s.27.1.45.1c.12,0,.23-.02.32-.05.09-.03.17-.08.23-.13.06-.06.11-.13.14-.21s.05-.17.05-.26h.46c0,.15-.03.29-.09.42-.05.13-.13.24-.24.33-.1.09-.23.16-.38.21s-.32.08-.52.08h.01ZM33.24,29.81h1.54c0-.16-.02-.29-.05-.4-.04-.11-.09-.2-.15-.26s-.14-.12-.23-.15c-.09-.03-.19-.05-.3-.05-.17,0-.31.03-.42.09-.12.06-.2.15-.26.28-.06.13-.1.29-.11.49h-.02Z"/>
        <path d="M35.85,31.47v-3.9h.47v3.9h-.47Z"/>
        <path d="M39.16,31.53c-.23,0-.43-.05-.6-.16s-.3-.27-.39-.49-.14-.51-.14-.86c0-.33.05-.61.14-.83s.22-.38.39-.48.36-.16.58-.16c.13,0,.24.01.35.04.11.03.2.07.29.13.08.06.16.14.22.24h.03v-1.42h.47v3.9h-.38l-.04-.4h-.04c-.1.16-.22.28-.38.35-.15.08-.32.12-.51.12v.02ZM39.27,31.12c.18,0,.33-.04.44-.12.11-.08.19-.19.25-.34.05-.15.08-.34.08-.56v-.09c0-.19-.02-.36-.06-.49s-.09-.24-.16-.32-.15-.13-.24-.17-.18-.05-.29-.05c-.18,0-.32.04-.43.11s-.19.18-.25.33c-.05.15-.08.34-.08.58v.11c0,.24.03.44.09.59s.14.26.25.32.25.1.41.1h0Z"/>
        <path d="M41.96,31.53c-.1,0-.21-.01-.31-.04-.1-.03-.2-.07-.29-.12s-.16-.14-.22-.24c-.05-.1-.08-.23-.08-.39,0-.19.05-.35.14-.48s.22-.22.39-.29.37-.12.6-.15c.23-.03.48-.04.75-.04v-.32c0-.1-.02-.19-.05-.27s-.1-.13-.19-.18c-.09-.04-.22-.06-.39-.06s-.29.02-.39.06c-.09.04-.16.09-.2.16s-.06.14-.06.22v.08h-.46v-.11c0-.17.05-.32.14-.43.1-.12.23-.21.4-.26s.37-.09.59-.09c.24,0,.44.03.6.1s.28.17.36.29.12.28.12.45v1.54c0,.07.02.12.05.14s.07.04.12.04h.21v.31s-.11.04-.17.06c-.06.02-.13.02-.21.02-.09,0-.17-.02-.23-.06-.06-.04-.11-.09-.14-.16s-.05-.14-.06-.22h-.04c-.06.09-.15.17-.25.24s-.21.12-.33.15-.25.05-.4.05h0ZM42.08,31.13c.12,0,.22-.02.33-.05s.19-.09.27-.15.14-.15.19-.24.07-.2.07-.31v-.24c-.29,0-.54.02-.74.05s-.36.09-.47.17-.17.2-.17.35c0,.1.02.18.06.24s.1.11.18.14c.08.03.17.05.28.05h0Z"/>
        <path d="M44.19,31.47v-2.84h.38l.04.43h.04c.08-.12.16-.21.26-.28.09-.07.2-.12.32-.16.12-.03.24-.05.37-.05.18,0,.34.03.47.09s.24.16.32.3c.08.14.12.32.12.56v1.96h-.48v-1.89c0-.12,0-.22-.05-.29-.03-.08-.07-.13-.12-.18-.05-.04-.12-.07-.19-.09s-.16-.03-.25-.03c-.13,0-.26.03-.38.1-.12.07-.21.16-.28.28s-.11.27-.11.44v1.67h-.47v-.02Z"/>
        <path d="M47.71,32.45c-.14,0-.26-.03-.38-.08s-.21-.14-.28-.24-.1-.23-.1-.37c0-.16.04-.29.13-.39.09-.1.19-.18.32-.23-.09-.04-.16-.1-.21-.18s-.08-.16-.08-.26c0-.13.05-.23.14-.32s.2-.14.34-.17c-.12-.08-.22-.18-.29-.3s-.11-.26-.11-.41c0-.18.04-.34.13-.47.08-.14.21-.24.39-.32.17-.08.39-.12.64-.12.12,0,.22,0,.32.02s.19.04.27.08c.13-.06.22-.13.28-.22.06-.09.1-.18.12-.28h.47c0,.11-.02.21-.07.3-.05.1-.11.17-.2.24s-.18.11-.3.13c.09.09.16.18.2.29s.07.22.07.35c0,.18-.04.34-.13.48s-.21.25-.38.33c-.17.08-.38.12-.64.12h-.44c-.1,0-.18.02-.24.06-.06.04-.09.1-.09.18,0,.07.03.13.09.17s.14.07.24.07h1.15c.21,0,.38.07.51.21.13.14.2.32.2.53,0,.15-.04.29-.12.42s-.18.22-.32.3c-.14.07-.3.11-.48.11h-1.16v-.03ZM47.85,32.09h1.02c.08,0,.16-.02.23-.05s.12-.08.16-.14.06-.13.06-.2c0-.12-.04-.22-.11-.29-.07-.07-.16-.11-.27-.11h-1.09c-.12,0-.21.04-.29.12s-.12.17-.12.28c0,.12.04.21.12.29.08.07.18.11.29.11h0ZM48.36,30.05c.23,0,.4-.05.51-.15.11-.1.17-.24.17-.42s-.06-.31-.17-.41c-.11-.1-.28-.15-.51-.15s-.4.05-.52.15-.17.24-.17.41c0,.11.03.21.08.3.05.09.13.15.23.2.1.05.23.07.38.07Z"/>
        <path d="M51.36,31.53c-.28,0-.52-.05-.71-.16s-.34-.27-.44-.49-.15-.5-.15-.84.05-.62.15-.84c.1-.22.25-.38.44-.49s.44-.16.73-.16c.27,0,.49.05.67.15.18.1.32.26.41.46s.14.46.14.76v.23h-2.04c0,.23.04.41.1.56.06.15.15.25.27.32s.27.1.45.1c.12,0,.23-.02.32-.05.09-.03.17-.08.23-.13.06-.06.11-.13.14-.21s.05-.17.05-.26h.46c0,.15-.03.29-.09.42-.05.13-.13.24-.24.33-.1.09-.23.16-.38.21s-.32.08-.52.08h.01ZM50.57,29.81h1.54c0-.16-.02-.29-.05-.4-.04-.11-.09-.2-.15-.26s-.14-.12-.23-.15c-.09-.03-.19-.05-.3-.05-.17,0-.31.03-.42.09-.12.06-.2.15-.26.28-.06.13-.1.29-.11.49h-.02Z"/>
        <path d="M53.19,31.47v-2.84h.38l.04.47h.04c.03-.09.07-.18.12-.26s.12-.15.21-.2c.09-.05.19-.08.32-.08.05,0,.1,0,.15.01.04,0,.08.02.1.03v.44h-.18c-.12,0-.23.02-.32.06-.09.04-.16.1-.22.18s-.1.17-.13.27c-.03.1-.04.22-.04.33v1.58h-.47,0Z"/>
        <path d="M56.09,31.53c-.29,0-.53-.05-.73-.16s-.34-.27-.45-.49c-.1-.22-.15-.5-.15-.84s.05-.62.15-.84.25-.38.45-.49.44-.16.73-.16.53.05.73.16.34.27.45.49.15.5.15.84-.05.62-.15.84c-.1.22-.25.38-.45.49s-.44.16-.73.16ZM56.09,31.13c.18,0,.34-.04.46-.11s.21-.18.28-.34c.06-.15.09-.35.09-.58v-.12c0-.24-.03-.43-.09-.58s-.16-.26-.28-.33-.28-.11-.46-.11-.34.04-.46.11-.22.18-.28.33c-.06.15-.09.34-.09.58v.12c0,.23.03.43.09.58s.15.26.28.34.28.11.46.11Z"/>
        <path d="M58.88,31.53c-.27,0-.49-.07-.66-.21s-.25-.38-.25-.73v-1.96h.47v1.89c0,.12,0,.22.04.29.03.08.07.13.12.18s.12.07.19.09.15.03.24.03c.14,0,.26-.03.38-.1.11-.06.21-.16.28-.28s.11-.27.11-.43v-1.67h.47v2.84h-.38l-.04-.43h-.04c-.08.12-.16.21-.26.28-.09.07-.2.12-.32.16-.12.03-.24.05-.38.05h.03Z"/>
        <path d="M62.02,31.53c-.19,0-.37-.02-.51-.06-.15-.04-.27-.1-.37-.17-.1-.08-.17-.17-.22-.27-.05-.1-.08-.22-.08-.36v-.09h.47v.07c0,.13.04.22.1.3.06.07.15.12.26.15.11.03.24.04.37.04.12,0,.23-.02.33-.05.1-.03.18-.08.24-.14s.09-.14.09-.24c0-.12-.04-.21-.12-.27-.08-.06-.18-.11-.3-.15-.13-.04-.26-.07-.39-.11-.12-.03-.23-.07-.35-.11-.11-.04-.22-.09-.31-.15s-.17-.13-.22-.22-.08-.21-.08-.35c0-.13.03-.24.08-.33.05-.1.13-.18.22-.25.1-.07.21-.12.35-.15s.29-.05.46-.05c.18,0,.34.02.47.06.13.04.25.1.34.17s.16.15.2.25.06.19.06.29v.1h-.46v-.06c0-.07-.02-.14-.06-.21s-.1-.12-.19-.16c-.09-.04-.22-.06-.38-.06-.1,0-.19,0-.27.02s-.14.04-.19.08-.09.07-.11.12-.04.1-.04.15c0,.09.03.17.09.22s.14.09.25.12.21.07.33.11c.13.04.25.07.39.11.13.04.25.08.36.14s.2.14.26.23c.07.1.1.23.1.39,0,.15-.03.28-.09.39s-.14.2-.25.28c-.11.07-.23.12-.37.16-.14.03-.3.05-.47.05h0Z"/>
        <path d="M63.83,32.26v-.22c.07,0,.12-.05.17-.1.04-.05.08-.12.1-.2s.03-.17.03-.27h-.25v-.57h.52v.51c0,.21-.03.37-.09.49-.06.12-.13.2-.22.26-.09.05-.18.09-.27.11h.01Z"/>
        <path d="M71.03,31.47v-2.44h-.42v-.4h.42v-.45c0-.11.02-.22.05-.32.03-.1.09-.18.18-.24.09-.06.22-.09.38-.09h.15c.05,0,.1.01.14.02.04,0,.08.02.12.03v.34h-.29c-.09,0-.16.02-.2.07-.04.04-.06.11-.06.19v.45h.54v.4h-.54v2.44s-.47,0-.47,0Z"/>
        <path d="M73.53,31.53c-.28,0-.52-.05-.71-.16s-.34-.27-.44-.49c-.1-.22-.15-.5-.15-.84s.05-.62.15-.84.25-.38.44-.49.44-.16.73-.16c.27,0,.49.05.67.15s.32.26.41.46.14.46.14.76v.23h-2.04c0,.23.04.41.1.56s.15.25.27.32c.12.07.27.1.45.1.12,0,.23-.02.32-.05.09-.03.17-.08.23-.13.06-.06.11-.13.14-.21s.05-.17.05-.26h.46c0,.15-.03.29-.09.42-.05.13-.13.24-.24.33-.1.09-.23.16-.38.21-.15.05-.32.08-.52.08h0ZM72.74,29.81h1.54c0-.16-.02-.29-.05-.4-.04-.11-.09-.2-.15-.26s-.14-.12-.23-.15c-.09-.03-.19-.05-.3-.05-.17,0-.31.03-.42.09-.12.06-.2.15-.26.28-.06.13-.1.29-.11.49h-.02Z"/>
        <path d="M76.48,31.53c-.28,0-.52-.05-.71-.16s-.34-.27-.44-.49c-.1-.22-.15-.5-.15-.84s.05-.62.15-.84.25-.38.44-.49.44-.16.73-.16c.27,0,.49.05.67.15s.32.26.41.46.14.46.14.76v.23h-2.04c0,.23.04.41.1.56s.15.25.27.32c.12.07.27.1.45.1.12,0,.23-.02.32-.05.09-.03.17-.08.23-.13.06-.06.11-.13.14-.21s.05-.17.05-.26h.46c0,.15-.03.29-.09.42-.05.13-.13.24-.24.33-.1.09-.23.16-.38.21-.15.05-.32.08-.52.08h0ZM75.69,29.81h1.54c0-.16-.02-.29-.05-.4-.04-.11-.09-.2-.15-.26s-.14-.12-.23-.15c-.09-.03-.19-.05-.3-.05-.17,0-.31.03-.42.09-.12.06-.2.15-.26.28-.06.13-.1.29-.11.49h-.02Z"/>
        <path d="M78.31,31.47v-3.9h.47v3.9h-.47Z"/>
        <path d="M81.64,31.53c-.19,0-.37-.02-.51-.06-.15-.04-.27-.1-.37-.17-.1-.08-.17-.17-.22-.27s-.08-.22-.08-.36v-.09h.47v.07c0,.13.04.22.1.3.06.07.15.12.26.15.11.03.24.04.37.04.12,0,.23-.02.33-.05.1-.03.18-.08.24-.14s.09-.14.09-.24c0-.12-.04-.21-.12-.27-.08-.06-.18-.11-.3-.15-.13-.04-.26-.07-.39-.11-.12-.03-.23-.07-.35-.11-.11-.04-.22-.09-.31-.15s-.17-.13-.22-.22-.08-.21-.08-.35c0-.13.03-.24.08-.33.05-.1.13-.18.22-.25.1-.07.21-.12.35-.15s.29-.05.46-.05c.18,0,.34.02.47.06.13.04.25.1.34.17s.16.15.2.25.06.19.06.29v.1h-.46v-.06c0-.07-.02-.14-.06-.21s-.1-.12-.19-.16c-.09-.04-.22-.06-.38-.06-.1,0-.19,0-.27.02-.08.02-.14.04-.19.08s-.09.07-.11.12-.04.1-.04.15c0,.09.03.17.09.22s.14.09.25.12.21.07.33.11c.13.04.25.07.39.11.13.04.25.08.36.14s.2.14.26.23c.07.1.1.23.1.39,0,.15-.03.28-.09.39s-.14.2-.25.28c-.11.07-.23.12-.37.16-.14.03-.3.05-.47.05h.01Z"/>
        <path d="M84.11,31.53c-.1,0-.21-.01-.31-.04s-.2-.07-.29-.12-.16-.14-.22-.24c-.05-.1-.08-.23-.08-.39,0-.19.05-.35.14-.48s.22-.22.39-.29.37-.12.6-.15c.23-.03.48-.04.75-.04v-.32c0-.1-.02-.19-.05-.27s-.1-.13-.19-.18c-.09-.04-.22-.06-.39-.06s-.29.02-.39.06c-.09.04-.16.09-.2.16-.04.07-.06.14-.06.22v.08h-.46v-.11c0-.17.05-.32.14-.43.1-.12.23-.21.4-.26s.37-.09.59-.09c.24,0,.44.03.6.1s.28.17.36.29.12.28.12.45v1.54c0,.07.02.12.05.14s.07.04.12.04h.21v.31c-.05.02-.11.04-.17.06-.06.02-.13.02-.21.02-.09,0-.17-.02-.23-.06-.06-.04-.11-.09-.14-.16s-.05-.14-.06-.22h-.04c-.06.09-.15.17-.25.24s-.21.12-.33.15-.25.05-.4.05ZM84.23,31.13c.12,0,.22-.02.33-.05s.19-.09.27-.15.14-.15.19-.24.07-.2.07-.31v-.24c-.29,0-.54.02-.74.05s-.36.09-.47.17-.17.2-.17.35c0,.1.02.18.06.24s.1.11.18.14c.08.03.17.05.28.05h0Z"/>
        <path d="M86.45,31.47v-2.44h-.42v-.4h.42v-.45c0-.11.02-.22.05-.32.03-.1.09-.18.18-.24.09-.06.22-.09.38-.09h.15c.05,0,.1.01.14.02.04,0,.08.02.12.03v.34h-.29c-.09,0-.16.02-.2.07-.04.04-.06.11-.06.19v.45h.54v.4h-.54v2.44s-.47,0-.47,0Z"/>
        <path d="M88.96,31.53c-.28,0-.52-.05-.71-.16s-.34-.27-.44-.49c-.1-.22-.15-.5-.15-.84s.05-.62.15-.84.25-.38.44-.49.44-.16.73-.16c.27,0,.49.05.67.15s.32.26.41.46.14.46.14.76v.23h-2.04c0,.23.04.41.1.56s.15.25.27.32c.12.07.27.1.45.1.12,0,.23-.02.32-.05.09-.03.17-.08.23-.13.06-.06.11-.13.14-.21s.05-.17.05-.26h.46c0,.15-.03.29-.09.42-.05.13-.13.24-.24.33-.1.09-.23.16-.38.21-.15.05-.32.08-.52.08h0ZM88.16,29.81h1.54c0-.16-.02-.29-.05-.4-.04-.11-.09-.2-.15-.26s-.14-.12-.23-.15c-.09-.03-.19-.05-.3-.05-.17,0-.31.03-.42.09-.12.06-.2.15-.26.28-.06.13-.1.29-.11.49h-.02Z"/>
        <path d="M90.89,31.47v-.57h.53v.57h-.53Z"/>
      </g>
      <path d="M0,2.63c.52.02,1.21.04,2.07.07.86.02,1.71.03,2.55.03,1.04,0,2.04,0,3.01-.03.96-.02,1.64-.03,2.03-.03,2.56,0,4.47.48,5.74,1.43s1.9,2.18,1.9,3.68c0,.76-.2,1.52-.6,2.28s-1.04,1.44-1.92,2.05-2.02,1.06-3.43,1.37v.06c1.91.17,3.42.56,4.54,1.16,1.12.6,1.91,1.3,2.39,2.11s.72,1.66.72,2.55c0,1.32-.34,2.46-1.03,3.4-.68.94-1.67,1.67-2.96,2.16-1.29.5-2.83.75-4.6.75-.48,0-1.2-.02-2.18-.05-.98-.03-2.16-.05-3.55-.05-.89,0-1.76,0-2.62.02-.86.01-1.55.04-2.07.08v-.65c.72-.04,1.25-.13,1.61-.26.36-.13.6-.39.72-.78.12-.39.18-.98.18-1.76V6.08c0-.8-.06-1.39-.18-1.77-.12-.38-.36-.64-.72-.78s-.89-.22-1.61-.24v-.65h.01ZM9.11,3.28c-.89,0-1.47.18-1.74.55-.27.37-.41,1.12-.41,2.25v16.14c0,.76.06,1.33.18,1.72s.35.65.68.78c.34.13.82.2,1.45.2,1.76,0,3.04-.49,3.84-1.48s1.2-2.39,1.2-4.21c0-1.67-.43-2.96-1.29-3.87-.86-.91-2.27-1.37-4.25-1.37h-2.96v-.55h2.8c1.11,0,1.96-.24,2.55-.73.6-.49,1.01-1.14,1.24-1.95.23-.81.34-1.69.34-2.62,0-1.6-.28-2.81-.85-3.63-.56-.81-1.5-1.22-2.8-1.22h.02Z"/>
      <path d="M39.67,24.62c-.22-.08-.4-.23-.54-.46-.23-.38-.44-1.01-.63-1.9l-.75-3.35c-.28-1.34-.85-2.35-1.71-3.01s-2.19-1.08-3.99-1.25c-.06-.01-.14-.02-.21-.03.87-.1,1.64-.25,2.3-.47,1.2-.4,2.15-.92,2.85-1.55.69-.63,1.18-1.32,1.46-2.07s.42-1.48.42-2.2c0-1.15-.31-2.15-.94-2.99-.63-.85-1.58-1.5-2.85-1.97-1.27-.47-2.88-.7-4.83-.7-.39,0-1.06,0-2.02.03-.95.02-1.96.03-3.03.03-.85,0-1.69,0-2.54-.03s-1.54-.04-2.08-.07v.65c.72.02,1.25.1,1.61.24s.6.4.72.78c.12.38.18.97.18,1.77v16.14c0,.78-.06,1.37-.18,1.76s-.36.65-.72.78c-.36.13-.89.22-1.61.26v.65c.54-.04,1.24-.07,2.08-.08.85-.01,1.76-.02,2.73-.02.87,0,1.72,0,2.57.02.85.01,1.54.04,2.08.08v-.65c-.69-.04-1.22-.13-1.58-.26-.36-.13-.6-.39-.73-.78-.13-.39-.2-.98-.2-1.76v-7.48h2.44c.76,0,1.33.2,1.72.59s.7.93.93,1.63c.23.69.43,1.5.6,2.41l.62,3.25c.26,1.37.75,2.29,1.46,2.78.72.49,1.59.73,2.64.73.43,0,.82-.04,1.18-.1.16-.47.33-.94.52-1.4h.03ZM29.23,14.08h-1.66V6.08c0-1.13.14-1.88.41-2.25s.85-.55,1.74-.55c1.65,0,2.81.47,3.48,1.42.67.94,1.01,2.27,1.01,3.99,0,1-.13,1.9-.37,2.72-.25.81-.74,1.46-1.46,1.95-.73.49-1.77.73-3.14.73h-.01Z"/>
      <path d="M50.12,3.05l7.91,20.4c.33.78.68,1.32,1.06,1.61s.73.45,1.06.47v.65c-.56-.04-1.24-.07-2.03-.08-.79-.01-1.6-.02-2.42-.02-.95,0-1.84,0-2.67.02-.82.01-1.5.04-2.02.08v-.65c1.11-.04,1.81-.23,2.11-.57s.24-1.06-.2-2.16l-5.73-15.46.59-.72-5.21,13.5c-.41,1.08-.66,1.97-.75,2.67-.09.69-.03,1.24.16,1.63.2.39.52.67.98.83s1.02.26,1.69.28v.65c-.69-.04-1.37-.07-2.02-.08s-1.3-.02-1.95-.02c-.48,0-.93,0-1.35.02-.42.01-.8.04-1.12.08v-.65c.48-.11.95-.39,1.42-.85.47-.46.92-1.25,1.35-2.38l7.45-19.26c.26.02.54.03.85.03s.59,0,.85-.03h-.01ZM52.95,16.81v.65h-9.7l.33-.65h9.37Z"/>
      <path d="M67.07,31.65l-9.75-25.95c-.56-1.54-1.2-2.68-1.91-3.4-.71-.73-1.36-1.19-1.96-1.4V0c.45.03.94.06,1.49.09.55.03,1.18.04,1.89.04.86,0,1.73-.01,2.6-.04s1.81-.07,2.79-.1v.89c-1.22.03-2.15.3-2.8.8-.65.51-.98,1.34-.98,2.49s.37,2.73,1.11,4.72l6.33,17.87,1.23,3.4,6.46-25.54c.39-1.04.55-1.82.49-2.34-.06-.52-.35-.87-.87-1.07-.52-.19-1.27-.3-2.25-.33v-.89c.68.03,1.6.06,2.74.09,1.14.03,2.37.04,3.67.04,1.07,0,2.16,0,3.27-.04,1.11-.03,2.06-.06,2.83-.09v.89c-.45.03-.93.24-1.45.62-.52.39-1,1.13-1.45,2.23"/>
      <path d="M88.26,2.53l7.91,20.4c.33.78.68,1.32,1.06,1.61s.73.45,1.06.47v.65c-.56-.04-1.24-.07-2.03-.08s-1.6-.02-2.42-.02c-.95,0-1.84,0-2.67.02-.82.01-1.5.04-2.02.08v-.65c1.11-.04,1.81-.23,2.11-.57s.24-1.06-.2-2.16l-5.73-15.46.59-.72-5.21,13.5c-.41,1.08-.66,1.97-.75,2.67-.09.69-.03,1.24.16,1.63.2.39.52.67.98.83.46.16,1.02.26,1.69.28v.65c-.69-.04-1.37-.07-2.02-.08-.65-.01-1.3-.02-1.95-.02-.48,0-.93,0-1.35.02-.42.01-.8.04-1.12.08v-.65c.48-.11.95-.39,1.42-.85.47-.46.92-1.25,1.35-2.38l7.45-19.26c.26.02.54.03.85.03s.59,0,.85-.03h-.01ZM91.09,16.3v.65h-9.7l.33-.65s9.37,0,9.37,0Z"/>
      <line x1="72.34" y1="5.28" x2="67.21" y2="26.07"/>
    </g>
  </g>
</svg>