<?xml version="1.0" encoding="UTF-8"?>
<svg id="Layer_2" data-name="Layer 2" xmlns="http://www.w3.org/2000/svg" viewBox="0 0 173.43 49.16">
  <defs>
    <style>
      .cls-1 {
        fill: #fff;
      }

      .cls-2 {
        fill: #231f20;
      }
    </style>
  </defs>
  <g id="Layer_1-2" data-name="Layer 1-2">
    <g>
      <g>
        <path class="cls-2" d="M19.96,22.01c1.53,1.1,2.73,2.43,3.6,4s1.36,3.18,1.48,4.83c.12,1.65-.09,3.29-.62,4.93s-1.35,3.08-2.45,4.35-2.54,2.3-4.3,3.1c-1.77.8-3.72,1.2-5.85,1.2H0V.66h10.5c1.97,0,3.8.35,5.5,1.05,1.7.7,3.1,1.63,4.2,2.78,1.1,1.15,1.98,2.48,2.63,3.98.65,1.5.98,3.03,1,4.6.02,1.57-.3,3.14-.95,4.73s-1.63,2.99-2.93,4.23v-.02ZM6.45,6.46v13.15h4.05c1.43,0,2.68-.33,3.75-.98s1.84-1.46,2.33-2.42c.48-.97.73-2.02.73-3.15s-.24-2.19-.73-3.18c-.48-.98-1.26-1.8-2.33-2.45s-2.32-.98-3.75-.98h-4.05ZM11.8,38.62c1.23,0,2.34-.24,3.33-.73.99-.49,1.73-1.12,2.23-1.9s.87-1.64,1.1-2.58c.23-.93.23-1.87,0-2.8-.23-.93-.6-1.78-1.1-2.55s-1.24-1.39-2.23-1.88-2.09-.73-3.33-.73h-5.35v13.15h5.35v.02Z"/>
        <path class="cls-2" d="M53.96,31.42c0,1.87-.31,3.58-.92,5.13s-1.45,2.82-2.5,3.82-2.27,1.86-3.65,2.58c-1.39.72-2.83,1.15-4.33,1.3-1.5.15-3.01.15-4.53,0s-2.96-.58-4.33-1.28c-1.37-.7-2.58-1.55-3.65-2.55s-1.91-2.28-2.53-3.85-.93-3.28-.93-5.15V.66h6.45v30.76c0,1.33.27,2.52.8,3.55.53,1.03,1.23,1.82,2.08,2.35.85.53,1.79.92,2.82,1.17s2.06.25,3.08,0,1.95-.65,2.8-1.2,1.54-1.34,2.08-2.38c.53-1.03.8-2.2.8-3.5V.66h6.45v30.76h.01Z"/>
        <path class="cls-2" d="M93.98,23.11L83.02.66h7.05l7.1,14.66,7.15-14.66h7.05l-10.95,22.46v21.31h-6.45v-21.31h0Z"/>
      </g>
      <path class="cls-2" d="M71.38,0c2.8,0,5.36.47,7.69,1.4,2.33.93,4.25,2.18,5.76,3.73s2.79,3.34,3.85,5.36c1.06,2.02,1.69,4.15,1.91,6.39s.22,4.48,0,6.71c-.22,2.24-.86,4.38-1.91,6.41-1.06,2.04-2.33,3.83-3.82,5.38-1.49,1.56-3.41,2.8-5.76,3.73s-4.92,1.4-7.72,1.4-5.36-.47-7.69-1.4-4.26-2.17-5.78-3.73c-1.52-1.55-2.81-3.35-3.87-5.38-1.06-2.04-1.7-4.17-1.91-6.41-.22-2.24-.21-4.47.02-6.71s.88-4.37,1.94-6.39c1.06-2.02,2.34-3.81,3.85-5.36s3.44-2.8,5.78-3.73S68.62,0,71.39,0h-.01ZM64.79,33.43c1.94,1.09,4.15,1.63,6.62,1.63s4.67-.54,6.6-1.63,3.39-2.5,4.38-4.24c1-1.74,1.73-3.67,2.19-5.78.47-2.11.47-4.22,0-6.32s-1.2-4.02-2.21-5.76-2.48-3.15-4.41-4.24c-1.93-1.09-4.12-1.63-6.57-1.63s-4.66.55-6.6,1.63c-1.94,1.09-3.41,2.5-4.41,4.24s-1.73,3.66-2.22,5.76c-.48,2.1-.48,4.21,0,6.32s1.22,4.04,2.22,5.78c.99,1.74,2.46,3.16,4.41,4.24Z"/>
      <g>
        <g>
          <circle class="cls-2" cx="71.49" cy="20.13" r="16.05"/>
          <path class="cls-1" d="M71.49,36.43c-8.99,0-16.3-7.31-16.3-16.3S62.5,3.83,71.49,3.83s16.3,7.31,16.3,16.3-7.31,16.3-16.3,16.3ZM71.49,4.33c-8.71,0-15.8,7.09-15.8,15.8s7.09,15.8,15.8,15.8,15.8-7.09,15.8-15.8-7.09-15.8-15.8-15.8Z"/>
        </g>
        <g>
          <path class="cls-1" d="M71.49,29c-2.37,0-4.59-.92-6.27-2.6s-2.6-3.9-2.6-6.27.92-4.59,2.6-6.27,3.9-2.6,6.27-2.6,4.59.92,6.27,2.6,2.6,3.9,2.6,6.27-.92,4.59-2.6,6.27-3.9,2.6-6.27,2.6ZM71.49,11.85c-4.56,0-8.28,3.71-8.28,8.28s3.71,8.28,8.28,8.28,8.28-3.71,8.28-8.28-3.71-8.28-8.28-8.28Z"/>
          <path class="cls-1" d="M71.49,25.11c-2.74,0-4.98-2.23-4.98-4.98s2.23-4.98,4.98-4.98,4.98,2.23,4.98,4.98-2.23,4.98-4.98,4.98ZM71.49,15.74c-2.42,0-4.39,1.97-4.39,4.39s1.97,4.39,4.39,4.39,4.39-1.97,4.39-4.39-1.97-4.39-4.39-4.39Z"/>
          <path class="cls-1" d="M71.49,15.74c-.16,0-.29-.13-.29-.29v-3.89c0-.16.13-.29.29-.29s.29.13.29.29v3.89c0,.16-.13.29-.29.29Z"/>
          <path class="cls-1" d="M67.43,18.08s-.1-.01-.15-.04l-3.37-1.94c-.14-.08-.19-.26-.11-.4.08-.14.26-.19.4-.11l3.37,1.94c.14.08.19.26.11.4-.05.09-.15.15-.25.15Z"/>
          <path class="cls-1" d="M64.07,24.71c-.1,0-.2-.05-.25-.15-.08-.14-.03-.32.11-.4l3.37-1.94c.14-.08.32-.03.4.11.08.14.03.32-.11.4l-3.37,1.94s-.1.04-.15.04Z"/>
          <path class="cls-1" d="M71.49,29c-.16,0-.29-.13-.29-.29v-3.89c0-.16.13-.29.29-.29s.29.13.29.29v3.89c0,.16-.13.29-.29.29Z"/>
          <path class="cls-1" d="M78.91,24.71s-.1-.01-.15-.04l-3.37-1.94c-.14-.08-.19-.26-.11-.4s.26-.19.4-.11l3.37,1.94c.14.08.19.26.11.4-.05.09-.15.15-.25.15Z"/>
          <path class="cls-1" d="M75.54,18.08c-.1,0-.2-.05-.25-.15-.08-.14-.03-.32.11-.4l3.37-1.94c.14-.08.32-.03.4.11.08.14.03.32-.11.4l-3.37,1.94s-.1.04-.15.04Z"/>
        </g>
      </g>
      <g>
        <path class="cls-2" d="M54.91,40.17l-1.98,2.18-.79-.73,4.35-4.78,1.17,1.07c.9.82,1.12,1.57.36,2.39l-.18.2c-.64.7-1.17.61-1.51.45.24.45.24.83-.35,1.48-.37.4-1.08,1.17-1.28,1.52l-.77-.7c.19-.36.93-1.14,1.24-1.48.54-.6.58-.84.03-1.35l-.28-.25h-.01ZM55.4,39.63l.28.26c.52.47.86.42,1.33-.09l.17-.18c.36-.4.46-.74-.08-1.24l-.3-.27-1.4,1.53h0Z"/>
        <path class="cls-2" d="M60.96,44.1l-1.58-.82-1.02,1.99,1.81.93-.49.64-2.64-1.37,2.97-5.75,2.62,1.36-.37.71-1.67-.86-.84,1.63,1.58.81-.36.71v.02Z"/>
        <path class="cls-2" d="M63.36,46.16l-.1.38c-.14.52,0,.86.48.99.5.13.76-.17.9-.69.19-.7.06-.99-.62-1.73-.69-.75-1.04-1.19-.79-2.12.21-.81.73-1.54,2.05-1.18,1.31.35,1.37,1.16,1.18,1.89l-.08.31-1.03-.27.08-.29c.13-.47.1-.79-.35-.91s-.65.17-.77.61c-.14.5-.07.75.51,1.35.94.98,1.19,1.45.91,2.5-.24.89-.81,1.61-2.2,1.25-1.36-.36-1.52-1.16-1.3-1.98l.1-.37,1.04.27h-.01Z"/>
        <path class="cls-2" d="M70.65,46.14l-1.77-.13-.16,2.22,2.03.15-.2.78-2.96-.22.47-6.45,2.94.22-.06.8-1.87-.14-.14,1.83,1.77.13-.06.79v.02Z"/>
        <path class="cls-2" d="M73.91,47.13l-.1,1.9-1.08.12.54-6.58,1.51-.18,2.1,6.28-1.11.13-.57-1.82-1.27.15h-.02ZM74.96,46.21c-.37-1.2-.68-2.24-.84-2.91h-.04c.03.53-.06,1.96-.12,3.03l1.01-.12h-.01Z"/>
        <path class="cls-2" d="M79.14,45.05l.88,2.82-1.02.32-1.93-6.19,1.51-.47c1.16-.36,1.91-.17,2.25.9l.08.26c.28.9-.06,1.32-.37,1.54.51.02.84.22,1.1,1.05.16.52.46,1.52.66,1.88l-.99.31c-.22-.35-.52-1.38-.66-1.82-.24-.77-.43-.93-1.15-.71,0,0-.36.11-.36.11ZM78.92,44.36l.37-.11c.67-.21.8-.53.59-1.2l-.08-.24c-.16-.51-.41-.78-1.12-.56l-.39.12.62,1.98h.01Z"/>
        <path class="cls-2" d="M86.63,42.88l.11.21c.37.68.7,1.62-.7,2.38-1.26.69-1.88.15-2.35-.7l-1.57-2.87c-.49-.89-.3-1.71.74-2.27,1.26-.69,1.87-.12,2.29.65l.13.24-.95.52-.17-.32c-.22-.41-.48-.64-.93-.39-.44.24-.42.57-.18,1l1.63,2.98c.25.45.54.71,1,.46s.39-.61.14-1.08l-.16-.28.95-.52h.02Z"/>
        <path class="cls-2" d="M85.3,38.29l.8-.72,1.73,1.95,1.1-.98-1.73-1.95.8-.71,4.29,4.84-.8.71-2.03-2.29-1.1.98,2.03,2.29-.8.71-4.29-4.84h0Z"/>
      </g>
      <circle class="cls-1" cx="71.56" cy="20.26" r="2.28"/>
      <g>
        <path class="cls-2" d="M115.07.78l13.26,43.76h-6.6l-1.95-6.45h-9.35l-2,6.45h-6.6L115.07.78ZM112.37,31.59h5.4l-2.7-8.95s-2.7,8.95-2.7,8.95Z"/>
        <path class="cls-2" d="M147.28,25.24V.78h6.5v43.61l-18.51-24.31v24.46h-6.45V.93l18.46,24.31Z"/>
        <path class="cls-2" d="M167.18,44.55h-6.5V6.59h-6.25V.78h19v5.8h-6.25v37.96h0Z"/>
      </g>
    </g>
  </g>
</svg>