<?xml version="1.0" encoding="UTF-8"?>
<svg id="Layer_1" data-name="Layer 1" xmlns="http://www.w3.org/2000/svg" viewBox="0 0 400.17 139.24">
  <defs>
    <style>
      .cls-1 {
        fill: #fff;
      }
    </style>
  </defs>
  <path d="M99.59.13c7.26-.52,14.63.47,21.5,2.89,6.44,2.26,12.45,5.77,17.58,10.27,5.2,4.55,9.49,10.12,12.58,16.3,3.06,6.1,4.94,12.8,5.48,19.6.63,7.58-.39,15.3-2.97,22.46-4.31,12.14-13.19,22.57-24.49,28.77-6.81,3.78-14.46,6.03-22.24,6.56-8,.56-16.11-.72-23.56-3.7-11.56-4.58-21.39-13.35-27.26-24.31-5.13-9.47-7.3-20.52-6.1-31.23,1.27-12.01,6.79-23.51,15.34-32.04C74.47,6.64,86.83.99,99.59.13ZM99.59,12.69c-9.25.84-18.18,4.93-24.81,11.43-5.18,4.99-8.98,11.4-10.92,18.33-1.62,5.74-1.96,11.84-.99,17.73,1.13,6.96,4.1,13.62,8.53,19.1,4.59,5.74,10.78,10.18,17.67,12.74,6.8,2.54,14.28,3.22,21.43,1.95,6.97-1.22,13.6-4.29,19.04-8.8,5.27-4.35,9.42-10.05,11.94-16.41,2.69-6.72,3.55-14.17,2.46-21.33-.97-6.48-3.53-12.72-7.39-18.02-4.13-5.68-9.74-10.27-16.13-13.18-6.48-2.97-13.74-4.2-20.83-3.54Z"/>
  <path d="M16.05.97C19.94-.09,24.03-.16,28.02.19c5.44.56,10.98,2.71,14.51,7.04,2.7,3.17,4.34,7.14,5.14,11.2.95,6.02.47,12.14.61,18.21-5.16,0-10.33-.03-15.49.02,0-3.72,0-7.45,0-11.17.02-2.2-.12-4.47-1.04-6.51-.86-2.05-2.79-3.54-4.97-3.91-2-.28-4.15-.3-6.03.54-1.85.8-3.18,2.55-3.74,4.46-.69,2.37-.55,4.87-.57,7.31,0,18.37,0,36.73,0,55.1.03,2.52.25,5.28,1.95,7.29,1.48,1.92,4.04,2.54,6.35,2.49,2.18,0,4.59-.6,6.01-2.38,1.6-2,2.04-4.66,2.04-7.16,0-5.3.03-10.6-.01-15.91,5.17.04,10.34,0,15.5.02,0,4.2,0,8.4,0,12.6.02,3.04-.1,6.1-.57,9.11-.79,4.27-2.55,8.42-5.41,11.72-2.17,2.33-4.84,4.22-7.87,5.24-3.67,1.39-7.64,1.76-11.53,1.63-3.27-.06-6.55-.63-9.59-1.85-5.19-1.99-9.26-6.4-11.19-11.57-.59-1.34-.89-2.78-1.28-4.18C-.17,84.97.02,80.29,0,75.68c0-16.65,0-33.31,0-49.96.04-4.94.78-9.98,3.03-14.43.89-1.69,2.04-3.22,3.26-4.68C8.92,3.83,12.36,1.89,16.05.97Z"/>
  <path d="M370.11.35c5.88-.73,12.1-.47,17.55,2.07,4.02,1.82,7.23,5.14,9.36,8.96,2.37,4.62,3.11,9.89,3.14,15.03,0,13.6,0,27.21,0,40.81-.05,5.62.11,11.25-.11,16.87-.42,4.78-1.46,9.69-4.28,13.67-2.77,4.28-7.31,7.2-12.22,8.42-2.29.6-4.65.87-7.01.92-5.64.23-11.52-.77-16.3-3.93-3.75-2.41-6.39-6.27-7.91-10.4-1.69-4.55-1.95-9.48-1.89-14.29V27.84c-.05-4.43.27-8.95,1.78-13.15,1.48-4.39,4.35-8.34,8.25-10.88,2.9-1.85,6.23-3,9.64-3.46ZM372.89,15.12c-1.56.4-3.08,1.16-4.02,2.51-1.8,2.2-1.97,5.16-2.07,7.88,0,16.88,0,33.76,0,50.64.05,3.06-.17,6.15.32,9.19.21,1.6.88,3.14,1.88,4.4,1.57,1.91,4.19,2.61,6.58,2.51,2.19.02,4.48-.75,5.98-2.4,1.31-1.53,1.85-3.54,2.1-5.49.22-2.57.1-5.16.13-7.74,0-16.49,0-32.98,0-49.47,0-2.4.04-4.86-.75-7.15-.63-1.97-2.12-3.71-4.07-4.46-1.92-.78-4.08-.76-6.09-.4Z"/>
  <path d="M161.2,1.45c6.04.02,12.08,0,18.12,0,4.34.03,8.7-.15,13,.51,2.73.53,5.45,1.25,7.91,2.58,1.46.94,2.96,1.89,4.1,3.23,2.46,2.78,4.04,6.29,4.71,9.94.77,3.72.72,7.53.72,11.3-.01,2.73.05,5.48-.36,8.18-.42,3.27-1.37,6.51-3.15,9.31-1.56,2.33-3.75,4.26-6.29,5.44-.31.22-.92.26-.94.71,1.98.81,4.04,1.61,5.58,3.16,1.67,1.74,2.92,3.89,3.65,6.19,1.13,3.81,1.62,7.79,1.66,11.76.07,5.17.01,10.34.03,15.51.04,4.57-.24,9.21.78,13.7.28.92.66,1.8.97,2.7-5.54.01-11.08,0-16.63,0-1.12-2.91-1.5-6.03-1.52-9.12-.06-6.57,0-13.14-.02-19.71-.03-3.06.15-6.18-.61-9.17-.49-2.24-1.66-4.5-3.83-5.51-3.6-1.68-7.69-.98-11.53-1.17.06,14.9,0,29.8.03,44.69-5.45,0-10.91,0-16.36,0,0-34.75.02-69.49-.01-104.24ZM177.57,16.35c0,9.93,0,19.85,0,29.78,3.63-.13,7.44.47,10.89-.92,2.4-.88,4-3.21,4.46-5.66.76-3.78.37-7.65.47-11.48-.09-3.07-.13-6.43-1.97-9.04-1.33-1.92-3.78-2.57-6-2.65-2.62-.08-5.24-.02-7.86-.03Z"/>
  <path d="M301.04,1.45c5.45,0,10.9.01,16.36,0-.04,29.78.02,59.57-.03,89.35,8.99-.02,17.99.02,26.98-.02,0,4.97,0,9.94,0,14.91-14.44,0-28.88,0-43.32,0,0-34.74-.01-69.49.01-104.23Z"/>
  <path d="M247.67,1.48c5.45,0,10.9.01,16.36,0-.04,29.78.02,59.57-.03,89.35,8.99-.02,17.99.02,26.98-.02,0,4.97,0,9.94,0,14.91-14.44,0-28.88,0-43.32,0,0-34.74-.01-69.49.01-104.23Z"/>
  <path d="M221.2,1.45c5.47.03,10.95.05,16.42,0-.06,34.75,0,69.5-.02,104.25-5.46,0-10.92,0-16.38,0,0-26.42,0-52.83,0-79.25-.02-8.33.03-16.66-.02-24.99Z"/>
  <g>
    <path d="M101.86,21.59c6.75-.33,13.59,1.56,19.2,5.31,5.69,3.76,10.11,9.4,12.39,15.83,2.47,6.78,2.51,14.4.15,21.22-2.07,6.05-6,11.43-11.13,15.24-5.49,4.13-12.36,6.38-19.23,6.35-7.15-.01-14.28-2.51-19.85-6.98-5.18-4.11-9.03-9.89-10.82-16.26-1.47-5.1-1.62-10.56-.46-15.74,1.87-8.53,7.42-16.17,14.96-20.57,4.47-2.64,9.59-4.18,14.78-4.41ZM100.12,30.12c-3.68.51-7.23,1.9-10.28,4.02-4.58,3.18-7.98,8.03-9.37,13.44-1.74,6.56-.47,13.84,3.42,19.4,3.74,5.49,9.9,9.23,16.49,10.03,6.41.84,13.11-1.11,18.07-5.25,5-4.1,8.16-10.34,8.51-16.8.46-6.99-2.41-14.11-7.61-18.81-5.08-4.74-12.35-7.01-19.24-6.02Z"/>
    <path d="M101.9,42.51c2.45-.31,5,.19,7.12,1.46,2.09,1.21,3.73,3.15,4.64,5.39,1.05,2.56,1.1,5.54.1,8.12-1.11,2.98-3.57,5.43-6.56,6.51-2.39.88-5.09.92-7.49.07-2.39-.81-4.48-2.49-5.81-4.63-1.42-2.27-1.99-5.08-1.53-7.73.47-2.8,2.05-5.42,4.34-7.09,1.51-1.13,3.31-1.85,5.18-2.1ZM102.44,48.78c-2,.39-3.72,2.13-3.91,4.19-.15,1.22.19,2.48.87,3.49.86.96,2,1.79,3.31,1.93,1.46.19,3-.34,4.06-1.36,1.23-1.28,1.83-3.27,1.19-4.97-.32-.84-.7-1.73-1.49-2.22-1.12-.93-2.61-1.32-4.04-1.05Z"/>
  </g>
  <path class="cls-1" d="M102.44,48.78c1.43-.27,2.92.12,4.04,1.05.8.49,1.18,1.38,1.49,2.22.63,1.7.03,3.69-1.19,4.97-1.06,1.02-2.6,1.56-4.06,1.36-1.32-.13-2.46-.97-3.31-1.93-.69-1.01-1.02-2.27-.87-3.49.19-2.06,1.91-3.8,3.91-4.19Z"/>
  <g>
    <path d="M42.15,113.82c3.8,0,5.75,2.27,5.75,6.25v.78h-3.69v-1.03c0-1.78-.71-2.45-1.95-2.45s-1.95.67-1.95,2.45c0,5.11,7.63,6.07,7.63,13.17,0,3.98-1.99,6.25-5.82,6.25s-5.82-2.27-5.82-6.25v-1.53h3.69v1.78c0,1.78.78,2.42,2.02,2.42s2.02-.64,2.02-2.42c0-5.11-7.63-6.07-7.63-13.17,0-3.98,1.95-6.25,5.75-6.25Z"/>
    <path d="M57.92,114.1h12.07v3.55h-4.08v21.3h-3.91v-21.3h-4.08v-3.55Z"/>
    <path d="M88.74,138.96c-.21-.64-.35-1.03-.35-3.05v-3.91c0-2.31-.78-3.16-2.56-3.16h-1.35v10.12h-3.91v-24.86h5.89c4.05,0,5.79,1.88,5.79,5.72v1.95c0,2.56-.82,4.23-2.56,5.04,1.95.82,2.59,2.7,2.59,5.29v3.83c0,1.21.04,2.1.43,3.02h-3.98ZM84.48,117.65v7.63h1.53c1.46,0,2.34-.64,2.34-2.63v-2.45c0-1.78-.6-2.56-1.99-2.56h-1.88Z"/>
    <path d="M107.64,124.58h5.36v3.55h-5.36v7.28h6.75v3.55h-10.65v-24.86h10.65v3.55h-6.75v6.92Z"/>
    <path d="M138.32,138.96h-3.94l-.67-4.51h-4.79l-.67,4.51h-3.59l3.98-24.86h5.72l3.98,24.86ZM129.41,131.08h3.76l-1.88-12.57-1.88,12.57Z"/>
    <path d="M157.29,131.75l2.66-17.65h5.43v24.86h-3.69v-17.82l-2.7,17.82h-3.69l-2.91-17.58v17.58h-3.41v-24.86h5.43l2.88,17.65Z"/>
    <path d="M203.06,120.25v3.23c0,3.98-1.92,6.14-5.82,6.14h-1.85v9.34h-3.91v-24.86h5.75c3.91,0,5.82,2.17,5.82,6.14ZM195.39,117.65v8.42h1.85c1.24,0,1.92-.57,1.92-2.34v-3.73c0-1.78-.67-2.34-1.92-2.34h-1.85Z"/>
    <path d="M213.93,114.1h3.91v21.3h6.43v3.55h-10.33v-24.86Z"/>
    <path d="M247.49,138.96h-3.94l-.67-4.51h-4.79l-.67,4.51h-3.59l3.98-24.86h5.72l3.98,24.86ZM238.58,131.08h3.76l-1.88-12.57-1.88,12.57Z"/>
    <path d="M257.05,114.1h12.07v3.55h-4.08v21.3h-3.91v-21.3h-4.08v-3.55Z"/>
    <path d="M283.61,125.15h5.04v3.55h-5.04v10.26h-3.91v-24.86h10.33v3.55h-6.43v7.49Z"/>
    <path d="M300.48,120.07c0-3.98,2.09-6.25,5.93-6.25s5.93,2.27,5.93,6.25v12.92c0,3.98-2.09,6.25-5.93,6.25s-5.93-2.27-5.93-6.25v-12.92ZM304.39,133.24c0,1.78.78,2.45,2.02,2.45s2.02-.67,2.02-2.45v-13.42c0-1.78-.78-2.45-2.02-2.45s-2.02.67-2.02,2.45v13.42Z"/>
    <path d="M331.91,138.96c-.21-.64-.36-1.03-.36-3.05v-3.91c0-2.31-.78-3.16-2.56-3.16h-1.35v10.12h-3.91v-24.86h5.89c4.05,0,5.79,1.88,5.79,5.72v1.95c0,2.56-.82,4.23-2.56,5.04,1.95.82,2.59,2.7,2.59,5.29v3.83c0,1.21.04,2.1.43,3.02h-3.98ZM327.65,117.65v7.63h1.53c1.46,0,2.34-.64,2.34-2.63v-2.45c0-1.78-.6-2.56-1.99-2.56h-1.88Z"/>
    <path d="M355.17,131.75l2.66-17.65h5.43v24.86h-3.69v-17.82l-2.7,17.82h-3.69l-2.91-17.58v17.58h-3.41v-24.86h5.43l2.88,17.65Z"/>
  </g>
</svg>