<?xml version="1.0" encoding="UTF-8"?>
<svg id="Layer_1" data-name="Layer 1" xmlns="http://www.w3.org/2000/svg" viewBox="0 0 379.42 241.77">
  <defs>
    <style>
      .cls-1 {
        fill: #231f20;
      }
    </style>
  </defs>
  <g>
    <g>
      <path class="cls-1" d="M365.82,119.03c-.01,2.28,1.81,4.08,4.11,4.09,2.33.01,4.12-1.76,4.14-4.04.01-2.23-1.76-4.03-4.09-4.04s-4.15,1.76-4.16,3.99ZM373.03,119.43c-.15,1.58-1.53,2.86-3.11,2.83-1.79-.04-3.08-1.46-3.07-3.23s1.34-3.2,3.13-3.19c1.9.01,3.24,1.65,3.05,3.59Z"/>
      <path class="cls-1" d="M368.38,121.15h.93s0-1.61,0-1.61h.44c.51,0,.76.2.83.65.12.47.19.83.31.98h1c-.1-.14-.17-.39-.29-1-.12-.54-.34-.84-.73-.98v-.05c.49-.14.84-.48.84-.92,0-.39-.17-.71-.39-.88-.29-.17-.63-.3-1.39-.3-.66,0-1.18.04-1.54.11l-.02,4.01ZM370.72,118.3c0,.42-.42.58-.93.58h-.44s0-1.15,0-1.15c.1-.02.27-.05.52-.05.59,0,.86.25.85.62Z"/>
      <path class="cls-1" d="M149.23,238.79l28.11-3.02-7.1-114.3-.2-16.81-68.28-3.94.91,14.58-17.66,120.34,24.79,3.38,9.37-54.34,28.03.24,2.02,53.87ZM123.87,157.46l4.85-28.13,16.39.14,1.1,29.28-22.35-1.29Z"/>
      <polygon class="cls-1" points="209.52 100.7 207.47 100.7 181.25 104.33 184.83 235.03 204.01 234.31 267.82 237.1 270.51 205.12 209.76 207.67 209.52 100.7"/>
      <path class="cls-1" d="M295.59,123.5l-8.49,114.2,28.07,3.36,2.68-53.84,28.03.1,8.71,54.46,24.83-3.07-16.19-120.54,1.09-14.58-68.33,3.11-.4,16.81ZM341.52,160.03l-22.36,1.01,1.46-29.27,16.4.06,4.51,28.19Z"/>
      <path class="cls-1" d="M218.34,102.7l-.57,92.68,20.69-1.96,6.31-.43c7.67-.17,18.06-.68,27.14-7.23,10.73-7.74,16.03-21.86,15.75-41.96-.23-16.28-6.9-25.81-12.44-30.93-13.97-12.9-34.49-11.58-40.58-10.84l-16.29.68ZM261.68,130.2c3.33,3.08,4.99,7.64,5.09,13.97.36,25.3-8.75,25.51-22.52,25.81-1.58.03-3.13.08-4.64.17l-1.02-45.7c5.79-.42,16.91.04,23.1,5.75Z"/>
    </g>
    <polygon class="cls-1" points="88.4 100.7 60.58 103.39 58.54 117.94 50.02 207.08 11.44 193.84 0 222.84 78.78 234.46 88.09 116.49 93.65 100.7 88.4 100.7"/>
  </g>
  <path class="cls-1" d="M324.27,83.88l-15.1-45.32c-1.37-4.1-6.57-5.33-9.62-2.27l-24.92,24.92c-.34.34-.41.86-.18,1.28l12.27,22.25c.19.34.55.55.94.55h35.6c.73,0,1.25-.72,1.02-1.41Z"/>
  <path class="cls-1" d="M207.16,83.52l-43.55-50.99c-2.79-3.27-7.78-3.47-10.82-.43l-52.43,52.43c-.2.2-.31.47-.31.76h0s106.29,0,106.29,0c.92,0,1.41-1.07.82-1.77Z"/>
  <path class="cls-1" d="M281.82,83.7L237.21,2.82c-1.75-3.18-6.06-3.79-8.63-1.22l-45.64,45.64c-.4.4-.42,1.03-.06,1.45l30.93,36.22c.2.24.5.38.82.38h66.25c.82,0,1.33-.88.94-1.59Z"/>
</svg>