<?xml version="1.0" encoding="UTF-8"?>
<svg xmlns="http://www.w3.org/2000/svg" viewBox="0 0 815.33 271.18">
  <defs>
    <style>
      .cls-1 {
        fill: #231f20;
      }

      .cls-2 {
        fill: #828487;
      }

      .cls-3 {
        fill: #464547;
      }

      .cls-4 {
        isolation: isolate;
      }

      .cls-5 {
        fill: #d5d7d8;
      }

      .cls-6 {
        mix-blend-mode: screen;
        opacity: .3;
      }
    </style>
  </defs>
  <g class="cls-4">
    <g id="Layer_1" data-name="Layer 1">
      <g>
        <g>
          <g>
            <g>
              <path class="cls-3" d="M167.73,0s89.87,11.05,84.92,100.35c0,0-88.33-10.43-84.92-100.35Z"/>
              <g class="cls-6">
                <path class="cls-3" d="M252.65,100.35S164.32,89.93,167.73,0l84.92,100.35Z"/>
              </g>
            </g>
            <g>
              <path class="cls-3" d="M362.42,71.93s-35.44,62.62-109.56,28.11c0,0,34.47-61.7,109.56-28.11Z"/>
              <g class="cls-6">
                <path class="cls-3" d="M252.86,100.04s34.47-61.7,109.56-28.11l-109.56,28.11Z"/>
              </g>
            </g>
          </g>
          <g>
            <path class="cls-1" d="M102.05,173.76c-11.73,0-22.38-2.73-30.02-5.73v40.38c0,40.93-8.73,62.76-34.93,62.76-13.92,0-21.83-12.01-21.83-33.56,0-25.38,19.1-48.3,31.11-60.03V59.7c-14.74,6.82-26.74,17.19-26.74,28.92,0,6,1.64,10.1,1.64,10.1,0,0-1.64,3.27-8.19,3.27-6,0-13.1-5.46-13.1-15.01,0-16.65,18.01-35.47,46.39-44.21v-10.37c0-11.73,7.09-16.65,13.37-16.65,7.64,0,11.19,3.82,11.19,3.82v18.56c2.73,0,5.46-.27,8.19-.27,61.12.27,98.51,23.19,98.51,69.04,0,40.93-30.56,66.85-75.59,66.85ZM46.39,190.41c-8.73,10.64-19.37,28.11-19.37,48.03,0,16.65,3.82,22.1,9.82,22.1,7.64,0,9.55-11.73,9.55-70.13ZM79.41,51.24c-2.73,0-5.46.27-7.64.82v101.51c8.19,3.55,18.01,6,28.11,6,35.47,0,51.57-19.92,51.57-52.66,0-35.2-25.65-55.67-72.04-55.67Z"/>
            <path class="cls-1" d="M237.67,237.07c-30.02,0-55.67-21.56-55.67-62.49s22.38-61.67,54.3-61.67,54.3,21.01,54.3,61.67c0,33.02-19.1,62.49-52.94,62.49ZM237.67,226.43c14.46,0,21.83-7.09,24.83-23.74-24.29-5.18-45.57-24.01-54.3-43.39-.27,4.64-.27,9.82-.27,15.28,0,37.11,8.73,51.85,29.74,51.85ZM218.02,137.74c0,23.74,21.56,47.75,46.12,54.57.27-5.18.55-11.19.55-17.74,0-36.84-6-51.03-28.65-51.03-9.28,0-18.01,4.64-18.01,14.19Z"/>
            <path class="cls-1" d="M378.74,154.93c0-24.01-6.55-32.47-16.37-32.47-16.92,0-28.11,14.46-28.11,67.95v42.84s-2.73,3.82-10.37,3.82-14.19-4.91-14.19-16.64v-103.69s2.73-3.82,10.37-3.82,14.19,4.91,14.19,16.65c6-10.64,15.83-16.65,31.38-16.65s28.92,7.37,34.93,22.1c6-14.19,16.92-22.1,34.65-22.1,22.92,0,38.75,14.73,38.75,43.39v38.75c0,21.28,7.37,31.38,18.28,31.38,12.28,0,25.65-11.19,25.65-53.21,0,0,.27-1.64,4.09-1.64,2.18,0,4.91,2.73,4.91,14.46,0,30.29-13.64,51.03-37.93,51.03-27.56,0-40.66-19.1-40.66-50.21v-31.93c0-24.01-6.55-32.47-16.37-32.47-14.19,0-27.83,14.19-27.83,68.49v42.29s-2.73,3.82-10.37,3.82-15.01-4.91-15.01-16.64v-65.49Z"/>
            <path class="cls-1" d="M632.78,174.85c3.55,0,5.73,3.55,5.73,8.73,0,22.92-15.83,53.48-54.85,53.48s-65.22-20.74-65.22-59.76c0-42.57,24.01-64.4,54.3-64.4,24.83,0,33.02,16.65,33.02,30.83,0,27.29-25.1,47.48-60.58,47.48,3.55,24.01,18.28,35.2,38.47,35.2,21.56,0,45.02-14.74,45.02-49.94,0,0,.27-1.64,4.09-1.64ZM544.37,181.13c18.28-2.46,41.75-11.19,41.75-35.75,0-14.19-6.55-21.83-17.74-21.83-16.92,0-24.01,14.73-24.01,55.12v2.46Z"/>
            <path class="cls-1" d="M709.46,171.58c2.18,0,4.91,2.73,4.91,14.46,0,27.56-16.65,51.03-40.66,51.03-30.02,0-43.93-19.1-43.93-50.21v-102.6c0-44.48,7.37-67.95,33.29-67.95,18.01,0,27.01,11.73,27.01,36.56,0,41.75-22.1,61.12-35.47,69.04v73.13c0,21.28,9,31.38,22.38,31.38,10.64,0,28.38-11.19,28.38-53.21,0,0,.55-1.64,4.09-1.64ZM678.35,53.15c0-18.56-5.46-26.2-13.1-26.2-8.19,0-10.64,7.09-10.64,83.5,10.1-7.37,23.74-23.19,23.74-57.3Z"/>
            <path class="cls-1" d="M762.4,237.07c-30.02,0-55.67-21.56-55.67-62.49s22.38-61.67,54.3-61.67,54.3,21.01,54.3,61.67c0,33.02-19.1,62.49-52.94,62.49ZM762.4,226.43c14.46,0,21.83-7.09,24.83-23.74-24.29-5.18-45.57-24.01-54.3-43.39-.27,4.64-.27,9.82-.27,15.28,0,37.11,8.73,51.85,29.74,51.85ZM742.75,137.74c0,23.74,21.56,47.75,46.12,54.57.27-5.18.55-11.19.55-17.74,0-36.84-6-51.03-28.65-51.03-9.28,0-18.01,4.64-18.01,14.19Z"/>
          </g>
          <circle class="cls-2" cx="228.2" cy="174.64" r="80.94" transform="translate(16.97 369.46) rotate(-80.11)"/>
          <g>
            <g>
              <path class="cls-5" d="M224.18,182.48c-3.85,0-6.97-3.5-6.97-7.81s3.12-7.81,6.97-7.81v-70.53c-43.03,0-78.24,35.26-78.24,78.4s35.21,78.28,78.24,78.28v-70.53Z"/>
              <path class="cls-1" d="M224.18,255.01c-44.24,0-80.24-36.01-80.24-80.28s36-80.4,80.24-80.4v4c-42.04,0-76.24,34.27-76.24,76.4s34.2,76.28,76.24,76.28v4Z"/>
            </g>
            <g>
              <path class="cls-1" d="M179.65,121.98c9.91-8.83,22.79-14.46,36.92-15.21,1.75-.09,3.23,1.26,3.23,2.99v49.01c0,2.66-3.25,4-5.16,2.12l-35.14-34.54c-1.25-1.22-1.16-3.22.14-4.38Z"/>
              <path class="cls-1" d="M172.14,130.79c-9.29,10.23-15.21,23.51-15.97,38.1-.09,1.73,1.27,3.2,3.03,3.2h51.99c2.7,0,4.05-3.22,2.14-5.1l-36.76-36.33c-1.24-1.22-3.26-1.15-4.42.14Z"/>
              <path class="cls-1" d="M179.65,227.36c9.91,8.83,22.79,14.46,36.92,15.21,1.75.09,3.23-1.26,3.23-2.99v-49.01c0-2.66-3.25-4-5.16-2.12l-35.14,34.54c-1.25,1.22-1.16,3.22.14,4.38Z"/>
              <path class="cls-1" d="M172.14,218.55c-9.29-10.23-15.21-23.51-15.97-38.1-.09-1.73,1.27-3.2,3.03-3.2h51.99c2.7,0,4.05,3.22,2.14,5.1l-36.76,36.33c-1.24,1.22-3.26,1.15-4.42-.14Z"/>
            </g>
          </g>
          <g>
            <g>
              <path class="cls-5" d="M228.22,182.48c3.85,0,6.97-3.5,6.97-7.81s-3.12-7.81-6.97-7.81v-70.53c43.03,0,78.24,35.26,78.24,78.4,0,43.14-35.21,78.28-78.24,78.28v-70.53Z"/>
              <path class="cls-1" d="M228.22,255.01v-4c42.04,0,76.24-34.22,76.24-76.28s-34.2-76.4-76.24-76.4v-4c44.24,0,80.24,36.07,80.24,80.4s-36,80.28-80.24,80.28Z"/>
            </g>
            <g>
              <path class="cls-1" d="M272.75,121.98c-9.91-8.83-22.79-14.46-36.92-15.21-1.75-.09-3.23,1.26-3.23,2.99v49.01c0,2.66,3.25,4,5.16,2.12l35.14-34.54c1.25-1.22,1.16-3.22-.14-4.38Z"/>
              <path class="cls-1" d="M280.27,130.79c9.29,10.23,15.21,23.51,15.97,38.1.09,1.73-1.27,3.2-3.03,3.2h-51.99c-2.7,0-4.05-3.22-2.14-5.1l36.76-36.33c1.24-1.22,3.26-1.15,4.42.14Z"/>
              <path class="cls-1" d="M272.75,227.36c-9.91,8.83-22.79,14.46-36.92,15.21-1.75.09-3.23-1.26-3.23-2.99v-49.01c0-2.66,3.25-4,5.16-2.12l35.14,34.54c1.25,1.22,1.16,3.22-.14,4.38Z"/>
              <path class="cls-1" d="M280.27,218.55c9.29-10.23,15.21-23.51,15.97-38.1.09-1.73-1.27-3.2-3.03-3.2h-51.99c-2.7,0-4.05,3.22-2.14,5.1l36.76,36.33c1.24,1.22,3.26,1.15,4.42-.14Z"/>
            </g>
          </g>
        </g>
        <g id="Generative_Object" data-name="Generative Object">
          <g id="Original_Art" data-name="Original Art">
            <g>
              <g>
                <g>
                  <path class="cls-3" d="M167.73,0s89.87,11.05,84.92,100.35c0,0-88.33-10.43-84.92-100.35Z"/>
                  <g class="cls-6">
                    <path class="cls-3" d="M252.65,100.35S164.32,89.93,167.73,0l84.92,100.35Z"/>
                  </g>
                </g>
                <g>
                  <path class="cls-3" d="M362.42,71.93s-35.44,62.62-109.56,28.11c0,0,34.47-61.7,109.56-28.11Z"/>
                  <g class="cls-6">
                    <path class="cls-3" d="M252.86,100.04s34.47-61.7,109.56-28.11l-109.56,28.11Z"/>
                  </g>
                </g>
              </g>
              <circle class="cls-2" cx="228.2" cy="174.64" r="80.94" transform="translate(16.97 369.46) rotate(-80.11)"/>
              <g>
                <g>
                  <path class="cls-5" d="M224.18,182.48c-3.85,0-6.97-3.5-6.97-7.81s3.12-7.81,6.97-7.81v-70.53c-43.03,0-78.24,35.26-78.24,78.4s35.21,78.28,78.24,78.28v-70.53Z"/>
                  <path class="cls-1" d="M224.18,255.01c-44.24,0-80.24-36.01-80.24-80.28s36-80.4,80.24-80.4v4c-42.04,0-76.24,34.27-76.24,76.4s34.2,76.28,76.24,76.28v4Z"/>
                </g>
                <g>
                  <path class="cls-1" d="M179.65,121.98c9.91-8.83,22.79-14.46,36.92-15.21,1.75-.09,3.23,1.26,3.23,2.99v49.01c0,2.66-3.25,4-5.16,2.12l-35.14-34.54c-1.25-1.22-1.16-3.22.14-4.38Z"/>
                  <path class="cls-1" d="M172.14,130.79c-9.29,10.23-15.21,23.51-15.97,38.1-.09,1.73,1.27,3.2,3.03,3.2h51.99c2.7,0,4.05-3.22,2.14-5.1l-36.76-36.33c-1.24-1.22-3.26-1.15-4.42.14Z"/>
                  <path class="cls-1" d="M179.65,227.36c9.91,8.83,22.79,14.46,36.92,15.21,1.75.09,3.23-1.26,3.23-2.99v-49.01c0-2.66-3.25-4-5.16-2.12l-35.14,34.54c-1.25,1.22-1.16,3.22.14,4.38Z"/>
                  <path class="cls-1" d="M172.14,218.55c-9.29-10.23-15.21-23.51-15.97-38.1-.09-1.73,1.27-3.2,3.03-3.2h51.99c2.7,0,4.05,3.22,2.14,5.1l-36.76,36.33c-1.24,1.22-3.26,1.15-4.42-.14Z"/>
                </g>
              </g>
              <g>
                <g>
                  <path class="cls-5" d="M228.22,182.48c3.85,0,6.97-3.5,6.97-7.81s-3.12-7.81-6.97-7.81v-70.53c43.03,0,78.24,35.26,78.24,78.4,0,43.14-35.21,78.28-78.24,78.28v-70.53Z"/>
                  <path class="cls-1" d="M228.22,255.01v-4c42.04,0,76.24-34.22,76.24-76.28s-34.2-76.4-76.24-76.4v-4c44.24,0,80.24,36.07,80.24,80.4s-36,80.28-80.24,80.28Z"/>
                </g>
                <g>
                  <path class="cls-1" d="M272.75,121.98c-9.91-8.83-22.79-14.46-36.92-15.21-1.75-.09-3.23,1.26-3.23,2.99v49.01c0,2.66,3.25,4,5.16,2.12l35.14-34.54c1.25-1.22,1.16-3.22-.14-4.38Z"/>
                  <path class="cls-1" d="M280.27,130.79c9.29,10.23,15.21,23.51,15.97,38.1.09,1.73-1.27,3.2-3.03,3.2h-51.99c-2.7,0-4.05-3.22-2.14-5.1l36.76-36.33c1.24-1.22,3.26-1.15,4.42.14Z"/>
                  <path class="cls-1" d="M272.75,227.36c-9.91,8.83-22.79,14.46-36.92,15.21-1.75.09-3.23-1.26-3.23-2.99v-49.01c0-2.66,3.25-4,5.16-2.12l35.14,34.54c1.25,1.22,1.16,3.22-.14,4.38Z"/>
                  <path class="cls-1" d="M280.27,218.55c9.29-10.23,15.21-23.51,15.97-38.1.09-1.73-1.27-3.2-3.03-3.2h-51.99c-2.7,0-4.05,3.22-2.14,5.1l36.76,36.33c1.24,1.22,3.26,1.15,4.42-.14Z"/>
                </g>
              </g>
            </g>
          </g>
        </g>
        <g id="Original_Art-2" data-name="Original Art">
          <g>
            <g>
              <g>
                <path class="cls-3" d="M167.73,0s89.87,11.05,84.92,100.35c0,0-88.33-10.43-84.92-100.35Z"/>
                <g class="cls-6">
                  <path class="cls-3" d="M252.65,100.35S164.32,89.93,167.73,0l84.92,100.35Z"/>
                </g>
              </g>
              <g>
                <path class="cls-3" d="M362.42,71.93s-35.44,62.62-109.56,28.11c0,0,34.47-61.7,109.56-28.11Z"/>
                <g class="cls-6">
                  <path class="cls-3" d="M252.86,100.04s34.47-61.7,109.56-28.11l-109.56,28.11Z"/>
                </g>
              </g>
            </g>
            <circle class="cls-2" cx="228.2" cy="174.64" r="80.94" transform="translate(16.97 369.46) rotate(-80.11)"/>
            <g>
              <g>
                <path class="cls-5" d="M224.18,182.48c-3.85,0-6.97-3.5-6.97-7.81s3.12-7.81,6.97-7.81v-70.53c-43.03,0-78.24,35.26-78.24,78.4s35.21,78.28,78.24,78.28v-70.53Z"/>
                <path class="cls-1" d="M224.18,255.01c-44.24,0-80.24-36.01-80.24-80.28s36-80.4,80.24-80.4v4c-42.04,0-76.24,34.27-76.24,76.4s34.2,76.28,76.24,76.28v4Z"/>
              </g>
              <g>
                <path class="cls-1" d="M179.65,121.98c9.91-8.83,22.79-14.46,36.92-15.21,1.75-.09,3.23,1.26,3.23,2.99v49.01c0,2.66-3.25,4-5.16,2.12l-35.14-34.54c-1.25-1.22-1.16-3.22.14-4.38Z"/>
                <path class="cls-1" d="M172.14,130.79c-9.29,10.23-15.21,23.51-15.97,38.1-.09,1.73,1.27,3.2,3.03,3.2h51.99c2.7,0,4.05-3.22,2.14-5.1l-36.76-36.33c-1.24-1.22-3.26-1.15-4.42.14Z"/>
                <path class="cls-1" d="M179.65,227.36c9.91,8.83,22.79,14.46,36.92,15.21,1.75.09,3.23-1.26,3.23-2.99v-49.01c0-2.66-3.25-4-5.16-2.12l-35.14,34.54c-1.25,1.22-1.16,3.22.14,4.38Z"/>
                <path class="cls-1" d="M172.14,218.55c-9.29-10.23-15.21-23.51-15.97-38.1-.09-1.73,1.27-3.2,3.03-3.2h51.99c2.7,0,4.05,3.22,2.14,5.1l-36.76,36.33c-1.24,1.22-3.26,1.15-4.42-.14Z"/>
              </g>
            </g>
            <g>
              <g>
                <path class="cls-5" d="M228.22,182.48c3.85,0,6.97-3.5,6.97-7.81s-3.12-7.81-6.97-7.81v-70.53c43.03,0,78.24,35.26,78.24,78.4,0,43.14-35.21,78.28-78.24,78.28v-70.53Z"/>
                <path class="cls-1" d="M228.22,255.01v-4c42.04,0,76.24-34.22,76.24-76.28s-34.2-76.4-76.24-76.4v-4c44.24,0,80.24,36.07,80.24,80.4s-36,80.28-80.24,80.28Z"/>
              </g>
              <g>
                <path class="cls-1" d="M272.75,121.98c-9.91-8.83-22.79-14.46-36.92-15.21-1.75-.09-3.23,1.26-3.23,2.99v49.01c0,2.66,3.25,4,5.16,2.12l35.14-34.54c1.25-1.22,1.16-3.22-.14-4.38Z"/>
                <path class="cls-1" d="M280.27,130.79c9.29,10.23,15.21,23.51,15.97,38.1.09,1.73-1.27,3.2-3.03,3.2h-51.99c-2.7,0-4.05-3.22-2.14-5.1l36.76-36.33c1.24-1.22,3.26-1.15,4.42.14Z"/>
                <path class="cls-1" d="M272.75,227.36c-9.91,8.83-22.79,14.46-36.92,15.21-1.75.09-3.23-1.26-3.23-2.99v-49.01c0-2.66,3.25-4,5.16-2.12l35.14,34.54c1.25,1.22,1.16,3.22-.14,4.38Z"/>
                <path class="cls-1" d="M280.27,218.55c9.29-10.23,15.21-23.51,15.97-38.1.09-1.73-1.27-3.2-3.03-3.2h-51.99c-2.7,0-4.05,3.22-2.14,5.1l36.76,36.33c1.24,1.22,3.26,1.15,4.42-.14Z"/>
              </g>
            </g>
          </g>
          <g id="Generative_Object-2" data-name="Generative Object">
            <g id="Original_Art-3" data-name="Original Art">
              <g>
                <g>
                  <g>
                    <path class="cls-3" d="M167.73,0s89.87,11.05,84.92,100.35c0,0-88.33-10.43-84.92-100.35Z"/>
                    <g class="cls-6">
                      <path class="cls-3" d="M252.65,100.35S164.32,89.93,167.73,0l84.92,100.35Z"/>
                    </g>
                  </g>
                  <g>
                    <path class="cls-3" d="M362.42,71.93s-35.44,62.62-109.56,28.11c0,0,34.47-61.7,109.56-28.11Z"/>
                    <g class="cls-6">
                      <path class="cls-3" d="M252.86,100.04s34.47-61.7,109.56-28.11l-109.56,28.11Z"/>
                    </g>
                  </g>
                </g>
                <circle class="cls-2" cx="228.2" cy="174.64" r="80.94" transform="translate(16.97 369.46) rotate(-80.11)"/>
                <g>
                  <g>
                    <path class="cls-5" d="M224.18,182.48c-3.85,0-6.97-3.5-6.97-7.81s3.12-7.81,6.97-7.81v-70.53c-43.03,0-78.24,35.26-78.24,78.4s35.21,78.28,78.24,78.28v-70.53Z"/>
                    <path class="cls-1" d="M224.18,255.01c-44.24,0-80.24-36.01-80.24-80.28s36-80.4,80.24-80.4v4c-42.04,0-76.24,34.27-76.24,76.4s34.2,76.28,76.24,76.28v4Z"/>
                  </g>
                  <g>
                    <path class="cls-1" d="M179.65,121.98c9.91-8.83,22.79-14.46,36.92-15.21,1.75-.09,3.23,1.26,3.23,2.99v49.01c0,2.66-3.25,4-5.16,2.12l-35.14-34.54c-1.25-1.22-1.16-3.22.14-4.38Z"/>
                    <path class="cls-1" d="M172.14,130.79c-9.29,10.23-15.21,23.51-15.97,38.1-.09,1.73,1.27,3.2,3.03,3.2h51.99c2.7,0,4.05-3.22,2.14-5.1l-36.76-36.33c-1.24-1.22-3.26-1.15-4.42.14Z"/>
                    <path class="cls-1" d="M179.65,227.36c9.91,8.83,22.79,14.46,36.92,15.21,1.75.09,3.23-1.26,3.23-2.99v-49.01c0-2.66-3.25-4-5.16-2.12l-35.14,34.54c-1.25,1.22-1.16,3.22.14,4.38Z"/>
                    <path class="cls-1" d="M172.14,218.55c-9.29-10.23-15.21-23.51-15.97-38.1-.09-1.73,1.27-3.2,3.03-3.2h51.99c2.7,0,4.05,3.22,2.14,5.1l-36.76,36.33c-1.24,1.22-3.26,1.15-4.42-.14Z"/>
                  </g>
                </g>
                <g>
                  <g>
                    <path class="cls-5" d="M228.22,182.48c3.85,0,6.97-3.5,6.97-7.81s-3.12-7.81-6.97-7.81v-70.53c43.03,0,78.24,35.26,78.24,78.4,0,43.14-35.21,78.28-78.24,78.28v-70.53Z"/>
                    <path class="cls-1" d="M228.22,255.01v-4c42.04,0,76.24-34.22,76.24-76.28s-34.2-76.4-76.24-76.4v-4c44.24,0,80.24,36.07,80.24,80.4s-36,80.28-80.24,80.28Z"/>
                  </g>
                  <g>
                    <path class="cls-1" d="M272.75,121.98c-9.91-8.83-22.79-14.46-36.92-15.21-1.75-.09-3.23,1.26-3.23,2.99v49.01c0,2.66,3.25,4,5.16,2.12l35.14-34.54c1.25-1.22,1.16-3.22-.14-4.38Z"/>
                    <path class="cls-1" d="M280.27,130.79c9.29,10.23,15.21,23.51,15.97,38.1.09,1.73-1.27,3.2-3.03,3.2h-51.99c-2.7,0-4.05-3.22-2.14-5.1l36.76-36.33c1.24-1.22,3.26-1.15,4.42.14Z"/>
                    <path class="cls-1" d="M272.75,227.36c-9.91,8.83-22.79,14.46-36.92,15.21-1.75.09-3.23-1.26-3.23-2.99v-49.01c0-2.66,3.25-4,5.16-2.12l35.14,34.54c1.25,1.22,1.16,3.22-.14,4.38Z"/>
                    <path class="cls-1" d="M280.27,218.55c9.29-10.23,15.21-23.51,15.97-38.1.09-1.73-1.27-3.2-3.03-3.2h-51.99c-2.7,0-4.05,3.22-2.14,5.1l36.76,36.33c1.24,1.22,3.26,1.15,4.42-.14Z"/>
                  </g>
                </g>
              </g>
            </g>
          </g>
        </g>
      </g>
    </g>
  </g>
</svg>