<?xml version="1.0" encoding="UTF-8"?>
<svg id="Layer_1" data-name="Layer 1" xmlns="http://www.w3.org/2000/svg" viewBox="0 0 546.18 251.14">
  <defs>
    <style>
      .cls-1 {
        fill: #fff;
      }

      .cls-2 {
        fill: #f2f2f2;
      }

      .cls-3 {
        fill: #ccc;
      }
    </style>
  </defs>
  <path class="cls-1" d="M140.17,251.14V41.39c0-22.86,18.53-41.39,41.39-41.39H41.39C18.53,0,0,18.53,0,41.39v209.75h140.17Z"/>
  <path class="cls-3" d="M244.4,209.74l78.84-168.36c9.78-20.95,18.53-41.39,41.39-41.39h140.17c-22.86,0-31.6,19.46-41.39,41.39l-78.85,168.36c-9.69,19.97-18.53,41.39-41.39,41.39h-140.17c22.86,0,31.7-22.39,41.39-41.39Z"/>
  <path class="cls-1" d="M406.01,251.14V41.39c0-22.86-18.53-41.39-41.39-41.39h140.17c22.86,0,41.38,18.53,41.38,41.39v209.75h-140.16Z"/>
  <path class="cls-2" d="M301.79,209.74L222.94,41.39C213.17,20.44,204.41,0,181.56,0H41.39c22.86,0,31.61,19.46,41.39,41.39l78.85,168.36c9.69,19.97,18.53,41.39,41.39,41.39h140.17c-22.86,0-31.7-22.39-41.39-41.39Z"/>
</svg>