<?xml version="1.0" encoding="UTF-8"?>
<svg id="a" data-name="Layer 1" xmlns="http://www.w3.org/2000/svg" viewBox="0 0 137.36 39.64">
  <g>
    <path d="M0,.47h21.44v6.84h-7.43v21.67h-6.58V7.31H0V.47Z"/>
    <path d="M36.69.47h6.58v18.4c0,6.35-4.79,10.57-10.72,10.57s-10.72-4.26-10.72-10.57V.47h6.58v18.4c0,2.74,2.16,3.72,4.13,3.72s4.13-.99,4.13-3.72V.47Z"/>
  </g>
  <g>
    <path d="M69.02,5.28c-3.06,2.19-5.05,5.77-5.05,9.81,0,.14.01.28.01.41-.59,4.15-2.15,1.32-2.18,1.27-.06-.55-.1-1.11-.1-1.68,0-.96.09-1.91.28-2.82l-2.23,5.17v11.52h-6.59v-11.52L45.85.45h7.06l3.55,8.86L60,.45h7.07l-2.64,6.13c1.4-1.99,3.29-3.6,5.5-4.69-.89,1.18-.96,2.6-.91,3.39Z"/>
    <path d="M128.19.45h-7.61l-6.11,20.09v-7.16h-12.54v5.01h5.96v1.94c-.92,1.1-2.6,2.24-5.74,2.24-3.92,0-6.37-3.15-6.37-7.86s2.45-7.87,6.37-7.87c2.74,0,4.75,1.56,5.7,4.1l5.82-3.61s-2.85-7.33-11.52-7.33c-6.12,0-10.51,3.92-12.27,9.24-2.25-5.21-7.44-8.85-13.48-8.85-.12,0-.24.01-.36.01,1.55.58,2.8,1.79,3.42,3.13,4.99,1.48,8.63,6.09,8.63,11.56,0,4.51-2.47,8.44-6.14,10.5l-.63-.33s-3.11-3.03-5.41-3.28c-2.3-.24-3.07-1.25-3.84-1.93-.72.12-.6,3.11,1.82,3.55s1.62,1.7.65,1.94c-.97.24-6.79-.93-9.62-4.04-1.6-1.31-1.86-.63-1.7.03,0,.03.01.06.02.09,0,.01,0,.02,0,.03.08.17.17.34.26.5,0,0,0,.01.01.01,2.49,4.54,7.33,7.63,12.88,7.63,6.17,0,11.44-3.79,13.62-9.18,1.86,5.14,6.2,8.81,12.13,8.81s9.3-2.58,10.97-4.44l-1.21,3.98h6.88l1.54-5.59h8.12l1.53,5.59h6.88L128.19.45ZM121.9,17.67l2.49-8.89,2.45,8.89h-4.94Z"/>
  </g>
  <g>
    <path d="M14.07,31.2c2.35,0,3.25.87,3.25,3.18v2.07c0,2.31-.89,3.18-3.25,3.18h-3.58c-2.34,0-3.25-.87-3.25-3.18v-2.07c0-2.31.9-3.18,3.25-3.18h3.58ZM9.02,36.32c0,1.27.35,1.64,1.54,1.64h3.44c1.19,0,1.54-.37,1.54-1.64v-1.81c0-1.27-.35-1.64-1.54-1.64h-3.44c-1.19,0-1.54.37-1.54,1.64v1.81Z"/>
    <path d="M24.3,31.2c.74,0,.9.1,1.35.71l4.31,5.88c.03.06.08.08.15.08h.1c.06,0,.09-.04.09-.12v-6.29c0-.18.08-.27.26-.27h1.22c.17,0,.25.08.25.27v6.92c0,.98-.34,1.25-1.04,1.25h-1c-.71,0-.88-.07-1.35-.71l-4.33-5.88c-.05-.06-.08-.08-.15-.08h-.1c-.07,0-.09.04-.09.12v6.29c0,.18-.08.27-.25.27h-1.22c-.17,0-.27-.08-.27-.27v-6.92c0-.98.34-1.25,1.04-1.25h1.02Z"/>
    <path d="M45.45,31.2c.17,0,.26.08.26.27v1.18c0,.18-.08.28-.26.28h-5.16c-1.19,0-1.54.36-1.54,1.64v1.71c0,1.28.35,1.65,1.54,1.65h5.16c.17,0,.26.08.26.27v1.18c0,.18-.08.27-.26.27h-5.23c-2.34,0-3.25-.87-3.25-3.18v-2.07c0-2.31.9-3.18,3.25-3.18h5.23Z"/>
    <path d="M57.16,31.2c2.35,0,3.25.87,3.25,3.18v2.07c0,2.31-.89,3.18-3.25,3.18h-3.58c-2.34,0-3.25-.87-3.25-3.18v-2.07c0-2.31.9-3.18,3.25-3.18h3.58ZM52.1,36.32c0,1.27.35,1.64,1.54,1.64h3.44c1.19,0,1.54-.37,1.54-1.64v-1.81c0-1.27-.35-1.64-1.54-1.64h-3.44c-1.19,0-1.54.37-1.54,1.64v1.81Z"/>
    <path d="M66.82,31.2c.17,0,.25.08.25.27v4.81c0,1.28.35,1.65,1.54,1.65h4.7c.17,0,.25.08.25.27v1.18c0,.18-.08.27-.25.27h-4.77c-2.34,0-3.25-.87-3.25-3.18v-4.99c0-.18.09-.27.27-.27h1.25Z"/>
    <path d="M84.83,31.2c2.35,0,3.25.87,3.25,3.18v2.07c0,2.31-.89,3.18-3.25,3.18h-3.58c-2.34,0-3.25-.87-3.25-3.18v-2.07c0-2.31.9-3.18,3.25-3.18h3.58ZM79.78,36.32c0,1.27.35,1.64,1.54,1.64h3.44c1.19,0,1.54-.37,1.54-1.64v-1.81c0-1.27-.35-1.64-1.54-1.64h-3.44c-1.19,0-1.54.37-1.54,1.64v1.81ZM84.5,28.6c.16,0,.27.08.16.23l-1.18,1.77c-.09.16-.17.23-.35.23h-.88c-.17,0-.27-.08-.17-.23l1.03-1.77c.08-.14.19-.23.36-.23h1.03Z"/>
    <path d="M102.03,31.2c.17,0,.25.08.25.27v1.18c0,.18-.08.28-.25.28h-5.81c-1.19,0-1.54.36-1.54,1.64v1.74c0,1.28.35,1.65,1.54,1.65h3.83c.41,0,.58-.19.58-.74v-.98c0-.11-.03-.16-.14-.16h-3.4c-.16,0-.25-.1-.25-.28v-.9c0-.18.09-.28.25-.28h4.84c.23,0,.35.12.35.36v2.81c0,1.35-.51,1.84-1.44,1.84h-4.69c-2.34,0-3.25-.87-3.25-3.18v-2.07c0-2.31.9-3.18,3.25-3.18h5.88Z"/>
    <path d="M108.73,31.2c.17,0,.25.08.25.27v7.91c0,.18-.08.27-.25.27h-1.25c-.17,0-.27-.08-.27-.27v-7.91c0-.18.09-.27.27-.27h1.25Z"/>
    <path d="M122.4,31.2c.17,0,.26.08.26.27v1.18c0,.18-.08.28-.26.28h-5.16c-1.19,0-1.54.36-1.54,1.64v1.71c0,1.28.35,1.65,1.54,1.65h5.16c.17,0,.26.08.26.27v1.18c0,.18-.08.27-.26.27h-5.23c-2.34,0-3.25-.87-3.25-3.18v-2.07c0-2.31.9-3.18,3.25-3.18h5.23Z"/>
    <path d="M134.11,31.2c2.35,0,3.25.87,3.25,3.18v2.07c0,2.31-.89,3.18-3.25,3.18h-3.58c-2.34,0-3.25-.87-3.25-3.18v-2.07c0-2.31.9-3.18,3.25-3.18h3.58ZM129.05,36.32c0,1.27.35,1.64,1.54,1.64h3.44c1.19,0,1.54-.37,1.54-1.64v-1.81c0-1.27-.35-1.64-1.54-1.64h-3.44c-1.19,0-1.54.37-1.54,1.64v1.81Z"/>
  </g>
  <g>
    <path d="M63.24,21.62s-.05-.08-.07-.12l.05.03s.01.06.02.09Z"/>
    <g>
      <path d="M75.33,11.47c-2.21-1.42-3.27-3.42-3.45-4.58-.54-3.54,2.75-3.14,2.75-3.14,0,0-.08-.62.28-2.57-3.42-.14-6.5,1.54-4.39,7.57.65,1.87,1.45,3.42,2.33,4.71,1.08-.47,2.02-1.46,2.47-1.99Z"/>
      <path d="M74.18,15.14c.57.63,1.16,1.17,1.77,1.63-.5-.47-1.14-1.06-1.77-1.63Z"/>
      <path d="M84.01,16.78s1.48-.99,2.59-2.85c-1.29.07-4.82-.4-7.49-1.02-.4,1.47-1.75,3.95-2.12,4.6,4.16,2.62,8.51,2.12,9.43,2.02.12-.01.11-.11.11-.11l-2.52-2.64Z"/>
    </g>
    <g>
      <polygon points="67.45 22.83 67.45 22.83 67.45 22.83 67.45 22.83"/>
      <path d="M72.5,1.47c.99,1.74,1.01,2.4,1.01,2.4,0,0,3.22-.94,3.97,2.46.28,1.28-.21,3.86-2.34,6.04-1.14,1.4-8.68,5.2-10.55,5.67,1.67,1.43,4.89,1.21,4.89,1.21l-2.03,3.58c.49-.1,1.99-.4,3.78-1.24-.1-.7-.09-1.66.51-2.34.46.33,1.06.79,1.56,1.17,3.04-2.06,6.08-5.84,6.08-12.72,0-6.36-3.87-7.05-6.88-6.23Z"/>
    </g>
    <path d="M63.51,22.15c-.1-.11-.2-.3-.26-.5.08.17.17.34.26.5Z"/>
  </g>
</svg>