<?xml version="1.0" encoding="UTF-8"?>
<svg id="Layer_2" data-name="Layer 2" xmlns="http://www.w3.org/2000/svg" viewBox="0 0 706.87 706.87">
  <defs>
    <style>
      .cls-1 {
        fill: #fb8500;
      }

      .cls-2 {
        fill: #8ecae6;
      }

      .cls-3 {
        fill: #023047;
      }
    </style>
  </defs>
  <g id="Layer_1" data-name="Layer 1">
    <g>
      <circle class="cls-3" cx="353.43" cy="353.43" r="353.43"/>
      <g>
        <path class="cls-2" d="M432.49,265.14c1.08-1.06,3.01-.82,3.88.39,3.11,4.12,6.2,8.24,9.32,12.35.57.71.82,1.72.49,2.6-.28.89-1.14,1.43-1.95,1.8-9.46,3.83-18.9,7.75-28.41,11.46-.85.33-1.86.32-2.62-.21-1.43-.83-1.8-2.99-.75-4.26,5.27-6.33,10.5-12.7,15.78-19.02,1.42-1.71,2.79-3.47,4.28-5.11Z"/>
        <g>
          <path class="cls-1" d="M256.03,173.85c1.78-2.09,4.74-2.56,7.34-2.52,7.67.03,15.35-.02,23.02.02,2.64,0,5.45,1.24,6.6,3.75,2.35,4.93,1.49,10.56,1.66,15.84.17,3.79-.39,7.65.37,11.4,30.45.22,60.91.03,91.37.09,8.63-.05,17.27.11,25.9-.09.53-6.76-.02-13.57.32-20.33.29-2.98.81-6.21,2.9-8.5,1.82-1.88,4.6-2.21,7.08-2.18,7.48.02,14.97-.02,22.45.02,2.51-.02,5.33.89,6.55,3.27,2.46,4.45,1.9,9.7,1.96,14.59.07,3.83-.19,7.66.08,11.48-.02.95.71,1.89,1.74,1.67,9.2.13,18.4-.01,27.6.1,8.56.39,17.21,2.81,24.14,7.99,9.33,6.69,15.22,17.87,15.54,29.33.01,86.99-.03,173.98.02,260.98-.32,7.2-3.61,14-8,19.61-5.61,6.85-13.27,12.24-21.92,14.35-4.33,1.1-8.82.74-13.24.78-86.42-.22-172.84-.5-259.26-.3-7.42-.13-14.53-3.27-20.28-7.82-9.54-7.58-15.78-19.49-15.73-31.77-.02-84.12-.01-168.25,0-252.38-.03-9.15,3.02-18.36,8.85-25.45,4.98-6.27,11.95-10.89,19.63-13.12,5.98-1.77,12.26-2.32,18.47-2.22,6.72-.01,13.44.02,20.16-.02.83-.04,2.19-.06,2.02-1.24.25-6.27-.09-12.57.15-18.85.17-2.95.7-6.06,2.52-8.48M437.09,264.12c-2.46-.26-33.29.12-35.76.14-59.4.26-118.8.18-178.2.26-2.62-.07-5.35.18-7.61,1.62-3.92,2.36-5.7,7.16-5.62,11.58.03,7.48-.15,14.96-.19,22.44-.04,63.41.03,126.83,0,190.25.11,4.94.9,10.41,4.47,14.13,3.25,3.23,8.18,2.87,12.4,3.08,84.69-.09,169.39,0,254.08-.03,4.82.04,10.3-.84,13.32-5.01,3.98-5.46,3.7-12.62,3.64-19.06,0-69.17.2-138.33-.13-207.5-.09-2.92-.04-6.16-1.97-8.56-1.7-2.3-4.62-3.24-7.37-3.37-20.14-.13-40.29.23-60.43-.09"/>
          <g>
            <path class="cls-2" d="M396.18,250.43c.65-.74,1.68-1.08,2.64-.93,5.63.69,11.27,1.26,16.9,1.99,1,.1,1.8.91,2.15,1.82.34.71.16,1.52-.04,2.25-2.85,9.37-5.73,18.73-8.56,28.11-.24.78-.42,1.61-.95,2.26-.82.93-2.24,1.38-3.41.87-.9-.3-1.57-1.13-1.8-2.04-2.46-10.65-4.99-21.27-7.52-31.9-.26-.85,0-1.78.6-2.42Z"/>
            <path class="cls-2" d="M452.33,300.12c.61.77.76,1.84.43,2.77-1.7,5.41-3.28,10.86-5.01,16.26-.28.97-1.22,1.6-2.17,1.78-.76.2-1.53-.11-2.2-.44-8.7-4.5-17.39-9.03-26.09-13.51-.72-.37-1.51-.71-2.05-1.34-.76-.98-.95-2.46-.24-3.51.46-.83,1.4-1.34,2.33-1.4,10.91-.49,21.83-1.06,32.74-1.62.88-.1,1.75.33,2.27,1.02Z"/>
            <path class="cls-2" d="M330.98,295.02c.6-.16,1.22-.21,1.84-.21,23.5,0,46.99.17,70.49.02,2.64-.09,5.05,2.3,4.74,4.98.08,25.92-.07,51.83.01,77.75-.09,10.63-.13,21.27-.13,31.9-.11,4.31.15,8.63-.22,12.92-.28,6.35-1.78,12.6-3.77,18.62-4.32,13.1-13.53,24.32-24.98,31.89-10.02,6.62-21.83,10.55-33.84,11.02-2.91-.07-5.83.15-8.72-.15-13.28-1.01-26.17-6.12-36.7-14.26-8.82-6.8-15.65-16.09-19.79-26.43-3.16-7.79-4.43-16.27-4.24-24.65.01-2.11-.02-4.22,0-6.33.18-2.35,2.3-4.24,4.63-4.3,12.2,0,24.39,0,36.59,0,2.22.08,4.24,1.9,4.45,4.13.18,2.72.2,5.46.2,8.19.16,4.65,2.43,9,5.56,12.36,3.72,3.99,9.36,5.72,14.71,5.57,4.73,0,9.31-2,12.85-5.08,3.85-3.77,5.73-9.2,5.76-14.53.25-6.31.07-12.62.15-18.94.05-18.39-.19-36.78-.16-55.17-.42-3.62-2.87-6.98-6.29-8.31-1.46-.65-3.09-.77-4.67-.79-5.43,0-10.87,0-16.3.04-1.14-.03-2.37-.14-3.31-.87-1.17-.95-1.7-2.51-1.63-3.98.06-8.65.11-17.29.08-25.94.01-2.2-.2-4.41-.05-6.61.12-1.45,1.34-2.6,2.74-2.83Z"/>
          </g>
        </g>
      </g>
    </g>
  </g>
</svg>