<?xml version="1.0" encoding="UTF-8"?>
<svg id="Layer_2" data-name="Layer 2" xmlns="http://www.w3.org/2000/svg" viewBox="0 0 546.89 546.89">
  <defs>
    <style>
      .cls-1 {
        fill: #ed974a;
      }

      .cls-2 {
        fill: #345795;
      }
    </style>
  </defs>
  <g id="Layer_1" data-name="Layer 1">
    <g>
      <circle class="cls-2" cx="273.44" cy="273.44" r="273.44"/>
      <g>
        <path class="cls-1" d="M332.08,179.84c-1-1.53-.47-3.62,1.16-4.46,10.03-5.19,21.96-6.9,32.82-3.48,7.24,2.28,11.88,9.95,11.39,17.41-.82,10.07-2.65,20.01-4.31,29.97-3.7,20.63-6.12,41.5-7.09,62.44-.23,8.71-.78,17.58,1.26,26.12.94,3.75,2.84,8.18,7.06,9.06,3.4.63,6.46-.83,9.27-2.65,1.82-1.18,4.23-.2,4.75,1.91,2.91,11.79,1.47,25-6.19,34.71-7.96,10.25-23.74,10.93-34.52,5.07-9.82-6.01-11.35-18.79-10.86-29.27,2.07-36.33,11.17-72.24,8.76-108.8-1.08-13.6-6.04-26.66-13.49-38.03Z"/>
        <path class="cls-1" d="M273.65,243.66c-1.46-1.91-.61-4.7,1.64-5.55,8.88-3.34,18.85-4.64,28.5-3.53,4.66.54,9.64,2.11,12.18,5.68,2.69,3.77,2.05,8.4,1.15,12.52-4.23,15.47-8.73,30.98-10.51,46.81,0,.09-.02.18-.02.27-.34,7.26-1.13,15.69,4.35,21.79l.63.57c3.79,2.7,8.49,1.37,12.44-.68,2.06-1.07,4.6-.04,5.21,2.2,2.65,9.76.83,20.62-6.6,28.59-7.83,8.45-23.1,8.99-33.8,4.45-9.4-4.38-11.64-14.33-11.35-22.62,1.06-15.57,7.94-30.38,8.95-45.95,1.71-15.53-2.77-31.43-12.76-44.54Z"/>
        <path class="cls-1" d="M430.48,235.6c12.61-2.85,27.59-.06,35.88,7.18,7.99,7.38,12.93,16.24,14.95,25.32,4.13,17.85,4.09,36.25-.99,54.01-3.59,11.22-9.29,22.81-21.3,31.12-10.75,7.61-29.45,8.43-41.83,2.27-8.4-4.07-12.85-10.75-16.68-17.09-5.74-10.47-6.68-21.81-7.63-32.87-.36-18.97,2-38.85,15.47-55.79,5-6.11,12.21-11.9,22.15-14.15ZM431.36,270.64c-7.02,4.32-9.48,10.94-10.98,17.1-1.6,8.14-.84,16.74,3.96,24.35,2.47,3.53,6.5,7.75,12.9,7.67,7.03-.39,11.48-4.83,14.08-8.91,5.72-9.18,7.05-19.6,4.42-29.41-1.78-5.02-4.88-10.81-12.23-13.06-4.28-1.28-8.91.34-12.16,2.26Z"/>
        <path class="cls-1" d="M144.06,169.67c9.05-2.32,19.88-2.85,27.48,3.61,6.21,4.78,6.24,13.5,6.38,20.7,0,.19,0,.37-.02.56-2.72,36.16-11.02,71.93-10.06,108.36,0,.17.02.33.03.5.11.97.2,2.04.34,3.11.7,5.33,7.93,6.4,10.06,1.48.84-1.94,1.42-4.07,2.04-5.93.05-.14.09-.28.12-.43,4.42-18.08,6.6-36.63,9.18-55.03,2.7-18.33,2.97-37.05,7.31-55.1,2.21-9.68,8.97-18.55,18.59-21.39,8.95-2.61,19.61-3.46,27.61,2.24,3.05,2.09,5.45,5.18,6.32,8.85,2.82,11.61.13,23.51-.93,35.16-1.55,16.99-2.83,34.01-3.34,51.07-.07,11.84-.54,23.96,2.78,35.45,1.25,3.89,3.31,8.41,7.54,9.61,2.66.71,5.1-.04,7.39-1.29,3.01-1.65,6.79-.06,7.64,3.32,1.92,7.62,2.63,15.59,1.3,23.36-1.55,8.63-6.83,17.43-15.55,19.9-9.71,2.58-21.56,1.03-28.48-6.99-6.37-7.44-7.85-17.67-8.54-27.15-1.32-22.51,3.16-44.76,4.53-67.15.52-11.03,2.64-22.09,1.28-33.13,0-.04-.01-.07-.02-.11-.87-5.22-7.92-6.12-10.03-1.28-.01.02-.02.05-.03.07-1.78,4.38-2.73,9.05-3.57,13.71-3.06,17.92-5.05,36-8.03,53.94-2.4,15.16-2.92,30.71-7.25,45.5-2.7,8.64-7.06,18.22-16.09,21.46-8.27,2.9-17.77,3.29-25.97-.03-8.19-3.55-10.6-13.39-11.32-21.58-1.27-19.1,4.32-37.7,6.23-56.57,1.48-15.13,2.83-30.29,3.65-45.47,0-.13,0-.27,0-.4-.11-5.09.51-10.87-2.58-15.21-1.86-2.26-4.98-.71-6.17,1.43-2.88,4.6-3.92,10.08-4.97,15.35-2.62,14.63-4.39,29.41-6.53,44.12-3.48,19.24-5.43,39.17-13.68,57.1-3.08,6.56-6.93,12.95-12.44,17.69-7.37,5.85-17.56,6.88-26.47,4.87-9.6-2.24-16.11-11.78-16.97-21.44-.87-8.45,1.35-16.97,5.75-24.14,1.57-2.55,4.9-3.1,7.36-1.42,2.85,1.94,6.21,3.05,9.73,2.64,6.08-.4,11.07-4.72,14.3-9.67,5.02-7.7,7.63-16.69,10.15-25.47,4.94-17.99,7.7-36.52,9.3-55.1,1.33-11.72,2.16-23.65,5.64-34.95,2.77-8.96,9.95-16.47,19.02-18.71Z"/>
        <g>
          <path class="cls-1" d="M283.51,171.47c1.95-.62,4.01.2,5.6,1.32,2.88,2.11,4.54,5.61,4.84,9.12.15,2.57-.09,5.36-1.7,7.48-1.39,1.93-3.79,3.19-6.19,2.86-2.13-.35-3.93-1.83-5.08-3.61-2.21-3.49-2.82-7.9-1.84-11.89.6-2.26,1.99-4.59,4.36-5.28Z"/>
          <path class="cls-1" d="M304.67,171.1c2.29-.73,4.75.63,5.95,2.58,2.59,4.17,2.31,9.66.2,13.97-1.08,2.15-3.05,4.13-5.56,4.35-2.49.25-4.86-1.33-5.99-3.49-2.51-4.87-1.96-11.45,2.04-15.38.94-.93,2.08-1.66,3.36-2.03Z"/>
          <path class="cls-1" d="M269.23,187.92c2.09-.73,4.39-.13,6.26.93,2.48,1.39,4.09,3.95,4.91,6.61.72,2.55,1.04,5.36.09,7.89-.77,2.1-3.16,3.41-5.36,2.94-2.77-.55-5.12-2.45-6.7-4.74-2.02-2.83-3.03-6.52-2.07-9.93.4-1.54,1.35-3.06,2.86-3.69Z"/>
          <path class="cls-1" d="M318.72,187.03c1.39-.31,3.03-.46,4.26.42,1.82,1.19,2.53,3.43,2.76,5.49.39,3.41-.97,6.87-3.3,9.35-1.52,1.67-3.47,3.18-5.79,3.41-2.02.24-3.95-1.13-4.68-2.97-1.26-2.97-1.08-6.44.03-9.43,1.08-3,3.62-5.47,6.72-6.28Z"/>
          <path class="cls-1" d="M293.87,195.89c4.65-1.03,9.3,1.63,12.04,5.27,2.36,3.22,4.14,6.83,5.8,10.45,1.3,2.89,2.04,6.22,1.06,9.32-.91,2.81-3.72,4.69-6.58,5.01-2.49.12-4.86-.86-7.33-1.08-2.74-.37-5.52-.01-8.16.79-2.55.8-5.51.88-7.81-.66-2.03-1.12-3.35-3.26-3.48-5.57-.63-5.4,2.44-10.18,4.75-14.8,1.99-3.96,5.22-7.7,9.71-8.73Z"/>
        </g>
      </g>
    </g>
  </g>
</svg>