<?xml version="1.0" encoding="UTF-8"?>
<svg id="Layer_2" data-name="Layer 2" xmlns="http://www.w3.org/2000/svg" viewBox="0 0 1456.59 429.39">
  <defs>
    <style>
      .cls-1 {
        fill: #084175;
      }

      .cls-2 {
        fill: #57bde4;
      }
    </style>
  </defs>
  <g id="Layer_1" data-name="Layer 1">
    <g>
      <g id="_57bde4ff" data-name="#57bde4ff">
        <path class="cls-1" d="M374.17,149.3c17.09-8.79,34.26-17.42,51.63-25.66,36.89-17.52,76.11-30.53,117.3-32.02,26.9-1.28,54.12,5.18,77.28,19.04,3.34,2.08,6.57,4.42,9.4,7.17,1.94,1.89,1.09,5.16-1.52,5.85-25.1,6.7-48.36,19.03-70.39,32.57-29.66,18.52-57.53,39.69-85.78,60.23-24.15,17.42-47.49,36-72.59,52.08-37.29,23.72-78.16,43.47-122.22,50.08-26.31,3.62-53.53,2.47-79.13-4.91-28.96-7.96-56.03-21.97-80.26-39.59-1.49-1.07-2.91-2.21-4.29-3.4-3.17-2.72.3-7.84,3.89-5.71.03.02.06.04.09.05,30.39,12.61,62.87,19.98,95.65,22.46.09,0,.18.01.27.01,17.02.04,34.19,1.07,51.03-1.93,28.6-4.67,56.59-13.31,82.66-25.97,50.5-23.62,93.12-60.18,139.36-90.71,25.22-16.64,50.99-33.36,79.26-44.24,3.61-1.39,2.62-6.73-1.25-6.72-35.82.13-71.55,7.96-104.84,21.05-29.94,11.91-57.46,28.82-85.07,45.24-26.95,15.55-53.87,31.37-82.56,43.56-39.28,18.37-83.53,28.24-126.84,22.36-29.07-3.44-57.57-13.51-81.51-30.53-31.32-21.51-59.81-48.75-77.34-82.86-2.08-4.07-4.26-8.16-5.64-12.53-.55-1.73.39-3.62,2.1-4.23,1.59-.57,3.24-.82,4.79.12,6.66,3.65,12.72,8.4,19.73,11.45,18.02,7.83,37.65,11.8,57.28,12.02,21.33.24,42.59-2.6,63.93-1.87,15.27.53,30.82,3.11,44.79,9.54,6.7,3.08,13.7,6.95,18.78,12.38,10.51,11.23,9.12,8.33-6.47,7.88-25.59-.74-50.96.16-76.36,1.59-21.05,1.19-41.84.28-62.33-4.06-3.47-.74-5.67,3.68-2.98,6,10.34,8.93,21.98,16.37,34.21,22.42,27.7,12.76,58.24,18.55,88.6,19.62.09,0,.19,0,.28,0,21.56-.79,43.43-1.86,64.18-8.35,10.59-3.41,21.12-7.08,31.23-11.76,30.69-15.67,61.05-31.98,91.68-47.74Z"/>
        <path class="cls-1" d="M482.34,261.06c18.4-14.35,39.42-26.95,63-29.73.12-.01.24-.02.36-.03,11.06-.68,23.46-.84,32.63,6.34,1.28,3.92-3.79,3.55-6.19,4.46-25.38,4.71-45.89,21.59-65.39,37.4-24.51,20.36-48.68,41.79-77.24,56.37-20.83,10.95-43.59,18.36-67,21.1-.12.01-.25.03-.37.03-12.88.71-25.83,1.04-38.64-.54-.09-.01-.19-.03-.28-.04-.05,0-.1-.02-.16-.03-5.65-1.01-5.52-9.13.17-9.9.58-.08,1.14-.17,1.68-.3,25.22-4.42,49.33-14.11,72.05-25.72,30.9-16.05,58.19-37.9,85.38-59.42Z"/>
      </g>
      <g id="_57bde4ff-2" data-name="#57bde4ff">
        <path class="cls-2" d="M373.58,140.04c17.09-8.79,34.26-17.42,51.63-25.66,36.89-17.52,76.11-30.53,117.3-32.02,26.9-1.28,54.12,5.18,77.28,19.04,3.34,2.08,6.57,4.42,9.4,7.17,1.94,1.89,1.09,5.16-1.52,5.85-25.1,6.7-48.36,19.03-70.39,32.57-29.66,18.52-57.53,39.69-85.78,60.23-24.15,17.42-47.49,36-72.59,52.08-37.29,23.72-78.16,43.47-122.22,50.08-26.31,3.62-53.53,2.47-79.13-4.91-28.96-7.96-56.03-21.97-80.26-39.59-1.49-1.07-2.91-2.21-4.29-3.4-3.17-2.72.3-7.84,3.89-5.71.03.02.06.04.09.05,30.39,12.61,62.87,19.98,95.65,22.46.09,0,.18.01.27.01,17.02.04,34.19,1.07,51.03-1.93,28.6-4.67,56.59-13.31,82.66-25.97,50.5-23.62,93.12-60.18,139.36-90.71,25.22-16.64,50.99-33.36,79.26-44.24,3.61-1.39,2.62-6.73-1.25-6.72-35.82.13-71.55,7.96-104.84,21.05-29.94,11.91-57.46,28.82-85.07,45.24-26.95,15.55-53.87,31.37-82.56,43.56-39.28,18.37-83.53,28.24-126.84,22.36-29.07-3.44-57.57-13.51-81.51-30.53-31.32-21.51-59.81-48.75-77.34-82.86-2.08-4.07-4.26-8.16-5.64-12.53-.55-1.73.39-3.62,2.1-4.23,1.59-.57,3.24-.82,4.79.12,6.66,3.65,12.72,8.4,19.73,11.45,18.02,7.83,37.65,11.8,57.28,12.02,21.33.24,42.59-2.6,63.93-1.87,15.27.53,30.82,3.11,44.79,9.54,6.7,3.08,13.7,6.95,18.78,12.38,10.51,11.23,9.12,8.33-6.47,7.88-25.59-.74-50.96.16-76.36,1.59-21.05,1.19-41.84.28-62.33-4.06-3.47-.74-5.67,3.68-2.98,6,10.34,8.93,21.98,16.37,34.21,22.42,27.7,12.76,58.24,18.55,88.6,19.62.09,0,.19,0,.28,0,21.56-.79,43.43-1.86,64.18-8.35,10.59-3.41,21.12-7.08,31.23-11.76,30.69-15.67,61.05-31.98,91.68-47.74Z"/>
        <path class="cls-2" d="M481.75,251.81c18.4-14.35,39.42-26.95,63-29.73.12-.01.24-.02.36-.03,11.06-.68,23.46-.84,32.63,6.34,1.28,3.92-3.79,3.55-6.19,4.46-25.38,4.71-45.89,21.59-65.39,37.4-24.51,20.36-48.68,41.79-77.24,56.37-20.83,10.95-43.59,18.36-67,21.1-.12.01-.25.03-.37.03-12.88.71-25.83,1.04-38.64-.54-.09-.01-.19-.03-.28-.04-.05,0-.1-.02-.16-.03-5.65-1.01-5.52-9.13.17-9.9.58-.08,1.14-.17,1.68-.3,25.22-4.42,49.33-14.11,72.05-25.72,30.9-16.05,58.19-37.9,85.38-59.42Z"/>
      </g>
      <g>
        <path class="cls-1" d="M784.59,367.56c-9.99,0-17.51-2.35-22.57-7.06-5.06-4.71-8.31-12.26-9.73-22.68-1.43-10.98-3.71-19.72-6.85-26.21-3.14-6.49-7.52-11.16-13.16-14.01-5.64-2.85-12.87-4.28-21.72-4.28h-10.48v-10.48h22.04c10.84,0,18.58-2.21,23.21-6.63,4.63-4.42,6.95-11.62,6.95-21.61s-2.21-17.93-6.63-23c-4.42-5.06-11.2-7.59-20.32-7.59h-17.54v112.75c0,5.13.35,9.06,1.07,11.77.71,2.71,2.1,4.64,4.17,5.78,2.07,1.14,5.03,1.93,8.88,2.35l4.28.43v8.77l-34.87-.64-35.09.64v-8.77l4.28-.43c3.99-.43,6.99-1.21,8.99-2.35,2-1.14,3.35-3.07,4.07-5.78.71-2.71,1.07-6.63,1.07-11.77v-94.99c0-5.13-.36-9.09-1.07-11.87-.72-2.78-2.11-4.78-4.17-5.99-2.07-1.21-5.03-1.96-8.88-2.25l-4.28-.43v-8.56l33.8.64h31.24c23.11,0,40.15,3.07,51.13,9.2,10.98,6.13,16.47,15.69,16.47,28.67s-5.17,22.75-15.51,29.74c-10.34,6.99-25,10.48-43.97,10.48v-4.06c15.97,0,28.78,3.46,38.4,10.38,9.63,6.92,15.37,16.72,17.22,29.42,1.57,10.13,3.56,17.54,5.99,22.25,2.42,4.71,5.42,7.06,8.99,7.06,1.28,0,3.14-.35,5.56-1.07l1.71,8.34c-3.42,1.28-7.1,2.25-11.02,2.89-3.92.64-7.81.96-11.66.96Z"/>
        <path class="cls-1" d="M861.39,368.2c-10.13,0-19.12-2.18-26.96-6.53-7.85-4.35-13.98-10.3-18.4-17.86-4.42-7.56-6.63-16.26-6.63-26.1s2.21-18.58,6.63-26.21c4.42-7.63,10.55-13.66,18.4-18.08,7.84-4.42,16.76-6.63,26.74-6.63,12.98,0,23.39,3.6,31.24,10.8,7.84,7.2,11.77,16.72,11.77,28.56,0,1.43-.04,2.96-.11,4.6-.07,1.64-.25,2.89-.53,3.74h-75.74l.43-7.7h28.88c10.84,0,16.26-4.92,16.26-14.76,0-4.99-1.28-9.16-3.85-12.52-2.57-3.35-5.78-5.03-9.63-5.03-5.56,0-10.02,3.6-13.37,10.8-3.35,7.2-5.03,16.87-5.03,28.99,0,13.84,2.39,24.32,7.17,31.45,4.78,7.13,11.73,10.7,20.86,10.7,6.13,0,11.52-1.57,16.15-4.71,4.63-3.14,8.45-7.77,11.45-13.91l6.85,3.42c-7.7,17.97-21.9,26.96-42.58,26.96Z"/>
        <path class="cls-1" d="M915.09,365.84v-8.77l4.28-.43c3.99-.43,6.99-1.21,8.99-2.35,2-1.14,3.35-3.07,4.07-5.78.71-2.71,1.07-6.63,1.07-11.77v-94.99c0-5.13-.36-9.09-1.07-11.87-.72-2.78-2.11-4.78-4.17-5.99-2.07-1.21-5.03-1.96-8.88-2.25l-4.28-.43v-8.56l33.8.64h66.11l25.46-.64.43,16.05,1.71,23.96h-8.56c-1.86-10.98-6.56-18.72-14.12-23.21-7.56-4.49-19.47-6.74-35.73-6.74h-17.54v114.03c0,5.13.35,9.09,1.07,11.87.71,2.78,2.1,4.74,4.17,5.88,2.07,1.14,5.03,1.86,8.88,2.14l8.56.43v8.77l-39.15-.64h-1.28l-33.8.64ZM1000.46,318.99c-.57-10.41-2.93-17.87-7.06-22.36-4.14-4.49-10.77-6.74-19.9-6.74h-16.69v-9.41h16.69c8.84,0,15.26-1.96,19.26-5.88,3.99-3.92,6.56-10.66,7.7-20.22h8.56l-.64,30.81.64,33.8h-8.56Z"/>
        <path class="cls-1" d="M1037.04,365.84v-7.27l3.85-.64c3.14-.57,5.49-1.39,7.06-2.46,1.57-1.07,2.64-2.92,3.21-5.56.57-2.64.86-6.38.86-11.23v-43.86c0-6.7-1.07-11.34-3.21-13.91s-6.06-3.85-11.77-3.85v-7.27c9.41,0,17.4-.18,23.96-.54,6.56-.35,13.19-1.03,19.9-2.03l-2.35,25.89h3.42v45.57c0,4.99.35,8.81,1.07,11.45.71,2.64,1.78,4.53,3.21,5.67,1.42,1.14,3.14,1.86,5.13,2.14l5.78.64v7.27l-33.16-.64-26.96.64ZM1081.33,313.64l-3.21-15.83c2.85-10.13,7.06-17.83,12.62-23.11,5.56-5.28,12.05-7.92,19.47-7.92,5.85,0,10.52,1.6,14.01,4.81,3.49,3.21,5.24,7.53,5.24,12.94,0,4.85-1.39,8.66-4.17,11.45s-6.53,4.17-11.23,4.17c-3.71,0-6.71-.89-8.99-2.67-2.28-1.78-3.42-4.03-3.42-6.74,0-.71.07-1.35.21-1.93.14-.57.35-1.35.64-2.35.28-1,.5-1.71.64-2.14.14-.43.21-.93.21-1.5,0-2.28-1.21-3.42-3.64-3.42s-4.85,1.53-7.27,4.6c-2.43,3.07-4.64,7.2-6.63,12.41-2,5.21-3.5,10.95-4.49,17.22Z"/>
        <path class="cls-1" d="M1185.95,368.2c-10.13,0-19.12-2.18-26.96-6.53-7.85-4.35-13.98-10.3-18.4-17.86-4.42-7.56-6.63-16.26-6.63-26.1s2.21-18.58,6.63-26.21c4.42-7.63,10.55-13.66,18.4-18.08,7.84-4.42,16.76-6.63,26.74-6.63,12.98,0,23.39,3.6,31.24,10.8,7.84,7.2,11.77,16.72,11.77,28.56,0,1.43-.04,2.96-.11,4.6-.07,1.64-.25,2.89-.53,3.74h-75.74l.43-7.7h28.88c10.84,0,16.26-4.92,16.26-14.76,0-4.99-1.28-9.16-3.85-12.52-2.57-3.35-5.78-5.03-9.63-5.03-5.56,0-10.02,3.6-13.37,10.8-3.35,7.2-5.03,16.87-5.03,28.99,0,13.84,2.39,24.32,7.17,31.45,4.78,7.13,11.73,10.7,20.86,10.7,6.13,0,11.52-1.57,16.15-4.71,4.63-3.14,8.45-7.77,11.45-13.91l6.85,3.42c-7.7,17.97-21.9,26.96-42.58,26.96Z"/>
        <path class="cls-1" d="M1284.58,368.63c-7.99,0-16.4-2-25.25-5.99-2.28-1.14-4-1.89-5.13-2.25-1.14-.35-2.07-.54-2.78-.54-1,0-1.79.39-2.35,1.18-.57.79-1,2.18-1.28,4.17h-7.06l.86-13.91.64-20.97h6.21l2.35,6.2c1.71,4.57,4.31,8.7,7.81,12.41,3.49,3.71,7.52,6.63,12.09,8.77,4.56,2.14,9.2,3.21,13.91,3.21,5.42,0,9.88-1.32,13.37-3.96,3.49-2.64,5.24-5.95,5.24-9.95,0-3.42-1.5-6.27-4.49-8.56-3-2.28-8.06-4.49-15.19-6.63l-12.84-3.85c-9.13-2.71-16.05-6.63-20.75-11.77-4.71-5.13-7.06-11.34-7.06-18.61,0-6.13,1.6-11.59,4.81-16.37,3.21-4.78,7.63-8.52,13.26-11.23,5.63-2.71,12.01-4.06,19.15-4.06,2.85,0,5.53.21,8.02.64,2.49.43,5.95,1.36,10.38,2.78,3.42,1,5.85,1.5,7.27,1.5,2.14,0,3.56-1.35,4.28-4.06h7.06l-.86,14.12v17.97h-7.06c-3.57-8.27-7.78-14.55-12.62-18.83-4.85-4.28-10.13-6.42-15.83-6.42-4.42,0-7.92,1.18-10.48,3.53s-3.85,5.53-3.85,9.52c0,3.57,1.32,6.6,3.96,9.09,2.64,2.5,6.81,4.67,12.52,6.53l12.19,3.85c10.27,3.14,17.65,7.06,22.14,11.77s6.74,10.77,6.74,18.19c0,9.99-3.53,17.9-10.59,23.75-7.06,5.85-16.65,8.77-28.78,8.77Z"/>
        <path class="cls-1" d="M1329.93,365.84v-7.27l3.85-.64c3.14-.57,5.49-1.39,7.06-2.46,1.57-1.07,2.64-2.92,3.21-5.56.57-2.64.86-6.38.86-11.23v-100.34c0-6.27-.89-10.66-2.67-13.16-1.79-2.49-5.1-3.96-9.95-4.39l-2.35-.21v-7.27c9.7,0,17.97-.18,24.82-.54,6.85-.35,13.55-1.03,20.11-2.03v127.94c0,4.99.18,8.81.53,11.45.35,2.64,1.07,4.53,2.14,5.67,1.07,1.14,2.53,1.86,4.39,2.14l4.71.64v7.27l-29.74-.64-26.96.64ZM1396.9,365.84v-7.27l4.71-.64c2.14-.28,3.88-1.1,5.24-2.46,1.35-1.35,2.32-3.42,2.89-6.21.57-2.78.86-6.31.86-10.59v-39.79c0-5.85-1.21-10.27-3.64-13.26-2.43-3-6.06-4.49-10.91-4.49-4.57,0-8.74,1.36-12.52,4.07-3.78,2.71-7.31,6.92-10.59,12.62v-12.2c4.71-6.27,10.13-10.98,16.26-14.12,6.13-3.14,12.84-4.71,20.11-4.71,9.7,0,17.36,2.64,23,7.92,5.63,5.28,8.45,12.34,8.45,21.18v42.79c0,4.85.28,8.59.86,11.23.57,2.64,1.64,4.49,3.21,5.56,1.57,1.07,3.92,1.89,7.06,2.46l3.85.64v7.27l-29.1-.64-29.74.64Z"/>
      </g>
      <g>
        <path class="cls-1" d="M753.19,183.56v-8.77l4.28-.43c3.99-.43,6.99-1.21,8.99-2.35,2-1.14,3.35-3.07,4.07-5.78.71-2.71,1.07-6.63,1.07-11.77V59.48c0-5.13-.36-9.09-1.07-11.87-.72-2.78-2.11-4.78-4.17-5.99-2.07-1.21-5.03-1.96-8.88-2.25l-4.28-.43v-8.56l33.8.64h31.24c23.25,0,40.33,3.32,51.24,9.95,10.91,6.63,16.37,17.08,16.37,31.34s-5.38,25.75-16.15,33.59c-10.77,7.85-26.21,11.77-46.32,11.77h-26.32v-10.7h22.04c10.84,0,18.61-2.42,23.32-7.27,4.71-4.85,7.06-12.84,7.06-23.96s-2.28-19.75-6.85-25.46c-4.57-5.7-11.34-8.56-20.32-8.56h-17.54v112.75c0,5.13.35,9.06,1.07,11.77.71,2.71,2.1,4.64,4.17,5.78,2.07,1.14,5.03,1.86,8.88,2.14l8.56.64v8.77l-39.15-.64-35.09.64Z"/>
        <path class="cls-1" d="M944.03,185.92c-10.41,0-19.72-2.21-27.92-6.63-8.2-4.42-14.69-10.45-19.47-18.08-4.78-7.63-7.17-16.29-7.17-25.99s2.39-18.36,7.17-25.99c4.78-7.63,11.27-13.66,19.47-18.08,8.2-4.42,17.51-6.63,27.92-6.63s19.72,2.21,27.92,6.63c8.2,4.42,14.69,10.45,19.47,18.08,4.78,7.63,7.17,16.3,7.17,25.99s-2.39,18.37-7.17,25.99c-4.78,7.63-11.27,13.66-19.47,18.08-8.2,4.42-17.51,6.63-27.92,6.63ZM944.03,178.22c7.13,0,12.66-3.71,16.58-11.12,3.92-7.41,5.88-18.04,5.88-31.88s-1.96-24.46-5.88-31.88c-3.92-7.42-9.45-11.12-16.58-11.12s-12.66,3.71-16.58,11.12c-3.92,7.42-5.88,18.04-5.88,31.88s1.96,24.46,5.88,31.88c3.92,7.42,9.45,11.12,16.58,11.12Z"/>
        <path class="cls-1" d="M1043.51,182.92l-29.52-76.59c-1.71-4.13-3.18-6.99-4.39-8.56-1.21-1.57-2.82-2.42-4.81-2.57l-3.85-.43v-7.27l27.6.64,29.74-.64v7.27l-5.78.21c-3.28.14-5.28,1.25-5.99,3.32-.71,2.07-.29,5.46,1.28,10.16l20.54,58.41h-4.71l17.12-46.64c2.42-6.56,3.64-11.62,3.64-15.19,0-6.85-3.99-10.27-11.98-10.27h-2.57v-7.27h5.13c12.55,0,18.83,4.92,18.83,14.76h-5.56c.43-9.84,6.34-14.76,17.76-14.76h20.75v7.27l-5.78.21c-3.28.14-5.28,1.25-5.99,3.32-.72,2.07-.29,5.46,1.28,10.16l20.54,58.41h-4.92l21.39-57.55c2-4.85,2.39-8.41,1.18-10.7-1.21-2.28-3.96-3.49-8.24-3.64l-5.78-.21v-7.27l22.25.64,13.69-.64v7.27l-2.35.21c-2.28.14-4.28,1.36-5.99,3.64-1.71,2.28-3.78,6.56-6.2,12.84l-27.39,71.46h-22.46l-23.96-62.26h1.92l-23.96,62.26h-22.46Z"/>
        <path class="cls-1" d="M1228.58,185.92c-10.13,0-19.12-2.18-26.96-6.53-7.85-4.35-13.98-10.3-18.4-17.86-4.42-7.56-6.63-16.26-6.63-26.1s2.21-18.58,6.63-26.21c4.42-7.63,10.55-13.66,18.4-18.08,7.84-4.42,16.76-6.63,26.74-6.63,12.98,0,23.39,3.6,31.24,10.8,7.84,7.2,11.77,16.72,11.77,28.56,0,1.43-.04,2.96-.11,4.6-.07,1.64-.25,2.89-.53,3.74h-75.74l.43-7.7h28.88c10.84,0,16.26-4.92,16.26-14.76,0-4.99-1.28-9.16-3.85-12.52-2.57-3.35-5.78-5.03-9.63-5.03-5.56,0-10.02,3.6-13.37,10.8-3.35,7.2-5.03,16.87-5.03,28.99,0,13.84,2.39,24.32,7.17,31.45,4.78,7.13,11.73,10.7,20.86,10.7,6.13,0,11.52-1.57,16.15-4.71,4.63-3.14,8.45-7.77,11.45-13.91l6.85,3.42c-7.7,17.97-21.9,26.96-42.58,26.96Z"/>
        <path class="cls-1" d="M1278,183.56v-7.27l3.85-.64c3.14-.57,5.49-1.39,7.06-2.46,1.57-1.07,2.64-2.92,3.21-5.56.57-2.64.86-6.38.86-11.23v-43.86c0-6.7-1.07-11.34-3.21-13.91s-6.06-3.85-11.77-3.85v-7.27c9.41,0,17.4-.18,23.96-.54,6.56-.35,13.19-1.03,19.9-2.03l-2.35,25.89h3.42v45.57c0,4.99.35,8.81,1.07,11.45.71,2.64,1.78,4.53,3.21,5.67,1.42,1.14,3.14,1.86,5.13,2.14l5.78.64v7.27l-33.16-.64-26.96.64ZM1322.28,131.36l-3.21-15.83c2.85-10.13,7.06-17.83,12.62-23.11,5.56-5.28,12.05-7.92,19.47-7.92,5.85,0,10.52,1.6,14.01,4.81,3.49,3.21,5.24,7.53,5.24,12.94,0,4.85-1.39,8.66-4.17,11.45s-6.53,4.17-11.23,4.17c-3.71,0-6.71-.89-8.99-2.67-2.28-1.78-3.42-4.03-3.42-6.74,0-.71.07-1.35.21-1.93.14-.57.35-1.35.64-2.35.28-1,.5-1.71.64-2.14.14-.43.21-.93.21-1.5,0-2.28-1.21-3.42-3.64-3.42s-4.85,1.53-7.27,4.6c-2.43,3.07-4.64,7.2-6.63,12.41-2,5.21-3.5,10.95-4.49,17.22Z"/>
      </g>
    </g>
  </g>
</svg>