<?xml version="1.0" encoding="UTF-8"?>
<svg id="Layer_2" data-name="Layer 2" xmlns="http://www.w3.org/2000/svg" viewBox="0 0 440.07 440.07">
  <defs>
    <style>
      .cls-1 {
        fill: #fff;
      }

      .cls-2 {
        fill: #1b58ae;
      }

      .cls-3 {
        fill: #75bd58;
      }
    </style>
  </defs>
  <g id="Layer_1" data-name="Layer 1">
    <g>
      <circle class="cls-2" cx="220.04" cy="220.04" r="220.04"/>
      <g>
        <path class="cls-1" d="M250.2,120.97c.02,7.19,15.37-1.67,15.45,5.51,18.47,6.87,36.99,13.6,55.45,20.48,2.98.98,5.36,3.74,5.31,6.97.04,14.96-.02,29.93.01,44.9.15,10.84-.37,21.74-2.55,32.39-3.86,19.81-13.17,38.23-25.26,54.26-10.14,13.6-22.3,25.49-34.45,37.25-7.44,6.86-15.08,13.48-22.91,19.88-4.01,3.24-7.99,6.56-12.36,9.32-2.91,1.82-6.72,2.27-9.84.72-3.32-1.68-6.21-4.09-9.15-6.34-10.43-8.56-20.9-17.15-30.29-26.85,6.41-5.91,12.65-12.05,17.91-19.02,7.31-9.44,13.12-20.04,17.18-31.27,2.56-7.25,4.7-14.74,5.23-22.44-.95,1.43-.97,3.24-1.65,4.8-6.76,18.32-18.89,34.23-33.05,47.49-4.62,4.06-9.16,8.31-14.37,11.63-5.69-5.99-11.59-11.82-16.69-18.34,17.88-9.16,34.3-21.62,46.76-37.48,5.92-7.41,11.01-15.52,14.84-24.21,4.69,1.72,9.97,1.72,14.68.07.48,13.5-.35,27.02-2.39,40.37-1.77,12.33-4.95,24.41-8.44,36.35,4.61-4.63,8.61-9.82,12.87-14.77,12.5-15.02,24.49-30.5,35.13-46.9,3.72-5.95,7.72-11.89,9.66-18.72,3.99-12.42,3.32-26.16-1.62-38.21-2.8-6.97-7.08-13.29-12.26-18.71-6.9-6.95-15.62-12.04-25.05-14.65-10.28-2.95-21.4-2.67-31.58.58-11.38,3.78-21.64,11.02-28.77,20.7-12.43,16.21-14.44,39.51-5.2,57.68,4.24,8.06,9.83,15.3,14.99,22.77l.02.41c-1.78,2.21-4.13,3.87-6.15,5.85-9.99,8.65-20.89,16.34-32.69,22.32-11.53-14.56-20.42-31.41-24.9-49.5-1.85-7.17-2.86-14.54-3.39-21.92-.41-20.12-.16-40.25-.23-60.38-.24-3.09,2.19-5.64,4.93-6.64,18.52-6.95,37.06-13.84,55.55-20.88.08-7.35,15.46,1.95,15.6-5.4M196.53,121.05c7.32-2.59,14.57-5.42,21.84-8.13,2.84-1.19,6.14-1.23,9.05-.25,7.61,2.72,15.17,5.57,22.77,8.3"/>
        <path class="cls-3" d="M201.13,198.81c2.07-11.35,14.1-19.82,25.49-17.78,8,1.22,15.16,7.03,17.82,14.7,1.34,3.71,1.47,7.77.87,11.64-1.37,7.82-7.4,14.48-14.84,17.06-4.71,1.65-9.99,1.66-14.68-.07-6.05-2.39-11.23-7.15-13.6-13.27-1.46-3.89-2.02-8.21-1.05-12.29Z"/>
      </g>
    </g>
  </g>
</svg>