<?xml version="1.0" encoding="UTF-8"?>
<svg id="Layer_2" data-name="Layer 2" xmlns="http://www.w3.org/2000/svg" viewBox="0 0 385.67 385.67">
  <defs>
    <style>
      .cls-1 {
        fill: #5a915f;
      }

      .cls-2 {
        fill: #f4bf23;
      }
    </style>
  </defs>
  <g id="Layer_1" data-name="Layer 1">
    <g>
      <circle class="cls-1" cx="192.83" cy="192.83" r="192.83"/>
      <path class="cls-2" d="M291.06,216.95c-14.86,2.96-28.96,9-41.93,16.73-8.39,4.94-16.39,10.52-23.92,16.68-8.69,7.19-16.41,15.49-23.22,24.47-2.99,4.06-6.15,8.05-8.38,12.6-1.2-.92-1.68-2.44-2.54-3.64-7.51-11.42-16.35-21.97-26.45-31.19-15.55-13.56-33.39-24.72-52.95-31.48-6.98-2.33-14.15-4.28-21.49-5.07-2.65-.54-5.15,1.94-4.91,4.56.01,10.62,0,21.24,0,31.87-.01,1.32.12,2.78,1.2,3.69,1.94,2.14,5.06,1.62,7.63,1.84,20.99,1.8,41.54,7.7,60.58,16.64,11.24,5.34,21.98,11.9,31.26,20.23,2.05,1.83,4.46,3.76,7.37,3.66,2.9.1,5.4-1.67,7.47-3.5,10.72-9.87,23.53-17.16,36.8-23.01,18.86-8.2,39.16-13.38,59.73-14.36,2.2-.3,4.28-2.33,4.05-4.65-.02-10.8-.02-21.61,0-32.42.26-2.3-1.7-4.55-3.97-4.72-2.15.04-4.23.66-6.33,1.06Z"/>
      <path class="cls-2" d="M122.7,110.81c-11.13,6.75-19.16,18.07-22.76,30.49-2.01,6.93-2.2,14.21-1.62,21.36,1.39,11.72,6.53,22.88,14.07,31.91,5.56,6.9,12.71,12.23,19.63,17.66,9.16,7.27,18.28,14.59,27.12,22.26,7.23,6.26,14.22,12.85,20.17,20.37,5.07,6.1,9.46,12.73,13.82,19.35,1.42-1.49,2.26-3.41,3.46-5.06,5.34-7.7,10.88-15.31,17.29-22.16,7.47-7.55,15.53-14.48,23.73-21.21,8.14-6.69,16.36-13.27,24.64-19.78,8.36-6.68,15.82-14.81,20.41-24.57,8.32-16.73,8.14-37.81-1.87-53.79-5.82-9.79-15.08-17.46-25.76-21.41-14.55-5.23-31.57-3.41-44.45,5.24-6.64,4.2-12.02,10.01-16.97,16.01-1.21-.42-1.79-1.81-2.65-2.69-6.04-7.05-13.19-13.38-21.74-17.2-14.74-6.69-32.84-5.51-46.51,3.21Z"/>
    </g>
  </g>
</svg>