<?xml version="1.0" encoding="UTF-8"?>
<svg id="Layer_2" data-name="Layer 2" xmlns="http://www.w3.org/2000/svg" viewBox="0 0 119.46 119.46">
  <defs>
    <style>
      .cls-1 {
        fill: #e57b25;
      }

      .cls-2 {
        fill: #fff;
      }

      .cls-3 {
        fill: #f3cd3e;
      }

      .cls-4 {
        fill: #86c14e;
      }
    </style>
  </defs>
  <g id="Layer_1" data-name="Layer 1">
    <g>
      <circle class="cls-4" cx="59.73" cy="59.73" r="59.73"/>
      <g>
        <g>
          <path class="cls-2" d="M38.6,86.35v.35h-.57v1.8h-.43v-1.8h-.57v-.35h1.57Z"/>
          <path class="cls-2" d="M39.18,86.35v1.33c0,.15.04.26.11.33.08.08.18.12.32.12s.25-.04.32-.12c.08-.08.11-.19.11-.33v-1.33h.43v1.33c0,.18-.04.34-.12.46-.08.13-.18.22-.32.28-.13.06-.28.1-.44.1s-.3-.03-.44-.1c-.13-.06-.23-.16-.31-.28-.08-.13-.11-.28-.11-.46v-1.33h.43Z"/>
          <path class="cls-2" d="M41.75,86.7v.54h.72v.34h-.72v.57h.81v.35h-1.25v-2.15h1.25v.35h-.81ZM42.27,85.9l-.71.32v-.31l.71-.37v.35Z"/>
          <path class="cls-2" d="M44.09,88.49l-.46-.72-.42.72h-.49l.68-1.08-.69-1.06h.5l.46.72.42-.72h.49l-.67,1.08.69,1.07h-.49Z"/>
          <path class="cls-2" d="M45.19,86.35v2.15h-.43v-2.15h.43Z"/>
          <path class="cls-2" d="M46.92,86.35v.35h-.57v1.8h-.43v-1.8h-.57v-.35h1.57Z"/>
          <path class="cls-2" d="M47.52,88.37c-.17-.09-.3-.22-.4-.39-.1-.17-.15-.36-.15-.57s.05-.4.15-.56c.1-.17.23-.3.4-.39.17-.09.35-.14.55-.14s.39.05.55.14c.17.09.3.23.4.39.1.17.15.35.15.56s-.05.4-.15.57c-.1.17-.23.3-.4.39-.17.09-.35.14-.55.14s-.39-.05-.55-.14ZM48.42,88.04c.1-.06.17-.14.23-.25.06-.11.08-.23.08-.38s-.03-.27-.08-.38c-.06-.11-.13-.19-.23-.25-.1-.06-.21-.09-.34-.09s-.24.03-.34.09c-.1.06-.18.14-.23.25-.06.11-.08.23-.08.38s.03.27.08.38c.06.11.13.19.23.25s.21.09.34.09.24-.03.34-.09Z"/>
          <path class="cls-2" d="M51.23,88.08h-.85l-.14.41h-.45l.77-2.15h.5l.77,2.15h-.46l-.14-.41ZM51.11,87.74l-.31-.9-.31.9h.62Z"/>
          <path class="cls-2" d="M52.39,88.15h.71v.34h-1.14v-2.15h.43v1.8Z"/>
          <path class="cls-2" d="M55.11,88.08h-.85l-.14.41h-.45l.77-2.15h.5l.77,2.15h-.46l-.14-.41ZM55,87.74l-.31-.9-.31.9h.62Z"/>
          <path class="cls-2" d="M56.28,88.15h.71v.34h-1.14v-2.15h.43v1.8Z"/>
          <path class="cls-2" d="M57.14,86.85c.1-.17.23-.3.39-.39.16-.09.35-.14.55-.14.24,0,.45.06.63.18.18.12.31.29.38.51h-.5c-.05-.1-.12-.18-.21-.23-.09-.05-.19-.08-.31-.08-.12,0-.24.03-.33.09-.1.06-.17.14-.23.25-.05.11-.08.23-.08.38s.03.27.08.37c.05.11.13.19.23.25.1.06.21.09.33.09.12,0,.22-.03.31-.08.09-.05.16-.13.21-.23h.5c-.07.22-.2.39-.38.51-.18.12-.39.18-.63.18-.21,0-.39-.05-.55-.14-.17-.09-.3-.22-.39-.39-.1-.17-.14-.35-.14-.57s.05-.4.14-.57Z"/>
          <path class="cls-2" d="M60.62,88.08h-.85l-.14.41h-.45l.77-2.15h.5l.77,2.15h-.46l-.14-.41ZM60.51,87.74l-.31-.9-.31.9h.62Z"/>
          <path class="cls-2" d="M63.19,88.49h-.43l-.97-1.47v1.47h-.43v-2.15h.43l.97,1.48v-1.48h.43v2.15Z"/>
          <path class="cls-2" d="M63.5,86.85c.1-.17.23-.3.39-.39.16-.09.35-.14.55-.14.24,0,.45.06.63.18.18.12.31.29.38.51h-.5c-.05-.1-.12-.18-.21-.23-.09-.05-.19-.08-.31-.08-.12,0-.24.03-.33.09-.1.06-.17.14-.23.25-.05.11-.08.23-.08.38s.03.27.08.37c.05.11.13.19.23.25.1.06.21.09.33.09.12,0,.22-.03.31-.08.09-.05.16-.13.21-.23h.5c-.07.22-.2.39-.38.51-.18.12-.39.18-.63.18-.21,0-.39-.05-.55-.14-.17-.09-.3-.22-.39-.39-.1-.17-.14-.35-.14-.57s.05-.4.14-.57Z"/>
          <path class="cls-2" d="M66.1,86.7v.54h.72v.34h-.72v.57h.81v.35h-1.25v-2.15h1.25v.35h-.81Z"/>
          <path class="cls-2" d="M69.07,86.48c.17.09.3.21.4.38s.14.35.14.57-.05.4-.14.56c-.09.16-.23.29-.4.37-.17.09-.37.13-.59.13h-.75v-2.15h.75c.23,0,.42.04.59.13ZM68.99,87.94c.12-.12.18-.3.18-.52s-.06-.4-.18-.52-.3-.19-.52-.19h-.3v1.42h.3c.23,0,.4-.06.52-.18Z"/>
          <path class="cls-2" d="M70.21,86.7v.54h.72v.34h-.72v.57h.81v.35h-1.25v-2.15h1.25v.35h-.81Z"/>
          <path class="cls-2" d="M72.26,86.35v1.33c0,.15.04.26.11.33.08.08.18.12.32.12s.25-.04.32-.12c.08-.08.11-.19.11-.33v-1.33h.43v1.33c0,.18-.04.34-.12.46-.08.13-.18.22-.32.28-.13.06-.28.1-.44.1s-.3-.03-.44-.1c-.13-.06-.23-.16-.31-.28-.08-.13-.11-.28-.11-.46v-1.33h.43Z"/>
          <path class="cls-2" d="M75.66,88.49h-.43l-.97-1.47v1.47h-.43v-2.15h.43l.97,1.48v-1.48h.43v2.15Z"/>
          <path class="cls-2" d="M76.55,86.85c.1-.17.23-.3.39-.39.16-.09.35-.14.55-.14.24,0,.45.06.63.18.18.12.31.29.38.51h-.5c-.05-.1-.12-.18-.21-.23-.09-.05-.19-.08-.31-.08-.12,0-.24.03-.33.09-.1.06-.17.14-.23.25-.05.11-.08.23-.08.38s.03.27.08.37c.05.11.13.19.23.25.1.06.21.09.33.09.12,0,.22-.03.31-.08.09-.05.16-.13.21-.23h.5c-.07.22-.2.39-.38.51-.18.12-.39.18-.63.18-.21,0-.39-.05-.55-.14-.17-.09-.3-.22-.39-.39-.1-.17-.14-.35-.14-.57s.05-.4.14-.57Z"/>
          <path class="cls-2" d="M79.15,88.15h.71v.34h-1.14v-2.15h.43v1.8Z"/>
          <path class="cls-2" d="M80.4,86.35v2.15h-.43v-2.15h.43Z"/>
          <path class="cls-2" d="M80.71,86.85c.1-.17.23-.3.39-.39.16-.09.35-.14.55-.14.24,0,.45.06.63.18.18.12.31.29.38.51h-.5c-.05-.1-.12-.18-.21-.23-.09-.05-.19-.08-.31-.08-.12,0-.24.03-.33.09-.1.06-.17.14-.23.25-.05.11-.08.23-.08.38s.03.27.08.37c.05.11.13.19.23.25.1.06.21.09.33.09.12,0,.22-.03.31-.08.09-.05.16-.13.21-.23h.5c-.07.22-.2.39-.38.51-.18.12-.39.18-.63.18-.21,0-.39-.05-.55-.14-.17-.09-.3-.22-.39-.39-.1-.17-.14-.35-.14-.57s.05-.4.14-.57Z"/>
          <path class="cls-2" d="M84.09,88.49l-.78-.96v.96h-.43v-2.15h.43v.96l.78-.96h.52l-.89,1.06.91,1.08h-.54Z"/>
        </g>
        <g>
          <path class="cls-1" d="M51.3,42.23c-.39-2.58-1.46-3.51-3.27-3.51-1.71,0-3.17,1.22-3.17,2.83,0,2.15,1.95,3.12,5.9,4.83,7.95,3.41,9.94,6.29,9.94,11.02,0,6.97-4.78,11.07-12.58,11.07s-13.02-4.1-13.02-11.85v-.78h9.17c.05,2.97,1.51,4.92,3.8,4.92,1.9,0,3.46-1.51,3.46-3.46,0-2.88-4-4.14-7.26-5.46-5.9-2.39-8.58-5.51-8.58-10.19,0-6.14,5.95-10.63,12.58-10.63,2.39,0,4.49.54,6.39,1.51,3.85,2,5.7,4.88,5.75,9.7h-9.12Z"/>
          <path class="cls-1" d="M60.62,67.78V31.7h11.55c2.58,0,4.49.15,5.75.44,4.09.93,7.51,4.09,7.51,8.97,0,3.07-1.46,5.8-4.19,7.31,3.95,1.36,5.95,4.24,5.95,8.38,0,3.46-1.46,6.63-4.19,8.53-2.83,2-4.68,2.44-10.38,2.44h-11.99ZM73.1,45.4c2.29,0,3.51-.97,3.51-2.88s-1.17-2.73-3.46-2.73h-3.7v5.61h3.66ZM74.17,59.68c2.58,0,4.19-1.12,4.19-3.46,0-2.1-1.41-3.12-4.14-3.12h-4.78v6.58h4.73Z"/>
        </g>
        <g>
          <path class="cls-2" d="M44.61,84.53l-3.87-6.13h-.04v6.13h-3.62v-14.18h3.62v6.38h.04l4.01-6.38h3.79l-4.7,7.07,5,7.11h-4.24Z"/>
          <path class="cls-2" d="M57.94,84.53l-.69-2.05h-4.92l-.75,2.05h-3.89l5.69-14.18h2.86l5.63,14.18h-3.93ZM54.84,74.78l-.06-.02-1.46,4.85h2.97l-1.46-4.83Z"/>
          <path class="cls-2" d="M61.98,84.53v-14.18h3.62v11h4.2v3.18h-7.82Z"/>
          <path class="cls-2" d="M81.41,84.53l.12-10.62-.04-.04-3.03,10.65h-2.4l-3.07-10.75.11,10.75h-3.33v-14.18h4.66l2.82,9.33h.04l2.78-9.33h4.68v14.18h-3.33Z"/>
        </g>
      </g>
      <g>
        <g>
          <path class="cls-3" d="M85.72,94.82c-8.11,4.79-18.05,7.33-28.06,6.37-24.22-2.33-41.28-23.36-38.12-46.96,3.17-23.6,25.36-40.86,49.58-38.53,5.72.55,11.03,2.15,15.78,4.57.06-.11.12-.21.18-.32-5.4-3.01-11.54-4.98-18.2-5.62-25.7-2.47-49.26,15.83-52.62,40.89-3.36,25.06,14.76,47.37,40.45,49.84,11.77,1.13,23.4-1.92,32.53-8.17-.55-.54-1.07-1.45-1.54-2.07Z"/>
          <path class="cls-1" d="M86.81,101l6.23-7.64c.23-.28.02-.69-.34-.69l-9.85.25c-.34,0-.53.39-.33.67l1.6,2.19-3.28,1.61c-.4.2-.57.68-.37,1.08l.49,1c.2.4.68.57,1.08.37l3.28-1.61.75,2.61c.09.33.51.41.73.15Z"/>
        </g>
        <g>
          <path class="cls-1" d="M97.29,95.27c.04.42-.38.81-.8.71-.56-.17-1.12-.35-1.68-.52-.29-.08-.49-.39-.47-.69.03-.16.08-.33.2-.45.17-.16.43-.23.66-.16.53.16,1.06.33,1.6.49.27.07.46.33.48.6Z"/>
          <path class="cls-1" d="M96.91,91.16c-.02.24-.14.49-.37.59-.49.26-.97.51-1.46.77-.31.19-.77.04-.93-.28-.18-.31-.04-.77.29-.92.5-.26.99-.53,1.49-.78.16-.08.35-.08.51-.02.28.08.46.37.46.65Z"/>
          <path class="cls-1" d="M94.62,98.54c0,.42-.46.79-.86.64-.19-.04-.34-.17-.43-.33-.22-.41-.43-.82-.65-1.22-.08-.15-.16-.3-.2-.46-.03-.22.05-.46.22-.62.17-.14.4-.21.62-.15.2.05.37.2.46.38.2.39.41.77.61,1.16.1.19.23.38.22.6Z"/>
          <path class="cls-1" d="M93.69,88.52c-.14.59-.36,1.17-.53,1.76-.1.39-.6.59-.95.4-.28-.13-.46-.5-.34-.79.17-.55.34-1.09.51-1.64.11-.38.61-.55.95-.36.23.11.38.38.37.64Z"/>
          <path class="cls-1" d="M90.31,90.35c0,.34-.29.64-.62.66-.27.02-.54-.13-.66-.37-.24-.45-.47-.9-.71-1.34-.1-.19-.2-.4-.11-.61.06-.3.37-.51.67-.51.24.01.48.14.59.36.26.5.52.99.78,1.49.05.1.07.21.06.32Z"/>
        </g>
      </g>
    </g>
  </g>
</svg>