<?xml version="1.0" encoding="UTF-8"?>
<svg id="Layer_2" data-name="Layer 2" xmlns="http://www.w3.org/2000/svg" viewBox="0 0 332.98 85.17">
  <defs>
    <style>
      .cls-1 {
        fill: #121d34;
      }

      .cls-2 {
        fill: #fff;
      }
    </style>
  </defs>
  <g id="Layer_1" data-name="Layer 1">
    <g>
      <path class="cls-2" d="M228.15,20.65c1.59-.27,3.35.19,4.55,1.29,1.37,1.44,1.81,3.74.86,5.53-1.32,2.79-5.33,3.58-7.68,1.66-2.23-1.66-2.35-5.4-.25-7.22.69-.67,1.58-1.08,2.52-1.25Z"/>
      <path class="cls-2" d="M261.34,22.77c2.65.03,5.3.03,7.95,0v41.55c-2.63,0-5.26-.06-7.89-.01.03-1.11.04-2.22.04-3.33-1.05,1.08-2.16,2.12-3.54,2.77-3.77,1.73-8.26,1.66-12.04,0-.17-.09-.52-.26-.69-.34-3.14-1.66-5.29-4.77-6.21-8.15-1.19-4.29-1.03-9.01.73-13.13.09-.17.26-.53.34-.7,1.88-3.86,5.59-6.8,9.84-7.53,2.71-.3,5.56-.24,8.07.99,1.37.61,2.42,1.7,3.49,2.73-.17-4.95-.01-9.9-.09-14.85ZM247.72,43.94c-1.73,3.07-1.77,6.95-.54,10.2.75,1.5,1.99,2.7,3.46,3.49,1.94.87,4.19,1.02,6.22.32.18-.08.55-.25.73-.33,1.94-1.08,3.28-3.07,3.74-5.23.47-2.73.46-5.63-.63-8.21-.56-1-1.13-2.08-2.15-2.69-3.43-2.38-8.76-1.22-10.82,2.44Z"/>
      <path class="cls-2" d="M101.15,30.51c1.93-3.71,5.73-6.22,9.85-6.81,3.31-.31,6.74-.32,9.9.83,2.75.99,5.16,2.89,6.75,5.35.26.43-.37.66-.58.93-1.5,1.14-2.74,2.57-4.24,3.71-.93-1.43-2.2-2.67-3.78-3.37-2.63-.98-5.59-1.22-8.28-.36-1.62.83-2.97,2.48-2.85,4.38.02,1.89,1.74,3.23,3.37,3.84,4.15,1.55,8.67,2.21,12.48,4.57,2.59,1.56,4.58,4.21,4.96,7.25.14,2.27.23,4.65-.74,6.77-1.05,2.65-3.3,4.65-5.84,5.84-6.34,2.7-14.08,2.03-19.69-2.03-1.81-1.23-3.04-3.09-4.1-4.96,1.97-1.27,3.79-2.78,5.8-4,1.24,2.17,3.14,4,5.52,4.83,2.89.99,6.33,1.23,9.02-.43,1.83-1.1,2.37-3.58,1.69-5.5-.65-1.38-2.06-2.15-3.45-2.62-3.56-1.25-7.35-1.84-10.73-3.58-2.52-1.27-4.7-3.42-5.6-6.14-.99-2.76-.66-5.86.55-8.5Z"/>
      <path class="cls-2" d="M203.6,26.64c2.57,0,5.13.01,7.7-.01-.01,2.61,0,5.21,0,7.82,2.73-.11,5.46.03,8.19-.08,0,2.19,0,4.38,0,6.58-2.73-.13-5.46.02-8.19-.09,0,4.25,0,8.5,0,12.75-.04.78.21,1.53.38,2.28.54,1.02,1.38,1.95,2.52,2.28,1.65.56,3.42.02,4.93-.72.17,1.93.29,3.89.65,5.79-.19.14-.57.41-.76.55-3.47,1.48-7.57,1.55-11.02-.01-1.49-.76-2.73-1.95-3.47-3.45-1.04-2.33-.89-4.93-.9-7.42.05-4-.07-8,.05-12-1.67-.02-3.34-.05-5.01.05-.02-2.2.02-4.4-.02-6.6,1.66.1,3.33.05,5.01.06-.07-2.59.02-5.18-.06-7.77Z"/>
      <path class="cls-2" d="M314.81,34.56c3.51-1.27,7.44-1.41,11-.26,2.99.94,5.26,3.43,6.53,6.22-1.75.77-3.45,1.64-5.19,2.43-1.1-1.74-2.82-3.16-4.94-3.33-1.44,0-2.98-.21-4.26.56-.89.33-1.34,1.25-1.55,2.13-.13,1.22.79,2.21,1.84,2.68,3.88,1.32,8.3,1.34,11.69,3.91,4.21,3.02,3.95,10.01.02,13.15-3.24,2.69-7.78,3.44-11.85,2.82-3-.41-6.03-1.57-8.13-3.8-.84-.81-1.58-1.77-1.86-2.91,1.82-.77,3.35-2.24,5.2-2.87,1.62,2.3,4.32,3.86,7.17,3.77,1.51.08,3.16-.09,4.36-1.1.92-.76.96-2.12.64-3.18-.77-1.31-2.34-1.69-3.69-2.1-2.95-.84-6.12-1.16-8.79-2.77-1.49-.93-2.66-2.33-3.35-3.94-.76-2.58-.74-5.6.85-7.87.98-1.65,2.63-2.74,4.34-3.53Z"/>
      <path class="cls-2" d="M140.79,35.25c4.26-2.03,9.47-2.03,13.73,0,3.06,1.54,5.49,4.32,6.46,7.62.88,2.75.89,5.66.85,8.52-7.06-.11-14.12.13-21.18-.08.05,1.21.4,2.38.76,3.53.84,1.88,2.6,3.23,4.63,3.6,3.55.76,7.93.07,10.08-3.16,1.52,1.29,3.2,2.37,4.8,3.57-1.85,3.55-5.77,5.73-9.7,6.03-3.77.61-7.77.01-11.15-1.79-3.38-1.96-6.02-5.3-6.71-9.19-.68-3.91-.66-8.09.89-11.8,1.3-2.97,3.65-5.39,6.54-6.85ZM143.73,40.93c-1.84,1.14-2.62,3.23-3.08,5.24,4.57.01,9.15-.03,13.72.02-.23-1.6-.77-3.21-1.86-4.43-2.28-2.21-6.1-2.43-8.78-.84Z"/>
      <path class="cls-2" d="M174.44,38.07c2.4-2.87,6.13-4.6,9.89-4.29,3.9-.21,7.84,2.05,9.48,5.62.69,1.69,1.19,3.49,1.11,5.33-.02,6.57,0,13.15,0,19.73-2.62-.03-5.23-.04-7.85,0v-16.65c.21-2.61-.63-5.61-3.2-6.78-1.93-.63-4.05-.5-5.89.35-1.86.99-3.15,2.93-3.18,5.05-.01,6.02,0,12.04,0,18.06-2.61-.11-5.23-.08-7.85-.03v-30.02c2.51.03,5.03.06,7.55-.02-.05,1.22-.04,2.44-.04,3.66Z"/>
      <path class="cls-2" d="M287.19,33.89c3.38-.35,6.92-.18,10.03,1.33,2.69,1.24,4.96,3.31,6.46,5.86.22.46.45.91.69,1.36,1.22,2.97,1.56,6.27,1.13,9.44-.55,4.84-3.74,9.19-8.02,11.44-5.96,2.99-13.79,2.14-18.7-2.48-1.4-1.44-2.47-3.17-3.27-5-1.56-4.3-1.57-9.22.33-13.4.24-.45.47-.9.7-1.35,2.21-3.87,6.28-6.48,10.65-7.2ZM282.44,46.9c-.42,2.53-.31,5.26.91,7.57.79,1.25,1.8,2.41,3.1,3.14.18.09.54.26.72.34,2.49.86,5.55.68,7.53-1.22,2.63-2.12,3.46-5.75,3.1-8.98-.32-2.81-1.83-5.69-4.5-6.88-1.41-.77-3.06-.66-4.6-.56-3.26.55-5.65,3.45-6.27,6.59Z"/>
      <path class="cls-2" d="M224.96,34.41c2.72.05,5.45.05,8.17.01-.02,10,.02,20-.03,29.99-2.68-.04-5.36.02-8.04-.03-.13-9.99.04-19.99-.1-29.98Z"/>
      <circle class="cls-1" cx="42.58" cy="42.58" r="42.58"/>
      <path class="cls-2" d="M32.81,20.01c3.52-2.19,7.66-3.28,11.78-3.47,3.61-.11,7.29.29,10.65,1.7.91.35,1.71,1.08,1.96,2.04.24,1.2-.47,2.51-1.61,2.96-1.16.59-2.37-.18-3.51-.42-4.55-1.38-9.6-1.23-13.97.7-.59.28-1.18.55-1.76.85-3.2,1.87-5.98,4.66-7.35,8.15-1.16,2.84-1.49,6.09-.55,9.04,1.12,3.8,4.11,6.82,7.61,8.54.31.14.62.29.94.44,1.82.81,3.73,1.36,5.65,1.86,1.05.23,1.95,1.07,2.29,2.09.39,1.57-.99,3.32-2.64,3.22-1.82-.11-3.52-.88-5.24-1.43-5.27-1.77-10.22-5.19-12.81-10.22-.07-.15-.22-.44-.29-.59-2.12-4.6-2.07-10.05-.29-14.75.44-.98.92-1.95,1.43-2.89,1.9-3.17,4.55-5.89,7.71-7.82Z"/>
      <path class="cls-2" d="M40.08,28.67c2.75-1.23,5.84-1.2,8.78-.86,1.46.2,3.18.77,3.66,2.33.65,1.68-1.11,3.61-2.83,3.17-1.88-.53-3.87-.97-5.8-.49-1.68.29-3.34,1.21-4.14,2.77-.21.84-.53,1.74-.14,2.58.39,1.57,1.85,2.5,3.29,3.01,2.15.74,4.39,1.22,6.49,2.14,3.08,1.46,5.65,4.02,6.93,7.2,1.35,3.22,1.3,7.05-.3,10.18-1.91,3.7-5.48,6.3-9.35,7.65-5.38,1.87-11.45,1.27-16.55-1.16-1.06-.44-2.3-1-2.61-2.22-.68-1.67.94-3.7,2.74-3.33,1.78.33,3.39,1.32,5.17,1.74,3.91,1.19,8.41.93,11.87-1.36,2.05-1.41,3.93-3.43,4.34-5.97.43-3.17-1.33-6.49-4.26-7.84-2.82-1.23-5.92-1.7-8.72-2.99-1.72-.88-3.26-2.23-4.07-4.01-1.04-2.2-.89-4.82.01-7.04,1.06-2.18,2.77-4.05,4.91-5.21l.59-.29Z"/>
    </g>
  </g>
</svg>