<?xml version="1.0" encoding="UTF-8"?>
<svg id="Layer_2" data-name="Layer 2" xmlns="http://www.w3.org/2000/svg" viewBox="0 0 120.28 120.28">
  <defs>
    <style>
      .cls-1 {
        fill: #231f20;
      }

      .cls-2 {
        fill: #faf6ee;
      }

      .cls-3 {
        fill: #fff;
      }
    </style>
  </defs>
  <g id="Layer_1" data-name="Layer 1">
    <g>
      <circle class="cls-2" cx="60.14" cy="60.14" r="60.14"/>
      <g>
        <path class="cls-1" d="M60.64,97.14c-20.64,0-37.44-16.79-37.44-37.44S40,22.26,60.64,22.26s37.44,16.79,37.44,37.44-16.79,37.44-37.44,37.44ZM60.64,28.86c-17,0-30.84,13.83-30.84,30.84s13.83,30.84,30.84,30.84,30.84-13.83,30.84-30.84-13.83-30.84-30.84-30.84Z"/>
        <g>
          <path class="cls-1" d="M26.3,87.96c2.68-2.5,5.28-5.09,7.91-7.65,1.54-1.41,3.65-2.24,5.75-2.13,1.59.08,3.19-.45,4.78-.16,2.08,1.7,3.89,3.69,5.72,5.65,1.66,1.67,3.19,3.46,4.85,5.13.46.62,1.09,1.12,1.52,1.76h4.28c-.31-.18-.54-.52-.81-.75-2.06-2.26-4.2-4.45-6.26-6.71-.65-.73-1.43-1.34-2-2.13,6.53,1.03,13.45-1.32,18.14-5.95,3.26-3.07,5.39-7.24,6.24-11.61.73-3.63.4-7.37-.25-10.99-.15-1.8-.23-3.89,1.12-5.29,2.01-2.04,4.83-2.87,7.3-4.17-1.57-.85-3.51-.72-5.26-.66-.72,0-1.47.35-2.18.1-1.88-3.13-5.47-5.21-9.15-5.01-1.74-.12-3.48.25-5.07.96-2.05.89-3.65,2.6-4.73,4.52-1.01,1.8-1.54,3.81-2.48,5.64-.88,1.73-2,3.36-3.42,4.69-3.34,3.38-6.81,6.63-9.97,10.18-1.07,1.09-2.15,2.18-3.13,3.36-1.84,1.8-3.48,3.78-5.32,5.59-1.25,1.45-2.6,2.81-3.94,4.17-1.19,1.43-2.52,2.73-3.82,4.05-2.11,2.37-5.45,5.11-7.58,7.47l7.77-.07ZM62.19,77.93c-2.5,1.2-5.35,1.59-8.09,1.35-1.33-.14-2.58-.62-3.87-.98-.01-.07-.04-.23-.05-.3,1.56-.51,3.01-1.28,4.45-2.06,2.19-1.17,4.09-2.8,6.33-3.87,1.7-.93,3.67-1.15,5.39-2.01,1.24-.47,2.33-1.25,3.5-1.85-1.2,4.05-3.9,7.73-7.67,9.72ZM68.98,43.23c.86-.2,1.87.03,2.26.89.55.91.06,2.18-.89,2.59-.87.48-2.06.03-2.43-.88-.49-.96.1-2.19,1.06-2.6ZM40.24,74.53c4.63-1.24,9.13-2.97,13.39-5.17,4.08-2.09,7.58-5.28,9.94-9.22-4.25.07-8.51.04-12.77.02.58-.82,1.41-1.44,2.12-2.15.28-.37.76-.31,1.17-.31,4.64.03,9.28-.05,13.92.04-1.53,3.61-3.82,6.91-6.67,9.61-3.09,3.2-7.23,5.18-11.47,6.36-4.3.96-8.68,1.59-13.04,2.09-.02-.08-.05-.23-.06-.3,1.2-.16,2.31-.67,3.48-.97Z"/>
          <path class="cls-3" d="M66.24,70.17c1.24-.47,2.33-1.25,3.5-1.85-1.2,4.05-3.9,7.73-7.67,9.72-2.5,1.2-5.35,1.59-8.09,1.35-1.33-.14-2.58-.62-3.86-.98-.01-.07-.04-.23-.05-.3,1.56-.51,3.01-1.28,4.45-2.06,2.19-1.17,4.09-2.8,6.33-3.87,1.7-.93,3.67-1.15,5.39-2.01Z"/>
        </g>
        <path class="cls-3" d="M52.93,57.82c.28-.38.78-.31,1.19-.31,4.74.04,9.49-.05,14.23.04-1.56,3.69-3.9,7.06-6.81,9.82-3.16,3.27-7.39,5.29-11.72,6.5-4.39.98-8.86,1.63-13.33,2.13-.02-.08-.05-.23-.06-.31,1.23-.17,2.36-.69,3.56-.99,4.73-1.26,9.33-3.03,13.68-5.28,4.17-2.13,7.75-5.4,10.16-9.42-4.35.07-8.7.04-13.05.02.59-.84,1.44-1.47,2.17-2.19Z"/>
      </g>
    </g>
  </g>
</svg>