<?xml version="1.0" encoding="UTF-8"?>
<svg id="Layer_2" data-name="Layer 2" xmlns="http://www.w3.org/2000/svg" viewBox="0 0 394.36 394.36">
  <defs>
    <style>
      .cls-1 {
        fill: #fff;
      }

      .cls-2 {
        fill: #228b22;
      }
    </style>
  </defs>
  <g id="Layer_1" data-name="Layer 1">
    <g>
      <circle class="cls-2" cx="197.18" cy="197.18" r="197.18"/>
      <g>
        <g>
          <path class="cls-1" d="M113.04,251.4c.76-1.58,2.69-1.71,4.22-1.69,9.52.09,19.03-.02,28.54.04,1.64-.11,3.37.96,3.58,2.68.2,2.35.57,5.05-.96,7.06-4.63,6.39-9.12,12.88-13.73,19.29-2.84,4.12-5.88,8.09-8.62,12.28,6.17.09,12.34,0,18.52.03,1.45.03,3.24.22,4.02,1.64,1.21,2.43,1.46,7.1-1.86,7.88-1.79.4-3.64.23-5.45.25-8.57-.03-17.14-.02-25.7,0-1.56.07-3.27-.72-3.75-2.31-.7-2.32-.48-5.02,1.03-6.98,7.54-10.58,14.81-21.35,22.35-31.92-6.27-.02-12.54,0-18.81.01-1.56.1-3.32-.64-3.73-2.27-.45-1.96-.48-4.14.35-5.99Z"/>
          <path class="cls-1" d="M263.13,263.17c6.68-.88,13.71,2.06,17.71,7.5,9.47,12.79.78,31.36-15.51,30.96-24.56-.26-26.34-35.11-2.2-38.46ZM264.32,272.2c-7.86.69-11.04,11.12-6.15,16.8,3.09,3.7,9.18,4.41,12.99,1.44,7.45-5.96,3.15-19.19-6.84-18.24Z"/>
          <path class="cls-1" d="M186.77,267.56v.43c0,1.06,0,2.12,0,3.18,0,1.67,0,3.34,0,5.02,0,6.99,0,13.99-.01,20.98-.11,1.2.02,2.86-1.26,3.47-1.84.84-4.02.89-5.94.32-1.5-.43-2.02-2.04-2.59-3.32-2.34,1.88-5.01,3.48-8.01,3.91-3.29.4-6.85.31-9.78-1.43-3.83-2.26-6.03-6.75-6.04-11.15.02-6.72.04-13.44,0-20.16.03-1.35-.14-2.79.47-4.04.7-1.28,2.28-1.65,3.62-1.73,1.53-.05,3.2-.06,4.57.75,1.27.78,1.16,2.46,1.22,3.77-.02,5.49.05,10.98-.06,16.47,0,2.38.35,5.09,2.26,6.71,2.6,2.13,6.61,1.88,9.26-.02,1.71-1.22,2.3-3.43,2.3-5.44.04-5.64,0-11.27,0-16.91.02-.55.05-1.17.16-1.77.04-.63.16-1.25.44-1.83.7-1.28,2.28-1.65,3.62-1.73,1.53-.05,3.2-.06,4.57.75,1.27.78,1.15,2.46,1.22,3.77Z"/>
          <path class="cls-1" d="M186.77,276.4h-.01c0-1.66,0-3.32,0-4.97,0,1.66,0,3.32,0,4.97Z"/>
          <path class="cls-1" d="M256.49,242.46c.98-.09,1.99-.23,2.97-.04.51.03.58.64.71,1.04.8,4.62-.43,9.6-3.46,13.2-2.59,3.11-7.06,4.49-10.96,3.47,1.3-1.01,2.72-1.86,3.86-3.05,2.67-2.66,5.12-5.8,6.01-9.53-2.12,2.53-3.93,5.37-6.56,7.43-1.57,1.3-3.36,2.3-5.25,3.05-.9-3.02-.28-6.32,1.19-9.06.85-1.65,2.09-3.13,3.69-4.1,2.35-1.42,5.07-2.16,7.79-2.42Z"/>
          <path class="cls-1" d="M245.07,296.14c0,2.17-1.28,3.85-3.51,4.67-1.87.66-4.17.94-6.16.94-7.4,0-13.14-3.85-13.14-13.29v-16.94h-15.61v15.55c0,3.83,1.97,5.56,4.81,5.56,1.02,0,2.01-.2,2.59-.34.81-.2,1.31-.25,1.78-.25,2.21,0,3.94,1.69,3.94,4.1,0,2.17-1.28,3.85-3.51,4.67-1.87.66-4.17.94-6.16.94-7.4,0-13.14-3.85-13.14-13.29v-16.94h-2.15c-2.28,0-4.13-1.91-4.13-4.26s1.85-4.26,4.13-4.26h2.15v-8.25c0-2.76,2.16-4.99,4.84-4.99s4.84,2.23,4.84,4.99v8.25h15.61v-8.25c0-2.76,2.16-4.99,4.84-4.99s4.84,2.23,4.84,4.99v8.25h8.04c2.28,0,4.13,1.9,4.13,4.26s-1.85,4.26-4.13,4.26h-8.04v15.55c0,3.83,1.97,5.56,4.81,5.56,1.02,0,2.01-.2,2.59-.34.81-.2,1.31-.25,1.78-.25,2.21,0,3.94,1.69,3.94,4.1Z"/>
        </g>
        <g>
          <path class="cls-1" d="M186.44,87.33c25.54-6.54,52.59,10.53,61.06,34.74,6.33,15.58,3.13,33.08-3.26,48.08-7.66,17.39-21.94,30.47-35.46,43.29-4.15,3.4-10.02,9.25-15.41,4.69-20.87-15.65-40.03-36.03-47.17-61.76-8.99-28.76,11.14-62.3,40.24-69.03Z"/>
          <path class="cls-2" d="M209.51,113.65c2.58-.24,5.21-.6,7.79-.09,1.34.08,1.53,1.69,1.86,2.72,2.09,12.11-1.13,25.17-9.07,34.63-6.79,8.17-18.5,11.78-28.73,9.11,3.4-2.64,7.13-4.87,10.13-8,7-6.98,13.42-15.2,15.77-24.99-5.55,6.65-10.32,14.08-17.2,19.48-4.11,3.42-8.81,6.04-13.76,8-2.35-7.92-.73-16.58,3.12-23.76,2.23-4.33,5.47-8.2,9.67-10.74,6.16-3.74,13.29-5.68,20.43-6.36Z"/>
        </g>
      </g>
    </g>
  </g>
</svg>